<svg width="104" height="104" viewBox="0 0 104 104" fill="none" xmlns="http://www.w3.org/2000/svg">
<g clip-path="url(#clip0)">
<path d="M76.2764 15.6V78L52.0097 102.267H13.8764C11.9642 102.261 10.4154 100.712 10.4097 98.8V19.0667C10.4154 17.1545 11.964 15.6057 13.8764 15.6H76.2764V15.6Z" fill="#B8FFE4"/>
<path d="M71.0764 15.6V78L52.0097 102.267H13.8764C11.9642 102.261 10.4154 100.712 10.4097 98.8V19.0667C10.4154 17.1545 11.964 15.6057 13.8764 15.6H71.0764V15.6Z" fill="white"/>
<path d="M52.0093 102.267V81.4667C52.0093 79.5521 53.5614 78 55.476 78H76.276L52.0093 102.267Z" fill="#B8FFE4"/>
<path d="M93.6095 19.0667H84.9427V55.4667C84.9371 57.3789 83.3882 58.9278 81.476 58.9335H64.1427C62.2305 58.9278 60.6817 57.3791 60.676 55.4667V19.0667H52.0093L72.8093 1.73346L93.6095 19.0667Z" fill="#B8FFE4"/>
<path d="M86.6765 19.0667H79.7433V55.4667C79.7376 57.3789 78.1889 58.9278 76.2765 58.9335H64.1432C62.231 58.9278 60.6822 57.3791 60.6765 55.4667V19.0667H52.0098L69.1265 4.98346L86.6765 19.0667Z" fill="white"/>
<path d="M19.0764 15.6H13.8764C11.9642 15.6057 10.4154 17.1543 10.4097 19.0668V98.8C10.4154 100.712 11.9642 102.261 13.8764 102.267H19.0764C17.1642 102.261 15.6154 100.712 15.6097 98.8V19.0668C15.6152 17.1543 17.164 15.6055 19.0764 15.6Z" fill="white"/>
<path d="M12.1428 19.0667V41.6V98.8H8.67627V41.6V19.0667H12.1428Z" fill="white"/>
<path d="M8.67822 98.8C8.68127 101.671 11.0077 103.997 13.8782 104H52.0115C52.4714 103.998 52.9119 103.815 53.2382 103.491L77.5023 79.2269L77.5082 79.2194C77.6463 79.0762 77.7582 78.91 77.8392 78.7282C77.8616 78.6746 77.8809 78.6199 77.8975 78.5643C77.9491 78.4166 77.9802 78.2626 77.99 78.1066C77.9924 78.0693 78.0115 78.0376 78.0115 77.9996V60.6663H81.4782C84.3488 60.6633 86.6752 58.3369 86.6782 55.4663V20.8H93.6115C94.3415 20.8002 94.9936 20.343 95.242 19.6566C95.4904 18.9703 95.2822 18.2016 94.7212 17.7344L73.9212 0.401182C73.2781 -0.133646 72.3451 -0.133646 71.702 0.401182L55.5434 13.8667H13.8782C11.0077 13.8698 8.68127 16.1962 8.67822 19.0667V26C8.67822 26.9573 9.45436 27.7333 10.4115 27.7333C11.3686 27.7333 12.1448 26.9571 12.1448 26V19.0667C12.1458 18.1098 12.9211 17.3343 13.878 17.3335H51.3832L50.9018 17.7346C50.3408 18.2016 50.1324 18.9703 50.381 19.6568C50.6294 20.3432 51.2815 20.8004 52.0115 20.8002H58.9448V55.4669C58.9478 58.3375 61.2742 60.6639 64.1448 60.6669H74.5448V76.2669H55.478C52.6075 76.27 50.2811 78.5964 50.278 81.4669V100.534H13.878C12.9211 100.533 12.1456 99.7573 12.1448 98.8004V39.8667C12.1448 38.9094 11.3686 38.1335 10.4115 38.1335C9.45436 38.1335 8.67822 38.9096 8.67822 39.8667V98.8V98.8ZM62.4115 55.4667V19.0667C62.4117 18.6071 62.2291 18.1661 61.9039 17.8409C61.5789 17.5159 61.1379 17.3333 60.678 17.3333H56.7994L72.8115 3.98959L88.8236 17.3333H84.9448C84.4851 17.3331 84.0441 17.5157 83.7189 17.8409C83.3939 18.1659 83.2113 18.6069 83.2113 19.0667V55.4667C83.2103 56.4237 82.4349 57.1992 81.478 57.2H64.1448C63.1878 57.199 62.4125 56.4235 62.4115 55.4667ZM53.7448 81.4667C53.7458 80.5098 54.5211 79.7343 55.478 79.7335H72.0937L53.7448 98.0824V81.4667Z" fill="#25E39A"/>
<path d="M10.4098 34.6667C11.1105 34.6639 11.7415 34.241 12.0102 33.5938C12.2789 32.9465 12.1333 32.2012 11.6405 31.7027L11.3807 31.4945C11.284 31.4287 11.179 31.3761 11.0683 31.3379C10.97 31.2879 10.8648 31.2532 10.7561 31.2347C10.6415 31.2152 10.526 31.2036 10.4098 31.2002C9.95091 31.2065 9.51135 31.3861 9.17903 31.7029C8.75856 32.108 8.57392 32.6999 8.68971 33.2723C8.80549 33.8447 9.20544 34.3182 9.75042 34.5282C9.95903 34.6168 10.1831 34.6639 10.4098 34.6667Z" fill="#25E39A"/>
<path d="M20.8099 52H53.7432C54.7005 52 55.4765 51.2238 55.4765 50.2667C55.4765 49.3096 54.7005 48.5334 53.7432 48.5334H20.8099C19.8526 48.5334 19.0767 49.3096 19.0767 50.2667C19.0767 51.2238 19.8526 52 20.8099 52Z" fill="#25E39A"/>
<path d="M20.8099 60.6667H53.7432C54.7005 60.6667 55.4765 59.8908 55.4765 58.9335C55.4765 57.9761 54.7005 57.2002 53.7432 57.2002H20.8099C19.8526 57.2002 19.0767 57.9761 19.0767 58.9335C19.0767 59.8908 19.8526 60.6667 20.8099 60.6667Z" fill="#25E39A"/>
<path d="M20.8099 69.3333H53.7432C54.7005 69.3333 55.4765 68.5571 55.4765 67.6C55.4765 66.6429 54.7005 65.8668 53.7432 65.8668H20.8099C19.8526 65.8668 19.0767 66.6427 19.0767 67.6C19.0767 68.5573 19.8526 69.3333 20.8099 69.3333Z" fill="#25E39A"/>
<path d="M20.8099 78H43.3432C44.3005 78 45.0765 77.2241 45.0765 76.2667C45.0765 75.3094 44.3003 74.5334 43.3432 74.5334H20.8099C19.8526 74.5334 19.0767 75.3096 19.0767 76.2667C19.0767 77.2239 19.8526 78 20.8099 78Z" fill="#25E39A"/>
<path d="M20.8099 86.6667H43.3432C44.3005 86.6667 45.0765 85.8908 45.0765 84.9335C45.0765 83.9761 44.3003 83.2002 43.3432 83.2002H20.8099C19.8526 83.2002 19.0767 83.9761 19.0767 84.9335C19.0767 85.8908 19.8526 86.6667 20.8099 86.6667Z" fill="#25E39A"/>
</g>
<defs>
<clipPath id="clip0">
<rect width="104" height="104" fill="white"/>
</clipPath>
</defs>
</svg>
