<svg width="96" height="96" viewBox="0 0 96 96" fill="none" xmlns="http://www.w3.org/2000/svg">
<path d="M76.7631 59.1716C75.9603 59.1777 75.1588 59.2386 74.3643 59.3539C83.069 60.5424 89.558 67.9776 89.558 76.7631C89.558 85.5486 83.069 92.9839 74.3643 94.1724C80.8749 95.0742 87.3449 92.2697 91.1377 86.9016C94.9305 81.5335 95.4127 74.4982 92.3877 68.6628C89.3628 62.8275 83.3359 59.1664 76.7631 59.1716Z" fill="#B8FFE4"/>
<path d="M87.9579 7.99615H83.1602C84.9244 8.00142 86.3534 9.43034 86.3586 11.1946V23.9885C86.3534 25.7527 84.9244 27.1817 83.1602 27.1869H87.9579C89.7221 27.1817 91.151 25.7527 91.1563 23.9885V11.1946C91.151 9.43034 89.7221 8.00142 87.9579 7.99615Z" fill="#B8FFE4"/>
<path d="M20.9668 1.86829H19.5137C18.7111 1.86829 18.0605 3.26242 18.0605 4.98218V14.3239C18.0605 16.0436 18.7111 17.4378 19.5137 17.4378H20.9668C21.7694 17.4378 22.42 16.0436 22.42 14.3239V4.98218C22.42 3.26242 21.7694 1.86829 20.9668 1.86829Z" fill="#B8FFE4"/>
<path d="M78.4701 1.86829H77.2246C76.5367 1.86829 75.979 3.28777 75.979 5.0388V16.1356C75.979 17.8866 76.5367 19.3061 77.2246 19.3061H78.4701C79.158 19.3061 79.7157 17.8866 79.7157 16.1356V5.0388C79.7157 3.28777 79.158 1.86829 78.4701 1.86829Z" fill="#B8FFE4"/>
<path d="M81.561 27.187V59.8385C83.2624 60.3152 84.8805 61.0503 86.3587 62.0182V27.187H81.561Z" fill="#B8FFE4"/>
<path d="M4.79758 27.1869H6.39682V87.9577C6.40209 89.722 7.831 91.1509 9.59528 91.1562H14.393C12.6287 91.1509 11.1998 89.722 11.1945 87.9577V27.1869H9.59528C7.831 27.1817 6.40209 25.7527 6.39682 23.9885V11.1946C6.40209 9.43034 7.831 8.00142 9.59528 7.99615H4.79758C3.03331 8.00142 1.60439 9.43034 1.59912 11.1946V23.9885C1.60439 25.7527 3.03331 27.1817 4.79758 27.1869Z" fill="white"/>
<path d="M4.79785 75.1639H7.99632V87.9577H4.79785V75.1639Z" fill="white"/>
<path d="M87.9578 61.2074V28.7862C90.6074 28.7862 92.7554 26.6382 92.7554 23.9885V11.1946C92.7554 8.54493 90.6074 6.39693 87.9578 6.39693H81.5608V4.7977C81.5608 2.148 79.4128 0 76.7631 0H73.5647C70.915 0 68.767 2.148 68.767 4.7977V6.39693H23.9885V4.7977C23.9885 2.148 21.8405 0 19.1908 0H15.9923C13.3426 0 11.1946 2.148 11.1946 4.7977V6.39693H4.7977C2.148 6.39693 0 8.54493 0 11.1946V23.9885C0 26.6382 2.148 28.7862 4.7977 28.7862V75.1639C4.7977 76.0471 5.5137 76.7631 6.39693 76.7631C7.28016 76.7631 7.99616 76.0471 7.99616 75.1639V28.7862H84.7593V59.3315C83.7097 58.8491 82.6182 58.4637 81.4985 58.1801C81.5293 57.9786 81.5501 57.7758 81.5608 57.5723C81.5676 55.0815 80.1279 52.8131 77.8711 51.759C75.6143 50.7049 72.9508 51.0566 71.045 52.6605C69.1392 54.2643 68.3377 56.8286 68.9909 59.2323C63.9984 61.4557 60.1845 65.6939 58.4983 70.8923C55.8183 69.7326 52.693 70.535 50.9032 72.8424C49.1133 75.1498 49.1133 78.3764 50.9032 80.6839C52.693 82.9913 55.8183 83.7937 58.4983 82.6339C59.3303 85.1973 60.6937 87.5564 62.4996 89.557H9.59539C8.71216 89.557 7.99616 88.841 7.99616 87.9578C7.99616 87.0745 7.28016 86.3585 6.39693 86.3585C5.5137 86.3585 4.7977 87.0745 4.7977 87.9578C4.7977 90.6074 6.9457 92.7554 9.59539 92.7554H66.1778C74.8854 98.5204 86.6053 96.2558 92.5383 87.6619C98.4714 79.0679 96.4348 67.3062 87.9578 61.2074V61.2074ZM71.9654 4.7977C71.9654 3.91446 72.6814 3.19846 73.5647 3.19846H76.7631C77.6464 3.19846 78.3624 3.91446 78.3624 4.7977V15.9923C78.3624 16.8755 77.6464 17.5916 76.7631 17.5916H73.5647C72.6814 17.5916 71.9654 16.8755 71.9654 15.9923V4.7977ZM14.3931 4.7977C14.3931 3.91446 15.1091 3.19846 15.9923 3.19846H19.1908C20.074 3.19846 20.79 3.91446 20.79 4.7977V14.3931C20.79 15.2763 20.074 15.9923 19.1908 15.9923H15.9923C15.1091 15.9923 14.3931 15.2763 14.3931 14.3931V4.7977ZM3.19846 23.9885V11.1946C3.19846 10.3114 3.91446 9.59539 4.7977 9.59539H11.1946V14.3931C11.1946 17.0428 13.3426 19.1908 15.9923 19.1908H19.1908C21.8405 19.1908 23.9885 17.0428 23.9885 14.3931V9.59539H68.767V15.9923C68.767 18.642 70.915 20.79 73.5647 20.79H76.7631C79.4128 20.79 81.5608 18.642 81.5608 15.9923V9.59539H87.9578C88.841 9.59539 89.557 10.3114 89.557 11.1946V23.9885C89.557 24.8717 88.841 25.5877 87.9578 25.5877H4.7977C3.91446 25.5877 3.19846 24.8717 3.19846 23.9885ZM71.9654 57.5723C71.9654 55.8059 73.3974 54.3739 75.1639 54.3739C76.9304 54.3739 78.3624 55.8059 78.3624 57.5723C78.3624 57.5995 78.3544 57.6251 78.3544 57.6523C77.8282 57.6091 77.3005 57.5723 76.7631 57.5723C75.1729 57.5785 73.5897 57.7831 72.0502 58.1817C72.0025 57.9817 71.9741 57.7777 71.9654 57.5723ZM55.9731 79.9616C54.2067 79.9616 52.7747 78.5296 52.7747 76.7631C52.7747 74.9967 54.2067 73.5647 55.9731 73.5647C56.6176 73.5619 57.2471 73.7585 57.7754 74.1276C57.504 75.8763 57.504 77.6564 57.7754 79.4051C57.2464 79.7719 56.6169 79.9663 55.9731 79.9616V79.9616ZM76.7631 92.7554C67.9308 92.7554 60.7708 85.5954 60.7708 76.7631C60.7708 67.9308 67.9308 60.7708 76.7631 60.7708C85.5954 60.7708 92.7554 67.9308 92.7554 76.7631C92.7458 85.5914 85.5914 92.7458 76.7631 92.7554Z" fill="#25E39A"/>
<path d="M84.7595 75.1639H78.3626V68.767C78.3626 67.8837 77.6466 67.1677 76.7634 67.1677C75.8801 67.1677 75.1641 67.8837 75.1641 68.767V75.1639H68.7672C67.884 75.1639 67.168 75.8799 67.168 76.7631C67.168 77.6463 67.884 78.3623 68.7672 78.3623H75.1641V84.7593C75.1641 85.6425 75.8801 86.3585 76.7634 86.3585C77.6466 86.3585 78.3626 85.6425 78.3626 84.7593V78.3623H84.7595C85.6428 78.3623 86.3588 77.6463 86.3588 76.7631C86.3588 75.8799 85.6428 75.1639 84.7595 75.1639Z" fill="#25E39A"/>
<path d="M6.42903 83.1601C5.54579 83.1645 4.82621 82.4521 4.8218 81.5688C4.81738 80.6856 5.5298 79.966 6.41303 79.9616H6.42903C7.31226 79.9616 8.02826 80.6776 8.02826 81.5608C8.02826 82.4441 7.31226 83.1601 6.42903 83.1601Z" fill="#25E39A"/>
<path d="M36.7822 44.7785C40.3151 44.7785 43.1791 41.9145 43.1791 38.3815C43.1791 34.8486 40.3151 31.9846 36.7822 31.9846C33.2493 31.9846 30.3853 34.8486 30.3853 38.3815C30.3853 41.9145 33.2493 44.7785 36.7822 44.7785ZM36.7822 35.1831C38.5486 35.1831 39.9806 36.6151 39.9806 38.3815C39.9806 40.148 38.5486 41.58 36.7822 41.58C35.0157 41.58 33.5837 40.148 33.5837 38.3815C33.5837 36.6151 35.0157 35.1831 36.7822 35.1831Z" fill="#25E39A"/>
<path d="M55.9731 44.7785C59.506 44.7785 62.37 41.9145 62.37 38.3815C62.37 34.8486 59.506 31.9846 55.9731 31.9846C52.4402 31.9846 49.5762 34.8486 49.5762 38.3815C49.5762 41.9145 52.4402 44.7785 55.9731 44.7785ZM55.9731 35.1831C57.7396 35.1831 59.1716 36.6151 59.1716 38.3815C59.1716 40.148 57.7396 41.58 55.9731 41.58C54.2066 41.58 52.7746 40.148 52.7746 38.3815C52.7746 36.6151 54.2066 35.1831 55.9731 35.1831Z" fill="#25E39A"/>
<path d="M75.164 44.7785C78.6969 44.7785 81.5609 41.9145 81.5609 38.3815C81.5609 34.8486 78.6969 31.9846 75.164 31.9846C71.6311 31.9846 68.7671 34.8486 68.7671 38.3815C68.7671 41.9145 71.6311 44.7785 75.164 44.7785ZM75.164 35.1831C76.9305 35.1831 78.3625 36.6151 78.3625 38.3815C78.3625 40.148 76.9305 41.58 75.164 41.58C73.3976 41.58 71.9656 40.148 71.9656 38.3815C71.9656 36.6151 73.3976 35.1831 75.164 35.1831Z" fill="#25E39A"/>
<path d="M17.5913 63.9693C21.1242 63.9693 23.9882 61.1053 23.9882 57.5723C23.9882 54.0394 21.1242 51.1754 17.5913 51.1754C14.0583 51.1754 11.1943 54.0394 11.1943 57.5723C11.1943 61.1053 14.0583 63.9693 17.5913 63.9693ZM17.5913 54.3739C19.3577 54.3739 20.7897 55.8059 20.7897 57.5723C20.7897 59.3388 19.3577 60.7708 17.5913 60.7708C15.8248 60.7708 14.3928 59.3388 14.3928 57.5723C14.3928 55.8059 15.8248 54.3739 17.5913 54.3739Z" fill="#25E39A"/>
<path d="M36.7822 63.9693C40.3151 63.9693 43.1791 61.1053 43.1791 57.5723C43.1791 54.0394 40.3151 51.1754 36.7822 51.1754C33.2493 51.1754 30.3853 54.0394 30.3853 57.5723C30.3853 61.1053 33.2493 63.9693 36.7822 63.9693ZM36.7822 54.3739C38.5486 54.3739 39.9806 55.8059 39.9806 57.5723C39.9806 59.3388 38.5486 60.7708 36.7822 60.7708C35.0157 60.7708 33.5837 59.3388 33.5837 57.5723C33.5837 55.8059 35.0157 54.3739 36.7822 54.3739Z" fill="#25E39A"/>
<path d="M55.9731 63.9693C59.506 63.9693 62.37 61.1053 62.37 57.5723C62.37 54.0394 59.506 51.1754 55.9731 51.1754C52.4402 51.1754 49.5762 54.0394 49.5762 57.5723C49.5762 61.1053 52.4402 63.9693 55.9731 63.9693ZM55.9731 54.3739C57.7396 54.3739 59.1716 55.8059 59.1716 57.5723C59.1716 59.3388 57.7396 60.7708 55.9731 60.7708C54.2066 60.7708 52.7746 59.3388 52.7746 57.5723C52.7746 55.8059 54.2066 54.3739 55.9731 54.3739Z" fill="#25E39A"/>
<path d="M17.5913 83.1601C21.1242 83.1601 23.9882 80.2961 23.9882 76.7631C23.9882 73.2302 21.1242 70.3662 17.5913 70.3662C14.0583 70.3662 11.1943 73.2302 11.1943 76.7631C11.1943 80.2961 14.0583 83.1601 17.5913 83.1601ZM17.5913 73.5647C19.3577 73.5647 20.7897 74.9967 20.7897 76.7631C20.7897 78.5296 19.3577 79.9616 17.5913 79.9616C15.8248 79.9616 14.3928 78.5296 14.3928 76.7631C14.3928 74.9967 15.8248 73.5647 17.5913 73.5647Z" fill="#25E39A"/>
<path d="M36.7822 83.1601C40.3151 83.1601 43.1791 80.2961 43.1791 76.7631C43.1791 73.2302 40.3151 70.3662 36.7822 70.3662C33.2493 70.3662 30.3853 73.2302 30.3853 76.7631C30.3853 80.2961 33.2493 83.1601 36.7822 83.1601ZM36.7822 73.5647C38.5486 73.5647 39.9806 74.9967 39.9806 76.7631C39.9806 78.5296 38.5486 79.9616 36.7822 79.9616C35.0157 79.9616 33.5837 78.5296 33.5837 76.7631C33.5837 74.9967 35.0157 73.5647 36.7822 73.5647Z" fill="#25E39A"/>
</svg>
