<svg width="98" height="98" viewBox="0 0 98 98" fill="none" xmlns="http://www.w3.org/2000/svg">
<path d="M80.033 8.1667C80.0335 8.53369 80.0007 8.89997 79.935 9.26103L73.4997 8.1667C71.3076 8.15921 69.1307 8.5294 67.0643 9.26103C66.9986 8.89997 66.9658 8.53369 66.9663 8.1667C66.9663 4.55844 69.8914 1.63336 73.4997 1.63336C77.1079 1.63336 80.033 4.55844 80.033 8.1667Z" fill="#B8FFE4"/>
<path d="M45.7334 52.2667V55.5334C45.7334 56.4354 46.4647 57.1667 47.3667 57.1667H52.2667C51.3647 57.1667 50.6334 56.4354 50.6334 55.5334V52.2667C50.6388 50.4648 52.0982 49.0054 53.9001 49V34.3H49.0001V49C47.1982 49.0054 45.7388 50.4648 45.7334 52.2667Z" fill="#B8FFE4"/>
<path d="M84.9332 57.1667V89.8334C84.9332 93.4416 82.0082 96.3667 78.3999 96.3667H83.2999C86.9082 96.3667 89.8332 93.4416 89.8332 89.8334V57.1667H84.9332Z" fill="#B8FFE4"/>
<path d="M50.127 21.2333C49.3768 23.3297 48.9955 25.5401 49 27.7667L49 34.3H53.9V27.7667C53.8955 25.5401 54.2768 23.3297 55.027 21.2333H50.127Z" fill="#B8FFE4"/>
<path d="M8.16654 29.4C9.0686 29.4 9.79987 28.6688 9.79987 27.7667C9.79987 26.8646 9.0686 26.1334 8.16654 26.1334C7.26447 26.1334 6.5332 26.8646 6.5332 27.7667C6.5332 28.6688 7.26447 29.4 8.16654 29.4Z" fill="#B8FFE4"/>
<path d="M14.6997 29.4C15.6018 29.4 16.3331 28.6688 16.3331 27.7667C16.3331 26.8646 15.6018 26.1334 14.6997 26.1334C13.7977 26.1334 13.0664 26.8646 13.0664 27.7667C13.0664 28.6688 13.7977 29.4 14.6997 29.4Z" fill="#B8FFE4"/>
<path d="M21.2334 29.4C22.1355 29.4 22.8668 28.6688 22.8668 27.7667C22.8668 26.8646 22.1355 26.1334 21.2334 26.1334C20.3314 26.1334 19.6001 26.8646 19.6001 27.7667C19.6001 28.6688 20.3314 29.4 21.2334 29.4Z" fill="#B8FFE4"/>
<path d="M73.4998 8.16669C72.6805 8.16974 71.8622 8.22429 71.0498 8.33002C80.8483 9.56013 88.1993 17.8912 88.1998 27.7667V49H93.0998V27.7667C93.0998 16.9419 84.3246 8.16669 73.4998 8.16669Z" fill="#B8FFE4"/>
<path d="M60.4331 29.4C59.5311 29.4 58.7998 28.6688 58.7998 27.7667C58.8088 19.6519 65.3849 13.0757 73.4998 13.0667C74.4019 13.0667 75.1331 13.798 75.1331 14.7C75.1331 15.6021 74.4019 16.3334 73.4998 16.3334C67.1883 16.3406 62.0737 21.4552 62.0665 27.7667C62.0665 28.6688 61.3352 29.4 60.4331 29.4Z" fill="#25E39A"/>
<path d="M96.3666 52.2667V55.5333C96.3666 56.4354 95.6354 57.1667 94.7333 57.1667H52.2666C51.3646 57.1667 50.6333 56.4354 50.6333 55.5333V52.2667C50.6387 50.4648 52.0981 49.0054 53.9 49H93.1C94.9019 49.0054 96.3613 50.4648 96.3666 52.2667Z" fill="#B8FFE4"/>
<path d="M93.0997 49H88.1997C90.0038 49 91.4664 50.4625 91.4664 52.2667V55.5333C91.4664 56.4354 90.7351 57.1667 89.833 57.1667H94.7331C95.6351 57.1667 96.3664 56.4354 96.3664 55.5333V52.2667C96.3664 50.4625 94.9038 49 93.0997 49Z" fill="#B8FFE4"/>
<path d="M60.4331 40.8334C59.5311 40.8334 58.7998 40.1021 58.7998 39.2V34.3C58.7998 33.398 59.5311 32.6667 60.4331 32.6667C61.3352 32.6667 62.0665 33.398 62.0665 34.3V39.2C62.0665 40.1021 61.3352 40.8334 60.4331 40.8334Z" fill="#25E39A"/>
<path d="M8.16663 96.3667H13.0666C9.45837 96.3667 6.5333 93.4416 6.5333 89.8333V27.7667C6.5333 24.1584 9.45837 21.2333 13.0666 21.2333H8.16663C4.55837 21.2333 1.6333 24.1584 1.6333 27.7667V89.8333C1.6333 93.4416 4.55837 96.3667 8.16663 96.3667Z" fill="white"/>
<path d="M0 76.7667H3.26667V89.8333H0V76.7667Z" fill="white"/>
<path d="M1.66594 84.9334C0.76387 84.9379 0.0289452 84.2103 0.0244349 83.3082C0.0199246 82.4061 0.747537 81.6712 1.6496 81.6667H1.66594C2.568 81.6667 3.29927 82.398 3.29927 83.3C3.29927 84.2021 2.568 84.9334 1.66594 84.9334Z" fill="#25E39A"/>
<path d="M8.16654 29.4C9.0686 29.4 9.79987 28.6688 9.79987 27.7667C9.79987 26.8646 9.0686 26.1334 8.16654 26.1334C7.26447 26.1334 6.5332 26.8646 6.5332 27.7667C6.5332 28.6688 7.26447 29.4 8.16654 29.4Z" fill="#25E39A"/>
<path d="M14.7002 29.4C15.6023 29.4 16.3336 28.6688 16.3336 27.7667C16.3336 26.8646 15.6023 26.1334 14.7002 26.1334C13.7982 26.1334 13.0669 26.8646 13.0669 27.7667C13.0669 28.6688 13.7982 29.4 14.7002 29.4Z" fill="#25E39A"/>
<path d="M21.2334 29.4C22.1355 29.4 22.8668 28.6688 22.8668 27.7667C22.8668 26.8646 22.1355 26.1334 21.2334 26.1334C20.3314 26.1334 19.6001 26.8646 19.6001 27.7667C19.6001 28.6688 20.3314 29.4 21.2334 29.4Z" fill="#25E39A"/>
<path d="M9.79984 76.7667H13.0665C13.9686 76.7667 14.6998 76.0354 14.6998 75.1333C14.6998 74.2313 13.9686 73.5 13.0665 73.5H9.79984C8.89777 73.5 8.1665 74.2313 8.1665 75.1333C8.1665 76.0354 8.89777 76.7667 9.79984 76.7667Z" fill="#25E39A"/>
<path d="M44.1001 73.5H19.6001C18.6981 73.5 17.9668 74.2313 17.9668 75.1333C17.9668 76.0354 18.6981 76.7667 19.6001 76.7667H44.1001C45.0022 76.7667 45.7335 76.0354 45.7335 75.1333C45.7335 74.2313 45.0022 73.5 44.1001 73.5Z" fill="#25E39A"/>
<path d="M9.79984 89.8333H13.0665C13.9686 89.8333 14.6998 89.102 14.6998 88.2C14.6998 87.2979 13.9686 86.5667 13.0665 86.5667H9.79984C8.89777 86.5667 8.1665 87.2979 8.1665 88.2C8.1665 89.102 8.89777 89.8333 9.79984 89.8333Z" fill="#25E39A"/>
<path d="M44.1001 86.5667H19.6001C18.6981 86.5667 17.9668 87.2979 17.9668 88.2C17.9668 89.102 18.6981 89.8333 19.6001 89.8333H44.1001C45.0022 89.8333 45.7335 89.102 45.7335 88.2C45.7335 87.2979 45.0022 86.5667 44.1001 86.5667Z" fill="#25E39A"/>
<path d="M44.1002 80.0333H40.8335C39.9315 80.0333 39.2002 80.7646 39.2002 81.6667C39.2002 82.5687 39.9315 83.3 40.8335 83.3H44.1002C45.0023 83.3 45.7335 82.5687 45.7335 81.6667C45.7335 80.7646 45.0023 80.0333 44.1002 80.0333Z" fill="#25E39A"/>
<path d="M9.79984 83.3H34.2998C35.2019 83.3 35.9332 82.5687 35.9332 81.6667C35.9332 80.7646 35.2019 80.0333 34.2998 80.0333H9.79984C8.89777 80.0333 8.1665 80.7646 8.1665 81.6667C8.1665 82.5687 8.89777 83.3 9.79984 83.3Z" fill="#25E39A"/>
<path d="M94.7333 47.6672V27.7667C94.7254 19.1971 89.574 11.4699 81.6667 8.16667C81.6667 3.65634 78.0103 0 73.5 0C68.9897 0 65.3333 3.65634 65.3333 8.16667C60.1705 10.3312 56.0645 14.4372 53.9 19.6H8.16667C3.65858 19.6054 0.0054 23.2586 0 27.7667V76.7667C0 77.6687 0.731268 78.4 1.63333 78.4C2.5354 78.4 3.26667 77.6687 3.26667 76.7667V35.9333H52.2667V47.6672C50.3159 48.3569 49.0086 50.1976 49 52.2667V55.5333C49 57.3375 50.4625 58.8 52.2667 58.8H63.847C64.6397 63.5134 68.7204 66.9651 73.5 66.9651C78.2796 66.9651 82.3603 63.5134 83.153 58.8H88.2V89.8333C88.2 92.5395 86.0062 94.7333 83.3 94.7333H8.16667C5.46047 94.7333 3.26667 92.5395 3.26667 89.8333C3.26667 88.9313 2.5354 88.2 1.63333 88.2C0.731268 88.2 0 88.9313 0 89.8333C0.0054 94.3414 3.65858 97.9946 8.16667 98H83.3C87.8081 97.9946 91.4613 94.3414 91.4667 89.8333V58.8H94.7333C96.5375 58.8 98 57.3375 98 55.5333V52.2667C97.9914 50.1976 96.6841 48.3569 94.7333 47.6672ZM73.5 3.26667C75.7902 3.26985 77.7727 4.85898 78.2742 7.09357C75.1352 6.34658 71.8648 6.34658 68.7258 7.09357C69.2273 4.85898 71.2098 3.26985 73.5 3.26667ZM73.5 9.8C83.4179 9.8117 91.455 17.8488 91.4667 27.7667V47.3667H55.5333V27.7667C55.545 17.8488 63.5821 9.8117 73.5 9.8ZM3.26667 32.6667V27.7667C3.26667 25.0605 5.46047 22.8667 8.16667 22.8667H52.8596C52.4715 24.4713 52.2726 26.1158 52.2667 27.7667V32.6667H3.26667ZM73.5 63.7C70.5299 63.6889 67.9411 61.6758 67.1986 58.8H79.8014C79.0589 61.6758 76.4701 63.6889 73.5 63.7V63.7ZM52.2667 55.5333V52.2667C52.2667 51.3646 52.9979 50.6333 53.9 50.6333H93.1C94.0021 50.6333 94.7333 51.3646 94.7333 52.2667V55.5333H52.2667Z" fill="#25E39A"/>
</svg>
