<svg width="88" height="88" viewBox="0 0 88 88" fill="none" xmlns="http://www.w3.org/2000/svg">
<g clip-path="url(#clip0)">
<path d="M30.8011 71.8738C30.7981 79.9691 24.2363 86.5309 16.141 86.5339C15.4141 86.5347 14.6885 86.476 13.9714 86.3579C13.9568 86.3725 13.942 86.3725 13.9128 86.3579C6.76134 85.261 1.48096 79.1087 1.48096 71.8738C1.48096 64.6389 6.76134 58.4866 13.9126 57.3897C13.942 57.3751 13.9566 57.3751 13.9712 57.3897C14.6885 57.2717 15.4141 57.2129 16.1408 57.2138C24.2363 57.2167 30.7981 63.7785 30.8011 71.8738Z" fill="#0DDA90"/>
<path d="M26.403 71.8738C26.3994 79.1075 21.1208 85.2576 13.9712 86.358C13.9566 86.3726 13.9418 86.3726 13.9126 86.358C6.76134 85.261 1.48096 79.1088 1.48096 71.8738C1.48096 64.6389 6.76134 58.4866 13.9126 57.3897C13.942 57.3751 13.9566 57.3751 13.9712 57.3897C21.1208 58.49 26.3994 64.6401 26.403 71.8738Z" fill="white"/>
<path d="M86.5094 71.8738C86.5065 79.9691 79.9446 86.5309 71.8493 86.5339C71.1225 86.5347 70.3968 86.476 69.6797 86.3579C69.6651 86.3725 69.6503 86.3725 69.6211 86.3579C62.4697 85.261 57.1895 79.1087 57.1895 71.8738C57.1895 64.6389 62.4698 58.4866 69.6211 57.3897C69.6505 57.3751 69.6651 57.3751 69.6797 57.3897C70.397 57.2717 71.1226 57.2129 71.8493 57.2138C79.9446 57.2167 86.5065 63.7785 86.5094 71.8738Z" fill="#0DDA90"/>
<path d="M27.869 30.0779C22.0452 34.8836 13.6668 35.0065 7.70455 30.3736C1.7423 25.7407 -0.208298 17.5916 3.00983 10.7611C6.22795 3.93058 13.7537 0.246372 21.1225 1.89409C28.4913 3.5418 33.7309 10.0808 33.733 17.6315C33.7392 19.1194 33.5318 20.6005 33.1173 22.0295L27.869 30.0779Z" fill="#0DDA90"/>
<path d="M33.7348 17.6317C33.741 19.1197 33.5336 20.6007 33.1191 22.0297L27.8708 30.0781C24.9841 32.4642 21.354 33.766 17.6088 33.7579C16.8733 33.7612 16.1384 33.7122 15.4098 33.6113C7.42887 32.5146 1.48242 25.6951 1.48242 17.6391C1.48242 9.58314 7.4287 2.76361 15.4096 1.66685C16.137 1.55381 16.8724 1.49986 17.6086 1.50553C21.8862 1.50313 25.9894 3.20135 29.0141 6.22603C32.0388 9.25071 33.7372 13.3539 33.7348 17.6317Z" fill="#0DDA90"/>
<path d="M29.3348 17.6315C29.341 19.1194 29.1336 20.6005 28.7191 22.0295L23.4708 30.0779C21.1651 31.9844 18.3722 33.2081 15.4078 33.6109C7.42692 32.5142 1.48047 25.6947 1.48047 17.6387C1.48047 9.58274 7.42674 2.76339 15.4076 1.66663C23.3919 2.75153 29.3434 9.57381 29.3348 17.6315Z" fill="white"/>
<path d="M86.5096 17.6315C86.5031 26.5351 79.2871 33.7511 70.3835 33.7577C69.6482 33.7535 68.9137 33.7046 68.1844 33.6111C65.2199 33.2082 62.4271 31.9844 60.1214 30.0781L54.8732 22.0297C54.4586 20.6007 54.2513 19.1196 54.2575 17.6316C54.2489 9.57397 60.2003 2.75169 68.1846 1.66679C68.912 1.55375 69.6475 1.4998 70.3836 1.50547C74.6612 1.50307 78.7645 3.20129 81.7891 6.22597C84.8138 9.25065 86.5121 13.3537 86.5096 17.6315Z" fill="#0DDA90"/>
<path d="M82.1115 71.8739C82.1079 79.1076 76.8292 85.2576 69.6797 86.358C69.6651 86.3726 69.6503 86.3726 69.6211 86.358C62.4697 85.2611 57.1895 79.1088 57.1895 71.8739C57.1895 64.6389 62.4698 58.4867 69.6211 57.3897C69.6505 57.3751 69.6651 57.3751 69.6797 57.3897C76.8292 58.4901 82.1079 64.6401 82.1115 71.8739Z" fill="white"/>
<path d="M82.1116 17.6315C82.1033 25.6857 76.1621 32.5027 68.1844 33.6109C65.2199 33.2081 62.4271 31.9842 60.1214 30.0779L54.8732 22.0295C54.4586 20.6005 54.2513 19.1194 54.2575 17.6315C54.2489 9.57381 60.2003 2.75153 68.1846 1.66663C76.1688 2.75153 82.1202 9.57381 82.1116 17.6315Z" fill="white"/>
<path d="M29.3351 22.0295H58.6554C59.4651 22.0295 60.1213 22.6858 60.1213 23.4955V64.5437C60.1213 65.3534 59.4649 66.0097 58.6554 66.0097H29.3351C28.5254 66.0097 27.8691 65.3534 27.8691 64.5437V23.4955C27.8691 22.6858 28.5254 22.0295 29.3351 22.0295Z" fill="#0DDA90"/>
<path d="M29.3351 22.0295H54.2573C55.067 22.0295 55.7233 22.6858 55.7233 23.4955V64.5437C55.7233 65.3534 55.0668 66.0097 54.2573 66.0097H29.3351C28.5254 66.0097 27.8691 65.3534 27.8691 64.5437V23.4955C27.8691 22.6858 28.5254 22.0295 29.3351 22.0295Z" fill="white"/>
<path d="M38.1309 38.1555C40.5599 38.1555 42.529 36.1864 42.529 33.7575C42.529 31.3285 40.5599 29.3594 38.1309 29.3594C35.702 29.3594 33.7329 31.3285 33.7329 33.7575C33.7329 36.1864 35.702 38.1555 38.1309 38.1555Z" fill="#0DDA90"/>
<path d="M63.2378 84.0667L63.2394 84.0711C63.5398 84.2714 63.8479 84.4606 64.1636 84.6384C64.2717 84.6994 64.3844 84.7528 64.4942 84.8111C64.7395 84.9418 64.9867 85.0684 65.2398 85.1854C65.3612 85.2414 65.4846 85.2924 65.608 85.3452C65.8705 85.4579 66.1364 85.563 66.406 85.6608C66.5113 85.6986 66.6162 85.7362 66.7226 85.7716C67.0519 85.882 67.3862 85.9808 67.7255 86.0676C67.7754 86.0803 67.824 86.0954 67.8741 86.1076C69.0151 86.3895 70.186 86.5326 71.3613 86.5339C71.815 86.5339 72.2617 86.5065 72.7046 86.466C72.8408 86.4536 72.975 86.4359 73.1102 86.4198C73.2676 86.4009 73.4213 86.3722 73.577 86.3485C73.1375 86.281 72.6982 86.2121 72.2722 86.1075C72.222 86.0953 72.1734 86.0801 72.1236 86.0674C71.7844 85.9803 71.4501 85.8815 71.1206 85.7714C71.0143 85.736 70.9091 85.6984 70.804 85.6606C70.5341 85.5632 70.2682 85.4579 70.006 85.345C69.8828 85.2923 69.7593 85.2412 69.6378 85.1852C69.3848 85.0682 69.1376 84.9416 68.8922 84.8109C68.7824 84.7525 68.6697 84.6992 68.5617 84.6382C68.2466 84.4599 67.9386 84.2708 67.6374 84.071L67.6359 84.0665C62.6001 80.7176 60.14 74.6185 61.4432 68.7129C62.7465 62.8073 67.5448 58.3098 73.5224 57.3912C72.8073 57.2785 72.0849 57.2193 71.3611 57.2138C70.6343 57.2129 69.9086 57.2717 69.1915 57.3897C69.1769 57.3751 69.1621 57.3751 69.1329 57.3897C63.1533 58.305 58.3514 62.8018 57.046 68.7086C55.7407 74.6154 58.2007 80.7169 63.2378 84.0667Z" fill="white"/>
<path d="M8.01793 84.0666L8.01948 84.0711C8.31996 84.2714 8.62799 84.4606 8.94375 84.6384C9.05182 84.6994 9.16451 84.7528 9.27429 84.811C9.51962 84.9418 9.76684 85.0684 10.0199 85.1854C10.1414 85.2414 10.2649 85.2924 10.3881 85.3452C10.6506 85.4579 10.9165 85.563 11.1861 85.6608C11.2914 85.6986 11.3965 85.7362 11.5027 85.7716C11.832 85.882 12.1663 85.9808 12.5055 86.0676C12.5553 86.0803 12.6039 86.0954 12.6541 86.1076C13.795 86.3895 14.966 86.5326 16.1412 86.5338C16.595 86.5338 17.0416 86.5065 17.4845 86.466C17.6208 86.4536 17.7549 86.4359 17.8901 86.4198C18.0475 86.4009 18.2013 86.3722 18.3569 86.3485C17.9175 86.2809 17.4782 86.2121 17.0521 86.1074C17.0019 86.0952 16.9533 86.0801 16.9035 86.0674C16.5644 85.9803 16.2301 85.8815 15.9007 85.7714C15.7944 85.736 15.6892 85.6984 15.5841 85.6606C15.3142 85.5632 15.0483 85.4579 14.7861 85.345C14.6629 85.2922 14.5394 85.2412 14.4179 85.1852C14.1649 85.0682 13.9177 84.9416 13.6723 84.8109C13.5625 84.7525 13.4498 84.6992 13.3418 84.6382C13.0267 84.4599 12.7187 84.2709 12.4175 84.0709L12.416 84.0665C7.38022 80.7176 4.92007 74.6184 6.22333 68.7129C7.52659 62.8073 12.3249 58.3098 18.3025 57.3912C17.5874 57.2785 16.865 57.2192 16.1414 57.2136C15.4145 57.2127 14.6889 57.2715 13.9718 57.3895C13.9572 57.3749 13.9424 57.3749 13.9132 57.3895C7.93358 58.3048 3.13165 62.8016 1.82633 68.7084C0.521006 74.6152 2.98081 80.7169 8.01793 84.0666Z" fill="white"/>
<path d="M7.10993 29.8642C7.21937 29.9585 7.33499 30.0454 7.447 30.1367C7.71638 30.3567 7.99057 30.5704 8.27455 30.7728C8.41079 30.8699 8.54977 30.9621 8.6891 31.0551C8.96707 31.2405 9.25071 31.4172 9.54036 31.5851C9.68347 31.6681 9.82623 31.7509 9.97209 31.8296C10.2887 32.0003 10.6131 32.1577 10.9422 32.3075C11.0659 32.3638 11.1867 32.4248 11.3121 32.4781C12.2465 32.8751 13.2168 33.1821 14.2095 33.3948C14.3308 33.4209 14.455 33.4376 14.5773 33.461C14.8536 33.5135 15.1278 33.5725 15.4088 33.6104C15.5354 33.6285 15.6651 33.6353 15.7926 33.6499C15.8825 33.6599 15.9725 33.6692 16.0625 33.6776C16.5714 33.7257 17.0847 33.7571 17.6078 33.7571C18.3253 33.7523 19.0417 33.7001 19.752 33.6006C19.4902 33.5625 19.2334 33.5099 18.9753 33.4608C18.853 33.4376 18.7288 33.4208 18.6075 33.3946C17.6147 33.1818 16.6446 32.8748 15.7101 32.4778C15.5847 32.4245 15.4641 32.3635 15.3403 32.3072C15.0111 32.1573 14.6867 32.0002 14.3701 31.8292C14.2243 31.7505 14.0815 31.6677 13.9384 31.5847C13.6484 31.4166 13.3648 31.2398 13.0871 31.0547C12.9478 30.9618 12.8088 30.8695 12.6726 30.7725C12.3886 30.5699 12.1146 30.3562 11.845 30.1363C11.733 30.0449 11.6174 29.9582 11.508 29.8638C11.1374 29.5443 10.7783 29.2122 10.439 28.8607C7.50748 25.8589 5.87041 21.827 5.87969 17.6311C5.87969 17.0956 5.90889 16.5673 5.95975 16.0454C5.97658 15.8731 6.00871 15.7058 6.03087 15.5352C6.07571 15.1892 6.12141 14.8435 6.18789 14.5049C6.22741 14.3041 6.28067 14.1087 6.32739 13.9107C6.39852 13.6095 6.46982 13.3089 6.5576 13.0146C6.61894 12.8089 6.69109 12.6084 6.76015 12.4064C6.85533 12.1284 6.95222 11.852 7.06183 11.5813C7.14378 11.379 7.23311 11.1816 7.32279 10.9837C7.44065 10.7233 7.56245 10.4659 7.6937 10.2132C7.79489 10.0184 7.90038 9.82736 8.00913 9.63718C8.14897 9.39289 8.29465 9.15288 8.44635 8.917C8.56524 8.73232 8.68601 8.55004 8.81211 8.37051C8.97308 8.14151 9.14162 7.9192 9.31393 7.6993C9.44879 7.52716 9.58314 7.35536 9.7247 7.18889C9.90526 6.97689 10.0946 6.77365 10.2858 6.57144C10.4368 6.4115 10.5852 6.24984 10.7426 6.09608C10.9405 5.90298 11.1487 5.72121 11.3563 5.53842C11.5222 5.39222 11.6837 5.2419 11.8555 5.10257C12.0658 4.93215 12.2871 4.77598 12.5058 4.61638C12.6908 4.48118 12.87 4.33927 13.0608 4.2118C13.25 4.08587 13.4498 3.97557 13.6443 3.85755C14.2061 3.51412 14.7883 3.20557 15.3879 2.93379C15.4619 2.90046 15.5322 2.86043 15.6071 2.82831C15.9453 2.68193 16.2949 2.55841 16.6449 2.43506C16.7619 2.394 16.8755 2.3459 16.9938 2.30758C17.3539 2.19007 17.7226 2.09421 18.0935 2.00196C18.2047 1.97447 18.3136 1.94165 18.4258 1.91657C18.8154 1.82827 19.2121 1.76109 19.612 1.70148C19.672 1.69272 19.7302 1.67846 19.79 1.66918C19.0673 1.56542 18.3381 1.51044 17.6078 1.50494C17.1299 1.50494 16.6602 1.5326 16.1943 1.57624C15.98 1.59479 15.7691 1.62228 15.5574 1.64908C15.5083 1.65647 15.4578 1.65802 15.4086 1.66609C15.3427 1.67485 15.2795 1.69169 15.2138 1.70148C14.8139 1.76109 14.4172 1.82827 14.0276 1.91657C13.9154 1.94165 13.8066 1.97447 13.6953 2.00196C13.3246 2.09438 12.9557 2.19007 12.5956 2.30758C12.4773 2.34607 12.3639 2.394 12.2467 2.43506C11.8967 2.55841 11.5473 2.68193 11.2089 2.82831C11.1341 2.8606 11.0639 2.90046 10.9897 2.93379C10.3901 3.20557 9.80768 3.51412 9.24607 3.85755C9.05143 3.97557 8.8518 4.08587 8.66265 4.2118C8.47178 4.33927 8.29259 4.48118 8.10757 4.61638C7.8887 4.77615 7.66759 4.93232 7.45731 5.10257C7.28551 5.2419 7.12385 5.39222 6.95807 5.53842C6.75036 5.72139 6.54231 5.90298 6.3444 6.09608C6.18704 6.24984 6.0386 6.41133 5.88759 6.57144C5.69655 6.77382 5.50706 6.97689 5.3265 7.18889C5.18494 7.35536 5.05059 7.52716 4.91573 7.6993C4.74342 7.9192 4.57488 8.14151 4.41391 8.37051C4.28781 8.55004 4.16686 8.73232 4.04815 8.917C3.89628 9.15305 3.75042 9.39306 3.61092 9.63718C3.50217 9.82719 3.39652 10.0184 3.2955 10.2132C3.16425 10.4659 3.04261 10.7235 2.92459 10.9837C2.83491 11.1816 2.7454 11.3792 2.66363 11.5813C2.55402 11.8522 2.45695 12.1284 2.36195 12.4064C2.29272 12.6086 2.22073 12.8089 2.1594 13.0146C2.07178 13.3089 2.00031 13.6093 1.92919 13.9107C1.88246 14.1087 1.8292 14.3041 1.78969 14.5049C1.7232 14.8435 1.67751 15.1892 1.63267 15.5352C1.6105 15.706 1.57838 15.8731 1.56154 16.0454C1.51069 16.5673 1.48148 17.0956 1.48148 17.6311C1.47221 21.827 3.1091 25.8591 6.04084 28.8607C6.38031 29.2126 6.73954 29.5446 7.10993 29.8642Z" fill="white"/>
<path d="M60.4735 10.2134C60.3416 10.4627 60.2096 10.7266 60.0923 10.9904C60.0043 11.181 59.9164 11.3863 59.843 11.5768C59.7257 11.8553 59.6377 12.1339 59.5351 12.4124C59.4618 12.6029 59.3886 12.8082 59.3298 13.0135C59.2419 13.3068 59.1685 13.6147 59.1099 13.9078C59.0514 14.1131 59.0074 14.3036 58.9634 14.5089C58.89 14.8461 58.8461 15.1832 58.8021 15.535C58.7875 15.7109 58.7581 15.8723 58.7287 16.0482C58.6847 16.5613 58.6554 17.0891 58.6554 17.6315C58.6555 19.1751 58.8777 20.7104 59.3151 22.1908C59.1108 22.086 58.8849 22.0307 58.6554 22.0295H54.8731C54.4657 20.5989 54.2584 19.1189 54.2573 17.6315C54.2573 17.0891 54.2867 16.5613 54.3307 16.0482C54.3601 15.8723 54.3893 15.7109 54.404 15.535C54.448 15.1832 54.492 14.8459 54.5654 14.5089C54.6093 14.3036 54.6533 14.1131 54.7119 13.9078C54.7705 13.6145 54.8438 13.3066 54.9318 13.0135C54.9904 12.8082 55.0637 12.6031 55.1371 12.4124C55.2397 12.1339 55.3276 11.8553 55.445 11.5768C55.5183 11.3863 55.6063 11.181 55.6942 10.9904C55.8116 10.7266 55.9435 10.4627 56.0755 10.2134L56.3833 9.64166C56.5299 9.39238 56.6766 9.15788 56.8231 8.92337C56.9405 8.73285 57.0576 8.55693 57.1896 8.36623C57.3509 8.14633 57.5268 7.92643 57.688 7.70652C57.8199 7.5306 57.9664 7.35468 58.0984 7.19336C58.2889 6.97346 58.4796 6.76816 58.6701 6.57764C58.8167 6.41632 58.9634 6.25517 59.1245 6.09386C59.3151 5.90333 59.5204 5.72741 59.7403 5.53671C59.9016 5.39017 60.0627 5.24345 60.2387 5.09691C60.444 4.93559 60.6639 4.77445 60.8838 4.61313C61.0743 4.48119 61.2502 4.33464 61.4409 4.2173C61.6314 4.08536 61.8221 3.9828 62.0272 3.85086C62.5897 3.50829 63.1723 3.19992 63.7719 2.92727C63.8452 2.89789 63.9038 2.85391 63.9918 2.82471C64.329 2.67816 64.6661 2.56083 65.0179 2.42889C65.1352 2.39951 65.2524 2.34092 65.3698 2.31155C65.7362 2.19421 66.1028 2.09165 66.4693 2.00369C66.5866 1.97431 66.6892 1.9451 66.8065 1.91572C67.1877 1.82776 67.5835 1.75441 67.994 1.69582C68.0584 1.69325 68.1223 1.68345 68.1845 1.66645C68.2324 1.65425 68.2817 1.64944 68.331 1.65184C68.5509 1.62247 68.7562 1.59326 68.9761 1.57848C69.4306 1.5345 69.8997 1.50513 70.3835 1.50513C71.1142 1.51406 71.8438 1.56783 72.5679 1.66645C72.5107 1.68328 72.4516 1.69325 72.392 1.69582C71.9816 1.75441 71.5858 1.82776 71.2045 1.91572C71.0872 1.9451 70.9846 1.97431 70.8673 2.00369C70.5009 2.09165 70.1342 2.19421 69.7678 2.31155C69.6505 2.34092 69.5333 2.39951 69.4159 2.42889C69.0641 2.56083 68.7269 2.67816 68.3898 2.82471C68.3018 2.85409 68.2432 2.89807 68.1699 2.92727C67.5703 3.19992 66.9877 3.50829 66.4253 3.85086C66.22 3.9828 66.0295 4.08536 65.8389 4.2173C65.6484 4.33464 65.4725 4.48119 65.2818 4.61313C65.0619 4.77445 64.842 4.93559 64.6367 5.09691C64.4608 5.24345 64.2995 5.39017 64.1383 5.53671C63.9184 5.72724 63.7131 5.90316 63.5226 6.09386C63.3613 6.25517 63.2147 6.41632 63.0682 6.57764C62.8776 6.76816 62.687 6.97346 62.4964 7.19336C62.3645 7.35468 62.2179 7.5306 62.086 7.70652C61.9247 7.92643 61.7488 8.14633 61.5876 8.36623C61.4557 8.55675 61.3383 8.73268 61.2212 8.92337C61.0746 9.15788 60.9279 9.39255 60.7814 9.64166L60.4735 10.2134Z" fill="white"/>
<path d="M71.7472 33.4644C72.0111 33.5084 72.2603 33.567 72.5242 33.5963C71.8155 33.7022 71.1004 33.7559 70.3838 33.7577C69.856 33.7577 69.3429 33.7283 68.8445 33.6843C68.7524 33.668 68.6593 33.6582 68.566 33.6549C68.434 33.6403 68.3167 33.6255 68.1848 33.6109C67.9063 33.567 67.6276 33.5084 67.3491 33.4644C67.2318 33.435 67.0999 33.4204 66.9827 33.391C65.9919 33.1861 65.0244 32.8815 64.0946 32.482C63.9626 32.4235 63.8453 32.3647 63.7134 32.3061C63.3909 32.1596 63.0683 31.9983 62.7458 31.8369C62.5993 31.749 62.4525 31.661 62.3206 31.5877C62.0273 31.4117 61.7489 31.2358 61.4704 31.0599C61.3238 30.9573 61.1919 30.8694 61.0452 30.7666C60.7667 30.5761 60.488 30.3562 60.2241 30.1363C60.1948 30.1069 60.1508 30.0777 60.1216 30.0484V24.3603C60.8868 26.0269 61.9332 27.5494 63.2148 28.8609C63.5534 29.212 63.9108 29.5448 64.2849 29.8578C64.3906 29.9585 64.5033 30.0516 64.6222 30.1363C64.8861 30.3562 65.1646 30.5761 65.4432 30.7666C65.5898 30.8692 65.7217 30.9572 65.8684 31.0599C66.1469 31.2358 66.4255 31.4117 66.7186 31.5877C66.8506 31.661 66.9971 31.749 67.1438 31.8369C67.4663 31.9983 67.7889 32.1594 68.1114 32.3061C68.2434 32.3647 68.3607 32.4235 68.4926 32.482C69.4222 32.8815 70.3898 33.1859 71.3807 33.391C71.4981 33.4204 71.63 33.435 71.7472 33.4644Z" fill="white"/>
<path d="M26.4033 58.6797V39.6217V23.4955H29.3354V39.6217V58.6797H26.4033Z" fill="white"/>
<path d="M27.3122 48.3009C27.3954 48.3431 27.4843 48.3725 27.5763 48.3882C27.673 48.4047 27.7709 48.4144 27.869 48.4175C28.2571 48.4122 28.6289 48.2603 28.9099 47.9923C29.2656 47.6498 29.4217 47.1492 29.3238 46.665C29.2259 46.1809 28.8876 45.7804 28.4267 45.6028C28.2502 45.5276 28.0607 45.4877 27.869 45.4853C27.2763 45.4877 26.7427 45.8454 26.5154 46.3927C26.2881 46.9402 26.4113 47.5706 26.8281 47.9922L27.0478 48.1683C27.1298 48.2243 27.2186 48.2688 27.3122 48.3009Z" fill="#10214A"/>
<path d="M70.3837 35.2236C80.0968 35.2169 87.9691 27.3446 87.9758 17.6315C87.9906 10.9848 84.2581 4.89728 78.3276 1.8958C72.3971 -1.10552 65.2814 -0.508345 59.9344 3.43958C54.5873 7.3875 51.9217 14.0122 53.0442 20.5634H34.9467C36.0541 14.0196 33.384 7.40966 28.0421 3.47119C22.7002 -0.467285 15.5962 -1.0636 9.67243 1.9293C3.74865 4.9222 0.0141061 10.9946 0.0151369 17.6315C0.0211499 27.345 7.8938 35.2176 17.6073 35.2236C20.695 35.2214 23.7279 34.4088 26.4033 32.8672V41.0876C26.4033 41.8973 27.0598 42.5536 27.8693 42.5536C28.6788 42.5536 29.3352 41.8971 29.3352 41.0876V23.4955H58.6557V64.5437H29.3354V52.8156C29.3354 52.0059 28.6791 51.3496 27.8695 51.3496C27.0598 51.3496 26.4035 52.0059 26.4035 52.8156V59.4551C21.8129 55.657 15.5012 54.7018 9.99231 56.9712C4.48326 59.2407 0.676044 64.3645 0.0927897 70.294C-0.490465 76.2234 2.24542 81.991 7.20661 85.2904L7.2152 85.2958L7.22619 85.3025C12.6253 88.8989 19.6566 88.899 25.0559 85.303L25.0685 85.2952L25.075 85.2913C30.9256 81.4289 33.5845 74.2106 31.6375 67.4758H56.3536C54.4068 74.21 57.0652 81.4277 62.9147 85.2906L62.9233 85.2959L62.9343 85.3026C68.3265 88.8958 75.3491 88.8994 80.7451 85.3119L80.7864 85.287C85.7517 81.9892 88.4912 76.2198 87.9083 70.2875C87.3255 64.3553 83.5157 59.2293 78.0036 56.9607C72.4914 54.6921 66.1772 55.6516 61.5876 59.4552V32.8672C64.263 34.4088 67.2959 35.2212 70.3837 35.2236ZM61.5876 29.35V25.5966C62.5024 24.0588 63.8062 22.7892 65.3675 21.9154C68.385 24.0262 72.4011 24.0219 75.4141 21.9048C77.8787 23.2852 79.6599 25.6265 80.3323 28.3701C77.6387 30.9 74.079 32.3032 70.3837 32.2917C67.2107 32.2876 64.1245 31.2556 61.5876 29.35ZM70.3837 20.5634C67.1451 20.5634 64.5197 17.938 64.5197 14.6994C64.5197 11.4608 67.1451 8.83541 70.3837 8.83541C73.6222 8.83541 76.2476 11.4608 76.2476 14.6994C76.2442 17.9366 73.6208 20.56 70.3837 20.5634ZM17.6073 32.2915C13.9121 32.3027 10.3524 30.8996 7.65861 28.3702C8.33103 25.6265 10.1122 23.285 12.577 21.9046C15.59 24.0219 19.6061 24.0262 22.6236 21.9153C24.1851 22.789 25.4887 24.0588 26.4035 25.5966V29.35C23.8664 31.2556 20.7802 32.2876 17.6073 32.2915ZM17.6073 20.5634C14.3687 20.5634 11.7433 17.938 11.7433 14.6994C11.7433 11.4608 14.3687 8.83541 17.6073 8.83541C20.8458 8.83541 23.4713 11.4608 23.4713 14.6994C23.4678 17.9366 20.8445 20.56 17.6073 20.5634ZM27.0536 21.6772C26.37 20.9589 25.6074 20.32 24.7805 19.7728C27.3716 16.1219 26.8071 11.1073 23.4692 8.12383C20.1313 5.14038 15.0849 5.14004 11.7465 8.12297C8.40816 11.1059 7.84295 16.1205 10.4335 19.7717C8.1929 21.219 6.44623 23.3142 5.42609 25.7787C1.93429 20.5581 2.15643 13.6932 5.97859 8.70932C9.80076 3.72545 16.3732 1.73053 22.3207 3.74916C28.2682 5.76779 32.2687 11.3509 32.2678 17.6317C32.2591 18.6178 32.1484 19.6003 31.9378 20.5637H29.3358C28.4446 20.5667 27.604 20.9769 27.0536 21.6772ZM56.0536 20.5634C55.843 19.5999 55.7324 18.6174 55.7236 17.6313C55.719 11.3476 59.7193 5.75988 65.6692 3.73902C71.6191 1.71816 78.195 3.71411 82.0182 8.7009C85.8414 13.6877 86.0613 20.5563 82.5648 25.7775C81.5445 23.3134 79.798 21.2185 77.5576 19.7716C80.1481 16.1202 79.5829 11.1056 76.2445 8.12262C72.9062 5.13952 67.8598 5.14004 64.5217 8.12348C61.1837 11.1071 60.6193 16.1217 63.2104 19.7728C62.3834 20.32 61.6209 20.9589 60.9373 21.6772C60.3867 20.9769 59.5463 20.5667 58.6555 20.5634H56.0536ZM9.24207 83.0806C8.15047 80.0624 9.17954 76.6859 11.769 74.7898C14.3489 76.766 17.9335 76.766 20.5134 74.7898C23.1029 76.6859 24.1322 80.0624 23.0404 83.0804C18.7977 85.6421 13.485 85.6421 9.24207 83.0806ZM16.1413 73.3398C14.3625 73.3398 12.7588 72.2683 12.0781 70.6249C11.3975 68.9815 11.7737 67.0898 13.0314 65.8319C14.2893 64.574 16.181 64.1977 17.8244 64.8786C19.4678 65.5592 20.5393 67.163 20.5393 68.9418C20.5366 71.3696 18.5692 73.3372 16.1413 73.3398ZM26.3693 80.1674C26.2267 77.1958 24.798 74.4335 22.4554 72.5997C23.1131 71.4925 23.4639 70.2297 23.4713 68.9418C23.4713 64.8935 20.1894 61.6116 16.1411 61.6116C12.0929 61.6116 8.81103 64.8935 8.81103 68.9418C8.81842 70.2297 9.16923 71.4923 9.82687 72.5997C7.48423 74.4335 6.05556 77.1962 5.91297 80.1677C2.93107 76.51 2.13461 71.5363 3.82545 67.1303C5.51628 62.7244 9.43552 59.5602 14.0988 58.8364C18.7621 58.1126 23.4563 59.9397 26.4032 63.6256V64.5437C26.4078 65.8413 27.2663 66.981 28.5123 67.3435C29.0547 68.7925 29.3335 70.3266 29.3352 71.8737C29.3311 74.8973 28.2835 77.8268 26.3693 80.1674ZM64.9514 83.0833C63.8582 80.0645 64.8871 76.6866 67.4775 74.7898C70.0574 76.766 73.642 76.766 76.2219 74.7898C78.8176 76.6919 79.8446 80.0801 78.742 83.1033C74.5183 85.7301 69.1675 85.7223 64.9514 83.0833ZM71.8498 73.3398C70.071 73.3398 68.4672 72.2683 67.7866 70.6249C67.1059 68.9815 67.4822 67.0898 68.7399 65.8319C69.9978 64.574 71.8895 64.1977 73.5329 64.8786C75.1763 65.5592 76.2478 67.163 76.2478 68.9418C76.2451 71.3696 74.2776 73.3372 71.8498 73.3398ZM71.8498 58.6797C76.9412 58.6754 81.5799 61.6034 83.7664 66.2014C85.9529 70.7994 85.2962 76.2454 82.0795 80.192C81.9434 77.2114 80.5136 74.4388 78.164 72.5999C78.8217 71.4926 79.1725 70.2299 79.1799 68.9419C79.1799 64.8937 75.898 61.6118 71.8498 61.6118C67.8015 61.6118 64.5197 64.8937 64.5197 68.9419C64.5272 70.2299 64.8779 71.4925 65.5355 72.5999C63.1929 74.4336 61.7642 77.1963 61.6216 80.1679C59.7076 77.8272 58.6598 74.8977 58.6555 71.874C58.6572 70.327 58.9361 68.7926 59.4784 67.3439C60.7245 66.9814 61.583 65.8417 61.5876 64.5441V63.626C64.0879 60.5144 67.8584 58.6973 71.8498 58.6797Z" fill="#10214A"/>
<path d="M38.1311 39.6217C41.3696 39.6217 43.9951 36.9962 43.9951 33.7577C43.9951 30.5191 41.3696 27.8937 38.1311 27.8937C34.8925 27.8937 32.2671 30.5191 32.2671 33.7577C32.2705 36.9947 34.8939 39.6182 38.1311 39.6217ZM38.1311 30.8256C39.7504 30.8256 41.0632 32.1383 41.0632 33.7577C41.0632 35.377 39.7504 36.6897 38.1311 36.6897C36.5117 36.6897 35.199 35.377 35.199 33.7577C35.2009 32.139 36.5126 30.8273 38.1311 30.8256Z" fill="#10214A"/>
<path d="M48.3932 30.8256H54.2572C55.0669 30.8256 55.7231 30.1693 55.7231 29.3596C55.7231 28.5499 55.0667 27.8937 54.2572 27.8937H48.3932C47.5835 27.8937 46.9272 28.5501 46.9272 29.3596C46.9272 30.1691 47.5835 30.8256 48.3932 30.8256Z" fill="#10214A"/>
<path d="M48.3932 35.2236H54.2572C55.0669 35.2236 55.7231 34.5672 55.7231 33.7576C55.7231 32.948 55.0667 32.2917 54.2572 32.2917H48.3932C47.5835 32.2917 46.9272 32.9481 46.9272 33.7576C46.9272 34.5672 47.5835 35.2236 48.3932 35.2236Z" fill="#10214A"/>
<path d="M48.3932 39.6217H54.2572C55.0669 39.6217 55.7231 38.9652 55.7231 38.1557C55.7231 37.346 55.0667 36.6898 54.2572 36.6898H48.3932C47.5835 36.6898 46.9272 37.3462 46.9272 38.1557C46.9272 38.9652 47.5835 39.6217 48.3932 39.6217Z" fill="#10214A"/>
<path d="M33.733 45.4856H54.2573C55.0669 45.4856 55.7232 44.8292 55.7232 44.0197C55.7232 43.21 55.0668 42.5537 54.2573 42.5537H33.733C32.9234 42.5537 32.2671 43.2102 32.2671 44.0197C32.2671 44.8292 32.9234 45.4856 33.733 45.4856Z" fill="#10214A"/>
<path d="M33.733 51.3496H54.2573C55.0669 51.3496 55.7232 50.6932 55.7232 49.8837C55.7232 49.074 55.0668 48.4177 54.2573 48.4177H33.733C32.9234 48.4177 32.2671 49.0742 32.2671 49.8837C32.2671 50.6934 32.9234 51.3496 33.733 51.3496Z" fill="#10214A"/>
<path d="M33.733 57.2138H54.2573C55.0669 57.2138 55.7232 56.5573 55.7232 55.7478C55.7232 54.9381 55.0668 54.2819 54.2573 54.2819H33.733C32.9234 54.2819 32.2671 54.9383 32.2671 55.7478C32.2671 56.5573 32.9234 57.2138 33.733 57.2138Z" fill="#10214A"/>
</g>
<defs>
<clipPath id="clip0">
<rect width="88" height="88" fill="white"/>
</clipPath>
</defs>
</svg>
