<svg xmlns="http://www.w3.org/2000/svg" xmlns:xlink="http://www.w3.org/1999/xlink" width="1440" height="1024" viewBox="0 0 1440 1024">
  <defs>
    <clipPath id="clip-path">
      <path id="Clip_28" data-name="Clip 28" d="M0,0H259.77V59.493H0Z" fill="none"/>
    </clipPath>
    <clipPath id="clip-path-2">
      <path id="Clip_37" data-name="Clip 37" d="M0,0H410.483V52.12H0Z" fill="none"/>
    </clipPath>
    <clipPath id="clip-path-3">
      <path id="Clip_28-2" data-name="Clip 28" d="M0,0H191.926V43.425H0Z" fill="none"/>
    </clipPath>
    <clipPath id="clip-path-4">
      <path id="Clip_37-2" data-name="Clip 37" d="M0,0H303.5V39.017H0Z" fill="none"/>
    </clipPath>
    <clipPath id="clip-Home_Copy_13_6">
      <rect width="1440" height="1024"/>
    </clipPath>
  </defs>
  <g id="Home_Copy_13_6" data-name="Home Copy 13 – 6" clip-path="url(#clip-Home_Copy_13_6)">
    <rect width="1440" height="1024" fill="#fff"/>
    <rect id="Rectangle_Copy_5" data-name="Rectangle Copy 5" width="1440" height="1024" fill="#e8f4ff"/>
    <g id="Group_43_Copy_3" data-name="Group 43 Copy 3" transform="translate(592.766 535.891)" opacity="0.59">
      <path id="Fill_1" data-name="Fill 1" d="M150.306,95.747c26.391-2.586,51.319-5.029,72.554-3.24,46.206,3.895,88.809,40.627,99.1,85.444,8.518,37.089-7.9,71.011-45.057,93.063-55.03,32.668-89.064,104.116-72.825,152.9,13.313,40.012,57.84,58.026,125.367,50.767,47.7-5.126,87.756,5.242,119.554,30.782,10.256-15.219,17.257-33.628,17.4-61.231.259-54.1-38.284-85.536-56.652-122.679-5.937-12-9.792-24.6-9.536-38.73,1.006-57.96,51.106-188.216-32.4-258.022-60.379-50.453-178.67-11.312-244.061,7.12C82.125,43.664,41.438,59.708,0,72.7c33.647,34.46,92.71,28.688,150.306,23.043" transform="translate(573.838 62.213)" fill="#c4e5ed"/>
      <path id="Fill_3" data-name="Fill 3" d="M548.2,633.664H240.362S116.941,611.779,21.8,295.224q-8.906-29.7-14.013-55.632C-39.084,3.482,136.586-10.237,241.493,3.816,260.65,34.5,276.925,83.9,255.533,152.56c-13.707,43.968-40.962,69.917-69.864,89.735-10.8,7.441-21.829,14.006-32.472,20.338-52.663,31.331-98.1,58.385-57.6,155.615,42.167,101.248,152.683,104.9,250.212,108.119,64.1,2.136,119.49,3.967,143.07,33.336Z" transform="translate(0 128.143)" fill="#c4e5ed"/>
      <path id="Fill_5" data-name="Fill 5" d="M934.013,437.835a186.41,186.41,0,0,1-13.24,15.728c-3.446,3.706-6.994,7.385-10.564,11.165-.1.1-.209.205-.314.314-.972,1-1.952,2.031-2.9,3.082-3.752,3.966-7.5,8.06-11.234,12.46-.538.644-1.077,1.264-1.592,1.907-.542.644-1.08,1.287-1.568,1.931-.538.644-1.08,1.306-1.568,1.954-.542.667-1.08,1.365-1.568,2.031-1.568,2.008-3.086,4.117-4.6,6.307-.515.717-1.007,1.442-1.495,2.186q-3,4.443-5.809,9.343c-30,52.4,16.609,122.536,16.609,122.536H468.871l.128-.725-61.316-76.434c-25.039-31.219-81.519-33.1-146.9-35.263-95.944-3.167-204.69-6.769-245.59-104.932-38.771-93.088,2.823-117.849,55.477-149.169,10.924-6.486,22.239-13.227,33.346-20.872,29.407-20.256,57.173-46.843,71.261-92.088C196.41,81.5,181.679,31.859,162.913,0c8.02,1.182,15.579,2.52,22.5,3.908C247.724,16.418,316.622,26.843,381.2,22.233q10.374-.733,20.567-2.008c27.51-3.446,54.245-10.192,80.647-18.271C517.8,40.275,581.114,34.1,638.623,28.463c26.17-2.547,50.876-4.966,71.675-3.218C753.67,28.9,795.213,64.726,804.879,106.8c4.678,20.461,5.375,59.07-42.7,87.61C705.21,228.259,670.118,302.638,687.06,353.6c8.2,24.656,36.118,64.525,130.854,54.333q46.429-5.018,82.626,10.01a136.227,136.227,0,0,1,33.473,19.9" transform="translate(84.244 134.248)" fill="#c4e5ed"/>
      <path id="Fill_7" data-name="Fill 7" d="M481.5,344.988l59.368,73.792h-308.1S109.243,396.949,14.025,81.116Q5.105,51.485,0,25.612c50.747-22.086,132.044-45.639,178.035,2.7-10.808,7.42-21.848,13.97-32.5,20.291-52.7,31.255-98.179,58.247-57.647,155.259C130.091,304.874,240.7,308.518,338.316,311.729c64.156,2.132,119.589,3.958,143.189,33.259" transform="translate(7.326 344.248)" fill="#b1dce0"/>
      <path id="Fill_9" data-name="Fill 9" d="M954.768,130.389c0,1.127-.027,2.2-.054,3.3-.023.668-.023,1.309-.05,1.973-.05.749-.077,1.49-.128,2.232,0,.305-.023.614-.05.927-.05,1.1-.128,2.174-.232,3.228-.1,1.355-.232,2.691-.384,4-.077.687-.182,1.409-.26,2.1-.411,3.124-.926,6.123-1.569,9-.333,1.537-.666,3.023-1.081,4.486-.333,1.332-.693,2.637-1.1,3.919-.748,2.486-1.6,4.873-2.522,7.154-.438,1.154-.926,2.282-1.414,3.409q-.773,1.766-1.619,3.459c-.488.973-.98,1.919-1.468,2.846a1.389,1.389,0,0,1-.1.2c-.542,1-1.081,1.973-1.646,2.923-.155.278-.333.587-.515.873-1.027,1.714-2.107,3.382-3.215,5.019-.961,1.436-1.972,2.818-2.991,4.2l.008.008c-.058.085-.124.158-.182.243-.752,1.008-1.526,1.992-2.3,2.977-.341.436-.682.873-1.031,1.3q-1.3,1.622-2.654,3.2c-.221.263-.445.521-.666.776-2.08,2.413-4.207,4.8-6.411,7.162-3.421,3.714-6.969,7.382-10.568,11.123-.1.1-.205.2-.31.309-.976,1-1.956,2.023-2.905,3.073-3.754,3.946-7.511,8.023-11.242,12.409-.511.614-1.054,1.255-1.592,1.9-.515.641-1.054,1.282-1.569,1.923-.538.641-1.054,1.305-1.569,1.946-.539.668-1.054,1.336-1.569,2.023-1.569,2-3.084,4.1-4.6,6.282-.488.718-1,1.436-1.491,2.181-2.007,2.946-3.936,6.046-5.815,9.3-30.011,52.185,16.615,122.033,16.615,122.033H469.05l.128-.718L407.841,308.97C382.793,277.877,326.287,276,260.884,273.85,164.9,270.7,56.115,267.109,15.2,169.35-23.584,76.636,18.026,51.976,70.7,20.784,81.629,14.324,92.945,7.61,104.055,0c10.417,12.274,18.773,28.652,24.2,50.108C169.4,212.8,289.33,314.275,409.565,248.681s237.817-110.833,297.174-20.814q17.9,27.22,36.7,53.826c8.511,12.073,13.063,29.278,25.281,38.474,28.237,21.3,53.619-32.115,67.457-48.444,25.591-30.166,53.007-58.084,64.706-95.887.515-1.641,1.007-3.309,1.418-5,.976-3.537,1.8-7.178,2.441-10.9,4.579-26.116-9.642-50.93-15.352-75.64-5.528-24.042-2.495-49.108,6.764-71.872.589-1.463,1.232-2.923,1.9-4.382,18.39,37.038,56.966,68.385,56.711,122.342" transform="translate(84.244 377.213)" fill="#b1dce0"/>
      <path id="Fill_11" data-name="Fill 11" d="M14.651,7.326A7.326,7.326,0,1,1,7.324,0a7.328,7.328,0,0,1,7.327,7.326" transform="translate(850.99 291.748)" fill="#fefefe"/>
      <path id="Fill_13" data-name="Fill 13" d="M14.651,7.326A7.326,7.326,0,1,1,7.324,0a7.328,7.328,0,0,1,7.327,7.326" transform="translate(846.106 346.69)" fill="#fefefe"/>
      <path id="Fill_15" data-name="Fill 15" d="M14.651,7.326A7.326,7.326,0,1,1,7.326,0a7.327,7.327,0,0,1,7.326,7.326" transform="translate(899.827 288.085)" fill="#fefefe"/>
      <path id="Fill_17" data-name="Fill 17" d="M14.651,7.326A7.326,7.326,0,1,1,7.324,0a7.328,7.328,0,0,1,7.327,7.326" transform="translate(496.919 738.609)" fill="#fefefe"/>
      <path id="Fill_19" data-name="Fill 19" d="M14.651,7.326A7.326,7.326,0,1,1,7.324,0a7.328,7.328,0,0,1,7.327,7.326" transform="translate(504.245 651.923)" fill="#fefefe"/>
      <path id="Fill_21" data-name="Fill 21" d="M8.547,4.275A4.273,4.273,0,1,1,4.272,0,4.273,4.273,0,0,1,8.547,4.275" transform="translate(544.536 704.423)" fill="#fefefe"/>
      <path id="Fill_23" data-name="Fill 23" d="M14.651,7.326A7.326,7.326,0,1,1,7.324,0a7.326,7.326,0,0,1,7.327,7.326" transform="translate(174.593 347.911)" fill="#fefefe"/>
      <path id="Fill_25" data-name="Fill 25" d="M10.988,5.494A5.494,5.494,0,1,1,5.494,0a5.5,5.5,0,0,1,5.494,5.494" transform="translate(283.256 238.027)" fill="#fefefe"/>
      <g id="Group_29" data-name="Group 29" transform="translate(679.091 0.247)">
        <path id="Clip_28-3" data-name="Clip 28" d="M0,0H259.77V59.493H0Z" transform="translate(0)" fill="none"/>
        <g id="Group_29-2" data-name="Group 29" transform="translate(0)" clip-path="url(#clip-path)">
          <path id="Fill_27" data-name="Fill 27" d="M258.5,46.4C245.078,33.4,231.248,20.086,214.447,11.432,196.648,2.263,176.746.46,156.991.063,121.058-.659,84.513,4.781,51.467,19.184a170.924,170.924,0,0,0-50.194,33.2c-3.9,3.752,2.061,9.658,5.96,5.914,24.621-23.641,56.408-37.8,89.7-44.668A264.871,264.871,0,0,1,147.9,8.376c18.7-.183,38.668.2,56.177,7.412,18.958,7.813,34.006,22.525,48.465,36.519,3.883,3.763,9.851-2.143,5.96-5.91" transform="translate(0 0)" fill="#fefefe"/>
        </g>
      </g>
      <path id="Fill_30" data-name="Fill 30" d="M565.753,21.209c-86.036-41.417-181.975-15.1-265.608,18.717-46.031,18.609-91.133,41.27-140.266,50.62C108.258,100.374,54.941,96.961,4.76,81.664-.011,80.212-2.049,87.657,2.7,89.106A332.927,332.927,0,0,0,142.44,101.087c48.74-6.31,92.772-25.86,137.684-44.62,87.69-36.633,189.728-72.882,281.727-28.6,4.461,2.146,8.385-4.5,3.9-6.663" transform="translate(344.303 30.469)" fill="#c4e5ed"/>
      <path id="Fill_32" data-name="Fill 32" d="M196.509,2.315C160.691-.242,123.8-2.73,88.723,6.873c-17.065,4.672-32.406,12.743-47.615,21.69C26.7,37.035,12.6,45.628,1.083,57.97c-3.42,3.662,2.05,9.206,5.478,5.532C18.156,51.078,32.571,42.583,47.08,34.1,62.367,25.168,77.9,17.494,95.154,13.29c33.122-8.067,67.711-5.552,101.355-3.147,4.976.358,4.953-7.473,0-7.827" transform="translate(21.977 91.515)" fill="#c4e5ed"/>
      <path id="Fill_34" data-name="Fill 34" d="M122.532.6A281.226,281.226,0,0,1,3.65,42.215c-4.842.534-4.892,8.354,0,7.816A289.756,289.756,0,0,0,126.389,7.348c4.186-2.625.353-9.386-3.856-6.749" transform="translate(510.35 40.236)" fill="#c4e5ed"/>
      <g id="Group_38" data-name="Group 38" transform="translate(162.043 738.989)">
        <path id="Clip_37-3" data-name="Clip 37" d="M0,0H410.483V52.12H0Z" transform="translate(0 0)" fill="none"/>
        <g id="Group_38-2" data-name="Group 38" transform="translate(0 0)" clip-path="url(#clip-path-2)">
          <path id="Fill_36" data-name="Fill 36" d="M1.187,6.514c49.439,46.644,121.758,45.216,185.4,45.6,73.46.444,146.82-15.4,220.2-8.6,4.94.456,4.909-7.234,0-7.69-68.772-6.381-137.175,8.1-205.912,8.6C135.818,44.9,57.433,49,6.639,1.078c-3.6-3.4-9.068,2.027-5.452,5.435" transform="translate(0 0)" fill="#c4e5ed"/>
        </g>
      </g>
      <path id="Fill_39" data-name="Fill 39" d="M3.727,7.326h117.08c4.965,0,4.977-7.326,0-7.326H3.727c-4.965,0-4.973,7.326,0,7.326" transform="translate(605.582 776.458)" fill="#c4e5ed"/>
      <path id="Fill_41" data-name="Fill 41" d="M3.724,76.113l84.621.162c26.532.05,53.718,1.82,80.16-.738,18.9-1.832,37.6-7.931,49.726-23.287,11.144-14.111,14.834-32.038,11.14-49.485-1.022-4.843-8.461-2.794-7.434,2.048,4.5,21.239-4.515,43.621-23.631,54.594-17.955,10.308-40.181,9.292-60.188,9.261q-67.195-.1-134.393-.251c-4.964-.012-4.968,7.688,0,7.7" transform="translate(788.722 704.423)" fill="#c4e5ed"/>
    </g>
    <g id="Group_43_Copy_4" data-name="Group 43 Copy 4" transform="matrix(-0.978, 0.208, -0.208, -0.978, 720.436, 375.791)" opacity="0.747">
      <path id="Fill_1-2" data-name="Fill 1" d="M111.176,70.861c19.52-1.914,37.958-3.722,53.666-2.4,34.177,2.882,65.689,30.068,73.3,63.236,6.3,27.449-5.845,52.554-33.327,68.874-40.7,24.177-65.878,77.055-53.866,113.162,9.847,29.612,42.782,42.944,92.729,37.572,35.285-3.794,64.91,3.88,88.429,22.781,7.586-11.263,12.764-24.887,12.868-45.316.192-40.042-28.317-63.3-41.9-90.793-4.391-8.879-7.242-18.2-7.054-28.664.744-42.9,37.8-139.3-23.963-190.959C227.4-18.984,139.9,9.984,91.533,23.625,60.745,32.315,30.65,44.189,0,53.807c24.888,25.5,68.574,21.231,111.176,17.054" transform="translate(425.034 46.51)" fill="#c4e5ed"/>
      <path id="Fill_3-2" data-name="Fill 3" d="M406.112,468.7H178.063S86.631,452.514,16.151,218.368Q9.553,196.4,5.77,177.219C-28.954,2.576,101.184-7.572,178.9,2.822c14.191,22.7,26.248,59.238,10.4,110.022-10.154,32.522-30.345,51.715-51.756,66.374-8,5.5-16.171,10.36-24.056,15.043-39.013,23.175-72.673,43.186-42.669,115.1,31.238,74.89,113.109,77.592,185.36,79.972,47.486,1.58,88.519,2.934,105.987,24.657Z" transform="translate(0 94.545)" fill="#c4e5ed"/>
      <path id="Fill_5-2" data-name="Fill 5" d="M691.409,323.328a137.75,137.75,0,0,1-9.8,11.615c-2.551,2.737-5.177,5.454-7.82,8.245-.077.077-.155.152-.232.232-.719.739-1.445,1.5-2.15,2.276-2.778,2.929-5.555,5.952-8.316,9.2-.4.475-.8.933-1.178,1.409-.4.475-.8.95-1.161,1.426-.4.475-.8.965-1.161,1.443-.4.492-.8,1.008-1.161,1.5-1.161,1.483-2.285,3.04-3.406,4.658-.381.53-.745,1.065-1.107,1.615q-2.223,3.281-4.3,6.9c-22.21,38.7,12.295,90.489,12.295,90.489H347.084l.095-.535-45.39-56.444c-18.535-23.055-60.345-24.446-108.742-26.041-71.023-2.339-151.523-5-181.8-77.489-28.7-68.743,2.09-87.028,41.067-110.157C60.4,188.88,68.778,183.9,77,178.256c21.769-14.958,42.322-34.592,52.751-68C145.393,60.189,134.489,23.527,120.6,0c5.937.873,11.532,1.861,16.652,2.886,46.129,9.238,97.132,16.937,144.938,13.533q7.68-.541,15.224-1.483c20.364-2.545,40.155-7.526,59.7-13.493,26.189,28.3,73.061,23.739,115.633,19.576,19.372-1.881,37.661-3.667,53.058-2.376,32.106,2.7,62.859,29.155,70.014,60.229,3.463,15.11,3.979,43.621-31.61,64.7-42.171,24.993-68.148,79.92-55.606,117.552,6.069,18.208,26.737,47.649,96.865,40.123q34.369-3.706,61.165,7.392a100.9,100.9,0,0,1,24.779,14.692" transform="translate(62.591 98.912)" fill="#c4e5ed"/>
      <path id="Fill_7-2" data-name="Fill 7" d="M356.352,255.411l43.937,54.631H172.269S80.849,293.88,10.38,60.054Q3.778,38.117,0,18.961c37.557-16.352,97.723-33.789,131.76,2-8,5.493-16.169,10.343-24.056,15.023C68.7,59.123,35.044,79.106,65.041,150.928c31.237,74.784,113.095,77.482,185.34,79.859,47.48,1.578,88.506,2.93,105.971,24.623" transform="translate(5.822 254.661)" fill="#b1dce0"/>
      <path id="Fill_9-2" data-name="Fill 9" d="M707.419,96.418c0,.834-.02,1.63-.04,2.444-.017.494-.017.968-.037,1.459-.037.554-.057,1.1-.095,1.65,0,.226-.017.454-.037.685-.037.814-.095,1.607-.172,2.387-.078,1-.172,1.99-.284,2.958-.057.508-.135,1.042-.192,1.553-.3,2.31-.686,4.528-1.163,6.652-.247,1.136-.494,2.236-.8,3.318-.247.985-.514,1.95-.818,2.9-.554,1.839-1.183,3.6-1.869,5.29-.324.854-.686,1.687-1.048,2.521q-.573,1.306-1.2,2.558c-.362.719-.726,1.419-1.088,2.1a1.016,1.016,0,0,1-.075.151c-.4.739-.8,1.459-1.22,2.161-.115.206-.247.434-.382.645-.761,1.268-1.561,2.5-2.382,3.712-.712,1.062-1.461,2.084-2.216,3.1l.006.006c-.043.063-.092.117-.135.18-.557.745-1.131,1.473-1.7,2.2-.253.323-.505.645-.763.962q-.964,1.2-1.966,2.37c-.164.194-.33.385-.494.574-1.541,1.784-3.117,3.552-4.75,5.3-2.534,2.747-5.164,5.459-7.83,8.225-.077.074-.152.151-.23.228-.723.739-1.45,1.5-2.153,2.273-2.781,2.918-5.566,5.933-8.33,9.176-.379.454-.781.928-1.18,1.4-.382.474-.781.948-1.162,1.422-.4.474-.781.965-1.163,1.439-.4.494-.781.988-1.162,1.5-1.162,1.482-2.285,3.035-3.41,4.645-.362.531-.743,1.062-1.105,1.613-1.487,2.178-2.916,4.471-4.308,6.881-22.236,38.589,12.311,90.24,12.311,90.24H347.534l.095-.531-45.446-56.293C283.624,205.481,241.757,204.1,193.3,202.5c-71.115-2.33-151.72-4.985-182.036-77.275-28.735-68.558,2.1-86.794,41.123-109.86C60.481,10.592,68.866,5.627,77.1,0c7.718,9.076,13.91,21.187,17.931,37.053,30.489,120.3,119.345,195.343,208.432,146.838S479.667,101.934,523.646,168.5q13.265,20.128,27.193,39.8c6.306,8.928,9.679,21.65,18.732,28.451C590.493,252.507,609.3,213,619.553,200.93c18.961-22.307,39.275-42.951,47.943-70.905.382-1.213.746-2.447,1.051-3.7.723-2.615,1.332-5.308,1.808-8.057,3.393-19.312-7.144-37.661-11.375-55.933-4.1-17.778-1.849-36.313,5.012-53.147.436-1.082.913-2.161,1.409-3.24,13.625,27.389,42.208,50.569,42.019,90.468" transform="translate(62.591 279.406)" fill="#b1dce0"/>
      <path id="Fill_11-2" data-name="Fill 11" d="M10.189,5.095A5.095,5.095,0,1,1,5.093,0a5.1,5.1,0,0,1,5.1,5.095" transform="translate(630.273 215.359)" fill="#fefefe"/>
      <path id="Fill_13-2" data-name="Fill 13" d="M10.189,5.095A5.095,5.095,0,1,1,5.093,0a5.1,5.1,0,0,1,5.1,5.095" transform="translate(627.362 256.116)" fill="#fefefe"/>
      <path id="Fill_15-2" data-name="Fill 15" d="M10.189,5.095A5.095,5.095,0,1,1,5.095,0a5.1,5.1,0,0,1,5.095,5.095" transform="translate(666.663 213.904)" fill="#fefefe"/>
      <path id="Fill_17-2" data-name="Fill 17" d="M10.189,5.095A5.095,5.095,0,1,1,5.093,0a5.1,5.1,0,0,1,5.1,5.095" transform="translate(368.266 547.235)" fill="#fefefe"/>
      <path id="Fill_19-2" data-name="Fill 19" d="M10.189,5.095A5.095,5.095,0,1,1,5.093,0a5.1,5.1,0,0,1,5.1,5.095" transform="translate(374.088 481.734)" fill="#fefefe"/>
      <path id="Fill_21-2" data-name="Fill 21" d="M5.822,2.912A2.911,2.911,0,1,1,2.91,0,2.911,2.911,0,0,1,5.822,2.912" transform="translate(403.2 521.035)" fill="#fefefe"/>
      <path id="Fill_23-2" data-name="Fill 23" d="M10.189,5.095A5.095,5.095,0,1,1,5.093,0a5.095,5.095,0,0,1,5.1,5.095" transform="translate(129.548 257.572)" fill="#fefefe"/>
      <path id="Fill_25-2" data-name="Fill 25" d="M8.734,4.367A4.367,4.367,0,1,1,4.367,0,4.368,4.368,0,0,1,8.734,4.367" transform="translate(209.606 176.058)" fill="#fefefe"/>
      <g id="Group_29-3" data-name="Group 29" transform="translate(502.368 0.151)">
        <path id="Clip_28-4" data-name="Clip 28" d="M0,0H191.926V43.425H0Z" transform="translate(0)" fill="none"/>
        <g id="Group_29-4" data-name="Group 29" transform="translate(0)" clip-path="url(#clip-path-3)">
          <path id="Fill_27-2" data-name="Fill 27" d="M190.991,33.866c-9.92-9.484-20.138-19.2-32.551-25.521-13.15-6.693-27.854-8.009-42.45-8.3C89.441-.481,62.441,3.49,38.025,14A126.419,126.419,0,0,0,.94,38.235c-2.883,2.738,1.523,7.05,4.4,4.317C23.534,25.3,47.019,14.965,71.618,9.948a198,198,0,0,1,37.657-3.834c13.819-.134,28.569.145,41.505,5.41,14.007,5.7,25.125,16.441,35.807,26.656,2.869,2.747,7.278-1.564,4.4-4.314" transform="translate(0 0)" fill="#fefefe"/>
        </g>
      </g>
      <path id="Fill_30-2" data-name="Fill 30" d="M419.2,15.766C355.451-15.022,284.364,4.542,222.4,29.68c-34.107,13.833-67.526,30.679-103.931,37.63a239.675,239.675,0,0,1-114.937-6.6C-.008,59.627-1.518,65.162,2,66.239a245.92,245.92,0,0,0,103.54,8.906c36.115-4.691,68.74-19.224,102.018-33.169C272.535,14.744,348.142-12.2,416.309,20.719c3.305,1.6,6.213-3.346,2.891-4.953" transform="translate(254.729 21.765)" fill="#c4e5ed"/>
      <path id="Fill_32-2" data-name="Fill 32" d="M145.71,1.719C119.151-.18,91.8-2.026,65.787,5.1,53.134,8.57,41.758,14.561,30.481,21.2,19.795,27.491,9.343,33.87.8,43.032c-2.536,2.718,1.52,6.834,4.062,4.107,8.6-9.223,19.286-15.529,30.044-21.823,11.335-6.633,22.852-12.329,35.647-15.45,24.56-5.988,50.207-4.121,75.154-2.336,3.69.265,3.673-5.548,0-5.81" transform="translate(16.012 66.889)" fill="#c4e5ed"/>
      <path id="Fill_34-2" data-name="Fill 34" d="M90.433.436A209.627,209.627,0,0,1,2.694,30.689c-3.574.388-3.611,6.073,0,5.682A216,216,0,0,0,93.279,5.342c3.09-1.908.261-6.823-2.846-4.906" transform="translate(378.455 30.499)" fill="#c4e5ed"/>
      <g id="Group_38-3" data-name="Group 38" transform="translate(120.01 546.064)">
        <path id="Clip_37-4" data-name="Clip 37" d="M0,0H303.5V39.017H0Z" transform="translate(0 0)" fill="none"/>
        <g id="Group_38-4" data-name="Group 38" transform="translate(0 0)" clip-path="url(#clip-path-4)">
          <path id="Fill_36-2" data-name="Fill 36" d="M.878,4.876C37.432,39.793,90.9,38.724,137.96,39.01c54.315.332,108.555-11.53,162.81-6.436,3.653.341,3.63-5.415,0-5.756-50.848-4.777-101.424,6.063-152.247,6.438C100.421,33.609,42.465,36.681,4.908.807,2.246-1.739-1.8,2.324.878,4.876" transform="translate(0 0)" fill="#c4e5ed"/>
        </g>
      </g>
      <path id="Fill_39-2" data-name="Fill 39" d="M2.744,5.822H88.957c3.656,0,3.665-5.822,0-5.822H2.744c-3.656,0-3.662,5.822,0,5.822" transform="translate(448.324 573.436)" fill="#c4e5ed"/>
      <path id="Fill_41-2" data-name="Fill 41" d="M2.749,56.174l62.453.12c19.581.037,39.645,1.344,59.161-.545,13.946-1.352,27.749-5.853,36.7-17.187a43.723,43.723,0,0,0,8.222-36.521c-.754-3.574-6.244-2.062-5.487,1.512,3.318,15.675-3.332,32.194-17.441,40.292C133.1,51.453,116.7,50.7,101.935,50.68q-49.592-.073-99.186-.185c-3.664-.009-3.666,5.674,0,5.679" transform="translate(583.694 521.035)" fill="#c4e5ed"/>
    </g>
  </g>
</svg>
