<svg xmlns="http://www.w3.org/2000/svg" xmlns:xlink="http://www.w3.org/1999/xlink" viewBox="0 0 1934.01 1465.42"><defs><style>.cls-1{isolation:isolate;}.cls-2{fill:#f3f3f3;}.cls-3{fill:#fff;}.cls-4{fill:url(#linear-gradient);}.cls-5{fill:url(#linear-gradient-2);}.cls-6{fill:url(#linear-gradient-3);}.cls-7{fill:#e0e0e0;}.cls-8{fill:url(#linear-gradient-4);}.cls-9{fill:url(#linear-gradient-5);}.cls-10{fill:url(#linear-gradient-6);}.cls-11{fill:url(#linear-gradient-7);}.cls-12{fill:url(#linear-gradient-8);}.cls-13{fill:url(#linear-gradient-9);}.cls-14,.cls-21{fill:#f5f5f5;}.cls-15{fill:url(#linear-gradient-10);}.cls-16{fill:url(#linear-gradient-11);}.cls-17{fill:url(#linear-gradient-12);}.cls-18{fill:url(#linear-gradient-13);}.cls-19{fill:#4e7ed6;}.cls-20{fill:url(#radial-gradient);}.cls-21{mix-blend-mode:hard-light;}.cls-22{fill:#537ffd;}.cls-23{fill:#4ba6f3;}.cls-24{fill:#46bbed;}.cls-25{fill:#b3b7c4;}.cls-26{fill:#eea987;}.cls-27{fill:#fccca2;}.cls-28{fill:#dbdff0;}.cls-29{fill:#1d3b54;}.cls-30{fill:#eea886;}.cls-31{fill:#3b3b40;}.cls-32{fill:#e8734d;}.cls-33{fill:#d6c5be;}.cls-34{fill:#fae6de;}.cls-35{fill:#a77860;}.cls-36{fill:#616161;}.cls-37{fill:#e0cec7;}.cls-38{fill:#db9c7c;}.cls-39{fill:url(#linear-gradient-14);}.cls-40{fill:url(#linear-gradient-15);}.cls-41{fill:url(#linear-gradient-16);}.cls-42{fill:url(#linear-gradient-17);}.cls-43{fill:#2d2d30;}.cls-44{fill:#2d3133;}.cls-45{fill:#e55353;}.cls-46{fill:#353a3d;}.cls-47{fill:#248c9e;}.cls-48{fill:#2aa3b8;}.cls-49{fill:#196370;}.cls-50{fill:#1d6f7d;}.cls-51{fill:url(#linear-gradient-18);}.cls-52{fill:url(#linear-gradient-19);}.cls-53{fill:#2d5bad;}.cls-54{fill:#5d96ff;}</style><linearGradient id="linear-gradient" x1="2790.3" y1="-9311.61" x2="3176.22" y2="-9311.61" gradientTransform="translate(-7996.18 488.69) rotate(73.11)" gradientUnits="userSpaceOnUse"><stop offset="0" stop-color="#40d5e6"/><stop offset="1" stop-color="#57f"/></linearGradient><linearGradient id="linear-gradient-2" x1="2746.17" y1="-9548" x2="3399.47" y2="-9548" xlink:href="#linear-gradient"/><linearGradient id="linear-gradient-3" x1="3026.32" y1="-9576.25" x2="3321.99" y2="-9576.25" xlink:href="#linear-gradient"/><linearGradient id="linear-gradient-4" x1="858.48" y1="1073.11" x2="2280.28" y2="1073.11" gradientUnits="userSpaceOnUse"><stop offset="0" stop-color="#ff9f55"/><stop offset="1" stop-color="#ffd255"/></linearGradient><linearGradient id="linear-gradient-5" x1="123.28" y1="963.44" x2="123.28" y2="733.74" xlink:href="#linear-gradient-4"/><linearGradient id="linear-gradient-6" x1="179.9" y1="963.44" x2="179.9" y2="733.74" xlink:href="#linear-gradient-4"/><linearGradient id="linear-gradient-7" x1="236.52" y1="963.44" x2="236.52" y2="733.74" xlink:href="#linear-gradient-4"/><linearGradient id="linear-gradient-8" x1="293.13" y1="963.44" x2="293.13" y2="733.74" xlink:href="#linear-gradient-4"/><linearGradient id="linear-gradient-9" x1="1532.59" y1="1991.9" x2="1561.71" y2="338.18" gradientTransform="translate(3098.81 2073.97) rotate(-180)" xlink:href="#linear-gradient"/><linearGradient id="linear-gradient-10" x1="1159.94" y1="331.03" x2="1376.67" y2="331.03" gradientTransform="matrix(1, 0, 0, 1, 0, 0)" xlink:href="#linear-gradient"/><linearGradient id="linear-gradient-11" x1="1159.94" y1="445.94" x2="1358.89" y2="445.94" gradientTransform="matrix(1, 0, 0, 1, 0, 0)" xlink:href="#linear-gradient"/><linearGradient id="linear-gradient-12" x1="1159.94" y1="388.48" x2="1332.07" y2="388.48" gradientTransform="matrix(1, 0, 0, 1, 0, 0)" xlink:href="#linear-gradient"/><linearGradient id="linear-gradient-13" x1="1399.17" y1="822.27" x2="1399.17" y2="584.28" gradientUnits="userSpaceOnUse"><stop offset="0" stop-color="#7db3e0"/><stop offset="1" stop-color="#fff"/></linearGradient><radialGradient id="radial-gradient" cx="1569.37" cy="1111.57" r="509.36" gradientUnits="userSpaceOnUse"><stop offset="0.16" stop-color="#90c2e8"/><stop offset="0.58" stop-color="#47afff"/><stop offset="1" stop-color="#6783f5"/></radialGradient><linearGradient id="linear-gradient-14" x1="236.12" y1="1178.44" x2="227.39" y2="827.61" xlink:href="#linear-gradient-4"/><linearGradient id="linear-gradient-15" x1="193.49" y1="1179.5" x2="184.76" y2="828.67" xlink:href="#linear-gradient-4"/><linearGradient id="linear-gradient-16" x1="1980.88" y1="143.99" x2="1902.27" y2="438.05" gradientTransform="translate(3886.52 569.43) rotate(-180)" xlink:href="#linear-gradient-4"/><linearGradient id="linear-gradient-17" x1="1976.95" y1="142.94" x2="1898.35" y2="436.99" gradientTransform="translate(3886.52 537.97) rotate(-180)" xlink:href="#linear-gradient-4"/><linearGradient id="linear-gradient-18" x1="919.52" y1="201.5" x2="938.44" y2="491.19" gradientTransform="matrix(1, 0, 0, 1, 0, 0)" xlink:href="#linear-gradient"/><linearGradient id="linear-gradient-19" x1="1391.27" y1="468.79" x2="1410.2" y2="758.48" gradientTransform="translate(809.47 1988.87) rotate(-90)" xlink:href="#linear-gradient"/></defs><title>doct</title><g class="cls-1"><g id="Слой_1" data-name="Слой 1"><rect class="cls-2" x="1046.5" y="519.36" width="6.67" height="700.16"/><rect class="cls-3" x="1049.84" y="433.09" width="71.94" height="18.25"/><rect class="cls-3" x="1049.84" y="466.82" width="57.56" height="18.25"/><rect class="cls-3" x="1053.17" y="1261" width="75.49" height="24.33"/><path class="cls-4" d="M1797.64,431.56s177.55,210.52,64.92,346.84-143.62,2.66-143.62,2.66-67.41,12.51,49.35-158C1823.32,542.7,1797.64,431.56,1797.64,431.56Z" transform="translate(-471.75 -267.29)"/><path class="cls-5" d="M2186.8,267.29s131.91,194.69-97.74,419-212.58,358-212.58,358S1641.68,584.64,2186.8,267.29Z" transform="translate(-471.75 -267.29)"/><path class="cls-6" d="M1833.61,959.66c-96.34,8.69,15.44-251.82,166-319.83s277.87-62.24,365.88-134C2365.46,505.84,2308.05,916.85,1833.61,959.66Z" transform="translate(-471.75 -267.29)"/><rect class="cls-7" x="383.39" y="519.36" width="6.67" height="700.16"/><rect class="cls-2" x="857.89" y="519.36" width="6.67" height="700.16"/><rect class="cls-2" x="1332.4" y="519.36" width="6.67" height="700.16"/><rect class="cls-7" x="386.73" y="433.09" width="113.65" height="18.25"/><rect class="cls-7" x="386.73" y="466.82" width="161.21" height="18.25"/><rect class="cls-3" x="856.12" y="433.09" width="133.43" height="18.25"/><rect class="cls-3" x="856.12" y="466.82" width="85.32" height="18.25"/><rect class="cls-3" x="1339.07" y="433.09" width="82.69" height="18.25"/><rect class="cls-3" x="1339.07" y="466.82" width="96.37" height="18.25"/><rect class="cls-3" x="1813.57" y="433.09" width="120.44" height="18.25"/><rect class="cls-3" x="1813.57" y="466.82" width="96.37" height="18.25"/><rect class="cls-3" x="861.23" y="1261" width="75.49" height="24.33"/><rect class="cls-3" x="1339.07" y="1261" width="75.49" height="24.33"/><path class="cls-8" d="M1491.29,1221.91c-81.79,0-146.66-55-210.17-108.85-48.16-40.83-98.12-82.57-155.79-103.16-176-62.84-266,51.9-266.85,52.91v-34.9c.95-1.2,17-22.05,63.48-42,42.31-18.13,113.29-32.59,211.2,1.46,62,21.58,113.54,65.26,163.36,107.49,101.06,85.68,188.33,159.68,339.9,43.78,114.81-87.79,223-171.45,329.5-202,104.15-29.89,212.72-8,314.36,93.63v31.88c-215.89-216.84-400.46-79.64-629.39,95.41C1590.25,1204,1538,1221.9,1491.29,1221.91Z" transform="translate(-471.75 -267.29)"/><rect class="cls-7" x="111.88" y="779.83" width="22.8" height="98.46"/><rect class="cls-7" x="168.5" y="739.83" width="22.8" height="138.45"/><rect class="cls-7" x="225.12" y="718.96" width="22.8" height="159.32"/><rect class="cls-7" x="281.73" y="710.26" width="22.8" height="168.02"/><rect class="cls-9" x="111.88" y="816.51" width="22.8" height="61.77"/><rect class="cls-10" x="168.5" y="791.42" width="22.8" height="86.86"/><rect class="cls-11" x="225.12" y="778.32" width="22.8" height="99.96"/><rect class="cls-12" x="281.73" y="772.87" width="22.8" height="105.41"/><rect class="cls-13" x="1132.57" y="485.49" width="833.68" height="1102.99" rx="59.95" ry="59.95" transform="translate(2627.06 1806.68) rotate(180)"/><path class="cls-14" d="M750.4,87.81h694.76a0,0,0,0,1,0,0V1265.57a0,0,0,0,1,0,0h-735a0,0,0,0,1,0,0V128.06A40.25,40.25,0,0,1,750.4,87.81Z"/><rect class="cls-15" x="1159.94" y="317.32" width="216.72" height="27.41"/><rect class="cls-16" x="1159.94" y="432.23" width="198.94" height="27.41"/><rect class="cls-17" x="1159.94" y="374.78" width="172.13" height="27.41"/><path class="cls-18" d="M1399.17,760.4a169.28,169.28,0,0,1-70.55-15.21A171.18,171.18,0,0,1,1228.46,589.7c0-94.13,76.58-170.71,170.71-170.71s170.71,76.58,170.71,170.71a171.18,171.18,0,0,1-100.16,155.49A169.28,169.28,0,0,1,1399.17,760.4Zm0-332.4c-89.16,0-161.69,72.54-161.69,161.7A162.11,162.11,0,0,0,1332.35,737,162.13,162.13,0,0,0,1466,737a162.12,162.12,0,0,0,94.88-147.28C1560.87,500.54,1488.33,428,1399.17,428Z" transform="translate(-471.75 -267.29)"/><rect class="cls-19" x="756.71" y="561.83" width="249.02" height="24.44"/><rect class="cls-7" x="756.71" y="627.59" width="249.02" height="24.44"/><rect class="cls-7" x="756.71" y="693.34" width="249.02" height="24.44"/><rect class="cls-19" x="1056.56" y="561.83" width="41.57" height="24.44"/><rect class="cls-7" x="1056.56" y="627.59" width="41.57" height="24.44"/><rect class="cls-7" x="1056.56" y="693.34" width="41.57" height="24.44"/><path class="cls-20" d="M2156.41,1227.84c-110.81,0-207.13-47.9-307.55-97.84-124-61.64-252.16-125.39-423-107.93-109.06,11.14-177.52,55.56-237.92,94.74-54.68,35.49-106.39,66.69-176.41,69.35-113.17,4.31-152.43-44-153.09-46.9v-31h0c.15.54,24.85,54.71,153,54.07,63.09-.32,109.65-30.53,163.57-65.51,62.66-40.65,133.68-86.73,248.46-98.46,177.65-18.16,309,47.15,436,110.3,132.9,66.09,259.71,128.06,420.8,74.07v25.46C2233.82,1223.76,2197.26,1227.84,2156.41,1227.84Z" transform="translate(-471.75 -267.29)"/><rect class="cls-21" x="1157.44" y="537.21" width="497.53" height="755.5" rx="74.73" ry="74.73"/><path class="cls-7" d="M2068.56,916.87a81.44,81.44,0,1,0-153.36,54.85c.61,1.72,1.28,3.42,2,5.08a81.44,81.44,0,0,0,151.36-59.93Zm-56.12,84.92a61.1,61.1,0,0,1-67.09-17.93,60.48,60.48,0,0,1-9.46-15.2c-.54-1.24-1-2.51-1.51-3.81a61.06,61.06,0,1,1,78.06,36.94Z" transform="translate(-471.75 -267.29)"/><path class="cls-22" d="M1933.59,926.1,1914.13,920a81.55,81.55,0,0,1,75.31-57.15l.61,20.37a61.18,61.18,0,0,0-56.46,42.86Z" transform="translate(-471.75 -267.29)"/><path class="cls-23" d="M1935.89,968.66l-18.69,8.14c-.72-1.66-1.39-3.36-2-5.08a81.07,81.07,0,0,1-1.07-51.7l19.46,6.08a60.81,60.81,0,0,0,.79,38.75C1934.85,966.15,1935.35,967.42,1935.89,968.66Z" transform="translate(-471.75 -267.29)"/><path class="cls-24" d="M1929.82,997.07a81,81,0,0,1-12.62-20.27l18.69-8.14a60.48,60.48,0,0,0,9.46,15.2Z" transform="translate(-471.75 -267.29)"/><rect class="cls-24" x="1475.5" y="1122.15" width="43.9" height="143.94"/><rect class="cls-24" x="1410.24" y="1162.52" width="43.9" height="103.57"/><rect class="cls-24" x="1538.82" y="1055.44" width="43.9" height="210.65"/><polygon class="cls-24" points="1223.91 1107.32 1220.1 1104.39 1291.63 1011.31 1379.92 1016.1 1446.5 910.08 1518.22 902.67 1561.32 817.43 1565.62 819.6 1521.33 907.19 1449.33 914.62 1382.49 1021.06 1293.9 1016.25 1223.91 1107.32"/><path class="cls-19" d="M1831,911.76H1706.12a14.27,14.27,0,0,1-14.27-14.27h0a14.27,14.27,0,0,1,14.27-14.27H1831a14.27,14.27,0,0,1,14.27,14.27h0A14.27,14.27,0,0,1,1831,911.76Z" transform="translate(-471.75 -267.29)"/><path class="cls-7" d="M1831,961.55H1706.12a14.27,14.27,0,0,1-14.27-14.27h0A14.27,14.27,0,0,1,1706.12,933H1831a14.27,14.27,0,0,1,14.27,14.27h0A14.27,14.27,0,0,1,1831,961.55Z" transform="translate(-471.75 -267.29)"/><path class="cls-7" d="M1831,1011.34H1706.12a14.27,14.27,0,0,1-14.27-14.27h0a14.27,14.27,0,0,1,14.27-14.27H1831a14.27,14.27,0,0,1,14.27,14.27h0A14.27,14.27,0,0,1,1831,1011.34Z" transform="translate(-471.75 -267.29)"/><path class="cls-25" d="M1425.5,1389.67s-49.45-14-109.85,0l29-148.45S1417,1317.93,1425.5,1389.67Z" transform="translate(-471.75 -267.29)"/><path class="cls-26" d="M1582.2,1133.74s11.1,8,14.38,7,8.79.61,11.91.28,11.27-4.22,14.55-3.39c1.34.34,8.76,5.63,11.55,6s8.54.53,8.16,2.91-5.55,3.65-5.55,3.65,2.52.52,2.84,2.72c.61,4.28-1.64,5.78-1.64,5.78s2.25,2.19,2.06,4c-.44,4-2.66,5.44-2.66,5.44a6.9,6.9,0,0,1,.07,4.75,6.16,6.16,0,0,1-4.69,3.85s-.48,4.54-3,5.15-4.67-.27-6.74-.33-19.83-6.19-30.41-15.43a102,102,0,0,0-22.8-14.64Z" transform="translate(-471.75 -267.29)"/><path class="cls-27" d="M1354.54,830S1338,819.37,1323,838.27s-9.57,37.08-6.45,54.05,18.17,55.34,11.76,72.31,1.78,25.8,1.78,25.8,51.4,13.16,45.41-64.15S1354.54,830,1354.54,830Z" transform="translate(-471.75 -267.29)"/><path class="cls-28" d="M1376.56,976s19.57-2.68,32.71,7.17,22.12,28.29,26.13,34.07,50.92,57.56,53.25,58.5,31.54,17,51.2,30.06,50.65,28.69,50.65,28.69l-16.81,20.61s-82.79-29.64-100-45.67c-18.39-17.11-103.46-102.05-103.46-102.05S1348.83,990.09,1376.56,976Z" transform="translate(-471.75 -267.29)"/><path class="cls-29" d="M1519,1696.06s21.17,28.5,18.27,33-25.17,5.16-38.72,0-13.87-38.57-20-52.92c-2.57-6,2.92-23.74,10.65-25s16.12,2.5,16.12,2.5S1497.26,1673.84,1519,1696.06Z" transform="translate(-471.75 -267.29)"/><path class="cls-30" d="M1505.41,1653.39a134.91,134.91,0,0,1,6.08,23.73c1.35,9.61,15.08,30,14.44,32.6s-18.07,4.92-25.17-1.74-11.66-26-13.23-37.58c-1.45-10.78-3.29-16.11-3.29-16.11S1498.63,1646.3,1505.41,1653.39Z" transform="translate(-471.75 -267.29)"/><polygon class="cls-29" points="1006.18 1406.36 1006.18 1436.2 1010.05 1436.2 1010.05 1413.14 1006.18 1406.36"/><path class="cls-29" d="M1334.69,1696.53s20.41,28,17.5,32.55-25.17,5.16-38.72,0-13.87-38.57-20-52.92c-2.57-6,2.92-23.74,10.65-25s16.77,2.77,16.77,2.77S1313,1674.31,1334.69,1696.53Z" transform="translate(-471.75 -267.29)"/><path class="cls-30" d="M1320.89,1653.9a191.7,191.7,0,0,0,4.2,22.58c2.58,9.36,16.45,30.66,15.81,33.24s-18.07,4.92-25.17-1.74-12.58-25.92-13.23-37.58,1.62-19.27,1.62-19.27S1314.12,1646.8,1320.89,1653.9Z" transform="translate(-471.75 -267.29)"/><polygon class="cls-29" points="821.15 1406.36 821.15 1436.2 825.02 1436.2 825.02 1413.14 821.15 1406.36"/><path class="cls-31" d="M1422.87,1189.92s18.17,84.5,22.34,105.78,15.85,124.33,17.1,141.85,19,83.55,18.12,89.81,27.25,130.44,27.25,130.44-28.9,7.86-33.77,2.56c-4.13-4.5-45.65-118-45.65-149.34,0-43.25-32.62-98.32-36.75-108-38.34-89.89-30.15-118.77-35.16-124.61s-5.44,3.61-8.36,16.54-9.17,124.75-12.93,138.93-.83,62.17-2.92,86.36-4.49,132.62-4.49,132.62-20.93,4.81-30.88.18c-2.86-1.34-10.1-120.78-10.52-149.57s-.86-68.49-1.67-80.94c-7.73-119.29-19.13-136.22,3.2-220.75C1330.6,1039.63,1422.87,1189.92,1422.87,1189.92Z" transform="translate(-471.75 -267.29)"/><path class="cls-32" d="M1375.85,964.75s19,9,25.54,10.27,32.13,34.5,36.61,46.61,0,30.29-9.22,51.62-.53,28.44-4.74,49.77-.22,71.33.57,83.18-96.9,26.91-134.45-10.93c0,0,20.38-38.27,23.54-43.54s.52-34-2.37-41.35-22.18-70.08-22.18-70.08-15.77-48.16-1.53-59.22c12.38-9.61,46.12-13,52.17-15.15S1363.47,962.91,1375.85,964.75Z" transform="translate(-471.75 -267.29)"/><path class="cls-33" d="M1381.9,1007l11.52-13.49-10-35.52S1380.06,977.79,1381.9,1007Z" transform="translate(-471.75 -267.29)"/><path class="cls-30" d="M1384.9,942.87s-3.79,34.78-3,46.11c0,0-19.7,19.74-42.11-23.05,0,0,9.43-17.64,2.33-41.67S1384.9,942.87,1384.9,942.87Z" transform="translate(-471.75 -267.29)"/><polygon class="cls-30" points="910.15 721.69 910.15 739.73 887.47 722.78 910.15 721.69"/><polygon class="cls-33" points="910.15 739.73 900.73 728.07 869.02 696.47 858.76 706.35 910.15 739.73"/><polygon class="cls-34" points="921.67 726.24 936.19 730.25 911.67 690.72 921.67 726.24"/><polygon class="cls-34" points="900.73 728.07 887.47 745.45 860.38 699.2 869.82 694.37 900.73 728.07"/><path class="cls-35" d="M1384.12,950.53l-.65,7s-15.66,2.94-36.16-22C1347.31,935.44,1361.84,953.16,1384.12,950.53Z" transform="translate(-471.75 -267.29)"/><path class="cls-26" d="M1380.14,951c6.17-.23,23.39-2.24,31.89-41.91,10.38-48.47-12.56-73.61-32.2-78.26s-37.74,2.17-47.8,27.5c0,0-7.35,19.75,4.58,54.93S1373.54,951.27,1380.14,951Z" transform="translate(-471.75 -267.29)"/><path class="cls-27" d="M1364.39,862.29s26.37,1.64,50.88,38.47c0,0,11.48-44.31-18.51-64.54s-51-2.83-58.32,6c0,0-10.49,2.41-10.82,22.32s-13.72,50,15.66,64.21c0,0-2.8-22.73-.21-27.93S1354.63,899.12,1364.39,862.29Z" transform="translate(-471.75 -267.29)"/><path class="cls-26" d="M1344.51,892c-1.33-3.44-5-4.83-7-1.14s.38,18,5.7,19.6S1347.2,899,1344.51,892Z" transform="translate(-471.75 -267.29)"/><path class="cls-28" d="M1332.14,966.49s29.79,35.63,32.91,110.54-23.46,314.15-21.81,343.34L1266,1383s.44-120.71,26.31-196.65c30.34-89.11-4.17-116.29-7.32-171.11,0,0,1.43-40.13,23.8-43.77C1329.79,968,1332.14,966.49,1332.14,966.49Z" transform="translate(-471.75 -267.29)"/><path class="cls-28" d="M1392,971.84s12.12,1.4,15.94,5.93,27.77,32.13,29.52,40.25,7.32,14.19-4.16,52c-10.28,33.89-7.7,71.85-5.57,87.06s39.11,220.6,37.09,225.87-17.43,17.84-17.43,17.84-33.13-202.67-32.78-236.52S1428.22,1029.67,1392,971.84Z" transform="translate(-471.75 -267.29)"/><polygon class="cls-36" points="1173.63 811.5 1147.8 944.48 1062.45 927.91 1084.94 794.27 1173.63 811.5"/><polygon class="cls-37" points="1167.23 817.97 1144.29 936.08 1068.48 921.36 1088.46 802.67 1167.23 817.97"/><polygon class="cls-36" points="1143.19 816.35 1144.8 808.06 1114.16 802.11 1111.35 810.16 1143.19 816.35"/><path class="cls-38" d="M1635.78,1149.09s-15.28-5-19.81-2.12.89,5,.89,5-5.33-2.16-7.43,1.82,4.36,6.11,4.36,6.11a4.43,4.43,0,0,0-5,4.11c-.56,4.68,5.19,5.24,5.19,5.24s-6.67,2.63-2.46,6.9c7.1,7.19,18.92,6.13,18.92,6.13s2.91-.71,3.13-5.25c0,0,7-1.21,4.79-8.78,0,0,5.7-6.23.06-9.55C1638.4,1158.67,1644.41,1151.56,1635.78,1149.09Z" transform="translate(-471.75 -267.29)"/><path class="cls-30" d="M1265.76,1225.44s-3.08,14.38,3.21,24.11c2.41,3.72.09,31.85-.12,35.36-.18,2.94-2.83,5.45-3.93,4.85s-1.33-16.18-3-21.2c-1.4-4.21-2.63-5.8-3.39-4.45s1.82,23.94,3.3,31.42-.37,23.25-4.26,20.71-16.86-37.56-15.9-49.25,5.38-26.29,5.38-26.29Z" transform="translate(-471.75 -267.29)"/><path class="cls-28" d="M1327.58,968.61s-30.85-1.9-46.32,16.1-14.63,39.38-18.57,48.67-12.94,49.22-14.9,55.69-3.89,42.84-6.71,72.09-2.24,83.89-2.24,83.89l29.51-5.35s1.19-52.08,1.94-82.27,25.32-83.55,34.6-106.9S1351.13,983.25,1327.58,968.61Z" transform="translate(-471.75 -267.29)"/><polygon class="cls-39" points="214.93 1043.39 265.18 1043.39 249.8 1011.49 199.54 1011.49 214.93 1043.39"/><polygon class="cls-40" points="191.41 1043.39 203.38 1043.39 188 1011.49 176.03 1011.49 191.41 1043.39"/><rect class="cls-41" x="1893.51" y="275.7" width="99.5" height="18.03" transform="translate(3414.76 302.14) rotate(180)"/><rect class="cls-42" x="1893.51" y="267.29" width="99.5" height="3.39" transform="translate(3414.76 270.68) rotate(180)"/><path class="cls-25" d="M2259,1415.79s-49.45-14-109.85,0l29-148.46S2250.49,1344,2259,1415.79Z" transform="translate(-471.75 -267.29)"/><path class="cls-43" d="M2125.71,1670s-22.52,38.18-32,44.42c-12.91,8.47-4.82,17,1.31,17s37.45,2.25,44.35-5.58,10.32-31.3,16.74-37.44,12.29-28.79-3.12-36.47C2136,1643.57,2125.71,1670,2125.71,1670Z" transform="translate(-471.75 -267.29)"/><path class="cls-30" d="M2134.16,1650s-24.49,47.94-28.94,54.55,8.37,6.6,16.32,3.46,28.56-35,30.79-41.06.62-15,.62-15Z" transform="translate(-471.75 -267.29)"/><polygon class="cls-43" points="1689.85 1409.99 1683.9 1455.84 1680.74 1455.98 1681.72 1423 1689.85 1409.99"/><path class="cls-43" d="M2318.87,1632.79s-5.4,44-11.63,53.52c-8.45,12.92,2.39,17.54,8,15.1s35.23-12.9,38.43-22.84-3-32.82.39-41-.23-31.3-17.44-32.19C2317.77,1604.42,2318.87,1632.79,2318.87,1632.79Z" transform="translate(-471.75 -267.29)"/><path class="cls-30" d="M2318.62,1611.06s-3.31,53.74-4.74,61.57,10.31,2.7,16.34-3.35,12.22-43.44,11.83-49.94-5.42-14-5.42-14Z" transform="translate(-471.75 -267.29)"/><polygon class="cls-43" points="1882.92 1357.82 1895.78 1402.23 1892.94 1403.62 1880.67 1372.98 1882.92 1357.82"/><path class="cls-30" d="M2105.7,1230a135,135,0,0,0-.16,17.21c.27,4.33-6.9,30-8.07,33.22-1,2.72-2.31.52-2.68-1.59-.21-1.21.86-10.51.68-15.69-.14-4.35-.86-6.18-1.95-5.12s-7.42,17-8.09,24.44-7.24,23-10.19,19.58-2.5-35.23,1.62-46,12.32-23.24,12.32-23.24Z" transform="translate(-471.75 -267.29)"/><path class="cls-28" d="M2109.1,1236.16c1.21-3.42,30.69-50.7,37.74-65.75s13.25-28.89,16.56-34.77c.22-.39.58-1.07,1.06-2,2.3-4.39,7.32-14.2,12.38-23.32.35-.64.71-1.27,1.06-1.9l.89-3.63c3.55-6.31,1.5-10.52,2.18-15.84a16.23,16.23,0,0,1,1.6-5.18,2,2,0,0,1,.1-.21c4.31-8.53,7.71-16,8.78-20.36C2195,1048.83,2212,985,2212,985s-27.39,9.66-31.66,19.47c-6.47,14.89-14.08,37.31-16.16,44.24s-21.42,64.38-25.41,76-8.07,21.46-12.51,28.93-36.51,75.1-38.76,81.24C2087.45,1234.9,2107.89,1239.58,2109.1,1236.16Z" transform="translate(-471.75 -267.29)"/><path class="cls-31" d="M2224.84,1298.65c-1.13,5.42-8.31,28.1-16.35,53.31h0c-7.33,23-15.38,48-20.2,64-1.8,6-3.16,10.67-3.86,13.53-4.63,18.94.58,48.65,2.26,73.48s-7.8,150.69-7.8,150.69c-6.31,2.94-46.82-2.29-46.82-2.29,4.63-8.84,6.07-167.17,3.55-176.84s-4.21-36.62-1.68-47.14a40.91,40.91,0,0,0,.82-8.44c.21-13.28-2.52-35.24-4.19-59.32-2.11-30.3,9.68-105.63,11.36-112.36.15-.62.4-1.49.71-2.56,3.1-10.57,13.08-40.56,13.08-40.56,20.25-6,35.49-7.11,46.87-4.79,15.06,3.06,23.35,12.1,27.49,23.58C2240,1250.37,2226.29,1291.62,2224.84,1298.65Z" transform="translate(-471.75 -267.29)"/><path class="cls-31" d="M2342.07,1605.36l-32.45,26.29c-3.48-16.83-78-149.93-83.13-163s-10.49-38.29-10.49-47.55c0-1.66-.12-4.44-.35-8.06-.9-14-3.47-40.5-7.16-61.1-.68-3.85-1.41-7.49-2.17-10.8-4.08-17.77-4.78-78.47-4.83-114.16,0-15.89.09-26.82.09-26.82l1-.78c7.68-5.81,56.9-41.22,74.06-8.12a99.11,99.11,0,0,1,9.29,27.92c5.51,30,.11,63.78-4.34,94.55-3.8,26.34-11.08,63.55-13.17,91.17-1.16,15.19-.74,27.48,2.7,33.45,9.68,16.84,19.14,31.09,38.71,90.48C2316.21,1548.17,2342.07,1605.36,2342.07,1605.36Z" transform="translate(-471.75 -267.29)"/><path class="cls-44" d="M2189.48,893.77s-10.71-69.25,46.65-68,56.59,35.53,55.57,69.51-23,31.44,1.79,78.71-21.47,47.28-21.47,47.28L2236.13,972Z" transform="translate(-471.75 -267.29)"/><path class="cls-30" d="M2229.86,832.44s-38.85,6.13-40.38,61.33,10.48,67,44.47,55.46,44.72-69.26,45.48-78.2S2282.24,825.79,2229.86,832.44Z" transform="translate(-471.75 -267.29)"/><path class="cls-45" d="M2298.07,1024.43c.15,19-21.7,64.44-25.07,78.47s-8.69,18.52-4.2,36.48,18.4,78.7,17.84,84-85,32.13-144,21.34c0,0,23-85.75,24.66-95.57s-2-46.63-2.88-57-11.35-32.73-11-43.13c.36-10.61,5.57-19.76,12.85-31.08,2.26-3.51,4.63-7.08,7-10.56,7.71-11.33,15.42-21.61,19.21-25.15a60.41,60.41,0,0,1,7.73-6.17h0a36.12,36.12,0,0,1,8-4.2l33.39-5.33s20.81,7.53,32.78,10.33C2274.36,976.87,2297.72,980.28,2298.07,1024.43Z" transform="translate(-471.75 -267.29)"/><path class="cls-45" d="M2200.23,976.07l-19.35,30.5L2163,1034.71c0-.15,1.23-4.41,3.25-16.75q.58-3.51,1.24-7.93a21.53,21.53,0,0,1,.56-2.6h0c7.64-17.62,31.28-30.91,32.14-31.35Z" transform="translate(-471.75 -267.29)"/><path class="cls-30" d="M2255.8,924.36c-3.37,6.36-6.92,45.83-6.92,45.83s-47.51,18-42.65,7.8c2.2-4.61,2.85-10.59,2.9-15.75a77.74,77.74,0,0,0-.53-9.59c-.13-1-.22-1.63-.22-1.63S2259.16,918,2255.8,924.36Z" transform="translate(-471.75 -267.29)"/><path class="cls-44" d="M2214,872.05s19.94,32.45,38.08,45.23,8.94,23,8.94,23,47.35-99.66,2.34-106.56-72.61-7.41-73.89,60C2189.48,893.77,2209.92,871.54,2214,872.05Z" transform="translate(-471.75 -267.29)"/><path class="cls-35" d="M2235.69,948.59c-7.29,10.75-26.56,13.65-26.56,13.65h0a77.74,77.74,0,0,0-.53-9.59C2221,955,2235.69,948.59,2235.69,948.59Z" transform="translate(-471.75 -267.29)"/><path class="cls-28" d="M2168.15,1007.22h0s-1,2.14-1.88,10.74l7-10.56s12.5-17.92,16.78-22.58a70.93,70.93,0,0,1,10.16-8.74S2175.62,987.89,2168.15,1007.22Z" transform="translate(-471.75 -267.29)"/><path class="cls-30" d="M2273.47,1121.64a253.4,253.4,0,0,1-27.09,7.7c-13,2.76.44,18.39.44,18.39s22.59-2.09,33.46-3.15C2285.54,1144.07,2273.47,1121.64,2273.47,1121.64Z" transform="translate(-471.75 -267.29)"/><path class="cls-45" d="M2262.69,1034s30.49-12,39.52-12.66c0,0-6.14-49-36.09-43.78S2262.69,1034,2262.69,1034Z" transform="translate(-471.75 -267.29)"/><path class="cls-30" d="M2208.19,971.87s-22.39,34.42-14.81,37.43,48.6-4,66-36.71C2259.42,972.59,2233.35,959.22,2208.19,971.87Z" transform="translate(-471.75 -267.29)"/><path class="cls-28" d="M2249,968.8s-23.73,39.39-26.86,114.3,23.47,314.15,21.81,343.33l71.75-31s-27-195.64-36-233,19.37-86.38,22.53-141.19c0,0-2-37.6-23.81-43.78S2249,968.8,2249,968.8Z" transform="translate(-471.75 -267.29)"/><path class="cls-30" d="M2296.94,1008.39s-5.36-36.18-31.87-30.21c-25.47,5.73-1.6,53.16.27,58.77s20.73,51.49,22.37,57.5c5.17,19,.33,19.45-7.46,23.94-23,13.23-70.21,12.36-75.66,16s-5.12,14.95,4,15.35c11.91.51,80-5.9,89.45-6.83,9.2-.9,27.53-1.67,22.72-34.39C2317.55,1086.49,2296.94,1008.39,2296.94,1008.39Z" transform="translate(-471.75 -267.29)"/><path class="cls-28" d="M2208.19,971.87s-25.24,41.89-26.56,91.52-47.53,261.07-42.67,369.37l-10.75-10.41a16.59,16.59,0,0,1-5-12.91c1.86-31.12,10.07-149.92,30.38-215,23.51-75.34,3.75-125.28-.2-138.73s8.67-31.34,12.91-37.74S2180.64,982.13,2208.19,971.87Z" transform="translate(-471.75 -267.29)"/><polygon class="cls-36" points="1791.42 794.12 1812.68 927.91 1726.81 941.56 1702.19 808.3 1791.42 794.12"/><polygon class="cls-37" points="1787.62 802.39 1806.5 921.22 1730.23 933.34 1708.37 814.99 1787.62 802.39"/><polygon class="cls-36" points="1764.48 809.1 1763.16 800.76 1732.32 805.66 1732.44 814.19 1764.48 809.1"/><path class="cls-30" d="M2246.38,1129.34s-14.18,2.37-15.51,2.16-6.92-9.4-13.42-11-14.62-2.92-16.62-4.16-2.55,5.12,3.69,7.72,7.8,6.09-3.89,8.43c-6.46,1.3-30.62-1.4-28.62,2.68,1.18,2.4,24.47,4.11,24.47,4.11s-25.13-.11-26,1.41c-1.69,3,23.52,4,24.57,3.95,0,0-21.6,1.24-21.78,3.18-.24,2.4,21.63,1.38,21.43,1.77,0,0-17.16,1.19-17,2.65.22,1.92,15.33,2.15,18.26,1.81s32.52-3.71,37.48-4.7,13.35-1.57,13.35-1.57Z" transform="translate(-471.75 -267.29)"/><path class="cls-28" d="M2301.06,1012.31s24.36,92.19,22.34,114.89-89.75,26.93-89.75,26.93v-23.88s45.92-10.2,54.53-20.74c4.49-5.48-25.49-75.56-25.49-75.56s-26.82-43.85-1.4-55S2297.65,999,2301.06,1012.31Z" transform="translate(-471.75 -267.29)"/><path class="cls-30" d="M835.45,1262.14s-14.44,7.17-28.12,8.52c0,0-12.94-19-20.5-33.15-18.05-33.85-23.38-49.7-21.84-62.7,2.77-23.37,48.72-116.85,48.72-116.85l51,19.69-39.05,69.4c-3.65,7.11-8.35,18.67-13.21,28.07-6.37,12.33,1.3,40.53,5.84,52.3C818.3,1227.42,826.62,1250.23,835.45,1262.14Z" transform="translate(-471.75 -267.29)"/><path class="cls-46" d="M676.05,1647.2s-1.51,8.46,4.35,19.76,32.08,40.08,30.27,51.9-32.11,10.43-51.14-10.38-47.3-42.43-46.26-47.43,29.59-31,39.51-34.42S676.05,1647.2,676.05,1647.2Z" transform="translate(-471.75 -267.29)"/><polygon class="cls-30" points="214.76 1368.78 204.04 1380.33 179.94 1359.78 191.02 1346.93 214.76 1368.78"/><path class="cls-47" d="M653.41,1614.22c11.76-13.33,106.65-110.43,106.65-110.43,48.4-55.79,67.34-57.26,67.34-57.26a281.47,281.47,0,0,1,28.83,2.52c2.38.34,10.16.25,12.65.66,30.81,5,31.67,1.48,20.41,26.72C870.76,1517.94,685,1637.72,685,1637.72Z" transform="translate(-471.75 -267.29)"/><path class="cls-46" d="M1086.92,1664.82s15.22,6.64,28.63,8.47,45.71-3.5,54.89,5.31-10.6,34.31-40.36,38.11-67.86,10.1-71.57,6.13-6.8-39.64-3.73-50.38S1086.92,1664.82,1086.92,1664.82Z" transform="translate(-471.75 -267.29)"/><polygon class="cls-30" points="608.77 1381.76 615.16 1397.53 583.03 1405.16 578.18 1388.28 608.77 1381.76"/><path class="cls-47" d="M1032.29,1449.68s-13.07-49.88,17.64,67.63c0,0,32.37,125.39,35.94,132.52.84,1.69-40.59,9.27-41.35,9-7.21-2.88-71.71-163.53-87.74-193.2C942.67,1439.48,1032.29,1449.68,1032.29,1449.68Z" transform="translate(-471.75 -267.29)"/><path class="cls-47" d="M1032.31,1449.68l-64.48,37.09s-25.37-31.16-42.17-43.88c-1.73-1.29-3.45-2.6-5.21-4-2.48-1.87-5-3.8-7.44-5.74-1.8-1.41-3.62-2.85-5.4-4.28-12.28-9.8-23.76-19.7-30.08-27-18.27-21.09,21.72-154.41,72.21-95C949.74,1306.94,1017.42,1370.49,1032.31,1449.68Z" transform="translate(-471.75 -267.29)"/><path class="cls-47" d="M945.71,1291.13s-31.77,146-63.09,195.65c0,0-53.18-17.93-77.61-27.51,0,0-2.37-105.5,0-133.07C807.19,1300.48,945.71,1291.13,945.71,1291.13Z" transform="translate(-471.75 -267.29)"/><path class="cls-48" d="M798.61,1342.33s13.4-131.18,2.3-192.22c-7.38-40.58,3.3-106.43,27.63-142a87,87,0,0,1,9.16-11.41s49.12,13,54,16.43c.7.49,6,5.19,12.74,13.42h0c14,17.14,34.62,48.17,36.62,78.29,1.46,21.91,2.66,42,4,62.79.41,6.32.85,12.69,1.3,19.2,1.1,15.62,2.36,32,3.93,50,.87,10,7.63,41.85,12.08,71.2Z" transform="translate(-471.75 -267.29)"/><path class="cls-49" d="M920.45,1438.93c-2.48-1.87-5-3.8-7.44-5.74-1.8-1.41-3.62-2.85-5.4-4.28,2.58-8.22,16.59-45.72,22.09-72.5C929.7,1356.41,933.76,1398.12,920.45,1438.93Z" transform="translate(-471.75 -267.29)"/><path class="cls-50" d="M946.42,1186.87s-28.58,43.44-33.65-63.84l32.35,44.64C945.53,1174,946,1180.36,946.42,1186.87Z" transform="translate(-471.75 -267.29)"/><path class="cls-30" d="M837.7,996.73s5.12-28.37-.84-44.87,48.86,27.8,48.86,27.8,0,2.3.1,5.73c.07,2.68.22,6.05.45,9.59.5,6.76,1.4,14.12,3.07,18.34C893,1022.6,837.7,996.73,837.7,996.73Z" transform="translate(-471.75 -267.29)"/><path class="cls-30" d="M917,897.31s11.56,21.77,5.74,25.1c-4.81,2.76,5.45,24.11,6.79,27.6s-8.72,6-10.86,8.17-8.66,29.73-16.93,30.5-45.45-12.43-55.53-23S828.12,907.31,835,887.26,896.6,859.28,917,897.31Z" transform="translate(-471.75 -267.29)"/><path class="cls-31" d="M919.3,902s12.1-23.35-9.48-40.87S848,873.86,843.52,875s-31.3,9.68-17.86,49.51c12.19,36.14,13.76,40.22,13.76,40.22s7.41-24,12.12-27.4c7.36-5.27,23.41-3.88,23.41-3.88s-7.51-20.37,4.46-23.17S907.23,897.45,919.3,902Z" transform="translate(-471.75 -267.29)"/><path class="cls-30" d="M862.29,921.73c-1-2.8-4.37-14.8-14.69-7.83s6.21,29.65,8,30S871,945.24,862.29,921.73Z" transform="translate(-471.75 -267.29)"/><path class="cls-35" d="M886.27,995c-17-4.57-31.56-23-31.56-23,4.64,4.53,31.11,13.42,31.11,13.42C885.89,988.07,886,991.44,886.27,995Z" transform="translate(-471.75 -267.29)"/><polygon class="cls-36" points="604.25 882.03 576.58 1024.5 485.14 1006.74 509.24 863.58 604.25 882.03"/><polygon class="cls-37" points="597.39 888.97 572.81 1015.5 491.61 999.73 513.01 872.58 597.39 888.97"/><polygon class="cls-36" points="571.64 887.23 573.37 878.35 540.54 871.98 537.53 880.61 571.64 887.23"/><path class="cls-30" d="M1065.31,1249.34s-4,1.68-6.14,1.56c0,0-3.84-.52-6.59-.72a18.72,18.72,0,0,0-2.13-.06c-2.06.12-6.56,1-11.6-.1s-25.56-11.42-25.56-11.42l2.43-12.68.58-12.19s29.92-10.17,34.73-9.69c.47,0,.94.12,1.37.21,4,.81,6.7,3.1,8.77,3.76.76.25,8.14,3.22,8.86,5.48,1,3.14.43,5.73-1,7.49,0,0,1.7,6.24-.08,10.21,0,0,1.75,5.71-1.87,10C1067.09,1241.21,1068.22,1247.2,1065.31,1249.34Z" transform="translate(-471.75 -267.29)"/><path class="cls-30" d="M1023.19,1210.93s-2.84,15.87-9.9,27.67c0,0-22.94-.91-38.84-3.28-38-5.67-53.85-10.83-63.38-19.81-17.11-16.14-64.83-108.74-64.83-108.74l46.19-29.24,32.49,72.7c3.54,7.17,10,17.83,14.68,27.33,6.11,12.46,33.33,23.1,45.49,26.47C985.09,1204,1008.37,1210.93,1023.19,1210.93Z" transform="translate(-471.75 -267.29)"/><path class="cls-48" d="M915.47,1117.06,863,1144.36s-10.41-20.15-13.46-26.7c-8.75-18.78-22.27-47.17-5.26-59.16,36.7-25.88,52.48,17.07,61.5,40.62C908.52,1106.38,915.47,1117.06,915.47,1117.06Z" transform="translate(-471.75 -267.29)"/><rect class="cls-51" x="905.17" y="228.87" width="44.49" height="187.07"/><rect class="cls-52" x="1376.93" y="496.16" width="44.49" height="187.07" transform="translate(1517.11 -1076.76) rotate(90)"/><path class="cls-7" d="M748,655.9a106.14,106.14,0,1,0-90.79,191.89c2.16,1,4.34,2,6.53,2.83A106.14,106.14,0,0,0,748,655.9Zm26.54,130a79.49,79.49,0,0,1-101.08,40q-2.46-1-4.89-2.12a79.58,79.58,0,1,1,106-37.9Z" transform="translate(-471.75 -267.29)"/><path class="cls-53" d="M632.09,788.79l-23.54,12.33A106.31,106.31,0,0,1,625.29,679l19.34,18.22a79.71,79.71,0,0,0-12.54,91.53Z" transform="translate(-471.75 -267.29)"/><path class="cls-54" d="M673.43,825.9l-9.72,24.72c-2.19-.86-4.37-1.81-6.53-2.83a105.7,105.7,0,0,1-48.63-46.67l23.54-12.33a79.2,79.2,0,0,0,36.45,35Q671,824.92,673.43,825.9Z" transform="translate(-471.75 -267.29)"/><path class="cls-54" d="M694,857.67a105.43,105.43,0,0,1-30.31-7l9.72-24.72a79.34,79.34,0,0,0,22.73,5.29Z" transform="translate(-471.75 -267.29)"/><polygon class="cls-54" points="198.21 660.34 0 660.34 0 656.4 194.27 656.4 194.27 572.43 198.21 572.43 198.21 660.34"/><rect class="cls-7" y="615.4" width="104.33" height="23.64"/></g></g></svg>