<?xml version="1.0" encoding="utf-8"?>
<!-- Generator: Adobe Illustrator 22.1.0, SVG Export Plug-In . SVG Version: 6.00 Build 0)  -->
<svg version="1.1" id="Layer_1" xmlns="http://www.w3.org/2000/svg" xmlns:xlink="http://www.w3.org/1999/xlink" x="0px" y="0px"
	 viewBox="0 0 1934 1465.4" style="enable-background:new 0 0 1934 1465.4;" xml:space="preserve">
<style type="text/css">
	.st0{fill:#F3F3F3;}
	.st1{fill:#FFFFFF;}
	.st2{fill:url(#SVGID_1_);}
	.st3{fill:url(#SVGID_2_);}
	.st4{fill:url(#SVGID_3_);}
	.st5{fill:#E0E0E0;}
	.st6{fill:#0DDA8E;}
	.st7{fill:url(#SVGID_4_);}
	.st8{fill:#F5F5F5;}
	.st9{fill:url(#SVGID_5_);}
	.st10{fill:url(#SVGID_6_);}
	.st11{fill:url(#SVGID_7_);}
	.st12{fill:url(#SVGID_8_);}
	.st13{fill:#0AAC70;}
	.st14{fill:url(#SVGID_9_);}
	.st15{fill:#14F298;}
	.st16{fill:url(#SVGID_10_);}
	.st17{fill:url(#SVGID_11_);}
	.st18{fill:url(#SVGID_12_);}
	.st19{fill:#B3B7C4;}
	.st20{fill:#EEA987;}
	.st21{fill:#FCCCA2;}
	.st22{fill:#DBDFF0;}
	.st23{fill:#10214A;}
	.st24{fill:#EEA886;}
	.st25{fill:url(#SVGID_13_);}
	.st26{fill:#D6C5BE;}
	.st27{fill:#FAE6DE;}
	.st28{fill:#A77860;}
	.st29{fill:#E0CEC7;}
	.st30{fill:#616161;}
	.st31{fill:#DB9C7C;}
	.st32{fill:url(#SVGID_14_);}
	.st33{fill:#E55353;}
	.st34{fill:#196370;}
	.st35{fill:#1D6F7D;}
	.st36{fill:url(#SVGID_15_);}
	.st37{fill:url(#SVGID_16_);}
	.st38{fill:#5D96FF;}
</style>
<title>doct</title>
<g>
	<g id="Слой_1">
		<rect x="1046.5" y="519.4" class="st0" width="6.7" height="700.2"/>
		<rect x="1049.8" y="433.1" class="st1" width="71.9" height="18.3"/>
		<rect x="1049.8" y="466.8" class="st1" width="57.6" height="18.3"/>
		<rect x="1053.2" y="1261" class="st1" width="75.5" height="24.3"/>
		
			<linearGradient id="SVGID_1_" gradientUnits="userSpaceOnUse" x1="2836.8208" y1="9748.9561" x2="3222.7339" y2="9748.9561" gradientTransform="matrix(0.2905 0.9569 0.9569 -0.2905 -8899.8418 303.9244)">
			<stop  offset="0" style="stop-color:#40D5E6"/>
			<stop  offset="1" style="stop-color:#5577FF"/>
		</linearGradient>
		<path class="st2" d="M1325.9,164.3c0,0,177.6,210.5,64.9,346.8s-143.6,2.7-143.6,2.7s-67.4,12.5,49.3-158
			C1351.6,275.4,1325.9,164.3,1325.9,164.3z"/>
		
			<linearGradient id="SVGID_2_" gradientUnits="userSpaceOnUse" x1="2793.1851" y1="9985.3389" x2="3446.5098" y2="9985.3389" gradientTransform="matrix(0.2905 0.9569 0.9569 -0.2905 -8899.8418 303.9244)">
			<stop  offset="1.082549e-07" style="stop-color:#0DDA8E"/>
			<stop  offset="1" style="stop-color:#0BAC70"/>
		</linearGradient>
		<path class="st3" d="M1715.1,0c0,0,131.9,194.7-97.7,419s-212.6,358-212.6,358S1169.9,317.4,1715.1,0z"/>
		
			<linearGradient id="SVGID_3_" gradientUnits="userSpaceOnUse" x1="3072.8408" y1="10013.6055" x2="3368.4966" y2="10013.6055" gradientTransform="matrix(0.2905 0.9569 0.9569 -0.2905 -8899.8418 303.9244)">
			<stop  offset="1.082549e-07" style="stop-color:#0DDA8E"/>
			<stop  offset="1" style="stop-color:#0BAC70"/>
		</linearGradient>
		<path class="st4" d="M1361.9,692.4c-96.3,8.7,15.4-251.8,166-319.8s277.9-62.2,365.9-134C1893.7,238.5,1836.3,649.6,1361.9,692.4z
			"/>
		<rect x="383.4" y="519.4" class="st5" width="6.7" height="700.2"/>
		<rect x="857.9" y="519.4" class="st0" width="6.7" height="700.2"/>
		<rect x="1332.4" y="519.4" class="st0" width="6.7" height="700.2"/>
		<rect x="386.7" y="433.1" class="st5" width="113.6" height="18.3"/>
		<rect x="386.7" y="466.8" class="st5" width="161.2" height="18.3"/>
		<rect x="856.1" y="433.1" class="st1" width="133.4" height="18.3"/>
		<rect x="856.1" y="466.8" class="st1" width="85.3" height="18.3"/>
		<rect x="1339.1" y="433.1" class="st1" width="82.7" height="18.3"/>
		<rect x="1339.1" y="466.8" class="st1" width="96.4" height="18.3"/>
		<rect x="1813.6" y="433.1" class="st1" width="120.4" height="18.3"/>
		<rect x="1813.6" y="466.8" class="st1" width="96.4" height="18.3"/>
		<rect x="861.2" y="1261" class="st1" width="75.5" height="24.3"/>
		<rect x="1339.1" y="1261" class="st1" width="75.5" height="24.3"/>
		<path class="st6" d="M1019.5,954.6c-81.8,0-146.7-55-210.2-108.8c-48.2-40.8-98.1-82.6-155.8-103.2c-176-62.8-266,51.9-266.8,52.9
			v-34.9c1-1.2,17-22,63.5-42c42.3-18.1,113.3-32.6,211.2,1.5c62,21.6,113.5,65.3,163.4,107.5c101.1,85.7,188.3,159.7,339.9,43.8
			c114.8-87.8,223-171.4,329.5-202c104.1-29.9,212.7-8,314.4,93.6v31.9c-215.9-216.8-400.5-79.6-629.4,95.4
			C1118.5,936.7,1066.3,954.6,1019.5,954.6z"/>
		<rect x="111.9" y="779.8" class="st5" width="22.8" height="98.5"/>
		<rect x="168.5" y="739.8" class="st5" width="22.8" height="138.5"/>
		<rect x="225.1" y="719" class="st5" width="22.8" height="159.3"/>
		<rect x="281.7" y="710.3" class="st5" width="22.8" height="168"/>
		<rect x="111.9" y="816.5" class="st6" width="22.8" height="61.8"/>
		<rect x="168.5" y="791.4" class="st6" width="22.8" height="86.9"/>
		<rect x="225.1" y="778.3" class="st6" width="22.8" height="100"/>
		<rect x="281.7" y="772.9" class="st6" width="22.8" height="105.4"/>
		
			<linearGradient id="SVGID_4_" gradientUnits="userSpaceOnUse" x1="1532.5852" y1="-525.9" x2="1561.7052" y2="1127.8201" gradientTransform="matrix(1 0 0 -1 -471.75 1198.7101)">
			<stop  offset="1.082549e-07" style="stop-color:#0DDA8E"/>
			<stop  offset="1" style="stop-color:#0BAC70"/>
		</linearGradient>
		<path class="st7" d="M1434.5,1321.2H720.8c-33.1,0-59.9-26.8-59.9-60V278.2c0-33.1,26.8-59.9,59.9-59.9h713.8
			c33.1,0,59.9,26.8,59.9,59.9v983.1C1494.5,1294.3,1467.6,1321.2,1434.5,1321.2z"/>
		<path class="st8" d="M750.4,87.8h694.8l0,0v1177.8l0,0h-735l0,0V128.1C710.2,105.8,728.2,87.8,750.4,87.8z"/>
		
			<linearGradient id="SVGID_5_" gradientUnits="userSpaceOnUse" x1="1159.9399" y1="1134.975" x2="1376.6599" y2="1134.975" gradientTransform="matrix(1 0 0 -1 0 1466)">
			<stop  offset="1.082549e-07" style="stop-color:#0DDA8E"/>
			<stop  offset="1" style="stop-color:#0BAC70"/>
		</linearGradient>
		<rect x="1159.9" y="317.3" class="st9" width="216.7" height="27.4"/>
		
			<linearGradient id="SVGID_6_" gradientUnits="userSpaceOnUse" x1="1159.9399" y1="1020.065" x2="1358.8799" y2="1020.065" gradientTransform="matrix(1 0 0 -1 0 1466)">
			<stop  offset="1.082549e-07" style="stop-color:#0DDA8E"/>
			<stop  offset="1" style="stop-color:#0BAC70"/>
		</linearGradient>
		<rect x="1159.9" y="432.2" class="st10" width="198.9" height="27.4"/>
		
			<linearGradient id="SVGID_7_" gradientUnits="userSpaceOnUse" x1="1159.9399" y1="1077.515" x2="1332.0699" y2="1077.515" gradientTransform="matrix(1 0 0 -1 0 1466)">
			<stop  offset="1.082549e-07" style="stop-color:#0DDA8E"/>
			<stop  offset="1" style="stop-color:#0BAC70"/>
		</linearGradient>
		<rect x="1159.9" y="374.8" class="st11" width="172.1" height="27.4"/>
		
			<linearGradient id="SVGID_8_" gradientUnits="userSpaceOnUse" x1="1399.1699" y1="643.73" x2="1399.1699" y2="881.72" gradientTransform="matrix(1 0 0 -1 -471.75 1198.71)">
			<stop  offset="0" style="stop-color:#7DB3E0"/>
			<stop  offset="1" style="stop-color:#FFFFFF"/>
		</linearGradient>
		<path class="st12" d="M927.4,493.1c-24.3,0.1-48.4-5.1-70.6-15.2c-60.9-27.8-100.1-88.5-100.2-155.5
			c0-94.1,76.6-170.7,170.7-170.7s170.7,76.6,170.7,170.7c-0.1,67-39.2,127.7-100.2,155.5C975.8,488,951.8,493.2,927.4,493.1z
			 M927.4,160.7c-89.2,0-161.7,72.5-161.7,161.7c0.1,63.4,37.2,121,94.9,147.3c42.5,19.2,91.2,19.2,133.7,0
			c57.7-26.3,94.8-83.9,94.9-147.3C1089.1,233.3,1016.6,160.7,927.4,160.7L927.4,160.7z"/>
		<rect x="756.7" y="561.8" class="st13" width="249" height="24.4"/>
		<rect x="756.7" y="627.6" class="st5" width="249" height="24.4"/>
		<rect x="756.7" y="693.3" class="st5" width="249" height="24.4"/>
		<rect x="1056.6" y="561.8" class="st13" width="41.6" height="24.4"/>
		<rect x="1056.6" y="627.6" class="st5" width="41.6" height="24.4"/>
		<rect x="1056.6" y="693.3" class="st5" width="41.6" height="24.4"/>
		<linearGradient id="SVGID_9_" gradientUnits="userSpaceOnUse" x1="386.6898" y1="844.268" x2="1808.5198" y2="844.268">
			<stop  offset="1.082549e-07" style="stop-color:#0DDA8E"/>
			<stop  offset="1" style="stop-color:#0BAC70"/>
		</linearGradient>
		<path class="st14" d="M1684.7,960.5c-110.8,0-207.1-47.9-307.6-97.8c-124-61.6-252.2-125.4-423-107.9
			c-109.1,11.1-177.5,55.6-237.9,94.7c-54.7,35.5-106.4,66.7-176.4,69.3c-113.2,4.3-152.4-44-153.1-46.9v-31l0,0
			c0.2,0.5,24.8,54.7,153,54.1c63.1-0.3,109.7-30.5,163.6-65.5c62.7-40.7,133.7-86.7,248.5-98.5c177.7-18.2,309,47.1,436,110.3
			c132.9,66.1,259.7,128.1,420.8,74.1v25.5C1762.1,956.5,1725.5,960.5,1684.7,960.5z"/>
		<path class="st8" d="M1232.2,537.2h348.1c41.3,0,74.7,33.5,74.7,74.7v606c0,41.3-33.5,74.7-74.7,74.7h-348.1
			c-41.3,0-74.7-33.5-74.7-74.7v-606C1157.4,570.7,1190.9,537.2,1232.2,537.2z"/>
		<path class="st5" d="M1596.8,649.6c-14.8-42.5-61.2-64.9-103.7-50.2c-42.5,14.8-64.9,61.2-50.2,103.7c0.2,0.5,0.3,0.9,0.5,1.4
			c0.6,1.7,1.3,3.4,2,5.1c17.9,41.3,65.9,60.2,107.1,42.3C1591.9,734.7,1611.3,690,1596.8,649.6z M1540.7,734.5
			c-23.9,8.5-50.6,1.4-67.1-17.9c-3.9-4.6-7.1-9.7-9.5-15.2c-0.5-1.2-1-2.5-1.5-3.8c-11.4-31.8,5.2-66.7,36.9-78.1
			c31.8-11.4,66.7,5.2,78.1,36.9C1589,688.2,1572.4,723.1,1540.7,734.5L1540.7,734.5z"/>
		<path class="st13" d="M1461.8,658.8l-19.5-6.1c10.4-33.1,40.6-56.1,75.3-57.2l0.6,20.4C1492.3,616.7,1469.6,633.9,1461.8,658.8
			L1461.8,658.8z"/>
		<path class="st6" d="M1464.1,701.4l-18.7,8.1c-0.7-1.7-1.4-3.4-2-5.1c-6-16.7-6.4-34.8-1.1-51.7l19.5,6.1
			c-4,12.7-3.7,26.3,0.8,38.8C1463.1,698.9,1463.6,700.1,1464.1,701.4z"/>
		<path class="st15" d="M1458.1,729.8c-5.2-6.1-9.4-12.9-12.6-20.3l18.7-8.1c2.4,5.5,5.6,10.6,9.5,15.2L1458.1,729.8z"/>
		<linearGradient id="SVGID_10_" gradientUnits="userSpaceOnUse" x1="1475.5" y1="1194.1201" x2="1519.4" y2="1194.1201">
			<stop  offset="1.082549e-07" style="stop-color:#0DDA8E"/>
			<stop  offset="1" style="stop-color:#0BAC70"/>
		</linearGradient>
		<rect x="1475.5" y="1122.2" class="st16" width="43.9" height="143.9"/>
		<linearGradient id="SVGID_11_" gradientUnits="userSpaceOnUse" x1="1410.24" y1="1214.3049" x2="1454.14" y2="1214.3049">
			<stop  offset="1.082549e-07" style="stop-color:#0DDA8E"/>
			<stop  offset="1" style="stop-color:#0BAC70"/>
		</linearGradient>
		<rect x="1410.2" y="1162.5" class="st17" width="43.9" height="103.6"/>
		<linearGradient id="SVGID_12_" gradientUnits="userSpaceOnUse" x1="1538.8199" y1="1160.7649" x2="1582.72" y2="1160.7649">
			<stop  offset="1.082549e-07" style="stop-color:#0DDA8E"/>
			<stop  offset="1" style="stop-color:#0BAC70"/>
		</linearGradient>
		<rect x="1538.8" y="1055.4" class="st18" width="43.9" height="210.7"/>
		<polygon class="st6" points="1223.9,1107.3 1220.1,1104.4 1291.6,1011.3 1379.9,1016.1 1446.5,910.1 1518.2,902.7 1561.3,817.4 
			1565.6,819.6 1521.3,907.2 1449.3,914.6 1382.5,1021.1 1293.9,1016.3 		"/>
		<path class="st13" d="M1359.3,644.5h-124.9c-7.9,0-14.3-6.4-14.3-14.3c0,0,0,0,0,0l0,0c0-7.9,6.4-14.3,14.3-14.3l0,0h124.9
			c7.9,0,14.3,6.4,14.3,14.3c0,0,0,0,0,0l0,0C1373.5,638.1,1367.1,644.5,1359.3,644.5L1359.3,644.5z"/>
		<path class="st5" d="M1359.3,694.3h-124.9c-7.9,0-14.3-6.4-14.3-14.3c0,0,0,0,0,0l0,0c0-7.9,6.4-14.3,14.3-14.3c0,0,0,0,0,0h124.9
			c7.9,0,14.3,6.4,14.3,14.3c0,0,0,0,0,0l0,0C1373.5,687.9,1367.1,694.3,1359.3,694.3C1359.3,694.3,1359.3,694.3,1359.3,694.3z"/>
		<path class="st5" d="M1359.3,744.1h-124.9c-7.9,0-14.3-6.4-14.3-14.3c0,0,0,0,0,0l0,0c0-7.9,6.4-14.3,14.3-14.3l0,0h124.9
			c7.9,0,14.3,6.4,14.3,14.3c0,0,0,0,0,0l0,0C1373.5,737.7,1367.1,744.1,1359.3,744.1L1359.3,744.1z"/>
		<path class="st19" d="M953.8,1122.4c0,0-49.4-14-109.8,0l29-148.4C872.9,973.9,945.3,1050.6,953.8,1122.4z"/>
		<path class="st20" d="M1110.4,866.4c0,0,11.1,8,14.4,7s8.8,0.6,11.9,0.3s11.3-4.2,14.6-3.4c1.3,0.3,8.8,5.6,11.6,6
			s8.5,0.5,8.2,2.9s-5.6,3.7-5.6,3.7s2.5,0.5,2.8,2.7c0.6,4.3-1.6,5.8-1.6,5.8s2.3,2.2,2.1,4c-0.4,4-2.7,5.4-2.7,5.4
			c0.6,1.5,0.6,3.2,0.1,4.8c-0.8,2-2.6,3.5-4.7,3.8c0,0-0.5,4.5-3,5.2s-4.7-0.3-6.7-0.3s-19.8-6.2-30.4-15.4
			c-6.9-5.9-14.6-10.8-22.8-14.6L1110.4,866.4z"/>
		<path class="st21" d="M882.8,562.7c0,0-16.5-10.6-31.5,8.3s-9.6,37.1-6.4,54.1s18.2,55.3,11.8,72.3s1.8,25.8,1.8,25.8
			s51.4,13.2,45.4-64.2C897.8,581.7,882.8,562.7,882.8,562.7z"/>
		<path class="st22" d="M904.8,708.7c0,0,19.6-2.7,32.7,7.2s22.1,28.3,26.1,34.1s50.9,57.6,53.3,58.5s31.5,17,51.2,30.1
			s50.7,28.7,50.7,28.7l-16.8,20.6c0,0-82.8-29.6-100-45.7c-18.4-17.1-103.5-102-103.5-102S877.1,722.8,904.8,708.7z"/>
		<path class="st23" d="M1047.3,1428.8c0,0,21.2,28.5,18.3,33s-25.2,5.2-38.7,0s-13.9-38.6-20-52.9c-2.6-6,2.9-23.7,10.7-25
			s16.1,2.5,16.1,2.5S1025.5,1406.5,1047.3,1428.8z"/>
		<path class="st24" d="M1033.7,1386.1c2.7,7.7,4.8,15.7,6.1,23.7c1.3,9.6,15.1,30,14.4,32.6s-18.1,4.9-25.2-1.7s-11.7-26-13.2-37.6
			c-1.4-10.8-3.3-16.1-3.3-16.1S1026.9,1379,1033.7,1386.1z"/>
		<polygon class="st23" points="1006.2,1406.4 1006.2,1436.2 1010,1436.2 1010,1413.1 		"/>
		<path class="st23" d="M862.9,1429.2c0,0,20.4,28,17.5,32.6s-25.2,5.2-38.7,0s-13.9-38.6-20-52.9c-2.6-6,2.9-23.7,10.7-25
			s16.8,2.8,16.8,2.8S841.3,1407,862.9,1429.2z"/>
		<path class="st24" d="M849.1,1386.6c0.9,7.6,2.3,15.1,4.2,22.6c2.6,9.4,16.4,30.7,15.8,33.2s-18.1,4.9-25.2-1.7
			s-12.6-25.9-13.2-37.6s1.6-19.3,1.6-19.3S842.4,1379.5,849.1,1386.6z"/>
		<polygon class="st23" points="821.2,1406.4 821.2,1436.2 825,1436.2 825,1413.1 		"/>
		<path class="st23" d="M951.1,922.6c0,0,18.2,84.5,22.3,105.8s15.8,124.3,17.1,141.8s19,83.6,18.1,89.8s27.3,130.4,27.3,130.4
			s-28.9,7.9-33.8,2.6c-4.1-4.5-45.7-118-45.7-149.3c0-43.3-32.6-98.3-36.8-108c-38.3-89.9-30.2-118.8-35.2-124.6s-5.4,3.6-8.4,16.5
			s-9.2,124.8-12.9,138.9s-0.8,62.2-2.9,86.4s-4.5,132.6-4.5,132.6s-20.9,4.8-30.9,0.2c-2.9-1.3-10.1-120.8-10.5-149.6
			s-0.9-68.5-1.7-80.9c-7.7-119.3-19.1-136.2,3.2-220.8C858.8,772.3,951.1,922.6,951.1,922.6z"/>
		<linearGradient id="SVGID_13_" gradientUnits="userSpaceOnUse" x1="809.9148" y1="824.2842" x2="968.0026" y2="824.2842">
			<stop  offset="1.082549e-07" style="stop-color:#0DDA8E"/>
			<stop  offset="1" style="stop-color:#0BAC70"/>
		</linearGradient>
		<path class="st25" d="M904.1,697.5c0,0,19,9,25.5,10.3s32.1,34.5,36.6,46.6s0,30.3-9.2,51.6s-0.5,28.4-4.7,49.8
			s-0.2,71.3,0.6,83.2S856,965.8,818.4,928c0,0,20.4-38.3,23.5-43.5s0.5-34-2.4-41.3S817.4,773,817.4,773s-15.8-48.2-1.5-59.2
			c12.4-9.6,46.1-13,52.2-15.2S891.7,695.6,904.1,697.5z"/>
		<path class="st26" d="M910.2,739.7l11.5-13.5l-10-35.5C911.7,690.7,908.3,710.5,910.2,739.7z"/>
		<path class="st24" d="M913.2,675.6c0,0-3.8,34.8-3,46.1c0,0-19.7,19.7-42.1-23c0,0,9.4-17.6,2.3-41.7
			C863.3,632.9,913.2,675.6,913.2,675.6z"/>
		<polygon class="st24" points="910.2,721.7 910.2,739.7 887.5,722.8 		"/>
		<polygon class="st26" points="910.2,739.7 900.7,728.1 869,696.5 858.8,706.3 		"/>
		<polygon class="st27" points="921.7,726.2 936.2,730.3 911.7,690.7 		"/>
		<polygon class="st27" points="900.7,728.1 887.5,745.5 860.4,699.2 869.8,694.4 		"/>
		<path class="st28" d="M912.4,683.2l-0.7,7c0,0-15.7,2.9-36.2-22C875.6,668.2,890.1,685.9,912.4,683.2z"/>
		<path class="st20" d="M908.4,683.7c6.2-0.2,23.4-2.2,31.9-41.9c10.4-48.5-12.6-73.6-32.2-78.3s-37.7,2.2-47.8,27.5
			c0,0-7.3,19.8,4.6,54.9C876.8,681.2,901.8,684,908.4,683.7z"/>
		<path class="st21" d="M892.6,595c0,0,26.4,1.6,50.9,38.5c0,0,11.5-44.3-18.5-64.5s-51-2.8-58.3,6c0,0-10.5,2.4-10.8,22.3
			s-13.7,50,15.7,64.2c0,0-2.8-22.7-0.2-27.9C873.9,628.3,882.9,631.8,892.6,595z"/>
		<path class="st20" d="M872.8,624.7c-1.3-3.4-5-4.8-7-1.1c-2,3.7,0.4,18,5.7,19.6S875.4,631.7,872.8,624.7z"/>
		<path class="st22" d="M860.4,699.2c0,0,29.8,35.6,32.9,110.5s-23.5,314.2-21.8,343.3l-77.2-37.4c0,0,0.4-120.7,26.3-196.7
			c30.3-89.1-4.2-116.3-7.3-171.1c0,0,1.4-40.1,23.8-43.8C858,700.7,860.4,699.2,860.4,699.2z"/>
		<path class="st22" d="M920.3,704.6c0,0,12.1,1.4,15.9,5.9c3.8,4.5,27.8,32.1,29.5,40.3s7.3,14.2-4.2,52
			c-10.3,33.9-7.7,71.8-5.6,87.1s39.1,220.6,37.1,225.9s-17.4,17.8-17.4,17.8S942.5,930.8,942.9,897S956.5,762.4,920.3,704.6z"/>
		<polygon class="st23" points="1173.6,811.5 1147.8,944.5 1062.4,927.9 1084.9,794.3 		"/>
		<polygon class="st29" points="1167.2,818 1144.3,936.1 1068.5,921.4 1088.5,802.7 		"/>
		<polygon class="st30" points="1143.2,816.3 1144.8,808.1 1114.2,802.1 1111.3,810.2 		"/>
		<path class="st31" d="M1164,881.8c0,0-15.3-5-19.8-2.1s0.9,5,0.9,5s-5.3-2.2-7.4,1.8s4.4,6.1,4.4,6.1c-2.4-0.3-4.7,1.4-5,3.8
			c0,0.1,0,0.2,0,0.3c-0.6,4.7,5.2,5.2,5.2,5.2s-6.7,2.6-2.5,6.9c7.1,7.2,18.9,6.1,18.9,6.1s2.9-0.7,3.1-5.3c0,0,7-1.2,4.8-8.8
			c0,0,5.7-6.2,0.1-9.6C1166.7,891.4,1172.7,884.3,1164,881.8z"/>
		<path class="st24" d="M794,958.1c0,0-3.1,14.4,3.2,24.1c2.4,3.7,0.1,31.8-0.1,35.4c-0.2,2.9-2.8,5.4-3.9,4.8s-1.3-16.2-3-21.2
			c-1.4-4.2-2.6-5.8-3.4-4.4s1.8,23.9,3.3,31.4s-0.4,23.3-4.3,20.7s-16.9-37.6-15.9-49.3s5.4-26.3,5.4-26.3L794,958.1z"/>
		<path class="st22" d="M855.8,701.3c0,0-30.8-1.9-46.3,16.1s-14.6,39.4-18.6,48.7S778,815.3,776,821.8s-3.9,42.8-6.7,72.1
			s-2.2,83.9-2.2,83.9l29.5-5.3c0,0,1.2-52.1,1.9-82.3s25.3-83.6,34.6-106.9S879.4,716,855.8,701.3z"/>
		<polygon class="st6" points="214.9,1043.4 265.2,1043.4 249.8,1011.5 199.5,1011.5 		"/>
		<polygon class="st6" points="191.4,1043.4 203.4,1043.4 188,1011.5 176,1011.5 		"/>
		<rect x="1421.8" y="8.4" class="st6" width="99.5" height="18"/>
		<rect x="1421.8" y="0" class="st6" width="99.5" height="3.4"/>
		<path class="st19" d="M1787.3,1148.5c0,0-49.4-14-109.9,0l29-148.5C1706.4,1000,1778.7,1076.7,1787.3,1148.5z"/>
		<path class="st23" d="M1654,1402.7c0,0-22.5,38.2-32,44.4c-12.9,8.5-4.8,17,1.3,17s37.4,2.3,44.4-5.6s10.3-31.3,16.7-37.4
			s12.3-28.8-3.1-36.5C1664.3,1376.3,1654,1402.7,1654,1402.7z"/>
		<path class="st24" d="M1662.4,1382.7c0,0-24.5,47.9-28.9,54.6s8.4,6.6,16.3,3.5s28.6-35,30.8-41.1s0.6-15,0.6-15L1662.4,1382.7z"
			/>
		<polygon class="st23" points="1689.8,1410 1683.9,1455.8 1680.7,1456 1681.7,1423 		"/>
		<path class="st23" d="M1847.1,1365.5c0,0-5.4,44-11.6,53.5c-8.4,12.9,2.4,17.5,8,15.1s35.2-12.9,38.4-22.8s-3-32.8,0.4-41
			s-0.2-31.3-17.4-32.2C1846,1337.1,1847.1,1365.5,1847.1,1365.5z"/>
		<path class="st24" d="M1846.9,1343.8c0,0-3.3,53.7-4.7,61.6s10.3,2.7,16.3-3.3s12.2-43.4,11.8-49.9s-5.4-14-5.4-14L1846.9,1343.8z
			"/>
		<polygon class="st23" points="1882.9,1357.8 1895.8,1402.2 1892.9,1403.6 1880.7,1373 		"/>
		<path class="st24" d="M1633.9,962.7c-0.4,5.7-0.5,11.5-0.2,17.2c0.3,4.3-6.9,30-8.1,33.2c-1,2.7-2.3,0.5-2.7-1.6
			c-0.2-1.2,0.9-10.5,0.7-15.7c-0.1-4.3-0.9-6.2-1.9-5.1s-7.4,17-8.1,24.4s-7.2,23-10.2,19.6s-2.5-35.2,1.6-46s12.3-23.2,12.3-23.2
			L1633.9,962.7z"/>
		<path class="st22" d="M1637.4,968.9c1.2-3.4,30.7-50.7,37.7-65.8s13.3-28.9,16.6-34.8c0.2-0.4,0.6-1.1,1.1-2
			c2.3-4.4,7.3-14.2,12.4-23.3c0.4-0.6,0.7-1.3,1.1-1.9l0.9-3.6c3.6-6.3,1.5-10.5,2.2-15.8c0.2-1.8,0.8-3.6,1.6-5.2
			c0-0.1,0.1-0.1,0.1-0.2c4.3-8.5,7.7-16,8.8-20.4c3.5-14.4,20.5-78.2,20.5-78.2s-27.4,9.7-31.7,19.5c-6.5,14.9-14.1,37.3-16.2,44.2
			s-21.4,64.4-25.4,76s-8.1,21.5-12.5,28.9s-36.5,75.1-38.8,81.2C1615.7,967.6,1636.1,972.3,1637.4,968.9z"/>
		<path class="st23" d="M1753.1,1031.4c-1.1,5.4-8.3,28.1-16.4,53.3l0,0c-7.3,23-15.4,48-20.2,64c-1.8,6-3.2,10.7-3.9,13.5
			c-4.6,18.9,0.6,48.7,2.3,73.5s-7.8,150.7-7.8,150.7c-6.3,2.9-46.8-2.3-46.8-2.3c4.6-8.8,6.1-167.2,3.6-176.8s-4.2-36.6-1.7-47.1
			c0.6-2.8,0.8-5.6,0.8-8.4c0.2-13.3-2.5-35.2-4.2-59.3c-2.1-30.3,9.7-105.6,11.4-112.4c0.1-0.6,0.4-1.5,0.7-2.6
			c3.1-10.6,13.1-40.6,13.1-40.6c20.3-6,35.5-7.1,46.9-4.8c15.1,3.1,23.4,12.1,27.5,23.6C1768.3,983.1,1754.5,1024.3,1753.1,1031.4z
			"/>
		<path class="st23" d="M1870.3,1338.1l-32.4,26.3c-3.5-16.8-78-149.9-83.1-163s-10.5-38.3-10.5-47.6c0-1.7-0.1-4.4-0.4-8.1
			c-0.9-14-3.5-40.5-7.2-61.1c-0.7-3.8-1.4-7.5-2.2-10.8c-4.1-17.8-4.8-78.5-4.8-114.2c0-15.9,0.1-26.8,0.1-26.8l1-0.8
			c7.7-5.8,56.9-41.2,74.1-8.1c4.5,8.8,7.6,18.2,9.3,27.9c5.5,30,0.1,63.8-4.3,94.6c-3.8,26.3-11.1,63.6-13.2,91.2
			c-1.2,15.2-0.7,27.5,2.7,33.4c9.7,16.8,19.1,31.1,38.7,90.5C1844.5,1280.9,1870.3,1338.1,1870.3,1338.1z"/>
		<path class="st23" d="M1717.7,626.5c0,0-10.7-69.3,46.6-68s56.6,35.5,55.6,69.5s-23,31.4,1.8,78.7s-21.5,47.3-21.5,47.3
			l-35.9-49.3L1717.7,626.5z"/>
		<path class="st24" d="M1758.1,565.2c0,0-38.9,6.1-40.4,61.3c-1.5,55.2,10.5,67,44.5,55.5c34-11.5,44.7-69.3,45.5-78.2
			C1808.4,594.8,1810.5,558.5,1758.1,565.2z"/>
		<linearGradient id="SVGID_14_" gradientUnits="userSpaceOnUse" x1="1670.8901" y1="839.6021" x2="1826.3208" y2="839.6021">
			<stop  offset="1.082549e-07" style="stop-color:#0DDA8E"/>
			<stop  offset="1" style="stop-color:#0BAC70"/>
		</linearGradient>
		<path class="st32" d="M1826.3,757.1c0.1,19-21.7,64.4-25.1,78.5s-8.7,18.5-4.2,36.5s18.4,78.7,17.8,84s-85,32.1-144,21.3
			c0,0,23-85.8,24.7-95.6s-2-46.6-2.9-57s-11.4-32.7-11-43.1c0.4-10.6,5.6-19.8,12.9-31.1c2.3-3.5,4.6-7.1,7-10.6
			c7.7-11.3,15.4-21.6,19.2-25.2c2.4-2.3,5-4.3,7.7-6.2l0,0c2.5-1.7,5.2-3.1,8-4.2l33.4-5.3c0,0,20.8,7.5,32.8,10.3
			C1802.6,709.6,1826,713,1826.3,757.1z"/>
		<path class="st33" d="M1728.5,708.8l-19.4,30.5l-17.9,28.1c0-0.2,1.2-4.4,3.3-16.8c0.4-2.3,0.8-5,1.2-7.9c0.1-0.9,0.3-1.7,0.6-2.6
			l0,0C1703.9,722.5,1727.6,709.2,1728.5,708.8L1728.5,708.8z"/>
		<path class="st24" d="M1784.1,657.1c-3.4,6.4-6.9,45.8-6.9,45.8s-47.5,18-42.6,7.8c2.2-4.6,2.9-10.6,2.9-15.8
			c0-3.2-0.2-6.4-0.5-9.6c-0.1-1-0.2-1.6-0.2-1.6S1787.4,650.7,1784.1,657.1z"/>
		<path class="st23" d="M1742.3,604.8c0,0,19.9,32.4,38.1,45.2c18.1,12.8,8.9,23,8.9,23s47.4-99.7,2.3-106.6s-72.6-7.4-73.9,60
			C1717.7,626.5,1738.2,604.3,1742.3,604.8z"/>
		<path class="st28" d="M1763.9,681.3c-7.3,10.8-26.6,13.7-26.6,13.7l0,0c0-3.2-0.2-6.4-0.5-9.6
			C1749.3,687.7,1763.9,681.3,1763.9,681.3z"/>
		<path class="st22" d="M1696.4,739.9L1696.4,739.9c0,0-1,2.1-1.9,10.7l7-10.6c0,0,12.5-17.9,16.8-22.6c3.1-3.2,6.5-6.2,10.2-8.7
			C1728.5,708.8,1703.9,720.6,1696.4,739.9z"/>
		<path class="st24" d="M1801.7,854.3c-8.9,3.1-17.9,5.6-27.1,7.7c-13,2.8,0.4,18.4,0.4,18.4s22.6-2.1,33.5-3.2
			C1813.8,876.8,1801.7,854.3,1801.7,854.3z"/>
		<path class="st33" d="M1790.9,766.7c0,0,30.5-12,39.5-12.7c0,0-6.1-49-36.1-43.8C1764.4,715.5,1790.9,766.7,1790.9,766.7z"/>
		<path class="st24" d="M1736.4,704.6c0,0-22.4,34.4-14.8,37.4s48.6-4,66-36.7C1787.7,705.3,1761.6,691.9,1736.4,704.6z"/>
		<path class="st22" d="M1777.3,701.5c0,0-23.7,39.4-26.9,114.3c-3.1,74.9,23.5,314.2,21.8,343.3l71.8-31c0,0-27-195.6-36-233
			s19.4-86.4,22.5-141.2c0,0-2-37.6-23.8-43.8C1784.9,704,1777.3,701.5,1777.3,701.5z"/>
		<path class="st24" d="M1825.2,741.1c0,0-5.4-36.2-31.9-30.2c-25.5,5.7-1.6,53.2,0.3,58.8s20.7,51.5,22.4,57.5
			c5.2,19,0.3,19.4-7.5,23.9c-23,13.2-70.2,12.4-75.7,16s-5.1,14.9,4,15.3c11.9,0.5,80-5.9,89.4-6.8c9.2-0.9,27.5-1.7,22.7-34.4
			C1845.8,819.2,1825.2,741.1,1825.2,741.1z"/>
		<path class="st22" d="M1736.4,704.6c0,0-25.2,41.9-26.6,91.5s-47.5,261.1-42.7,369.4l-10.8-10.4c-3.5-3.4-5.3-8.1-5-12.9
			c1.9-31.1,10.1-149.9,30.4-215c23.5-75.3,3.8-125.3-0.2-138.7s8.7-31.3,12.9-37.7S1708.9,714.8,1736.4,704.6z"/>
		<polygon class="st30" points="1791.4,794.1 1812.7,927.9 1726.8,941.6 1702.2,808.3 		"/>
		<polygon class="st29" points="1787.6,802.4 1806.5,921.2 1730.2,933.3 1708.4,815 		"/>
		<polygon class="st30" points="1764.5,809.1 1763.2,800.8 1732.3,805.7 1732.4,814.2 		"/>
		<path class="st24" d="M1774.6,862c0,0-14.2,2.4-15.5,2.2s-6.9-9.4-13.4-11s-14.6-2.9-16.6-4.2s-2.6,5.1,3.7,7.7s7.8,6.1-3.9,8.4
			c-6.5,1.3-30.6-1.4-28.6,2.7c1.2,2.4,24.5,4.1,24.5,4.1s-25.1-0.1-26,1.4c-1.7,3,23.5,4,24.6,3.9c0,0-21.6,1.2-21.8,3.2
			c-0.2,2.4,21.6,1.4,21.4,1.8c0,0-17.2,1.2-17,2.7c0.2,1.9,15.3,2.2,18.3,1.8s32.5-3.7,37.5-4.7s13.4-1.6,13.4-1.6L1774.6,862z"/>
		<path class="st22" d="M1829.3,745c0,0,24.4,92.2,22.3,114.9s-89.8,26.9-89.8,26.9V863c0,0,45.9-10.2,54.5-20.7
			c4.5-5.5-25.5-75.6-25.5-75.6s-26.8-43.8-1.4-55S1825.9,731.7,1829.3,745z"/>
		<path class="st24" d="M363.7,994.8c0,0-14.4,7.2-28.1,8.5c0,0-12.9-19-20.5-33.2c-18-33.8-23.4-49.7-21.8-62.7
			C296,884.2,342,790.7,342,790.7l51,19.7l-39,69.4c-3.7,7.1-8.3,18.7-13.2,28.1c-6.4,12.3,1.3,40.5,5.8,52.3
			C346.5,960.1,354.9,982.9,363.7,994.8z"/>
		<path class="st23" d="M204.3,1379.9c0,0-1.5,8.5,4.3,19.8s32.1,40.1,30.3,51.9s-32.1,10.4-51.1-10.4s-47.3-42.4-46.3-47.4
			s29.6-31,39.5-34.4S204.3,1379.9,204.3,1379.9z"/>
		<polygon class="st24" points="214.8,1368.8 204,1380.3 179.9,1359.8 191,1346.9 		"/>
		<path class="st13" d="M181.7,1346.9c11.8-13.3,106.7-110.4,106.7-110.4c48.4-55.8,67.3-57.3,67.3-57.3c9.6,0.3,19.3,1.2,28.8,2.5
			c2.4,0.3,10.2,0.3,12.7,0.7c30.8,5,31.7,1.5,20.4,26.7c-18.5,41.5-204.3,161.3-204.3,161.3L181.7,1346.9z"/>
		<path class="st23" d="M615.2,1397.5c0,0,15.2,6.6,28.6,8.5s45.7-3.5,54.9,5.3s-10.6,34.3-40.4,38.1s-67.9,10.1-71.6,6.1
			s-6.8-39.6-3.7-50.4S615.2,1397.5,615.2,1397.5z"/>
		<polygon class="st24" points="608.8,1381.8 615.2,1397.5 583,1405.2 578.2,1388.3 		"/>
		<path class="st13" d="M560.5,1182.4c0,0-13.1-49.9,17.6,67.6c0,0,32.4,125.4,35.9,132.5c0.8,1.7-40.6,9.3-41.3,9
			c-7.2-2.9-71.7-163.5-87.7-193.2C470.9,1172.2,560.5,1182.4,560.5,1182.4z"/>
		<path class="st13" d="M560.6,1182.4l-64.5,37.1c0,0-25.4-31.2-42.2-43.9c-1.7-1.3-3.5-2.6-5.2-4c-2.5-1.9-5-3.8-7.4-5.7
			c-1.8-1.4-3.6-2.8-5.4-4.3c-12.3-9.8-23.8-19.7-30.1-27c-18.3-21.1,21.7-154.4,72.2-95C478,1039.6,545.7,1103.2,560.6,1182.4z"/>
		<path class="st13" d="M474,1023.8c0,0-31.8,146-63.1,195.7c0,0-53.2-17.9-77.6-27.5c0,0-2.4-105.5,0-133.1
			C335.4,1033.2,474,1023.8,474,1023.8z"/>
		<path class="st6" d="M326.9,1075c0,0,13.4-131.2,2.3-192.2c-7.4-40.6,3.3-106.4,27.6-142c2.7-4.1,5.8-7.9,9.2-11.4
			c0,0,49.1,13,54,16.4c0.7,0.5,6,5.2,12.7,13.4l0,0c14,17.1,34.6,48.2,36.6,78.3c1.5,21.9,2.7,42,4,62.8c0.4,6.3,0.8,12.7,1.3,19.2
			c1.1,15.6,2.4,32,3.9,50c0.9,10,7.6,41.8,12.1,71.2L326.9,1075z"/>
		<path class="st34" d="M448.7,1171.6c-2.5-1.9-5-3.8-7.4-5.7c-1.8-1.4-3.6-2.8-5.4-4.3c2.6-8.2,16.6-45.7,22.1-72.5
			C458,1089.1,462,1130.8,448.7,1171.6z"/>
		<path class="st35" d="M474.7,919.6c0,0-28.6,43.4-33.7-63.8l32.3,44.6C473.8,906.7,474.3,913.1,474.7,919.6z"/>
		<path class="st24" d="M366,729.4c0,0,5.1-28.4-0.8-44.9s48.9,27.8,48.9,27.8s0,2.3,0.1,5.7c0.1,2.7,0.2,6,0.5,9.6
			c0.5,6.8,1.4,14.1,3.1,18.3C421.3,755.3,366,729.4,366,729.4z"/>
		<path class="st24" d="M445.3,630c0,0,11.6,21.8,5.7,25.1c-4.8,2.8,5.5,24.1,6.8,27.6s-8.7,6-10.9,8.2c-2.1,2.2-8.7,29.7-16.9,30.5
			s-45.5-12.4-55.5-23c-10.1-10.6-18.1-58.4-11.2-78.4C370.1,599.9,424.8,592,445.3,630z"/>
		<path class="st23" d="M447.5,634.7c0,0,12.1-23.3-9.5-40.9s-61.8,12.7-66.3,13.9s-31.3,9.7-17.9,49.5
			c12.2,36.1,13.8,40.2,13.8,40.2s7.4-24,12.1-27.4c7.4-5.3,23.4-3.9,23.4-3.9s-7.5-20.4,4.5-23.2
			C419.6,640.2,435.5,630.2,447.5,634.7z"/>
		<path class="st24" d="M390.5,654.4c-1-2.8-4.4-14.8-14.7-7.8s6.2,29.7,8,30S399.3,677.9,390.5,654.4z"/>
		<path class="st28" d="M414.5,727.7c-17-4.6-31.6-23-31.6-23c4.6,4.5,31.1,13.4,31.1,13.4C414.1,720.8,414.3,724.2,414.5,727.7z"/>
		<polygon class="st23" points="604.3,882 576.6,1024.5 485.1,1006.7 509.2,863.6 		"/>
		<polygon class="st29" points="597.4,889 572.8,1015.5 491.6,999.7 513,872.6 		"/>
		<polygon class="st30" points="571.6,887.2 573.4,878.3 540.5,872 537.5,880.6 		"/>
		<path class="st24" d="M593.6,982c0,0-4,1.7-6.1,1.6c0,0-3.8-0.5-6.6-0.7c-0.7-0.1-1.4-0.1-2.1-0.1c-2.1,0.1-6.6,1-11.6-0.1
			s-25.6-11.4-25.6-11.4l2.4-12.7l0.6-12.2c0,0,29.9-10.2,34.7-9.7c0.5,0,0.9,0.1,1.4,0.2c4,0.8,6.7,3.1,8.8,3.8
			c0.8,0.3,8.1,3.2,8.9,5.5c1,3.1,0.4,5.7-1,7.5c0,0,1.7,6.2-0.1,10.2c0,0,1.8,5.7-1.9,10C595.3,973.9,596.5,979.9,593.6,982z"/>
		<path class="st24" d="M551.4,943.6c0,0-2.8,15.9-9.9,27.7c0,0-22.9-0.9-38.8-3.3c-38-5.7-53.8-10.8-63.4-19.8
			c-17.1-16.1-64.8-108.7-64.8-108.7l46.2-29.2l32.5,72.7c3.5,7.2,10,17.8,14.7,27.3c6.1,12.5,33.3,23.1,45.5,26.5
			C513.3,936.7,536.6,943.6,551.4,943.6z"/>
		<path class="st13" d="M443.7,849.8l-52.5,27.3c0,0-10.4-20.2-13.5-26.7c-8.8-18.8-22.3-47.2-5.3-59.2
			c36.7-25.9,52.5,17.1,61.5,40.6C436.8,839.1,443.7,849.8,443.7,849.8z"/>
		
			<linearGradient id="SVGID_15_" gradientUnits="userSpaceOnUse" x1="919.5186" y1="1264.4999" x2="938.4385" y2="974.8099" gradientTransform="matrix(1 0 0 -1 0 1466)">
			<stop  offset="1.082549e-07" style="stop-color:#0DDA8E"/>
			<stop  offset="1" style="stop-color:#0BAC70"/>
		</linearGradient>
		<rect x="905.2" y="228.9" class="st36" width="44.5" height="187.1"/>
		
			<linearGradient id="SVGID_16_" gradientUnits="userSpaceOnUse" x1="1391.2737" y1="997.2102" x2="1410.2037" y2="707.5203" gradientTransform="matrix(1 0 0 -1 -471.76 1198.71)">
			<stop  offset="1.082549e-07" style="stop-color:#0DDA8E"/>
			<stop  offset="1" style="stop-color:#0BAC70"/>
		</linearGradient>
		<rect x="833.9" y="300.2" class="st37" width="187.1" height="44.5"/>
		<path class="st5" d="M276.3,388.6c-53-25.1-116.3-2.4-141.3,50.5c-25.1,53-2.4,116.3,50.6,141.3l0,0c2.2,1,4.3,2,6.5,2.8
			c54.5,21.5,116.2-5.2,137.7-59.7C350.2,471.5,326.9,412.5,276.3,388.6z M302.8,518.6c-17.9,37.9-62.1,55.4-101.1,40
			c-1.6-0.7-3.3-1.4-4.9-2.1c-39.7-18.8-56.7-66.3-37.9-106c18.8-39.7,66.3-56.7,106-37.9C304.6,431.4,321.6,478.9,302.8,518.6
			L302.8,518.6z"/>
		<path class="st13" d="M160.3,521.5l-23.5,12.3c-21-40.1-14.3-89.1,16.7-122.1l19.3,18.2C149.6,454.7,144.6,491.4,160.3,521.5
			L160.3,521.5z"/>
		<path class="st6" d="M201.7,558.6l-9.7,24.7c-2.2-0.9-4.4-1.8-6.5-2.8c-20.9-9.8-37.9-26.2-48.6-46.7l23.5-12.3
			c8,15.3,20.8,27.6,36.5,35C198.4,557.3,200.1,558,201.7,558.6z"/>
		<path class="st15" d="M222.3,590.4c-10.4-0.8-20.6-3.2-30.3-7l9.7-24.7c7.3,2.9,14.9,4.7,22.7,5.3L222.3,590.4z"/>
		<polygon class="st38" points="198.2,660.3 0,660.3 0,656.4 194.3,656.4 194.3,572.4 198.2,572.4 		"/>
		<rect y="615.4" class="st5" width="104.3" height="23.6"/>
	</g>
</g>
</svg>
