<svg xmlns="http://www.w3.org/2000/svg" width="80.95" height="39" viewBox="0 0 80.95 39">
  <g id="Group_2" data-name="Group 2" transform="translate(-215.001 -27.901)">
    <path id="Shape_1_copy" data-name="Shape 1 copy" d="M215.738,50.505a11.342,11.342,0,0,1-.467-6.192,4.777,4.777,0,0,1,5.329-3.849s5.24,1.636,8.158-1.584a55.623,55.623,0,0,1,4.792-3.631s3.9-3.137,7.059.53c0,0,2.392,3.2.906,13.666,0,0-.983,4.709-4.188,7.2,0,0-6.366,5.826-17.5-.837A13,13,0,0,1,215.738,50.505Z" fill="#784cfb"/>
    <text id="MC" transform="translate(247.951 56.901)" fill="#784cfb" font-size="28" font-family="Poppins-Bold, Poppins" font-weight="700" letter-spacing="0.025em"><tspan x="0" y="0">MC</tspan></text>
  </g>
</svg>
