<?xml version="1.0" encoding="utf-8"?>
<!-- Generator: Adobe Illustrator 22.1.0, SVG Export Plug-In . SVG Version: 6.00 Build 0)  -->
<svg version="1.1" id="simtoms" xmlns="http://www.w3.org/2000/svg" xmlns:xlink="http://www.w3.org/1999/xlink" x="0px" y="0px"
	 viewBox="0 0 209.2 200.2" style="enable-background:new 0 0 209.2 200.2;" xml:space="preserve">
<style type="text/css">
	.st0{fill:#D1EDF0;}
	.st1{fill:#FCC6A2;}
	.st2{fill:#F49D77;}
	.st3{fill:#E5925A;}
	.st4{fill:#7D4E24;}
	.st5{fill:#FFFFFF;}
	.st6{fill:#3C3C3B;}
	.st7{fill:#F5A5C7;}
	.st8{fill:#F177AB;}
	.st9{fill:#683C11;}
	.st10{fill:#E5975A;}
	.st11{fill:#FEB096;}
	.st12{clip-path:url(#SVGID_2_);}
</style>
<g>
	<path id="background" class="st0" d="M40.9,18.3C24.6,31,8.6,45.1,14.4,72.3c2.2,9.9,7,18.8,12.1,26.8c7.3,11.5,10.5,24.8,3.2,37.3
		C23,148,12.2,154.5,3.9,164c-14.4,16.7,17,25.5,25.9,27.9c9.1,2.6,18.5,4.2,27.9,5.7c32.8,5,67,4.7,98.3-8.8
		c12.9-5.4,25.2-12.9,36.4-22.1c7-5.8,15.3-14,16.7-24.7c1-8.5-4-22.4-9.8-27.5c-14.4-12.9-28.1-26.7-41.3-41.2
		c-10.4-11.5-18.6-24-27.1-37.6C115.3,10.9,90-7.3,63,2.9c-4,1.6-7.8,3.9-11.2,6.8C48.4,12.6,44.6,15.5,40.9,18.3z"/>
</g>
<g>
	<path class="st1" d="M40.6,157.4c0.5-0.1,1.1-0.3,1.5-0.6c0.6,1.6,1.9,4.9,4.2,11.9c5.2,15.6,6.3,2.9,6.3,2.9s4.4-2.5,6.5-9.2
		c0.2,0.3,0.4,0.5,0.6,0.8c0.7,0.9,1.4,1.9,2.2,2.8c2.3,2.8,4.4,5,7.7,6.8c0.3,0.2-0.9,0.3-0.5,0.4l-0.1,0.5
		c-0.5,18.1-17.4,26.1-25.9,17.9c-8.4-8.2-10.2-24.5-10.4-26.6c0-0.2-1-6-1-6.2C35.6,157.7,36.6,158.3,40.6,157.4z"/>
	<path class="st1" d="M119.4,122v16.3c0,0-6.5,15.4-19.6,2.7c0.1-0.4-0.9-20.6-0.9-20.6L119.4,122z"/>
	<path class="st2" d="M112.9,121.5l6.5,0.5v3c-4.3,5.1-12,10.9-20.3,0c-0.1-1.2-0.1-2.3-0.2-3.1C101.9,122,107.7,121.8,112.9,121.5z
		"/>
	<path class="st1" d="M136.2,82.1c0,0,6-2.5,4.8,6.4s-6,15.3-6,15.3s-3.8,19.6-23,22.3c-19.3,2.7-26.6-13.5-29.2-19.4
		c0,0-19.5-22-3.6-22.2l4.5-29.1l15.2-3.7l27.1,1.8l8,2.8L136.2,82.1z"/>
	<path class="st3" d="M81.1,89.6c0,0-3.3-7.4-6.6-1.8c-2,2.4,5.4,11.9,5.4,11.9S74.3,89.4,76.5,88C78.6,86.5,81.1,89.6,81.1,89.6z"
		/>
	<path class="st3" d="M134.8,84.7c0,0,1-3.1,4.6-1c2.4,2-2.3,12.8-2.3,12.8s2.9-11.3,0.4-12.3C135.1,83.2,134.8,84.7,134.8,84.7z"/>
	<path class="st4" d="M82.5,93.8c0,0,3.9-30.9-0.1-37.9s-11.5,1.4-11.5,6.3C70.9,67.2,78.9,89.2,82.5,93.8z"/>
	<path class="st4" d="M134.3,90.6c0,0-0.3-33.8-4.6-37.3C125.5,49.6,148.8,48.8,134.3,90.6z"/>
	<path class="st4" d="M136.6,51.3c-4.8,11.7-44.6,12.9-54,7.8s-11.3-21.6,3-26.4c14.3-4.7,18-2.2,18-2.2s2.5-2.6,0.1-5.3
		s8-3,14.3,3.2c0,0,1.9-0.6,0.4-3.4s10.2,1.7,12.6,7.4c0,0,3.8-1.6,2.3-4C131.8,26,143.8,33.9,136.6,51.3z"/>
	<path class="st5" d="M116.4,89.1c0.2,3,2.6,4.8,5.5,4.7s5.1-2.1,5-5.1c-0.2-3-2.6-5.4-5.5-5.3C118.4,83.6,116.2,86.1,116.4,89.1z"
		/>
	<path class="st5" d="M89.4,90.3c0.2,3,2.6,4.8,5.4,4.7c2.9-0.1,5.1-2.1,4.9-5.1c-0.2-3-2.6-5.4-5.5-5.3
		C91.5,84.7,89.3,87.3,89.4,90.3z"/>
	<g>
		<path class="st6" d="M98.4,110.6c2.7,0.7,5.2,1,7.6,1.1c-1.6,0.5-3.3,1.2-5.1,2.4C99.6,113.1,98.8,111.8,98.4,110.6z"/>
		<path class="st6" d="M121.4,109.4c-0.8,1.4-2.2,2.8-2.2,2.8s-0.6,0.5-1.5,1.2c-1-0.6-2.8-1.4-4.9-1.9
			C116.3,111.1,119.3,110.2,121.4,109.4z"/>
		<path class="st7" d="M106,111.8c2.5-0.7,4.8-0.6,6.7-0.2C110.6,111.8,108.4,111.9,106,111.8z"/>
		<path class="st8" d="M105.5,116.3c-2-0.4-3.5-1.2-4.6-2.1c1.8-1.2,3.5-2,5.1-2.4c2.4,0.1,4.7,0,6.7-0.2c2.2,0.4,3.9,1.2,4.9,1.9
			C115.3,114.9,110.8,117.4,105.5,116.3z"/>
	</g>
	<path class="st5" d="M98.4,110.6c-0.5-1.6-0.2-2.9,0.7-2.7c2,0.4,9.2,0.8,18.4-1.1c5.2-1.1,5,0.8,3.9,2.6
		C117,111.1,108.6,113.2,98.4,110.6z"/>
	<path class="st9" d="M130.4,78.2c0,0-0.7-1.3-0.1-2c0.6-0.7-9.9-4-15.2-2c0,0,1.9,2.7,0.9,3.5C116,77.7,121.6,75.8,130.4,78.2z"/>
	<path class="st9" d="M100.4,79.4c0,0-1.1-2.8-0.2-4.1c0.9-1.3-13,3.2-14.3,5.4c0,0,1.2,0.8,0.8,2C86.8,82.8,92.5,79.8,100.4,79.4z"
		/>
	<path class="st3" d="M82.3,94.4c0,0-0.8,2.8,0.2,4.5c0,0-0.9,1.8-1.8,0.1c-1-1.7,0.6-1.5,0.1-2.5C80.3,95.5,80,92.1,82.3,94.4z"/>
	<path class="st3" d="M134.1,92.8c0,0,1.1,2.7,0.2,4.5c0,0,1,1.7,1.8-0.1c0.8-1.8-0.7-1.4-0.3-2.5C136.1,93.8,136.2,90.3,134.1,92.8
		z"/>
	<path class="st3" d="M112.2,100c0,0-3.7,1.8-7.2,0.3C104.9,100.4,108.6,104.1,112.2,100z"/>
	<g>
		<path class="st1" d="M37.4,124.1c0,0,2.7-4.8,4.8-3.3c2.1,1.6,5.3,8.9-0.8,8.1C35.3,128.2,37.4,124.1,37.4,124.1z"/>
		<path class="st3" d="M43.1,129.3c-0.5,0.1-1.1,0.1-1.7,0c-2.2-0.3-3.7-1-4.3-2.2c-0.8-1.5,0-3.1,0-3.2c0.1-0.2,1.9-3.4,3.9-3.7
			c0.5-0.1,1,0,1.5,0.4c1.5,1.1,3.3,4.6,2.8,6.8C45,128.4,44.3,129.1,43.1,129.3z M41.1,120.9c-1.4,0.2-2.9,2.5-3.4,3.4
			c0,0-0.7,1.3,0,2.5c0.5,1,1.8,1.6,3.8,1.9c0.6,0.1,1.1,0.1,1.5,0c0.9-0.2,1.4-0.6,1.6-1.4c0.5-1.9-1.2-5.2-2.5-6.1
			C41.8,120.9,41.5,120.8,41.1,120.9z"/>
		<path class="st1" d="M34.3,174c0,0-3.1-20.6-4.6-23.8s-4.7-20.9-4.4-27.1c0.3-6.2-3.4-13.9-3.2-15c0.2-1.1,5.5-3,7.6,14.5
			c0,0,12.4-2.2,12.3,4.5c0,0,2,0.8,0.8,3.8c0,0,1.5,5.5-2.2,8.3c0,0,2.1,4.4-2.3,7.2c0,0,5.9,14.3,7.7,23.5L34.3,174z"/>
		<path class="st10" d="M25.5,123.2c0,0.7,0,1.6,0,2.6c-0.1-0.2-0.2-0.4-0.4-0.5c0-0.8,0-1.5,0-2.1c0.2-4.1-1.3-8.8-2.4-11.9
			c-0.6-1.8-0.9-2.7-0.8-3.1s0.5-0.7,1-0.8c0.4-0.1,1.1,0,1.9,0.6c1.6,1.2,3.8,4.7,5,14.6c1.2-0.2,8-1.1,10.9,1.4
			c0.9,0.8,1.4,1.8,1.4,3.1c0.2,0.1,0.7,0.4,0.9,1c0.3,0.8,0.3,1.8-0.2,2.9c0.1,0.6,1.3,5.6-2.2,8.4c0.3,0.8,1.6,4.7-2.3,7.2
			c0.1,0.3,0.5,1.1,0.9,2.2c-0.1,0.3-0.1,0.7,0,1.1c-0.8-2-1.3-3.2-1.3-3.3l-0.1-0.1l0.1-0.1c4.2-2.6,2.3-6.9,2.3-6.9l-0.1-0.1
			l0.1-0.1c3.6-2.8,2.2-8.1,2.2-8.1v-0.1V131c0.4-1.1,0.5-2,0.2-2.7s-0.9-0.9-0.9-0.9h-0.1v-0.1c0-1.2-0.4-2.2-1.3-3
			c-3.1-2.6-10.8-1.3-10.8-1.3h-0.2v-0.2c-1.2-10.4-3.6-13.6-4.9-14.5c-0.7-0.5-1.3-0.6-1.6-0.5c-0.5,0.1-0.7,0.4-0.7,0.5
			c-0.1,0.3,0.3,1.5,0.8,2.9C24.1,114.2,25.7,119,25.5,123.2z"/>
		<path class="st11" d="M30.9,126.7c0,0,3.4,0.7,5.3,0.3c1.8-0.4,4.9-0.8,5.8,0.1"/>
		<path class="st3" d="M42.1,127.5c-0.1,0-0.2,0-0.3-0.1c-0.6-0.6-2.7-0.6-5.5,0c-1.9,0.4-5.3-0.3-5.4-0.3c-0.2,0-0.3-0.2-0.3-0.4
			c0-0.2,0.2-0.3,0.4-0.3c0,0,3.4,0.6,5.1,0.3c1.8-0.4,5.1-0.9,6.1,0.2c0.1,0.1,0.1,0.4,0,0.5C42.2,127.4,42.2,127.4,42.1,127.5z"/>
		<path class="st11" d="M32.3,131.8c0,0,4.4,0,5.5-0.4c1.1-0.3,4.5-1,5-0.5"/>
		<path class="st3" d="M42.9,131.3c-0.1,0-0.2,0-0.3-0.1c-0.4-0.2-3.2,0.2-4.6,0.6c-1.1,0.3-5.4,0.4-5.6,0.4c-0.2,0-0.4-0.2-0.4-0.4
			s0.2-0.4,0.4-0.4c1.2,0,4.5-0.1,5.4-0.3c0,0,4.5-1.2,5.3-0.4c0.1,0.1,0.1,0.4,0,0.5C43,131.2,42.9,131.3,42.9,131.3z"/>
		<path class="st3" d="M37.1,147.1c-0.6,0.1-1,0.1-1,0.1c-0.2,0-0.3-0.2-0.3-0.4s0.2-0.3,0.4-0.3c0.1,0,3.5,0.3,4.3-4
			c0.2-1.2,0-2.3-0.5-3.1c-1.1-1.6-3.4-2-3.5-2l-0.6-0.1l0.4-0.5c0.4-0.6,1.7-0.9,3.1-1.1c0.3-0.1,0.6-0.1,0.8-0.2l0,0
			c0.1-0.2,0.3-0.2,0.5-0.1c0.1,0.1,0.2,0.3,0.2,0.4c-0.1,0.3-0.3,0.4-1.3,0.6c-0.6,0.1-1.5,0.3-2.1,0.5c0.9,0.3,2.2,0.9,3.1,2.1
			c0.7,1,0.9,2.2,0.7,3.7C40.5,146,38.4,146.9,37.1,147.1z"/>
	</g>
	<g>
		<path class="st5" d="M84.7,52.2c0.2,1.9,2.2,3.3,4.6,3.1c2.3-0.2,4.1-1.9,3.9-3.8c-0.2-1.9-2.2-3.3-4.6-3.1
			C86.3,48.5,84.6,50.3,84.7,52.2z"/>
		<path class="st5" d="M68.4,42.4c1.3,3.7,6,5.5,10.6,4s7.3-5.8,6.1-9.6c-1.3-3.7-6-5.5-10.6-4C69.9,34.3,67.2,38.6,68.4,42.4z"/>
		<path class="st5" d="M54.9,4c-12.7-8.6-31.5-2.9-42,12.7C2.3,32.3,4,51.9,16.6,60.5c12.7,8.6,31.5,2.9,42-12.7
			C69.2,32.1,67.5,12.6,54.9,4z"/>
		<g>
			<path class="st6" d="M36,44.3c-1.2,0.1-2.1,1-2,2.2c0.1,1.1,1,2,2.3,1.9s2.1-1.1,2-2.2C38.1,45,37.2,44.2,36,44.3z"/>
			<path class="st6" d="M34.8,21c-2.5,0.2-4.5,1.2-4.5,1.2c-1.2,0.6-1.6,1.9-1.1,3c0.1,0.2,0.4,0.5,0.9,0.3l0,0
				c1.1-0.7,2.7-1.2,4.2-1.4c3-0.2,4.6,1.2,4.8,3.4c0.2,2-0.9,3.8-2.8,6.2c-2.2,2.8-2.3,5.6-2.3,5.6c0,1.2,0,2.5,0,2.8
				c0.1,0.3,0.9,0.5,1.9,0.4s1.8-0.7,1.7-1.3c-0.3-2.2,0.3-4.2,2.2-6.6c2.1-2.7,3.7-5,3.5-7.9C43,23.5,40.3,20.6,34.8,21z"/>
		</g>
	</g>
	<g>
		<g>
			<defs>
				<path id="SVGID_1_" d="M172.8,180.4l-24.1,11.3c0,0-27.7,12.1-73.9,6.8s-16.3-70.3-16.3-70.3l72.5-3.5l41.3,19L172.8,180.4z"/>
			</defs>
			<clipPath id="SVGID_2_">
				<use xlink:href="#SVGID_1_"  style="overflow:visible;"/>
			</clipPath>
			<g class="st12">
				<polygon class="st1" points="159.4,201.7 146.5,173.6 163.1,169.6 177,201.7 				"/>
				<path class="st6" d="M160.9,181.5c-3.4,1.8-5.2,2.2-8.4,1.7c-0.2,0-1.5-0.3-1.7-0.4c-2.8-0.1-8.9-10.3-8.9-10.3l1.6,29.1H74.7
					l1.4-29.1c0,0-6.1,10.1-8.9,10.3c-0.2,0-1.5,0.4-1.7,0.4c-3.2,0.5-5,0.1-8.4-1.7c-4.1-2.2-4.8-3.4-5.6-7.1
					c-0.1-0.4-0.2-2.3-0.2-2.4c6.2-13.5,8.8-16.5,8.8-16.5l8.4-11.8c4.1-4,2.5-4.8,14.8-7.5c13.6-3,13.8-0.7,24.1-2.1
					c6.3,0.2,12.5,0.6,18.8,0.9c0.1-0.1,3.4,0.3,3.4,0.2c2.1,0.2,1.5,0.2,5,1c12.3,2.7,10.7,3.5,14.8,7.5l8.4,11.8
					c0,0,2.6,3,8.8,16.5c0.1,0.2,0,2-0.2,2.4C165.7,178.1,165,179.3,160.9,181.5z"/>
			</g>
		</g>
	</g>
</g>
<g>
	<g>
		<path class="st6" d="M117.1,87.9c0,1.8,1.5,3.2,3.2,3.2c1.8,0,3.2-1.5,3.2-3.2c0-1.7-1.5-3.2-3.2-3.2
			C118.5,84.7,117.1,86.1,117.1,87.9z"/>
	</g>
	<g>
		<path class="st6" d="M118.7,87.9c0,0.9,0.7,1.6,1.6,1.6s1.6-0.7,1.6-1.6s-0.7-1.6-1.6-1.6C119.4,86.4,118.7,87.1,118.7,87.9z"/>
	</g>
	<g>
		<path class="st6" d="M119.1,86.4c0,0.4,0.4,0.7,0.7,0.7c0.4,0,0.7-0.4,0.7-0.7c0-0.4-0.4-0.7-0.7-0.7
			C119.4,85.6,119.1,86,119.1,86.4z"/>
	</g>
</g>
<g>
	<g>
		<path class="st6" d="M92.4,89.2c0,1.8,1.5,3.2,3.2,3.2c1.8,0,3.2-1.5,3.2-3.2c0-1.7-1.5-3.2-3.2-3.2C93.8,86,92.4,87.4,92.4,89.2z
			"/>
	</g>
	<g>
		<path class="st6" d="M94,89.2c0,0.9,0.7,1.6,1.6,1.6s1.6-0.7,1.6-1.6c0-0.9-0.7-1.6-1.6-1.6C94.7,87.7,94,88.4,94,89.2z"/>
	</g>
	<g>
		<path class="st6" d="M95.2,87.7c0,0.5,0.4,0.8,0.8,0.8c0.5,0,0.8-0.4,0.8-0.8c0-0.5-0.4-0.8-0.8-0.8
			C95.5,86.8,95.2,87.2,95.2,87.7z"/>
	</g>
</g>
</svg>
