<?xml version="1.0" encoding="utf-8"?>
<!-- Generator: Adobe Illustrator 22.1.0, SVG Export Plug-In . SVG Version: 6.00 Build 0)  -->
<svg version="1.1" id="drink" xmlns="http://www.w3.org/2000/svg" xmlns:xlink="http://www.w3.org/1999/xlink" x="0px" y="0px"
	 viewBox="0 0 208.7 192.1" style="enable-background:new 0 0 208.7 192.1;" xml:space="preserve">
<style type="text/css">
	.st0{fill:#D1EDF0;}
	.st1{clip-path:url(#SVGID_1_);}
	.st2{fill:#32324C;}
	.st3{fill:#F4B799;}
	.st4{opacity:0.6;}
	.st5{fill:#F8F7FC;}
	.st6{fill:#E2E2F2;}
	.st7{fill:#529F91;}
	.st8{fill:#D4D2EA;}
	.st9{fill:#FBFBFD;}
	.st10{opacity:0.3;}
	.st11{fill:#B9B9B9;}
	.st12{fill:#8A8988;}
	.st13{fill:#FFFFFF;}
	.st14{fill:#4F4F4F;}
	.st15{fill:#3A3A3A;}
	.st16{fill:#B22828;}
	.st17{fill:none;stroke:#000000;stroke-width:1.1481;stroke-linecap:round;stroke-linejoin:round;stroke-miterlimit:10;}
</style>
<g>
	<path id="background" class="st0" d="M44.6,48.3c-15.3,10-30.2,21.2-24.8,42.6c2,7.8,6.5,14.8,11.3,21.2c6.9,9.1,9.8,19.6,3,29.4
		c-6.3,9.1-16.4,14.2-24.2,21.7c-13.5,13.1,15.9,20.1,24.3,22.1c8.6,2,17.3,3.3,26.1,4.5c30.7,4,62.7,3.7,92.1-7
		c12.1-4.3,23.6-10.1,34.1-17.4c6.5-4.6,14.3-11,15.6-19.4c1-6.7-3.7-17.6-9.1-21.7c-13.4-10.2-26.3-21-38.7-32.5
		c-9.7-9.1-17.4-19-25.3-29.6c-14.6-19.6-38.3-33.9-63.6-25.9c-3.8,1.2-7.3,3-10.5,5.3C51.6,43.7,48.1,46,44.6,48.3z"/>
	<g>
		<defs>
			<path id="SVGID_3_" d="M113.5,191.8H85.7c-28,0-50.6-22.7-50.6-50.6V0h129.1v141.1C164.1,169.1,141.5,191.8,113.5,191.8z"/>
		</defs>
		<clipPath id="SVGID_1_">
			<use xlink:href="#SVGID_3_"  style="overflow:visible;"/>
		</clipPath>
		<g class="st1">
			<path class="st2" d="M81.9,46.4c0,0-16.3-26.9-8.3-33.4S89.3,8,93.9,15.8c4.6,7.7,35.6-4.4,35.6-4.4s10.7,4,0,21.6
				C118.8,50.6,95.2,69.7,81.9,46.4z"/>
			<path class="st3" d="M85.8,39.7c-0.3,2.7-2.7,4.7-5.5,4.4c-2.7-0.3-4.7-2.7-4.4-5.5c0.3-2.7,2.7-4.7,5.5-4.4
				C84.1,34.6,86.1,37,85.8,39.7z"/>
			<path class="st4" d="M82.8,39.5c0,1.3-1.1,2.4-2.4,2.4c-1.3,0-2.4-1.1-2.4-2.4c0-1.3,1.1-2.4,2.4-2.4
				C81.7,37.1,82.8,38.2,82.8,39.5z"/>
			<path class="st3" d="M126.3,40c-0.3,2.7-2.7,4.7-5.5,4.4c-2.7-0.3-4.7-2.7-4.4-5.5c0.3-2.7,2.7-4.7,5.5-4.4
				C124.6,34.8,126.6,37.3,126.3,40z"/>
			<path class="st4" d="M124,39.5c0,1.3-1.1,2.4-2.4,2.4c-1.3,0-2.4-1.1-2.4-2.4c0-1.3,1.1-2.4,2.4-2.4C123,37.1,124,38.2,124,39.5z
				"/>
			<path class="st5" d="M54.1,191.7c2.1-4.2,8.2-62.2,8.2-62.2s-5.4-40.3,1-43.9c4.3-2.4,14.3-5,20.3-6.4c2.9-0.7,4.9-1.1,4.9-1.1
				c14.6-1.4,25.1-1.2,32.7,0.1c15.5,2.5,18.8,9.3,18.9,15c0.2,8.5,5.8,68.9,6.4,74c0.7,6,0.7,15,1.5,18.5c0.7,3.2,1.1,6.1,1.1,6.1
				H54.1z"/>
			<g>
				<path class="st6" d="M129.7,204c-1.4,0-2.6-0.2-3.7-0.5c-9.8-3-5.8-18.4-5.8-18.4l12.7-1.3l4.3-0.4
					C137.2,183.4,144.2,204,129.7,204z"/>
				<path class="st4" d="M129.7,204c-1.4,0-2.6-0.2-3.7-0.5c0.2-0.4,0.4-0.8,0.7-1.1c1.9-2.2,5-3.1,6.7-5.6c1.3-1.9,1.3-4.5,1-6.8
					c-0.2-1.3-1.3-4-1.4-6.2l4.3-0.4C137.2,183.4,144.2,204,129.7,204z"/>
			</g>
			<g>
				<path class="st6" d="M74.6,203.9c-1.4-0.2-2.6-0.6-3.6-1.2c-9.1-4.7-2.5-19.1-2.5-19.1l12.7,1l4.3,0.3
					C85.5,184.9,88.7,206.4,74.6,203.9z"/>
				<path class="st4" d="M74.6,203.9c-1.4-0.2-2.6-0.6-3.6-1.2c0.2-0.4,0.5-0.7,0.9-1c2.2-1.9,5.5-2.2,7.5-4.3
					c1.6-1.7,2-4.2,2.1-6.5c0-1.3-0.5-4.2-0.3-6.4l4.3,0.3C85.5,184.9,88.7,206.4,74.6,203.9z"/>
			</g>
			<polygon class="st7" points="102.7,170.7 98.5,191.7 107,191.7 			"/>
			<polygon class="st6" points="77.8,145.6 105.9,151.5 120.2,148.4 122.7,156.7 78.7,167 			"/>
			<path class="st6" d="M65.1,89.6c0,0-7,1-8.1,9.8c-1.2,8.8-9.2,61-3.1,78.7C59,192.9,106,172,106,172l35.4-10l-6.5-11.9
				l-57.6,12.7c0,0,2.2-41.6-2.5-56.6C70.2,91.1,65.1,89.6,65.1,89.6z"/>
			<path class="st6" d="M133.1,84.4c0,0,6.6,0.2,7.7,9s9.8,63.9,3.6,81.6c-6.1,17.7-53.5-7.1-53.5-7.1L56.4,156l6.5-11.9l57.6,12.7
				c0,0-2.7-42.2,3.7-57.2C130.4,85.2,133.1,84.4,133.1,84.4z"/>
			<path class="st5" d="M148.4,156c0,1.5-0.1,2.9-0.2,4.2c-0.3,4.7-1,8.8-2,11.9c-4.2,12-27.3,5.7-41.5,0.5c-0.9-0.3-1.8-0.7-2.7-1
				c-5.2-2-8.7-3.7-8.7-3.7L58.7,156l6.5-11.9l57.6,12.7c0,0-3.1-42.2,1.5-57.2c4.6-15,8.8-17.7,8.8-17.7s8.8,2.7,10,11.5
				C144,100.3,149,133.3,148.4,156z"/>
			<path class="st3" d="M75.3,151.2c0,0,7.2,0.5,8.3,6.7l-8.8,1.9L75.3,151.2z"/>
			<path class="st7" d="M119.2,78.1l-17.1,51L85.5,78.7c2.9-0.7,3-0.7,3-0.7C103.1,76.6,111.6,76.8,119.2,78.1z"/>
			<path class="st3" d="M102.1,91.5L102.1,91.5c-5.5,0-10-4.5-9.9-10.1l0.1-15.9l20,0.1l-0.1,15.9C112.1,87.1,107.6,91.5,102.1,91.5
				z"/>
			<path class="st4" d="M92.2,69.5c0,0,9.5,5.7,20-1l0,2.7C112.2,71.3,100.9,77.6,92.2,69.5z"/>
			<path class="st3" d="M115.1,16.6c-10.4-11.6-29.7-6.2-33,9c-1.5,6.8-2.4,15.3-0.9,23.8c3.4,19.1,15.8,26.9,29.2,20.3
				c13.4-6.7,14-34,9.3-45.8C118.5,21.2,117,18.7,115.1,16.6z"/>
			<path class="st3" d="M88.5,78c0,0-0.7,18.7,11.9,19.3c12.6,0.6,14.8-13.2,15.9-19.9C116.4,77.5,103.3,74.4,88.5,78z"/>
			<path class="st8" d="M28.4,123.2"/>
			<path class="st9" d="M29.6,122.4"/>
			<g>
				<path class="st8" d="M119.5,94.6c0,0,3.2-1.6,5.7-3c1.5-7.8-0.3-13.8-12.2-14.3c0,0,4.2,4.3,1.5,15.3
					c-3.1,12.8-12.4,36.4-12.4,36.4s15.4-14.6,20-27.8c0.8-2.2,1.6-4.5,2.2-6.7L119.5,94.6z"/>
				<path class="st5" d="M119.5,93.9c0,0,2.6-1.5,5.1-2.8c1.5-7.8-0.3-13.8-12.2-14.3c0,0,4.2,4.1,1.5,15.1
					c-3.1,12.8-11.5,36.9-11.5,36.9s14.9-15.1,19.5-28.3c0.8-2.2,1.5-4.5,2.1-6.6H119.5z"/>
			</g>
			<g>
				<path class="st8" d="M85,95.1c0,0-3.4-1.7-5.9-3.1c-1.5-7.8,0.5-13.8,12.4-14.3c0,0-3.5,4.3-0.8,15.3
					c3.1,12.8,11.5,36.2,11.5,36.2S86.7,115,82.1,101.8c-0.8-2.2-1.5-4.6-2.1-6.7L85,95.1z"/>
				<path class="st5" d="M85,94.4c0,0-2.6-1.5-5.1-2.8c-1.5-7.8,0.3-13.8,12.2-14.3c0,0-4.2,4.1-1.5,15.1
					c3.1,12.8,11.5,36.9,11.5,36.9S87.3,114.2,82.7,101c-0.8-2.2-1.5-4.5-2.1-6.6H85z"/>
			</g>
			<path class="st6" d="M148.4,156c0,1.5-0.1,2.9-0.2,4.2c-5.4,0.7-10.7,1.2-16.2,1.1c-0.4,0-0.7,0-1,0.2c-0.5,0.3-0.7,1-0.6,1.6
				c0.1,0.6,0.3,1.2,0.2,1.8c-0.2,1.5-2,2.2-3.6,2.5c-5.1,1.1-10.3,2.3-15.4,3.4c-2.3,0.5-4.7,1.3-7,1.6c-0.1,0-0.2,0-0.4,0
				c-0.9,0.1-1.9-0.3-2.3-1.1c-0.4-0.6-0.5-1.4-0.1-2.2c0.3-0.5,0.7-0.8,1.2-1.1c2.9-2,5.9-4,9.1-5.4c1.6-0.7,3.3-1.1,4.9-1.8
				c2.5-1,4.8-2.4,7.3-3.3c4.2-1.6,8.8-2.1,13.2-1.5c1.7,0.2,3.5,0.6,5.2,0.6C144.7,156.8,146.5,156.3,148.4,156z"/>
			<g>
				<path class="st3" d="M154.8,154.7c-0.3-1.3-4.4,0.1-6.7,0.5c-2.2,0.3-2.7,0.1-2.5-0.1c0.2-0.3,4.7-1.8,6.7-2.4
					c2.1-0.5,5.3-1.3,4.9-2.7s-3.7-0.4-6.5,0.3c-2.8,0.7-5.3,1.9-5.5,1.3c-0.2-0.6,9.7-4.3,10.4-4.6c0.7-0.3,3.1-1.2,2.7-2.4
					c-0.4-1.2-2.6-0.6-3.7-0.3s-4.3,1.4-6.8,2.4s-3.4,1.4-3.6,1c-0.2-0.4,5.3-3.6,7.3-4.7c2-1.1,3.7-2.6,2.6-3.7
					c-1.1-1-4.8,1.4-7,2.7c-2.2,1.3-6,3.5-7.7,4c-1.7,0.5-3.1,1.3-3.3,0.4l0,0c0-0.2-0.1-0.4-0.1-0.5c-0.2-0.6,0.4-2.3,1.1-3.3
					c0.7-1.1,0.6-2.9,0.2-4c-0.4-1.1-1.3-1.5-2.1,1.1c-0.8,2.6-3.1,5.8-4.7,7.2c-1.6,1.4-2.8,2.1-2.7,4.5c0,0.8-15.9,5.7-18.3,6.3
					c-2.4,0.6,1.7,10,3.6,9.3c1.9-0.7,17.5-8.2,18.6-7.5c1.1,0.7,2.1,0.8,5.6,0.4c1.7-0.2,5-0.9,7.7-1.4c0,0,5.1-1,7.1-1.6
					C154.2,156.2,155.1,156,154.8,154.7z"/>
			</g>
			<path class="st5" d="M64.5,85c0,0-8.8,2.7-10,11.5c-1.2,8.8-9.2,61-3.1,78.7s53-4.2,53-4.2l25.1-8.6l-4.9-13.4l-49.7,10.9
				c0,0,3.1-42.2-1.5-57.2C68.7,87.7,64.5,85,64.5,85z"/>
			<g>
				<circle class="st8" cx="102.3" cy="134.5" r="2.4"/>
				<path class="st9" d="M104.4,134.3c0,1.3-1.1,2.4-2.4,2.4c-0.3,0-0.7-0.1-1-0.2c-0.8-0.4-1.4-1.2-1.4-2.2c0-1.3,1.1-2.4,2.4-2.4
					h0C103.4,132,104.4,133,104.4,134.3z"/>
				<circle class="st8" cx="102.1" cy="134.3" r="1.6"/>
				<path d="M104.4,134.3c0,1.3-1.1,2.4-2.4,2.4c-0.3,0-0.7-0.1-1-0.2c0.1-0.2,0.2-0.3,0.3-0.4c0.2-0.1,0.4-0.2,0.7-0.3
					c0.5-0.2,0.9-0.4,1.3-0.8c0.3-0.4,0.5-1,0.2-1.4c-0.1-0.1-0.2-0.2-0.3-0.3c-0.2-0.2-0.5-0.5-0.7-0.7c-0.2-0.2-0.4-0.3-0.5-0.5
					C103.4,132,104.4,133,104.4,134.3z"/>
			</g>
			<g>
				<circle class="st8" cx="102.3" cy="144.5" r="2.4"/>
				<path class="st9" d="M104.4,144.2c0,1.3-1.1,2.4-2.4,2.4c-0.3,0-0.7-0.1-1-0.2c-0.8-0.4-1.4-1.2-1.4-2.2c0-1.3,1.1-2.4,2.4-2.4
					h0C103.4,141.9,104.4,142.9,104.4,144.2z"/>
				<circle class="st8" cx="102.1" cy="144.2" r="1.6"/>
				<path d="M104.4,144.2c0,1.3-1.1,2.4-2.4,2.4c-0.3,0-0.7-0.1-1-0.2c0.1-0.2,0.2-0.3,0.3-0.4c0.2-0.1,0.4-0.2,0.7-0.3
					c0.5-0.2,0.9-0.4,1.3-0.8c0.3-0.4,0.5-1,0.2-1.4c-0.1-0.1-0.2-0.2-0.3-0.3c-0.2-0.2-0.5-0.5-0.7-0.7c-0.2-0.2-0.4-0.3-0.5-0.5
					C103.4,141.9,104.4,142.9,104.4,144.2z"/>
			</g>
			<path class="st10" d="M89.9,87.9l12.3,41.3C102.2,129.2,90.2,94.8,89.9,87.9z"/>
			<path class="st10" d="M114.6,87.9l-12.3,41.3C102.3,129.2,114.3,94.8,114.6,87.9z"/>
			<g>
				<g>
					<path class="st11" d="M123.7,110.4c0,2.5-2,4.5-4.5,4.5c-0.8,0-1.5-0.2-2.2-0.6c-1.4-0.8-2.3-2.2-2.3-3.9c0-2.5,2-4.5,4.5-4.5
						c0.2,0,0.5,0,0.7,0.1C122.1,106.3,123.7,108.2,123.7,110.4z"/>
					<path class="st12" d="M121.5,110.4c0,1.2-1,2.3-2.3,2.3c-1.2,0-2.3-1-2.3-2.3c0-1.2,1-2.3,2.3-2.3
						C120.5,108.2,121.5,109.2,121.5,110.4z"/>
					<path class="st4" d="M123.7,110.4c0,2.5-2,4.5-4.5,4.5c-0.8,0-1.5-0.2-2.2-0.6c0-0.3,0.2-0.6,0.5-0.9c0.4-0.3,0.8-0.6,1.2-0.9
						c0.4-0.3,0.8-0.5,1.2-0.8c0.7-0.5,1.2-1.1,1.5-1.9c0-0.2,0.1-0.3,0.1-0.5c0.1-1.1-1.3-2.4-1.5-3.4
						C122.1,106.3,123.7,108.2,123.7,110.4z"/>
					<path class="st13" d="M115.7,108.9c-0.1,0.3-0.3,0.7-0.2,1c0,0.4,0.2,0.7,0.6,0.8c0.4,0.1,0.8-0.2,1.1-0.6
						c0.2-0.4,0.4-0.8,0.7-1.1c0.3-0.3,0.6-0.4,0.9-0.7c0.3-0.2,0.5-0.7,0.3-1c-0.1-0.2-0.4-0.3-0.6-0.4c-0.6-0.2-1.3-0.1-1.7,0.3
						C116.2,107.7,115.9,108.3,115.7,108.9z"/>
				</g>
				<g>
					<g>
						<path class="st11" d="M92.5,113.7c0,3.8-0.7,7.4-1.1,9.6c-0.3,1.7-1.7,2.9-3.2,2.9c-0.1,0-0.1,0-0.2,0l-0.8-0.1l0.1-1l0.8,0
							c1.1,0.1,2.1-0.8,2.3-2.1c0.4-2,1-5.7,1.1-9.5c0-3.6-0.5-7.3-2.5-9.7c-1.5-1.8-3.7-2.7-6.5-2.7h0c-2.9,0-5.2,1-6.9,2.9
							c-2,2.2-3,5.4-3.4,8.6c-0.5,3.7-0.2,7.4,0,9.5c0.1,1.2,0.9,2,1.9,2.1l1.9,0.1l-0.1,1l-1.9-0.1c-1.5-0.1-2.7-1.3-2.8-2.9
							c-0.2-2.1-0.5-5.9,0-9.7c0.4-3.4,1.5-6.8,3.6-9.2c1.9-2.1,4.5-3.2,7.6-3.2h0c3.1,0,5.6,1,7.2,3
							C91.9,106,92.5,109.9,92.5,113.7z"/>
					</g>
					<path class="st14" d="M78.5,124.8c0,0.3-0.1,0.6-0.3,0.9c-0.4,0.5-1.1,0.9-2,0.9c-1.3,0-2.3-0.8-2.3-1.8c0-1,1-1.8,2.3-1.8
						c0.8,0,1.6,0.4,2,0.9C78.3,124.2,78.5,124.5,78.5,124.8z"/>
					<path class="st15" d="M78.5,124.8c0,0.3-0.1,0.6-0.3,0.9c-0.2-0.3-0.3-0.6-0.3-0.9s0.1-0.6,0.3-0.9
						C78.3,124.2,78.5,124.5,78.5,124.8z"/>
					<path class="st14" d="M83.6,125.6c0-0.3,0.1-0.6,0.3-0.9c0.4-0.5,1.1-0.9,2-0.9c1.3,0,2.3,0.8,2.3,1.8c0,1-1,1.8-2.3,1.8
						c-0.8,0-1.6-0.4-2-0.9C83.7,126.2,83.6,125.9,83.6,125.6z"/>
					<path class="st15" d="M83.6,125.6c0-0.3,0.1-0.6,0.3-0.9c0.2,0.3,0.3,0.6,0.3,0.9s-0.1,0.6-0.3,0.9
						C83.7,126.2,83.6,125.9,83.6,125.6z"/>
					<path class="st14" d="M92.5,113.7l-1,0c0-3.6-0.5-7.3-2.5-9.7c-1.5-1.8-3.7-2.7-6.5-2.7h0c-2.9,0-5.2,1-6.9,2.9
						c-2,2.2-3,5.4-3.4,8.6l-1,0c0.4-3.4,1.5-6.8,3.6-9.2c1.9-2.1,4.5-3.2,7.6-3.2h0c3.1,0,5.6,1,7.2,3
						C91.9,106,92.5,109.9,92.5,113.7z"/>
				</g>
				<g>
					<path class="st14" d="M84.2,100.8l-1.2-0.1c0.7-10.3,2.4-17.6,5-21.8c2.1-3.3,4-3.4,4.2-3.4l0,1.2
						C92.1,76.9,85.8,77.5,84.2,100.8z"/>
				</g>
				<g>
					<path class="st14" d="M119.9,106l-1.2-0.1c1.6-17.9-1.2-24.9-3.7-27.6c-1.4-1.5-2.6-1.5-2.7-1.5l0-1.2c0.1,0,1.8-0.1,3.6,1.8
						C118.5,80.2,121.5,87.5,119.9,106z"/>
				</g>
			</g>
			<g>
				<path class="st16" d="M109.4,56.3c0,0-8.3,1.9-16.2,0.4c0,0,1.5,7.1,8.2,7C107.8,63.4,109.4,57.6,109.4,56.3z"/>
				<path class="st13" d="M101.2,59.9c-5.2,0.1-6.7-2-7.4-3.1c6.1,1.1,10.9,0.2,15.2-0.4C108.6,57.6,106.1,59.8,101.2,59.9z"/>
			</g>
			<path class="st17" d="M102,41c-0.2,1.8-0.5,3.8-1.7,5.2c-0.8,0.9-2,1.5-2.4,2.6c-0.4,1.1,0.1,2.4,1,3.1c0.9,0.8,2,1.1,3.2,1.3"/>
			<g>
				<g>
					<path class="st2" d="M95.1,41.9c0,1.3-0.8,2.4-1.8,2.4c-1,0-1.8-1.1-1.8-2.4c0-1.3,0.8-2.4,1.8-2.4
						C94.3,39.5,95.1,40.6,95.1,41.9z"/>
				</g>
			</g>
			<g>
				<g>
					<path class="st2" d="M85.5,37.1c0,0,1.6-3.7,4.9-4.7c3.1-1,5.3-0.3,6.4,0.3c0.5,0.2,0.7,0.8,0.6,1.3l0,0
						c-0.2,0.6-0.9,0.9-1.5,0.7C94,34,89.8,33,85.5,37.1z"/>
				</g>
			</g>
			<g>
				<g>
					<path class="st2" d="M107.7,41.9c0,1.3,0.8,2.4,1.8,2.4c1,0,1.8-1.1,1.8-2.4c0-1.3-0.8-2.4-1.8-2.4
						C108.5,39.5,107.7,40.6,107.7,41.9z"/>
				</g>
			</g>
			<g>
				<g>
					<path class="st2" d="M116.6,37.4c0,0-1.3-3.8-4.5-5.1c-3-1.2-5.3-0.7-6.4-0.2c-0.5,0.2-0.8,0.8-0.7,1.3l0,0
						c0.2,0.6,0.8,1,1.4,0.8C108.4,33.6,112.6,33,116.6,37.4z"/>
				</g>
			</g>
			<path class="st10" d="M83.9,20.5c0,0,8.4,10.2,37.2,8.5c0,0-0.7-4-1.9-5.5C119.3,23.4,90.5,18.7,83.9,20.5z"/>
			<path class="st2" d="M127.9,24.4c1.4-0.5-2.9,14.3-1.7,13.5c4.8-3.4,9.7-20.2,9-25.5c-0.3-1.9-1-3.8-2.3-5.1
				c-1.3-1.3-3.2-1.9-5-2c-2.3-0.1-11.5,1.4-11.9,4.9c0.6-6.2-1.8-9.1-7.8-9.8c-5.6-0.6-11.4-0.8-16.6,1.5c-3.9,1.7-7.2,4.7-10,8
				c-0.9,1.1-1.9,2.3-2.2,3.7c-1.5,6.2,11,9.8,15.1,11.2c6.9,2.3,14.3,3.2,21.5,2.5C120,26.8,124,25.8,127.9,24.4z"/>
		</g>
	</g>
</g>
</svg>
