<?xml version="1.0" encoding="utf-8"?>
<!-- Generator: Adobe Illustrator 22.1.0, SVG Export Plug-In . SVG Version: 6.00 Build 0)  -->
<svg version="1.1" id="drink" xmlns="http://www.w3.org/2000/svg" xmlns:xlink="http://www.w3.org/1999/xlink" x="0px" y="0px"
	 viewBox="0 0 208.7 200.7" style="enable-background:new 0 0 208.7 200.7;" xml:space="preserve">
<style type="text/css">
	.st0{fill:#D1EDF0;}
	.st1{fill:#C68F6A;}
	.st2{fill:#6B4125;}
	.st3{fill:#661054;}
	.st4{fill:#A65533;}
	.st5{fill:#F2F2F2;}
	.st6{fill:#51044A;}
	.st7{fill:#7A1B68;}
	.st8{fill:#AF662F;}
	.st9{fill:#ED7E69;}
	.st10{fill:#FCC6A2;}
	.st11{fill:#EF957D;}
	.st12{fill:#1D1D1B;}
	.st13{fill:#CC7462;}
	.st14{fill:#8DB8E9;}
	.st15{fill:#D4F2F9;}
	.st16{fill:#BDE0E5;}
	.st17{fill:#872E7A;}
	.st18{fill:#A2CBF4;}
	.st19{fill:#1D6082;}
</style>
<g>
	<path id="background" class="st0" d="M41.9,32.8C25.9,43.2,10.3,54.9,16,77.3c2.1,8.2,6.8,15.5,11.8,22.1
		c7.2,9.5,10.2,20.5,3.2,30.7c-6.6,9.5-17.2,14.8-25.3,22.7c-14.1,13.7,16.6,21,25.4,23.1c9,2.1,18.1,3.5,27.3,4.7
		c32,4.2,65.6,3.9,96.2-7.3c12.7-4.4,24.7-10.6,35.7-18.2c6.8-4.9,15-11.5,16.3-20.3c1.1-7-3.9-18.4-9.6-22.7
		c-14-10.7-27.5-22-40.4-34c-10.2-9.5-18.2-19.8-26.4-30.9c-15.3-20.5-40-35.4-66.5-27.1c-3.9,1.3-7.6,3.2-11,5.6
		C49.2,28,45.5,30.4,41.9,32.8z"/>
	<path id="Path_6845" class="st1" d="M107.2,193.2c0.1-0.5,0.2-1.1,0.2-1.6c0-8.5-17.9-15.4-40-15.4s-40,6.9-40,15.4
		c0,0.7,0.1,1.4,0.4,2.1C38.1,195.7,73.1,201.1,107.2,193.2z"/>
	<path id="Path_6846" class="st1" d="M72.5,175.9c0,2.3-2.2,4.1-4.9,4.1l0,0c-2.7,0-4.9-1.8-4.9-4.1V92.6c0-2.3,2.2-4.1,4.9-4.1l0,0
		c2.7,0,4.9,1.8,4.9,4.1V175.9z"/>
	<path id="Path_6847" class="st2" d="M2.3,82.7c0,6.1,4.9,11,11,11h107.4c6.1,0,11-4.9,11-11v-1.1H2.3V82.7z"/>
	<path id="Path_6848" class="st3" d="M18.3,27.7V9.5c0.1-2.1-1.5-4-3.6-4.1c-2.1-0.1-4,1.5-4.1,3.6c0,0.2,0,0.4,0,0.5v18.2
		C6.8,29.3,4.3,33,4.3,37v35.5c0,5.6,4.5,6.2,10.1,6.2s10.1-0.6,10.1-6.2V37C24.5,32.9,22,29.3,18.3,27.7L18.3,27.7z"/>
	<path id="Path_6849" class="st4" d="M11.7,8.3l-1.1-7.6c2.5-0.8,5.2-0.8,7.7,0l-1.3,7.6C15.2,8.6,13.4,8.6,11.7,8.3z"/>
	<path id="Path_6850" class="st5" d="M21.5,40c-1.6-2.9-4.2-4.8-7.2-4.8s-5.6,1.9-7.2,5c-1.2-0.1-2.2-0.2-2.9-0.2v15.3
		c0.8,0.1,2,0.2,3.4,0.3c1.7,2.6,4.1,4.2,6.8,4.2c2.8,0,5.2-1.7,6.9-4.3c1-0.1,2.2-0.2,3.3-0.3V39.7C23.6,39.8,22.5,39.9,21.5,40z"
		/>
	<path id="Path_6851" class="st6" d="M18.3,9.5c0.1-2.1-1.5-4-3.6-4.1c-2.1-0.1-4,1.5-4.1,3.6c0,0.2,0,0.4,0,0.5v2.7h7.7V9.5z"/>
	<path id="Path_6852" class="st7" d="M20.2,7.4c0,1.2-0.9,2.1-2.1,2.1l-7.5,0c-1.2,0-2.1-0.9-2.1-2.1l0,0c0-1.2,0.9-2.1,2.1-2.1
		l7.5,0C19.3,5.3,20.2,6.2,20.2,7.4C20.2,7.4,20.2,7.4,20.2,7.4z"/>
	<path id="Path_6853" class="st8" d="M200.1,140.2c-0.6,2.9-2.9,4.8-5.1,4.4l0,0c-2.2-0.5-3.6-3.2-3-6l13.1-64.1
		c0.6-2.9,2.9-4.8,5.1-4.4l0,0c2.2,0.5,3.6,3.2,3,6.1L200.1,140.2z"/>
	<rect id="Rectangle_404" x="140.2" y="143" class="st8" width="8.4" height="56.4"/>
	<rect id="Rectangle_405" x="185.8" y="143" class="st8" width="8.4" height="56.4"/>
	<path id="Path_6854" class="st8" d="M202.2,143.4c0,2.9-2.3,5.2-5.2,5.2h-55c-2.9,0-5.2-2.3-5.2-5.2l0,0c0-2.9,2.3-5.2,5.2-5.2h55
		C199.9,138.2,202.2,140.5,202.2,143.4z"/>
	<path id="Path_6855" d="M119.2,185.3c-0.2-1-3.8-58.3-3.8-58.3s-0.2-10.3,4.5-11.6c3.2-0.9,10.2-1.7,25.8-2.1
		c15.6-0.5,51.9,0,51.9,0s-3.1,21.8-7.8,24.4c-3.2,1.8-50.3,1.4-50.3,1.4l-6.2,46.2H119.2z"/>
	<path id="Path_6856" class="st9" d="M140.3,55.4l-0.7-9.9l-12.3,1.1l0.7,9.7L140.3,55.4z"/>
	<path id="Path_6857" class="st10" d="M77.8,63.5c1.8-3.5,3.9-6.8,6.5-9.8c2.9-3.5,6.1-7.1,10-9.6c1.6-0.9,3.1-2,4.5-3.2l18.9,1
		c8.2,0.4,14.6,6.8,14.3,14.2l-0.5,9.6c-0.4,7.4-7.4,13.1-15.6,12.7l-24.8-1.2c-4.9-0.2-11.8-1.2-16.6-3.5
		C75.6,70.3,76.2,66.8,77.8,63.5z"/>
	<path id="Path_6858" class="st11" d="M109.6,74.5c0.4,0,0.8,0.3,0.8,0.8c0,1-0.2,1.9-0.5,2.9l-1.8-0.1c0.4-0.9,0.6-2,0.6-3
		C108.8,74.6,109.2,74.4,109.6,74.5z"/>
	<path id="Path_6859" class="st12" d="M95.4,59.2c0,0-5,2.5-5.3,12.2c0.1,1.3-3.3-3.6-0.7-8.5S96,57.7,95.4,59.2z"/>
	<path id="Path_6860" class="st13" d="M95.9,71.8c0,0,4-2.4,3.6-10.4c-0.1-1.1,3,2.8,1.1,7C98.9,72.6,95.5,73.1,95.9,71.8z"/>
	<path id="Path_6861" class="st11" d="M129.1,66.8c0,0,0.2-5.9,0.2-9.5c-0.1-3.9-2.3-7.3-5.6-9.2c-5.5-1.8-19.6-2.7-19.6-2.7
		c-1.3,4-9.7,5.7-9.7,5.7c-0.6,7.3-6.2,7.7-6.2,7.7c0.5-0.1,0.9,0.2,1,0.7c0,0.1,0,0.2,0,0.3c-0.5,1.7-3.4,1.5-3.4,1.5
		c0.9,0.6,1.5,1.6,1.7,2.6c0.3,2.5-3.7,5.3-3.7,5.3l-7.5-1.4c0.4-1.5,1-2.9,1.6-4.3c1.8-3.5,3.9-6.8,6.5-9.8c2.9-3.5,6.1-7.1,10-9.6
		c1.6-0.9,3.1-2,4.5-3.2l18.9,1c8.2,0.4,14.6,6.8,14.3,14.2l-0.5,9.6c-0.2,3.4-1.8,6.6-4.4,8.9C128.2,72.1,128.9,69.5,129.1,66.8z"
		/>
	<path id="Path_6862" class="st12" d="M102.8,41.4c0,0-4,8.5-10.8,7.3c0,0,1.5,8-6.2,9.6c0,0,1,1.8,2,1.3c1-0.5,0.8,0.4-0.8,1
		c-1.6,0.6-2.8-1.5-2.8-1.5c0.1,1.1-0.3,2.2-1.2,2.8c0,0,4.6,1.4,3.2,5.6s-5.7,3.6-4.5,6c0.3,1.8-0.5,3.6-2.1,4.5
		c-2.7,1.4-12.3-0.7-14.8-8.7c0,0-2.2,2-0.7,4c1.5,2-1.8,1.6-2.4-0.4s1-4.5,2.3-5.5c-1.6,0-3.2-0.9-4-2.3c-1-1.5-0.9-3.5,0.2-5
		c0,0-9.4-9.1,0.6-19.3c0,0-2.8-3.7-0.9-5.5c1.3-1.1,0.5,3.4,2.1,4.2l1-0.6c0,0-2-2.6-0.3-7.4c1.7-4.8,6.1-10.5,13.1-10.3
		c0,0,5.4-9.7,15.5-7.2c3.1,1.2,8.3,2.7,8.6-2.1c0.2-2.7,3.8-1.2,2.8,0.8c-0.5,1.1-1.3,2.1-2.1,3c0,0,3.2-1.6,5.7-0.5
		s2.3,2.4,2.3,2.4c2.7-0.5,5.6-0.1,8.1,1.2c2.9,1.5,4.8,6,4.1,8.8c0,0,6.6,4.8,4,9.6c1.1,0.3,2.3-0.1,3-1c1.2-1.7,4,0.6,2.7,3
		c-1.3,2.5-2.4,3.4-5.4,4.6C124.9,43.9,110.6,40,102.8,41.4z"/>
	<path id="Path_6863" class="st11" d="M103.2,42.1c0,0-3.2-3.3-0.8-5.9c1.5-1.7,6.4-2.3,9.4,1.1c3,3.5-0.6,6.6-2.7,6.8
		C107,44.3,103.2,42.1,103.2,42.1z"/>
	<path id="Path_6864" class="st14" d="M135.1,59.7c0,0,10,9.4,10.7,22.8c0.7,13.9,0.5,30.8,0.5,30.8l51.4,0c0,0-0.7-24.6-9.7-43.4
		c-9-18.7-19.4-29.4-49.8-26.3C134.9,45.7,133.5,53.8,135.1,59.7z"/>
	<path id="Path_6865" class="st5" d="M37.6,71.1c0,0.8-0.7,1.5-1.5,1.5c0,0,0,0,0,0l0,0c-0.8,0-1.5-0.7-1.5-1.5v-8.8
		c0-0.8,0.7-1.5,1.5-1.5l0,0c0.8,0,1.5,0.7,1.5,1.5V71.1z"/>
	<path id="Path_6866" class="st5" d="M27.8,42.3l-1.7,11.6c-0.1,5.6,4.4,10.2,10.1,10.3s10.2-4.4,10.3-10.1c0-0.1,0-0.1,0-0.2
		l-1.3-11.6c-2.7,0.1-5.6,0.1-8.5,0.1C33.5,42.4,30.6,42.4,27.8,42.3z"/>
	<path id="Path_6867" class="st5" d="M37.6,71.2c-0.9,0.2-1.9,0.2-2.8,0l-5.6,6.1c4.5,1.4,9.3,1.4,13.7-0.1L37.6,71.2z"/>
	<path id="Path_6868" class="st15" d="M35.3,79c-2.2,0.1-4.4-0.3-6.5-1c-0.4-0.2-0.6-0.6-0.4-1.1c0.2-0.4,0.6-0.6,1.1-0.4l0,0
		c2.1,0.7,4.4,1,6.7,0.9l0.4,0c2.1,0,4.1-0.3,6.1-1c0.4-0.2,0.9,0.1,1,0.5c0.2,0.4-0.1,0.9-0.5,1c-2.1,0.8-4.3,1.2-6.6,1.1h-0.4
		C35.9,79,35.6,79,35.3,79z"/>
	<path id="Path_6869" class="st16" d="M45,42.2c0,0.5-3.9,0.9-8.7,0.9s-8.7-0.4-8.7-0.9c0-0.5,3.9-0.9,8.7-0.9S45,41.7,45,42.2z"/>
	<path id="Path_6870" class="st17" d="M35.8,62.1c3.6,0.2,9.6-2,8.5-10.1H28.4C27.9,54.1,27.2,61.5,35.8,62.1z"/>
	<path id="Path_6871" class="st17" d="M44.3,52c0,0.4-3.6,0.7-8,0.7s-8-0.3-8-0.7s3.6-0.8,8-0.8S44.3,51.6,44.3,52z"/>
	<path id="Path_6872" class="st10" d="M165.4,142.4c0,0,0.3,6.8,3,11.7c2.6,4.9,7.1,5.7,11.6,6c2.1,0,5.5-2.4,6.8-4.4
		c0,0,0.1-1.6-1.4-1.2c-1.5,0.4-5.1,1.2-5.1,1.2s-3-1.4-4.1-3.3c1.2,0.3,3.7,0.3,4.9-1.2c0.4-1-0.1-1.6-1.9-1.6
		c-1.8,0-2.3-3.2-3.5-7.6L165.4,142.4z"/>
	<path id="Path_6873" class="st18" d="M159.6,52c0,0-10.5-4.4-12.7,8.8c0.4,6.6,5.7,16.7,11,36.4s7,45.7,7,45.7l11.9-0.7
		c0,0-1.2-28.9-4.2-50.9C168.5,61.1,164.4,54.2,159.6,52z"/>
	<path id="Path_6874" class="st1" d="M136.7,81.7c0-2.5-2-4.6-4.6-4.6c0,0,0,0,0,0H-0.2c-2.5,0-4.6,2-4.6,4.6l0,0
		c0,2.5,2,4.6,4.6,4.6c0,0,0,0,0,0h132.3C134.7,86.2,136.7,84.2,136.7,81.7C136.7,81.7,136.7,81.7,136.7,81.7z"/>
	<path id="Path_6875" class="st19" d="M119.2,185.3c0,0-20.5,6.6-24.5,10.6c-2.6,2.6-1.7,5.2,10.4,4.8c12.2-0.4,29.1,0.4,31.7-2.6
		c2.6-3-3.5-12.7-3.5-12.7L119.2,185.3z"/>
</g>
</svg>
