<?xml version="1.0" encoding="utf-8"?>
<!-- Generator: Adobe Illustrator 22.1.0, SVG Export Plug-In . SVG Version: 6.00 Build 0)  -->
<svg version="1.1" id="simtoms" xmlns="http://www.w3.org/2000/svg" xmlns:xlink="http://www.w3.org/1999/xlink" x="0px" y="0px"
	 viewBox="0 0 209.2 200.2" style="enable-background:new 0 0 209.2 200.2;" xml:space="preserve">
<style type="text/css">
	.st0{fill:#D1EDF0;}
	.st1{fill:#2E6B99;}
	.st2{fill:#0E2549;}
	.st3{fill:#FFFFFF;}
	.st4{fill:#D2EBFC;}
	.st5{fill:#A1C5E2;}
</style>
<g>
	<path id="background" class="st0" d="M40.9,18.3c-16.3,12.7-32.3,26.8-26.5,54c2.2,9.9,7,18.8,12.1,26.8
		c7.3,11.5,10.5,24.8,3.2,37.3C23,148,12.2,154.5,3.9,164c-14.4,16.7,17,25.5,25.9,27.9c9.1,2.6,18.5,4.2,27.9,5.7
		c32.8,5,67,4.7,98.3-8.8c12.9-5.4,25.2-12.9,36.4-22.1c7-5.8,15.3-14,16.7-24.7c1-8.5-4-22.4-9.8-27.5
		c-14.4-12.9-28.1-26.7-41.3-41.2c-10.4-11.5-18.6-24-27.1-37.6C115.3,10.9,90-7.3,63,2.9c-4,1.6-7.8,3.9-11.2,6.8
		C48.4,12.6,44.6,15.5,40.9,18.3z"/>
	<g>
		<g>
			<path class="st1" d="M159,112.4c-2,0-3.7-0.5-5.2-1.5c-5.1-3.4-5.9-11.5-2.3-23.9c2.8-9.7,7.6-20,11.2-26.9
				c1-1.9,2.6-3.2,4.6-3.7c1.7-0.5,3.5-0.2,4.9,0.8L175,59l-1.2,1.8l-2.8-1.9c-0.9-0.6-2-0.8-3.1-0.5c-1.3,0.4-2.5,1.3-3.2,2.6
				c-3.5,6.8-8.3,17-11,26.5c-1.5,5.3-2.3,9.8-2.1,13.3c0.1,3.9,1.3,6.6,3.5,8.1c2.2,1.5,5.2,1.5,8.9,0.1c3.3-1.2,7.2-3.6,11.5-7.1
				c7.7-6.2,15.3-14.6,20.2-20.4c0.9-1.1,1.4-2.6,1.2-3.9c-0.2-1.1-0.7-2.1-1.7-2.7l-2.5-1.6l1.2-1.8l2.5,1.6
				c1.4,0.9,2.4,2.5,2.6,4.2c0.3,2-0.3,4.1-1.7,5.7c-5,6-12.6,14.4-20.5,20.7C169.6,109.5,163.7,112.4,159,112.4z"/>
			<path class="st2" d="M189.4,74.6L190,75c0.6,0.4,1.5,0.2,1.9-0.4l2.7-4c0.4-0.6,0.2-1.5-0.4-1.9l-0.6-0.4
				c-0.6-0.4-1.5-0.2-1.9,0.4l-2.7,4C188.6,73.3,188.8,74.2,189.4,74.6z"/>
			<path class="st2" d="M173.2,63.8l0.6,0.4c0.6,0.4,1.5,0.2,1.9-0.4l2.7-4c0.4-0.6,0.2-1.5-0.4-1.9l-0.6-0.4
				c-0.6-0.4-1.5-0.2-1.9,0.4l-2.7,4C172.4,62.6,172.6,63.4,173.2,63.8z"/>
			<circle class="st1" cx="171.6" cy="171" r="10"/>

				<ellipse transform="matrix(0.9871 -0.1602 0.1602 0.9871 -25.217 29.6945)" class="st3" cx="171.6" cy="171.3" rx="6.9" ry="6.9"/>
			<path class="st2" d="M171.6,178.4c-3.9,0-7.1-3.2-7.1-7.1s3.2-7.1,7.1-7.1c3.9,0,7.1,3.2,7.1,7.1S175.5,178.4,171.6,178.4z
				 M171.6,164.5c-3.7,0-6.7,3-6.7,6.7c0,3.7,3,6.7,6.7,6.7c3.7,0,6.7-3,6.7-6.7C178.3,167.5,175.3,164.5,171.6,164.5z"/>
			<g>
				<path class="st2" d="M173.6,163.5c-0.4,0-0.8-0.2-1-0.5c-0.5-0.6-0.4-1.4,0.2-1.9c0.1-0.1,6.8-5.6,6.9-13
					c0-4.4-2.3-8.6-6.9-12.5c-10.4-8.8-18-19.7-18.3-20.1c-0.4-0.6-0.3-1.4,0.3-1.9c0.6-0.4,1.4-0.3,1.9,0.3
					c0.1,0.1,7.7,11,17.8,19.6c5.3,4.5,7.9,9.4,7.9,14.6c-0.1,8.6-7.6,14.7-7.9,15C174.2,163.4,173.9,163.5,173.6,163.5z"/>
				<path class="st2" d="M151.8,109c0,0,0.8,3.5,2.8,6.6c2,3.1,2.1-1.7,2.1-1.7s-1.6-3.2-2-4C154.2,109.2,152.9,107.3,151.8,109z"/>
			</g>
		</g>
		<g>
			<rect x="49.4" y="36.3" class="st1" width="101.4" height="144.7"/>
			<rect x="59" y="46.1" class="st3" width="81.3" height="125.4"/>
			<path class="st2" d="M140.5,171.7H58.8V45.9h81.7V171.7z M59.2,171.4h81V46.3h-81V171.4z"/>
			<path class="st2" d="M80.8,71.5c-0.1-0.1-0.2-0.1-0.2,0l-3.8,3.2C75.5,73,73.5,72,71.3,72c-2.3,0-4.4,1.2-5.7,2.9l-0.5-0.5
				c-0.1-0.1-0.2-0.1-0.2,0c-0.1,0.1-0.1,0.2,0,0.2l0.5,0.6c-0.7,1.1-1.1,2.3-1.1,3.7c0,3.8,3.1,7,7,7c3.8,0,7-3.1,7-7
				c0-1.5-0.5-2.9-1.3-4.1l3.8-3.2C80.9,71.7,80.9,71.5,80.8,71.5z M71.3,72.3c2.1,0,3.9,1,5.2,2.5l-6.2,5.1l-4.4-4.7
				C67.1,73.5,69.1,72.3,71.3,72.3z M78,78.9c0,3.6-3,6.6-6.6,6.6c-3.6,0-6.6-3-6.6-6.6c0-1.3,0.4-2.4,1-3.4l4.6,4.9l6.4-5.3
				C77.5,76.2,78,77.5,78,78.9z"/>
			<path class="st2" d="M79.9,95.7c-0.1-0.1-0.2-0.1-0.2,0l-3.8,3.2c-1.3-1.6-3.2-2.6-5.4-2.6c-2.3,0-4.4,1.2-5.7,2.9l-0.5-0.5
				c-0.1-0.1-0.2-0.1-0.2,0c-0.1,0.1-0.1,0.2,0,0.2l0.5,0.6c-0.7,1.1-1.1,2.3-1.1,3.7c0,3.8,3.1,7,7,7c3.8,0,7-3.1,7-7
				c0-1.5-0.5-2.9-1.3-4.1l3.8-3.2C79.9,95.9,79.9,95.8,79.9,95.7z M70.4,96.6c2.1,0,3.9,1,5.2,2.5l-6.2,5.1l-4.4-4.7
				C66.1,97.7,68.1,96.6,70.4,96.6z M77,103.2c0,3.6-3,6.6-6.6,6.6c-3.6,0-6.6-3-6.6-6.6c0-1.3,0.4-2.4,1-3.4l4.6,4.9l6.4-5.3
				C76.5,100.4,77,101.7,77,103.2z"/>
			<path class="st2" d="M79.6,119.9c-0.1-0.1-0.2-0.1-0.2,0l-3.8,3.2c-1.3-1.6-3.2-2.6-5.4-2.6c-2.3,0-4.4,1.2-5.7,2.9l-0.5-0.5
				c-0.1-0.1-0.2-0.1-0.2,0c-0.1,0.1-0.1,0.2,0,0.2l0.5,0.6c-0.7,1.1-1.1,2.3-1.1,3.7c0,3.8,3.1,7,7,7c3.8,0,7-3.1,7-7
				c0-1.5-0.5-2.9-1.3-4.1l3.8-3.2C79.6,120.1,79.6,120,79.6,119.9z M70.1,120.8c2.1,0,3.9,1,5.2,2.5l-6.2,5.1l-4.4-4.7
				C65.8,121.9,67.8,120.8,70.1,120.8z M76.7,127.4c0,3.6-3,6.6-6.6,6.6c-3.6,0-6.6-3-6.6-6.6c0-1.3,0.4-2.4,1-3.4l4.6,4.9l6.4-5.3
				C76.2,124.6,76.7,126,76.7,127.4z"/>
			<path class="st2" d="M134.1,73.4H84.8c-0.1,0-0.2-0.1-0.2-0.2s0.1-0.2,0.2-0.2h49.3c0.1,0,0.2,0.1,0.2,0.2S134.2,73.4,134.1,73.4
				z"/>
			<path class="st2" d="M120.6,81.4H84.3c-0.1,0-0.2-0.1-0.2-0.2c0-0.1,0.1-0.2,0.2-0.2h36.3c0.1,0,0.2,0.1,0.2,0.2
				C120.8,81.3,120.7,81.4,120.6,81.4z"/>
			<path class="st2" d="M133.6,98.6H83.7c-0.1,0-0.2-0.1-0.2-0.2c0-0.1,0.1-0.2,0.2-0.2h49.9c0.1,0,0.2,0.1,0.2,0.2
				C133.8,98.5,133.7,98.6,133.6,98.6z"/>
			<path class="st2" d="M107.1,106.6H83.3c-0.1,0-0.2-0.1-0.2-0.2c0-0.1,0.1-0.2,0.2-0.2h23.8c0.1,0,0.2,0.1,0.2,0.2
				C107.3,106.5,107.2,106.6,107.1,106.6z"/>
			<path class="st2" d="M134.1,123.7H82.8c-0.1,0-0.2-0.1-0.2-0.2c0-0.1,0.1-0.2,0.2-0.2h51.3c0.1,0,0.2,0.1,0.2,0.2
				C134.3,123.7,134.2,123.7,134.1,123.7z"/>
			<path class="st2" d="M122.6,131.7H82.4c-0.1,0-0.2-0.1-0.2-0.2c0-0.1,0.1-0.2,0.2-0.2h40.3c0.1,0,0.2,0.1,0.2,0.2
				C122.8,131.6,122.7,131.7,122.6,131.7z"/>
			<path class="st2" d="M114.7,142.5H66.7c-0.1,0-0.2-0.1-0.2-0.2s0.1-0.2,0.2-0.2h48.1c0.1,0,0.2,0.1,0.2,0.2
				S114.8,142.5,114.7,142.5z"/>
			<path class="st2" d="M114.3,150.7H66.2c-0.1,0-0.2-0.1-0.2-0.2c0-0.1,0.1-0.2,0.2-0.2h48.1c0.1,0,0.2,0.1,0.2,0.2
				C114.5,150.6,114.4,150.7,114.3,150.7z"/>
			<path class="st2" d="M80.4,37.2c0,17.5-8.2,31.7-18.2,31.7S44,54.7,44,37.2c0,0,6.7-2.3,8.8-3.2c2.5-1.1,9.7-5.2,9.7-5.2
				s7,4.1,9.4,5.2C74,34.9,80.4,37.2,80.4,37.2z"/>
			<path class="st3" d="M77.1,39.6c0,14.3-6.7,25.9-14.9,25.9c-8.2,0-14.9-11.6-14.9-25.9c0,0,5.9-1.9,7.8-2.8
				c1.9-0.9,7.4-4.2,7.4-4.2s5.4,3.5,7.3,4.4C71.6,37.8,77.1,39.6,77.1,39.6z"/>
			<polygon class="st2" points="71.9,45.8 65.2,45.8 65.2,39.1 59.2,39.1 59.2,45.8 52.5,45.8 52.5,51.8 59.2,51.8 59.2,58.5
				65.2,58.5 65.2,51.8 71.9,51.8 			"/>
		</g>
		<g>
			<path class="st4" d="M14.4,93.6l0.7,13.4l8.9-3.1l-7.4-11C15.9,91.9,14.4,92.4,14.4,93.6z"/>
			<path class="st2" d="M14.9,107.2l-0.7-13.6c0-0.6,0.3-1.1,0.9-1.3c0.6-0.2,1.2,0,1.5,0.5l7.6,11.2L14.9,107.2z M15.6,92.5
				c-0.1,0-0.2,0-0.3,0.1c-0.3,0.1-0.7,0.4-0.7,1l0.7,13.1l8.5-2.9L16.4,93C16.2,92.6,15.9,92.5,15.6,92.5z"/>
			<path class="st4" d="M45.5,180.3L45.5,180.3c-2.9,1-6.1-0.5-7.2-3.5l-23.3-67.1c-1-2.9,0.5-6.1,3.5-7.2l0,0
				c2.9-1,6.1,0.5,7.2,3.5L49,173.2C50,176.1,48.5,179.3,45.5,180.3z"/>
			<path class="st2" d="M43.7,180.8c-0.9,0-1.7-0.2-2.5-0.6c-1.4-0.7-2.4-1.9-2.9-3.3L15,109.9c-1-3,0.6-6.3,3.6-7.4
				c3-1,6.3,0.6,7.4,3.6l23.3,67.1c0.5,1.5,0.4,3-0.3,4.4c-0.7,1.4-1.9,2.4-3.3,2.9l0,0C45,180.7,44.3,180.8,43.7,180.8z
				 M20.4,102.5c-0.6,0-1.2,0.1-1.8,0.3c-2.8,1-4.3,4.1-3.4,6.9l23.3,67.1c0.5,1.4,1.5,2.5,2.8,3.1c1.3,0.6,2.8,0.7,4.2,0.2l0,0
				c1.4-0.5,2.5-1.5,3.1-2.8c0.6-1.3,0.7-2.8,0.2-4.2l-23.3-67.1C24.8,103.9,22.7,102.5,20.4,102.5z"/>
			<path class="st2" d="M34,137.9c0-0.1-0.1-0.1-0.2-0.1l-2,0.7l-0.9-2.5l0.8-0.3c0.1,0,0.1-0.1,0.1-0.2c0-0.1-0.1-0.1-0.2-0.1
				l-0.8,0.3l-0.9-2.5l2-0.7c0.1,0,0.1-0.1,0.1-0.2c0-0.1-0.1-0.1-0.2-0.1l-2,0.7l-0.9-2.5l0.8-0.3c0.1,0,0.1-0.1,0.1-0.2
				c0-0.1-0.1-0.1-0.2-0.1l-0.8,0.3l-0.9-2.5l2-0.7c0.1,0,0.1-0.1,0.1-0.2c0-0.1-0.1-0.1-0.2-0.1l-2,0.7l-0.9-2.5l0.8-0.3
				c0.1,0,0.1-0.1,0.1-0.2c0-0.1-0.1-0.1-0.2-0.1l-0.8,0.3l-0.9-2.5l2-0.7c0.1,0,0.1-0.1,0.1-0.2c0-0.1-0.1-0.1-0.2-0.1l-2,0.7
				L25,119l0.8-0.3c0.1,0,0.1-0.1,0.1-0.2c0-0.1-0.1-0.1-0.2-0.1l-0.8,0.3l-0.9-2.5l2-0.7c0.1,0,0.1-0.1,0.1-0.2
				c0-0.1-0.1-0.1-0.2-0.1l-2,0.7l-0.9-2.5l0.8-0.3c0.1,0,0.1-0.1,0.1-0.2c0-0.1-0.1-0.1-0.2-0.1l-0.8,0.3l-0.9-2.5l2-0.7
				c0.1,0,0.1-0.1,0.1-0.2c0-0.1-0.1-0.1-0.2-0.1l-2,0.7l-0.9-2.5l0.8-0.3c0.1,0,0.1-0.1,0.1-0.2c0-0.1-0.1-0.1-0.2-0.1l-0.8,0.3
				l-1.6-4.6c0.4-0.4,0.5-1,0.4-1.6l-1.5-4.4c-0.3-0.8-1.1-1.2-1.9-0.9l0,0c-0.8,0.3-1.2,1.1-0.9,1.9l1.5,4.4c0.2,0.6,0.7,0.9,1.2,1
				l1.6,4.6l-0.8,0.3c-0.1,0-0.1,0.1-0.1,0.2c0,0.1,0.1,0.1,0.2,0.1c0,0,0,0,0.1,0l0.8-0.3l0.9,2.5l-2,0.7c-0.1,0-0.1,0.1-0.1,0.2
				c0,0.1,0.1,0.1,0.2,0.1c0,0,0,0,0.1,0l2-0.7l0.9,2.5l-0.8,0.3c-0.1,0-0.1,0.1-0.1,0.2c0,0.1,0.1,0.1,0.2,0.1c0,0,0,0,0.1,0
				l0.8-0.3l0.9,2.5l-2,0.7c-0.1,0-0.1,0.1-0.1,0.2c0,0.1,0.1,0.1,0.2,0.1c0,0,0,0,0.1,0l2-0.7l0.9,2.5l-0.8,0.3
				c-0.1,0-0.1,0.1-0.1,0.2c0,0.1,0.1,0.1,0.2,0.1c0,0,0,0,0.1,0l0.8-0.3l0.9,2.5l-2,0.7c-0.1,0-0.1,0.1-0.1,0.2
				c0,0.1,0.1,0.1,0.2,0.1c0,0,0,0,0.1,0l2-0.7l0.9,2.5l-0.8,0.3c-0.1,0-0.1,0.1-0.1,0.2c0,0.1,0.1,0.1,0.2,0.1c0,0,0,0,0.1,0
				l0.8-0.3l0.9,2.5l-2,0.7c-0.1,0-0.1,0.1-0.1,0.2c0,0.1,0.1,0.1,0.2,0.1c0,0,0,0,0.1,0l2-0.7l0.9,2.5l-0.8,0.3
				c-0.1,0-0.1,0.1-0.1,0.2c0,0.1,0.1,0.1,0.2,0.1c0,0,0,0,0.1,0l0.8-0.3l0.9,2.5l-2,0.7c-0.1,0-0.1,0.1-0.1,0.2
				c0,0.1,0.1,0.1,0.2,0.1c0,0,0,0,0.1,0l2-0.7l0.9,2.5l-0.8,0.3c-0.1,0-0.1,0.1-0.1,0.2c0,0.1,0.1,0.1,0.2,0.1c0,0,0,0,0.1,0
				l0.8-0.3l0.9,2.5l-2,0.7c-0.1,0-0.1,0.1-0.1,0.2c0,0.1,0.1,0.1,0.2,0.1c0,0,0,0,0.1,0l2-0.7l0.9,2.5l-0.8,0.3
				c-0.1,0-0.1,0.1-0.1,0.2c0,0.1,0.1,0.1,0.2,0.1c0,0,0,0,0.1,0l0.8-0.3l0.7,1.9l1.3-0.4l-0.7-1.9l0.8-0.3c0.1,0,0.1-0.1,0.1-0.2
				c0-0.1-0.1-0.1-0.2-0.1l-0.8,0.3l-0.9-2.5l2-0.7C34,138.1,34,138,34,137.9z"/>
			<path class="st2" d="M45.8,172c0-0.1-0.1-0.1-0.2-0.1l-2.1,0.7l-0.9-2.5l0.9-0.3c0.1,0,0.1-0.1,0.1-0.2c0-0.1-0.1-0.1-0.2-0.1
				l-0.9,0.3l-0.9-2.5l2.1-0.7c0.1,0,0.1-0.1,0.1-0.2c0-0.1-0.1-0.1-0.2-0.1l-2.1,0.7l-0.9-2.5l0.9-0.3c0.1,0,0.1-0.1,0.1-0.2
				c0-0.1-0.1-0.1-0.2-0.1l-0.9,0.3l-0.9-2.5l2.1-0.7c0.1,0,0.1-0.1,0.1-0.2c0-0.1-0.1-0.1-0.2-0.1l-2.1,0.7l-0.9-2.5l0.9-0.3
				c0.1,0,0.1-0.1,0.1-0.2c0-0.1-0.1-0.1-0.2-0.1l-0.9,0.3l-0.9-2.5l2.1-0.7c0.1,0,0.1-0.1,0.1-0.2c0-0.1-0.1-0.1-0.2-0.1l-2.1,0.7
				l-0.9-2.5l0.9-0.3c0.1,0,0.1-0.1,0.1-0.2c0-0.1-0.1-0.1-0.2-0.1l-0.9,0.3l-0.9-2.5l2.1-0.7c0.1,0,0.1-0.1,0.1-0.2
				c0-0.1-0.1-0.1-0.2-0.1l-2.1,0.7l-0.9-2.5l0.9-0.3c0.1,0,0.1-0.1,0.1-0.2c0-0.1-0.1-0.1-0.2-0.1l-0.9,0.3l-0.9-2.5l2.1-0.7
				c0.1,0,0.1-0.1,0.1-0.2c0-0.1-0.1-0.1-0.2-0.1l-2.1,0.7L29.4,132l-0.1-0.2l-1.1,0.4l4.3,12.4l-2.1,0.7c-0.1,0-0.1,0.1-0.1,0.2
				c0,0.1,0.1,0.1,0.2,0.1c0,0,0,0,0.1,0l2.1-0.7l0.9,2.5l-0.9,0.3c-0.1,0-0.1,0.1-0.1,0.2c0,0.1,0.1,0.1,0.2,0.1c0,0,0,0,0.1,0
				l0.9-0.3l0.9,2.5l-2.1,0.7c-0.1,0-0.1,0.1-0.1,0.2c0,0.1,0.1,0.1,0.2,0.1c0,0,0,0,0.1,0l2.1-0.7l0.9,2.5l-0.9,0.3
				c-0.1,0-0.1,0.1-0.1,0.2c0,0.1,0.1,0.1,0.2,0.1c0,0,0,0,0.1,0l0.9-0.3l0.9,2.5l-2.1,0.7c-0.1,0-0.1,0.1-0.1,0.2
				c0,0.1,0.1,0.1,0.2,0.1c0,0,0,0,0.1,0l2.1-0.7l0.9,2.5l-0.9,0.3c-0.1,0-0.1,0.1-0.1,0.2c0,0.1,0.1,0.1,0.2,0.1c0,0,0,0,0.1,0
				l0.9-0.3l0.9,2.5l-2.1,0.7c-0.1,0-0.1,0.1-0.1,0.2c0,0.1,0.1,0.1,0.2,0.1c0,0,0,0,0.1,0l2.1-0.7l0.9,2.5l-0.9,0.3
				c-0.1,0-0.1,0.1-0.1,0.2c0,0.1,0.1,0.1,0.2,0.1c0,0,0,0,0.1,0l0.9-0.3l0.9,2.5l-2.1,0.7c-0.1,0-0.1,0.1-0.1,0.2
				c0,0.1,0.1,0.1,0.2,0.1c0,0,0,0,0.1,0l2.1-0.7l0.9,2.5l-0.9,0.3c-0.1,0-0.1,0.1-0.1,0.2c0,0.1,0.1,0.1,0.2,0.1c0,0,0,0,0.1,0
				l0.9-0.3l0.9,2.5l-2.1,0.7c-0.1,0-0.1,0.1-0.1,0.2c0,0.1,0.1,0.1,0.2,0.1c0,0,0,0,0.1,0l2.1-0.7l0.2,0.6l0.1,0.2l1.1-0.4
				l-0.3-0.8l2.1-0.7C45.8,172.2,45.9,172.1,45.8,172z M28.7,132.4l0.5-0.2l4.2,12.1l-0.5,0.2L28.7,132.4z M33,144.8l0.5-0.2
				l0.9,2.5l-0.5,0.2L33,144.8z M34,147.7l0.5-0.2l0.9,2.5l-0.5,0.2L34,147.7z M34.9,150.5l0.5-0.2l0.9,2.5l-0.5,0.2L34.9,150.5z
				 M35.9,153.3l0.5-0.2l0.9,2.5l-0.5,0.2L35.9,153.3z M36.9,156.2l0.5-0.2l0.9,2.5l-0.5,0.2L36.9,156.2z M37.9,159l0.5-0.2l0.9,2.5
				l-0.5,0.2L37.9,159z M38.9,161.9l0.5-0.2l0.9,2.5l-0.5,0.2L38.9,161.9z M39.9,164.7l0.5-0.2l0.9,2.5l-0.5,0.2L39.9,164.7z
				 M40.8,167.6l0.5-0.2l0.9,2.5l-0.5,0.2L40.8,167.6z M41.8,170.4l0.5-0.2l0.9,2.5l-0.5,0.2L41.8,170.4z M43.5,173.5l-0.5,0.2
				l-0.2-0.5l0.5-0.2L43.5,173.5z"/>
		</g>
		<g>
			<path class="st5" d="M107,180.3L107,180.3c-2-1.2-2.6-3.9-1.4-5.9l4.7-7.7c1.2-2,3.9-2.6,5.9-1.4l0,0c2,1.2,2.6,3.9,1.4,5.9
				l-4.7,7.7C111.6,180.9,109,181.6,107,180.3z"/>
			<path class="st2" d="M118.2,168c-0.3-1.2-1-2.1-2-2.7c-2.1-1.3-4.8-0.6-6.1,1.5l-4.7,7.7c-0.6,1-0.8,2.2-0.5,3.4
				c0.3,1.2,1,2.1,2,2.7c0.7,0.4,1.5,0.6,2.3,0.6c1.5,0,3-0.8,3.8-2.1l4.7-7.7C118.3,170.3,118.4,169.1,118.2,168z M112.7,178.8
				c-1.2,1.9-3.7,2.5-5.6,1.4c-0.9-0.6-1.6-1.5-1.8-2.5c-0.3-1.1-0.1-2.2,0.5-3.1l2.2-3.7l7,4.3L112.7,178.8z M117.3,171.2l-2.2,3.7
				l-7-4.3l2.2-3.7c0.8-1.3,2.1-2,3.5-2c0.7,0,1.5,0.2,2.1,0.6c0.9,0.6,1.6,1.5,1.8,2.5C118.1,169.1,117.9,170.2,117.3,171.2z"/>
			<path class="st2" d="M113.3,178.1c0,0-1.2,2.2-2.6,2.5c-1.4,0.3-3.5,0.6-5.2-1.8s0.6-5.4,0.6-5.4l1.7-2.9l7.3,4.4L113.3,178.1z"
				/>
		</g>
		<g>
			<path class="st2" d="M124.6,149.2v-9.6h22.2v9.6c3.5,0.4,6.2,3.5,6.2,7.3V181h-34.7v-24.4C118.3,152.7,121.1,149.5,124.6,149.2z"
				/>
			<polygon class="st3" points="118.3,174.6 137.2,174.6 137.4,159.5 118.3,159.5 			"/>
			<path class="st3" d="M153.2,156.5c0-3.8-2.7-7-6.2-7.5v-9.6h-22.6v9.6c-3.5,0.4-6.2,3.7-6.2,7.5v24.6h35 M139.2,139.8h1.9v9.3
				h-1.9V139.8z M137.2,139.8h1.7v9.3h-1.7V139.8z M134.9,139.8h1.9v9.3h-1.9V139.8z M132.4,139.8h2.1v9.3h-2.1V139.8z M129.9,139.8
				h2.2v9.3h-2.2V139.8z M127.2,139.8h2.3v9.3h-2.3V139.8z M124.7,139.8h2.1v9.3h-2.1V139.8z M118.5,159.7h18.7l-0.2,14.7h-18.5
				V159.7z M152.9,180.8h-34.4v-6h18.9l0.2-15.4h-19.1v-2.8c0-3.7,2.7-6.8,6.1-7.2h17.7V149h-0.8v-9.3h5.2v9.6l0.2,0
				c3.5,0.4,6.1,3.4,6.1,7.2V180.8z"/>
		</g>
	</g>
</g>
</svg>
