<?xml version="1.0" encoding="utf-8"?>
<!-- Generator: Adobe Illustrator 22.1.0, SVG Export Plug-In . SVG Version: 6.00 Build 0)  -->
<svg version="1.1" id="pain_releafe" xmlns="http://www.w3.org/2000/svg" xmlns:xlink="http://www.w3.org/1999/xlink" x="0px"
	 y="0px" viewBox="0 0 248.3 200.6" style="enable-background:new 0 0 248.3 200.6;" xml:space="preserve">
<style type="text/css">
	.st0{fill:#D1EDF0;}
	.st1{fill:#2E6B99;}
	.st2{fill:#0E2549;}
	.st3{fill:#FFFFFF;}
	.st4{fill:#D2EBFC;}
	.st5{fill:#A1C5E2;}
</style>
<path id="background" class="st0" d="M48.3,18.3C28.9,31,10,45.2,16.9,72.3c2.5,9.9,8.2,18.8,14.3,26.9c8.7,11.5,12.4,24.9,3.8,37.3
	c-8,11.5-20.8,18-30.7,27.6c-17.1,16.6,20.2,25.5,30.8,28c10.9,2.5,22,4.2,33.1,5.7c38.9,5.1,79.6,4.7,116.8-8.9
	c15.4-5.4,29.9-12.8,43.3-22.1c8.2-5.9,18.2-13.9,19.8-24.6c1.3-8.5-4.7-22.3-11.6-27.6c-17-12.9-33.4-26.7-49-41.2
	c-12.4-11.5-22-24.1-32.1-37.5c-18.5-24.8-48.6-43-80.6-32.8C70,4.5,65.5,6.7,61.4,9.7C57.2,12.6,52.8,15.4,48.3,18.3z"/>
<g>
	<g>
		<path class="st1" d="M186.2,109.1c-2.2,0-4.2-0.6-5.9-1.7c-5.8-3.8-6.6-12.9-2.6-26.9c3.2-10.9,8.6-22.5,12.6-30.3
			c1.1-2.1,3-3.6,5.1-4.2c1.9-0.5,3.9-0.2,5.5,0.9l3.2,2.1l-1.4,2.1l-3.2-2.1c-1-0.7-2.3-0.9-3.5-0.5c-1.5,0.4-2.8,1.5-3.6,2.9
			c-3.9,7.7-9.3,19.1-12.4,29.8c-1.7,6-2.5,11-2.4,15c0.2,4.4,1.5,7.5,4,9.1c2.5,1.7,5.8,1.7,9.9,0.2c3.7-1.4,8.1-4.1,12.9-8
			c8.7-7,17.2-16.4,22.7-23c1.1-1.3,1.6-2.9,1.3-4.4c-0.2-1.3-0.8-2.4-1.9-3l-2.8-1.8l1.4-2.1l2.8,1.8c1.6,1.1,2.6,2.8,2.9,4.7
			c0.3,2.2-0.4,4.6-1.9,6.4c-5.6,6.7-14.2,16.2-23.1,23.3C198.1,105.9,191.4,109.1,186.2,109.1z"/>
		<path class="st2" d="M220.3,66.6l0.7,0.5c0.7,0.5,1.7,0.3,2.2-0.4l3-4.5c0.5-0.7,0.3-1.7-0.4-2.2l-0.7-0.5
			c-0.7-0.5-1.7-0.3-2.2,0.4l-3,4.5C219.4,65.2,219.6,66.2,220.3,66.6z"/>
		<path class="st2" d="M202.2,54.6l0.7,0.5c0.7,0.5,1.7,0.3,2.2-0.4l3-4.5c0.5-0.7,0.3-1.7-0.4-2.2l-0.7-0.5
			c-0.7-0.5-1.7-0.3-2.2,0.4l-3,4.5C201.2,53.1,201.4,54.1,202.2,54.6z"/>
		<circle class="st1" cx="200.3" cy="175.1" r="11.2"/>
		
			<ellipse transform="matrix(0.9871 -0.1602 0.1602 0.9871 -25.4938 34.3442)" class="st3" cx="200.3" cy="175.3" rx="7.8" ry="7.8"/>
		<path class="st2" d="M200.3,183.3c-4.4,0-8-3.6-8-8s3.6-8,8-8s8,3.6,8,8S204.7,183.3,200.3,183.3z M200.3,167.7
			c-4.2,0-7.6,3.4-7.6,7.6c0,4.2,3.4,7.6,7.6,7.6c4.2,0,7.6-3.4,7.6-7.6C207.9,171.1,204.5,167.7,200.3,167.7z"/>
		<g>
			<path class="st2" d="M202.6,166.6c-0.4,0-0.9-0.2-1.2-0.6c-0.5-0.6-0.4-1.6,0.2-2.1c0.1-0.1,7.6-6.3,7.7-14.6
				c0.1-4.9-2.6-9.7-7.8-14.1c-11.7-9.9-20.2-22.1-20.5-22.6c-0.5-0.7-0.3-1.6,0.4-2.1c0.7-0.5,1.6-0.3,2.1,0.4
				c0.1,0.1,8.6,12.4,20,22.1c5.9,5,8.9,10.6,8.8,16.5c-0.1,9.7-8.5,16.6-8.9,16.9C203.3,166.4,202.9,166.6,202.6,166.6z"/>
			<path class="st2" d="M178,105.4c0,0,0.9,3.9,3.2,7.4s2.3-1.9,2.3-1.9s-1.8-3.6-2.3-4.5C180.8,105.5,179.3,103.4,178,105.4z"/>
		</g>
	</g>
	<g>
		<rect x="63" y="23.7" class="st1" width="113.9" height="162.6"/>
		<rect x="73.7" y="34.6" class="st3" width="91.4" height="141"/>
		<path class="st2" d="M165.4,175.8H73.5V34.4h91.8V175.8z M73.9,175.4h91V34.8h-91V175.4z"/>
		<path class="st2" d="M98.3,63.1c-0.1-0.1-0.2-0.1-0.3,0l-4.3,3.5c-1.4-1.8-3.6-2.9-6.1-2.9c-2.6,0-5,1.3-6.4,3.3l-0.6-0.6
			c-0.1-0.1-0.2-0.1-0.3,0c-0.1,0.1-0.1,0.2,0,0.3l0.6,0.7c-0.8,1.2-1.2,2.6-1.2,4.2c0,4.3,3.5,7.8,7.8,7.8c4.3,0,7.8-3.5,7.8-7.8
			c0-1.7-0.5-3.3-1.5-4.6l4.3-3.6C98.4,63.4,98.4,63.2,98.3,63.1z M87.6,64.1c2.3,0,4.4,1.1,5.8,2.8l-7,5.7l-5-5.3
			C82.9,65.4,85.1,64.1,87.6,64.1z M95.1,71.5c0,4.1-3.3,7.4-7.4,7.4c-4.1,0-7.4-3.3-7.4-7.4c0-1.4,0.4-2.7,1.1-3.9l5.1,5.5l7.2-6
			C94.5,68.4,95.1,69.9,95.1,71.5z"/>
		<path class="st2" d="M97.2,90.4c-0.1-0.1-0.2-0.1-0.3,0l-4.3,3.5C91.2,92.1,89,91,86.5,91c-2.6,0-5,1.3-6.4,3.3l-0.6-0.6
			c-0.1-0.1-0.2-0.1-0.3,0c-0.1,0.1-0.1,0.2,0,0.3l0.6,0.7c-0.8,1.2-1.2,2.6-1.2,4.2c0,4.3,3.5,7.8,7.8,7.8c4.3,0,7.8-3.5,7.8-7.8
			c0-1.7-0.5-3.3-1.5-4.6l4.3-3.6C97.3,90.6,97.3,90.5,97.2,90.4z M86.5,91.3c2.3,0,4.4,1.1,5.8,2.8l-7,5.7l-5-5.3
			C81.8,92.6,84,91.3,86.5,91.3z M94,98.8c0,4.1-3.3,7.4-7.4,7.4c-4.1,0-7.4-3.3-7.4-7.4c0-1.4,0.4-2.7,1.1-3.9l5.1,5.5l7.2-6
			C93.4,95.7,94,97.2,94,98.8z"/>
		<path class="st2" d="M96.9,117.6c-0.1-0.1-0.2-0.1-0.3,0l-4.3,3.5c-1.4-1.8-3.6-2.9-6.1-2.9c-2.6,0-5,1.3-6.4,3.3l-0.6-0.6
			c-0.1-0.1-0.2-0.1-0.3,0c-0.1,0.1-0.1,0.2,0,0.3l0.6,0.7c-0.8,1.2-1.2,2.6-1.2,4.2c0,4.3,3.5,7.8,7.8,7.8c4.3,0,7.8-3.5,7.8-7.8
			c0-1.7-0.5-3.3-1.5-4.6l4.3-3.6C96.9,117.8,96.9,117.7,96.9,117.6z M86.2,118.6c2.3,0,4.4,1.1,5.8,2.8l-7,5.7l-5-5.3
			C81.4,119.9,83.6,118.6,86.2,118.6z M93.6,126c0,4.1-3.3,7.4-7.4,7.4c-4.1,0-7.4-3.3-7.4-7.4c0-1.4,0.4-2.7,1.1-3.9l5.1,5.5l7.2-6
			C93.1,122.9,93.6,124.4,93.6,126z"/>
		<path class="st2" d="M158.2,65.3h-55.5c-0.1,0-0.2-0.1-0.2-0.2s0.1-0.2,0.2-0.2h55.5c0.1,0,0.2,0.1,0.2,0.2S158.3,65.3,158.2,65.3
			z"/>
		<path class="st2" d="M143,74.3h-40.8c-0.1,0-0.2-0.1-0.2-0.2s0.1-0.2,0.2-0.2H143c0.1,0,0.2,0.1,0.2,0.2S143.1,74.3,143,74.3z"/>
		<path class="st2" d="M157.6,93.6h-56.1c-0.1,0-0.2-0.1-0.2-0.2c0-0.1,0.1-0.2,0.2-0.2h56.1c0.1,0,0.2,0.1,0.2,0.2
			C157.8,93.5,157.7,93.6,157.6,93.6z"/>
		<path class="st2" d="M127.9,102.6h-26.8c-0.1,0-0.2-0.1-0.2-0.2c0-0.1,0.1-0.2,0.2-0.2h26.8c0.1,0,0.2,0.1,0.2,0.2
			C128.1,102.5,128,102.6,127.9,102.6z"/>
		<path class="st2" d="M158.2,121.9h-57.7c-0.1,0-0.2-0.1-0.2-0.2c0-0.1,0.1-0.2,0.2-0.2h57.7c0.1,0,0.2,0.1,0.2,0.2
			C158.4,121.8,158.3,121.9,158.2,121.9z"/>
		<path class="st2" d="M145.3,130.9H100c-0.1,0-0.2-0.1-0.2-0.2c0-0.1,0.1-0.2,0.2-0.2h45.3c0.1,0,0.2,0.1,0.2,0.2
			C145.5,130.8,145.4,130.9,145.3,130.9z"/>
		<path class="st2" d="M136.4,143h-54c-0.1,0-0.2-0.1-0.2-0.2c0-0.1,0.1-0.2,0.2-0.2h54c0.1,0,0.2,0.1,0.2,0.2
			C136.6,142.9,136.5,143,136.4,143z"/>
		<path class="st2" d="M135.9,152.2h-54c-0.1,0-0.2-0.1-0.2-0.2s0.1-0.2,0.2-0.2h54c0.1,0,0.2,0.1,0.2,0.2S136,152.2,135.9,152.2z"
			/>
		<path class="st2" d="M97.8,24.6c0,19.7-9.2,35.6-20.5,35.6s-20.5-16-20.5-35.6c0,0,7.5-2.5,9.9-3.6c2.8-1.3,10.9-5.9,10.9-5.9
			s7.9,4.6,10.5,5.9C90.6,22.1,97.8,24.6,97.8,24.6z"/>
		<path class="st3" d="M94.1,27.3c0,16.1-7.5,29.1-16.7,29.1c-9.2,0-16.7-13.1-16.7-29.1c0,0,6.7-2.2,8.8-3.1c2.2-1,8.3-4.7,8.3-4.7
			s6.1,3.9,8.2,4.9C87.9,25.3,94.1,27.3,94.1,27.3z"/>
		<polygon class="st2" points="88.2,34.3 80.7,34.3 80.7,26.8 73.9,26.8 73.9,34.3 66.5,34.3 66.5,41 73.9,41 73.9,48.5 80.7,48.5 
			80.7,41 88.2,41 		"/>
	</g>
	<g>
		<path class="st4" d="M23.7,88l0.8,15l10-3.5l-8.4-12.3C25.3,86.1,23.6,86.7,23.7,88z"/>
		<path class="st2" d="M24.2,103.3L23.5,88c0-0.7,0.4-1.3,1-1.5c0.7-0.2,1.3,0,1.7,0.6l8.5,12.6L24.2,103.3z M25,86.8
			c-0.1,0-0.3,0-0.4,0.1c-0.4,0.1-0.8,0.5-0.8,1.1l0.7,14.7l9.5-3.3l-8.2-12.1C25.7,86.9,25.3,86.8,25,86.8z"/>
		<path class="st4" d="M58.6,185.5L58.6,185.5c-3.3,1.1-6.9-0.6-8-3.9l-26.1-75.4c-1.1-3.3,0.6-6.9,3.9-8l0,0c3.3-1.1,6.9,0.6,8,3.9
			l26.1,75.4C63.7,180.8,61.9,184.4,58.6,185.5z"/>
		<path class="st2" d="M56.6,186.1c-1,0-1.9-0.2-2.8-0.7c-1.6-0.8-2.7-2.1-3.3-3.7l-26.1-75.4c-1.2-3.4,0.6-7.1,4-8.3
			c3.4-1.2,7.1,0.6,8.3,4l26.1,75.4c0.6,1.6,0.5,3.4-0.3,5c-0.8,1.6-2.1,2.7-3.7,3.3l0,0C58,185.9,57.3,186.1,56.6,186.1z M30.4,98
			c-0.7,0-1.3,0.1-2,0.3c-3.2,1.1-4.9,4.6-3.8,7.8l26.1,75.4c0.5,1.5,1.6,2.8,3.1,3.5c1.5,0.7,3.1,0.8,4.7,0.3l0,0
			c1.5-0.5,2.8-1.6,3.5-3.1c0.7-1.5,0.8-3.1,0.3-4.7l-26.1-75.4C35.3,99.6,33,98,30.4,98z"/>
		<path class="st2" d="M45.6,137.8c0-0.1-0.1-0.2-0.2-0.1l-2.3,0.8l-1-2.8l0.9-0.3c0.1,0,0.2-0.1,0.1-0.2c0-0.1-0.1-0.2-0.2-0.1
			l-0.9,0.3l-1-2.8l2.3-0.8c0.1,0,0.2-0.1,0.1-0.2c0-0.1-0.1-0.2-0.2-0.1l-2.3,0.8l-1-2.8l0.9-0.3c0.1,0,0.2-0.1,0.1-0.2
			c0-0.1-0.1-0.2-0.2-0.1l-0.9,0.3l-1-2.8l2.3-0.8c0.1,0,0.2-0.1,0.1-0.2c0-0.1-0.1-0.2-0.2-0.1l-2.3,0.8l-1-2.8l0.9-0.3
			c0.1,0,0.2-0.1,0.1-0.2c0-0.1-0.1-0.2-0.2-0.1l-0.9,0.3l-1-2.8l2.3-0.8c0.1,0,0.2-0.1,0.1-0.2c0-0.1-0.1-0.2-0.2-0.1l-2.3,0.8
			l-1-2.8l0.9-0.3c0.1,0,0.2-0.1,0.1-0.2c0-0.1-0.1-0.2-0.2-0.1l-0.9,0.3l-1-2.8l2.3-0.8c0.1,0,0.2-0.1,0.1-0.2
			c0-0.1-0.1-0.2-0.2-0.1l-2.3,0.8l-1-2.8l0.9-0.3c0.1,0,0.2-0.1,0.1-0.2c0-0.1-0.1-0.2-0.2-0.1l-0.9,0.3l-1-2.8l2.3-0.8
			c0.1,0,0.2-0.1,0.1-0.2c0-0.1-0.1-0.2-0.2-0.1l-2.3,0.8l-1-2.8l0.9-0.3c0.1,0,0.2-0.1,0.1-0.2c0-0.1-0.1-0.2-0.2-0.1l-0.9,0.3
			l-1.8-5.2c0.4-0.4,0.6-1.1,0.4-1.7l-1.7-4.9c-0.3-0.9-1.3-1.4-2.2-1l0,0c-0.9,0.3-1.4,1.3-1,2.2l1.7,4.9c0.2,0.6,0.8,1,1.4,1.1
			l1.8,5.2l-0.9,0.3c-0.1,0-0.2,0.1-0.1,0.2c0,0.1,0.1,0.1,0.2,0.1c0,0,0,0,0.1,0l0.9-0.3l1,2.8l-2.3,0.8c-0.1,0-0.2,0.1-0.1,0.2
			c0,0.1,0.1,0.1,0.2,0.1c0,0,0,0,0.1,0l2.3-0.8l1,2.8l-0.9,0.3c-0.1,0-0.2,0.1-0.1,0.2c0,0.1,0.1,0.1,0.2,0.1c0,0,0,0,0.1,0
			l0.9-0.3l1,2.8l-2.3,0.8c-0.1,0-0.2,0.1-0.1,0.2c0,0.1,0.1,0.1,0.2,0.1c0,0,0,0,0.1,0l2.3-0.8l1,2.8l-0.9,0.3
			c-0.1,0-0.2,0.1-0.1,0.2c0,0.1,0.1,0.1,0.2,0.1c0,0,0,0,0.1,0l0.9-0.3l1,2.8l-2.3,0.8c-0.1,0-0.2,0.1-0.1,0.2
			c0,0.1,0.1,0.1,0.2,0.1c0,0,0,0,0.1,0l2.3-0.8l1,2.8l-0.9,0.3c-0.1,0-0.2,0.1-0.1,0.2c0,0.1,0.1,0.1,0.2,0.1c0,0,0,0,0.1,0
			l0.9-0.3l1,2.8L35,127c-0.1,0-0.2,0.1-0.1,0.2c0,0.1,0.1,0.1,0.2,0.1c0,0,0,0,0.1,0l2.3-0.8l1,2.8l-0.9,0.3
			c-0.1,0-0.2,0.1-0.1,0.2c0,0.1,0.1,0.1,0.2,0.1c0,0,0,0,0.1,0l0.9-0.3l1,2.8l-2.3,0.8c-0.1,0-0.2,0.1-0.1,0.2
			c0,0.1,0.1,0.1,0.2,0.1c0,0,0,0,0.1,0l2.3-0.8l1,2.8l-0.9,0.3c-0.1,0-0.2,0.1-0.1,0.2c0,0.1,0.1,0.1,0.2,0.1c0,0,0,0,0.1,0
			l0.9-0.3l1,2.8l-2.3,0.8c-0.1,0-0.2,0.1-0.1,0.2c0,0.1,0.1,0.1,0.2,0.1c0,0,0,0,0.1,0l2.3-0.8l1,2.8l-0.9,0.3
			c-0.1,0-0.2,0.1-0.1,0.2c0,0.1,0.1,0.1,0.2,0.1c0,0,0,0,0.1,0l0.9-0.3l0.7,2.1l1.4-0.5l-0.7-2.1l0.9-0.3c0.1,0,0.2-0.1,0.1-0.2
			c0-0.1-0.1-0.2-0.2-0.1l-0.9,0.3l-1-2.8l2.3-0.8C45.6,138,45.7,137.9,45.6,137.8z"/>
		<path class="st2" d="M58.9,176.1c0-0.1-0.1-0.2-0.2-0.1l-2.4,0.8l-1-2.8l1-0.3c0.1,0,0.2-0.1,0.1-0.2c0-0.1-0.1-0.2-0.2-0.1
			l-1,0.3l-1-2.8l2.4-0.8c0.1,0,0.2-0.1,0.1-0.2c0-0.1-0.1-0.2-0.2-0.1l-2.4,0.8l-1-2.8l1-0.3c0.1,0,0.2-0.1,0.1-0.2
			c0-0.1-0.1-0.2-0.2-0.1l-1,0.3l-1-2.8l2.4-0.8c0.1,0,0.2-0.1,0.1-0.2c0-0.1-0.1-0.2-0.2-0.1l-2.4,0.8l-1-2.8l1-0.3
			c0.1,0,0.2-0.1,0.1-0.2c0-0.1-0.1-0.2-0.2-0.1l-1,0.3l-1-2.8l2.4-0.8c0.1,0,0.2-0.1,0.1-0.2c0-0.1-0.1-0.2-0.2-0.1l-2.4,0.8
			l-1-2.8l1-0.3c0.1,0,0.2-0.1,0.1-0.2c0-0.1-0.1-0.2-0.2-0.1l-1,0.3l-1-2.8l2.4-0.8c0.1,0,0.2-0.1,0.1-0.2c0-0.1-0.1-0.2-0.2-0.1
			l-2.4,0.8l-1-2.8l1-0.3c0.1,0,0.2-0.1,0.1-0.2c0-0.1-0.1-0.2-0.2-0.1l-1,0.3l-1-2.8l2.4-0.8c0.1,0,0.2-0.1,0.1-0.2
			c0-0.1-0.1-0.2-0.2-0.1l-2.4,0.8l-4.8-13.8l-0.1-0.2l-1.3,0.4l4.8,14l-2.4,0.8c-0.1,0-0.2,0.1-0.1,0.2c0,0.1,0.1,0.1,0.2,0.1
			c0,0,0,0,0.1,0l2.4-0.8l1,2.8l-1,0.3c-0.1,0-0.2,0.1-0.1,0.2c0,0.1,0.1,0.1,0.2,0.1c0,0,0,0,0.1,0l1-0.3l1,2.8l-2.4,0.8
			c-0.1,0-0.2,0.1-0.1,0.2c0,0.1,0.1,0.1,0.2,0.1c0,0,0,0,0.1,0l2.4-0.8l1,2.8l-1,0.3c-0.1,0-0.2,0.1-0.1,0.2c0,0.1,0.1,0.1,0.2,0.1
			c0,0,0,0,0.1,0l1-0.3l1,2.8l-2.3,0.8c-0.1,0-0.2,0.1-0.1,0.2c0,0.1,0.1,0.1,0.2,0.1c0,0,0,0,0.1,0l2.3-0.8l1,2.8l-1,0.3
			c-0.1,0-0.2,0.1-0.1,0.2c0,0.1,0.1,0.1,0.2,0.1c0,0,0,0,0.1,0l1-0.3l1,2.8l-2.3,0.8c-0.1,0-0.2,0.1-0.1,0.2c0,0.1,0.1,0.1,0.2,0.1
			c0,0,0,0,0.1,0l2.3-0.8l1,2.8l-1,0.3c-0.1,0-0.2,0.1-0.1,0.2c0,0.1,0.1,0.1,0.2,0.1c0,0,0,0,0.1,0l1-0.3l1,2.8l-2.3,0.8
			c-0.1,0-0.2,0.1-0.1,0.2c0,0.1,0.1,0.1,0.2,0.1c0,0,0,0,0.1,0l2.3-0.8l1,2.8l-1,0.3c-0.1,0-0.2,0.1-0.1,0.2c0,0.1,0.1,0.1,0.2,0.1
			c0,0,0,0,0.1,0l1-0.3l1,2.8l-2.3,0.8c-0.1,0-0.2,0.1-0.1,0.2c0,0.1,0.1,0.1,0.2,0.1c0,0,0,0,0.1,0l2.3-0.8l0.2,0.7l0.1,0.2
			l1.3-0.4l-0.3-0.9l2.4-0.8C58.9,176.4,59,176.2,58.9,176.1z M39.6,131.6l0.5-0.2l4.7,13.6l-0.5,0.2L39.6,131.6z M44.5,145.6
			l0.5-0.2l1,2.8l-0.5,0.2L44.5,145.6z M45.6,148.8l0.5-0.2l1,2.8l-0.5,0.2L45.6,148.8z M46.7,152l0.5-0.2l1,2.8l-0.5,0.2L46.7,152z
			 M47.8,155.2l0.5-0.2l1,2.8l-0.5,0.2L47.8,155.2z M48.9,158.4l0.5-0.2l1,2.8l-0.5,0.2L48.9,158.4z M50,161.6l0.5-0.2l1,2.8
			l-0.5,0.2L50,161.6z M51.1,164.7l0.5-0.2l1,2.8l-0.5,0.2L51.1,164.7z M52.2,167.9l0.5-0.2l1,2.8l-0.5,0.2L52.2,167.9z M53.3,171.1
			l0.5-0.2l1,2.8l-0.5,0.2L53.3,171.1z M54.5,174.3l0.5-0.2l1,2.8l-0.5,0.2L54.5,174.3z M56.3,177.9l-0.5,0.2l-0.2-0.5l0.5-0.2
			L56.3,177.9z"/>
	</g>
	<g>
		<path class="st5" d="M127.7,185.5L127.7,185.5c-2.3-1.4-3-4.3-1.6-6.6l5.2-8.6c1.4-2.3,4.3-3,6.6-1.6l0,0c2.3,1.4,3,4.3,1.6,6.6
			l-5.2,8.6C132.9,186.2,129.9,186.9,127.7,185.5z"/>
		<path class="st2" d="M140.2,171.6c-0.3-1.3-1.1-2.4-2.2-3.1c-2.4-1.4-5.4-0.7-6.9,1.7l-5.2,8.6c-0.7,1.1-0.9,2.5-0.6,3.8
			c0.3,1.3,1.1,2.4,2.2,3.1c0.8,0.5,1.7,0.7,2.6,0.7c1.7,0,3.3-0.9,4.3-2.4l5.2-8.6C140.4,174.3,140.6,172.9,140.2,171.6z
			 M134.1,183.8c-1.3,2.2-4.2,2.9-6.3,1.5c-1-0.6-1.8-1.6-2.1-2.8c-0.3-1.2-0.1-2.4,0.5-3.5l2.5-4.1l7.9,4.8L134.1,183.8z
			 M139.3,175.2l-2.5,4.1l-7.9-4.8l2.5-4.1c0.9-1.4,2.4-2.2,3.9-2.2c0.8,0,1.6,0.2,2.4,0.7c1,0.6,1.8,1.6,2.1,2.8
			C140.2,172.9,140,174.1,139.3,175.2z"/>
		<path class="st2" d="M134.8,183c0,0-1.3,2.5-2.9,2.8c-1.6,0.3-3.9,0.7-5.8-2c-1.9-2.7,0.7-6.1,0.7-6.1l2-3.2l8.2,5L134.8,183z"/>
	</g>
	<g>
		<path class="st2" d="M147.4,150.5v-10.8h25v10.8c3.9,0.4,7,3.9,7,8.2v27.5h-39v-27.5C140.4,154.5,143.5,150.9,147.4,150.5z"/>
		<polygon class="st3" points="140.4,179.1 161.7,179.1 161.9,162.1 140.4,162.1 		"/>
		<path class="st3" d="M179.6,158.8c0-4.3-3-7.9-7-8.4v-10.8h-25.4v10.8c-3.9,0.5-7,4.1-7,8.4v27.7h39.4 M163.9,139.9h2.1v10.4h-2.1
			V139.9z M161.6,139.9h2v10.4h-2V139.9z M159,139.9h2.2v10.4H159V139.9z M156.3,139.9h2.4v10.4h-2.4V139.9z M153.4,139.9h2.5v10.4
			h-2.5V139.9z M150.4,139.9h2.6v10.4h-2.6V139.9z M147.6,139.9h2.4v10.4h-2.4V139.9z M140.6,162.3h21.1l-0.2,16.6h-20.8V162.3z
			 M179.2,186h-38.6v-6.8h21.2l0.2-17.3h-21.5v-3.2c0-4.1,3-7.7,6.8-8h19.8v-0.4h-0.9v-10.4h5.8v10.8l0.2,0c3.9,0.4,6.8,3.9,6.8,8
			V186z"/>
	</g>
</g>
</svg>
