<?xml version="1.0" encoding="utf-8"?>
<!-- Generator: Adobe Illustrator 22.1.0, SVG Export Plug-In . SVG Version: 6.00 Build 0)  -->
<svg version="1.1" id="heavy_weight" xmlns="http://www.w3.org/2000/svg" xmlns:xlink="http://www.w3.org/1999/xlink" x="0px"
	 y="0px" viewBox="0 0 202.4 200.5" style="enable-background:new 0 0 202.4 200.5;" xml:space="preserve">
<style type="text/css">
	.st0{fill:#D1EDF0;}
	.st1{fill:#C68F6A;}
	.st2{fill:#F9AE7A;}
	.st3{fill:#6B4125;}
	.st4{fill:#1D6082;}
	.st5{fill:#8DB8E9;}
	.st6{fill:#FFCC99;}
	.st7{fill:#A2CBF4;}
	.st8{fill:#FFFFFF;}
	.st9{fill:#FF554C;}
	.st10{opacity:0.3;fill:#FF1024;enable-background:new    ;}
	.st11{fill:#FF1024;}
</style>
<g>
	<path id="background" class="st0" d="M40.6,34.7C25.1,44.9,10,56.2,15.5,77.9c2,7.9,6.6,15,11.5,21.5c7,9.2,9.9,19.9,3.1,29.8
		c-6.4,9.2-16.6,14.4-24.5,22c-13.7,13.3,16.1,20.4,24.6,22.3c8.7,2,17.6,3.4,26.4,4.5c31.1,4.1,63.6,3.8,93.3-7.1
		c12.3-4.3,23.9-10.3,34.6-17.7c6.6-4.7,14.5-11.1,15.8-19.7c1-6.8-3.8-17.8-9.3-22c-13.6-10.3-26.7-21.3-39.2-32.9
		c-9.9-9.2-17.6-19.2-25.6-30c-14.8-19.9-38.8-34.4-64.4-26.3c-3.8,1.3-7.4,3.1-10.7,5.4C47.7,30.1,44.2,32.4,40.6,34.7z"/>
	<rect id="Rectangle_406" x="86.1" y="135.8" class="st1" width="58.7" height="62"/>
	<rect id="Rectangle_407" x="84.2" y="130.1" class="st2" width="62.4" height="5.7"/>
	<path id="Rectangle_408" class="st3" d="M110.5,139h9.8c1.5,0,2.8,1.3,2.8,2.8v0c0,1.5-1.3,2.8-2.8,2.8h-9.8
		c-1.5,0-2.8-1.3-2.8-2.8v0C107.7,140.3,109,139,110.5,139z"/>
	<path id="Path_6876" class="st3" d="M94.3,198.5c0.4,0,0.8-0.3,0.8-0.8l0,0v-68.1c0-0.4-0.4-0.8-0.8-0.8c-0.4,0-0.8,0.4-0.8,0.8
		v68.1C93.6,198.2,93.9,198.5,94.3,198.5L94.3,198.5L94.3,198.5z"/>
	<path id="Path_6877" class="st3" d="M134.6,198.5c0.4,0,0.8-0.3,0.8-0.8v0v-68.1c0-0.4-0.3-0.8-0.8-0.8c-0.4,0-0.8,0.3-0.8,0.8
		c0,0,0,0,0,0v68.1C133.8,198.2,134.1,198.5,134.6,198.5z"/>
	<path id="Path_6878" class="st3" d="M131.6,198.5c0.4,0,0.8-0.3,0.8-0.8v0v-68.1c0-0.4-0.4-0.8-0.8-0.8c-0.4,0-0.8,0.4-0.8,0.8
		v68.1C130.8,198.2,131.2,198.5,131.6,198.5z"/>
	<path id="Path_6879" class="st3" d="M119.8,198.5c0.1,0,0.2,0,0.3,0c0.4-0.1,0.6-0.6,0.5-1c0,0,0,0,0,0l-24-68.1
		c-0.2-0.4-0.6-0.6-1-0.5c-0.4,0.1-0.6,0.6-0.5,1c0,0,0,0,0,0l24,68.1C119.2,198.3,119.5,198.5,119.8,198.5L119.8,198.5z"/>
	<path id="Path_6880" class="st3" d="M109,198.5c0.3,0,0.7-0.2,0.8-0.6l20.1-68.1c0.1-0.4-0.1-0.8-0.5-1c0,0,0,0,0,0
		c-0.4-0.1-0.9,0.1-1,0.5l-20.1,68.1c-0.1,0.4,0.1,0.9,0.6,1C108.9,198.5,108.9,198.5,109,198.5L109,198.5z"/>
	<path id="Path_6881" class="st3" d="M86.1,158.2h58.7c0.4,0,0.8-0.4,0.7-0.8c0-0.4-0.3-0.7-0.7-0.7H86.1c-0.4,0-0.8,0.3-0.8,0.7
		C85.2,157.9,85.6,158.2,86.1,158.2C86,158.2,86,158.2,86.1,158.2z"/>
	<path id="Path_6882" class="st3" d="M86.1,162.9h58.7c0.4,0,0.8-0.4,0.7-0.8c0-0.4-0.3-0.7-0.7-0.7H86.1c-0.4,0-0.8,0.3-0.8,0.7
		C85.2,162.6,85.6,162.9,86.1,162.9C86,162.9,86,162.9,86.1,162.9z"/>
	<path id="Path_6883" class="st3" d="M121.2,157.8l-3.8-0.9c-0.7-0.1-1.3-0.3-1.9-0.7c-0.4-0.3-0.8-0.7-0.9-1.2
		c-0.1-0.4,0-0.8,0.2-1.1c0.1-0.1,0.1-0.2,0.2-0.2c0.7-0.4,1.6-0.5,2.4-0.4c0.7,0.1,1.4,0.4,2.1,0.7c1.1,0.6,1.9,1.5,2.5,2.6
		c0.1,0.3,0.1,0.6-0.1,0.8c-0.2,0.2-0.4,0.3-0.6,0.3C121.3,157.9,121.2,157.8,121.2,157.8z M116.4,155c0.4,0.2,0.9,0.4,1.3,0.4
		l1.5,0.4c-0.1-0.1-0.3-0.2-0.5-0.3c-0.5-0.3-1-0.5-1.5-0.5c-0.1,0-0.3,0-0.4,0C116.7,155,116.6,155,116.4,155L116.4,155z"/>
	<path id="Path_6884" class="st3" d="M120.6,157.5c-0.1-0.3-0.1-0.7,0.2-0.9c0.4-0.3,0.6-0.7,0.9-1.2c0.3-0.5,0.6-1,1-1.4
		c1.1-0.9,2.5-1.4,3.9-1.4c0.4,0,0.8,0.1,1.2,0.3c0.5,0.3,0.7,0.9,0.6,1.4c-0.2,0.8-0.7,1.5-1.4,1.9c-0.7,0.4-1.4,0.7-2.1,1
		c-1.1,0.4-2.3,0.6-3.4,0.8h-0.1C121,157.9,120.8,157.7,120.6,157.5z M126.6,154.1c-1,0-2,0.3-2.8,1c-0.3,0.3-0.5,0.6-0.6,0.9
		c0.4-0.1,0.8-0.2,1.2-0.4c0.6-0.2,1.2-0.4,1.7-0.8c0.3-0.2,0.5-0.4,0.7-0.7C126.7,154.1,126.6,154.1,126.6,154.1z"/>
	<path id="Path_6885" class="st3" d="M129.5,165.3c0.3,0,0.5-0.1,0.6-0.3c0.3-0.3,0.2-0.8-0.2-1.1c0,0,0,0,0,0
		c-3.1-2.2-5.8-5-7.8-8.2c-0.2-0.4-0.7-0.5-1.1-0.2c-0.4,0.2-0.5,0.7-0.2,1.1c0,0,0,0,0,0c2.2,3.4,5,6.3,8.2,8.6
		C129.1,165.3,129.3,165.3,129.5,165.3z"/>
	<path id="Path_6886" class="st3" d="M122.1,166.9c0.4,0,0.8-0.3,0.8-0.8c0.1-3.2-0.2-6.5-0.8-9.7c-0.1-0.4-0.5-0.7-0.9-0.6
		c-0.2,0-0.4,0.2-0.5,0.3c-0.1,0.2-0.2,0.4-0.1,0.6c0.6,3.1,0.9,6.2,0.8,9.3C121.3,166.5,121.6,166.8,122.1,166.9
		C122,166.9,122,166.9,122.1,166.9L122.1,166.9z"/>
	<path id="Path_6887" class="st4" d="M47.8,188.6c0,0-3,3.7-3,11.9h32c14.5,0-14.7-11.3-14.7-11.3L47.8,188.6z"/>
	<path id="Path_6888" d="M72.9,90c0,0,10.1,53.1,8.3,57c-1.8,3.9-17.8,39.4-19.1,42.3s-12.4,2.7-14.3-0.6c1.6-3.7,19-44.3,19-44.3
		l-16.4-32.8c0,0-11.7-5.5-14.5-10.7s0-15.5,0-15.5L72.9,90z"/>
	<path id="Path_6889" class="st2" d="M116,38.1c-2.1-4.3-4.3-8.6-6.6-12.9c-3.4,5.8-8.3,10.7-14.2,14.1c-1.8,3.5,5.3,13.9,7.7,9.4
		C105.4,44.1,116.3,38.8,116,38.1z"/>
	<path id="Path_6890" class="st5" d="M102,45c4.6,12.1-19.2,15.6-26.5,56.3c-9.2-0.9-42.4-5.6-42.4-5.6S34,62.5,58.9,45.8
		C82.2,30.2,98.5,36,102,45z"/>
	<path id="Path_6891" class="st6" d="M109.2,132c2.3,0,4.2-1.9,4.2-4.2c0-0.6-0.1-1.2-0.4-1.7c-5.6-12.4-9.5-25.5-11.6-38.9
		c-2.3-14.5-2.2-28.3,0.2-39.8c0.4-2.3-1.1-4.5-3.4-4.9c-2.2-0.4-4.3,1-4.8,3.2c-6.1,29.2,2.2,62.5,12,84
		C106,131.1,107.5,132,109.2,132L109.2,132z"/>
	<path id="Path_6892" class="st7" d="M96.5,40.8c9.2,0.4,5.6,14.8,6.1,28.6c-3.1,0.7-9.2,1.4-13.3,0.3
		C89.2,66.9,86.2,40.3,96.5,40.8z"/>
	<path id="Path_6893" class="st6" d="M112.5,27.4c-6.7,15.4-9.2,16-1.8,31.5c5.9,12.4,19.6,15.4,35.9-5.5
		c10.4-13.2,14.7-27.6,1.8-39.6S119.5,11.1,112.5,27.4z"/>
	<path id="Path_6894" d="M138.3,43.4c-0.9,1.1-0.6,2.8,0.5,3.6c1.1,0.9,2.8,0.6,3.6-0.5s0.6-2.8-0.5-3.6c-0.5-0.4-1.2-0.6-1.9-0.5
		C139.3,42.5,138.7,42.9,138.3,43.4z"/>
	<path id="Path_6895" class="st8" d="M138.3,44.3c-0.2,0.3-0.2,0.8,0.1,1c0.3,0.2,0.8,0.2,1-0.1c0.2-0.3,0.2-0.8-0.1-1
		c-0.2-0.1-0.3-0.2-0.5-0.1C138.6,44.1,138.4,44.2,138.3,44.3z"/>
	<path id="Path_6896" class="st9" d="M118.7,56.9c-0.2,0.6,3.2,0.5,6.2,2.3c1.3,0.9,2.5,1.9,3.4,3.2c0.8,0.9,1.3,1.7,1.5,1.5
		c0.2-0.2,0-1-0.6-2.2c-0.8-1.5-2-2.8-3.5-3.7c-0.4-0.2-0.9-0.5-1.3-0.7c-0.4-0.2-0.8-0.3-1.3-0.4c-0.4-0.1-0.8-0.2-1.2-0.2
		c-0.4-0.1-0.7-0.1-1.1-0.1C119.6,56.5,118.7,56.6,118.7,56.9z"/>
	<path id="Path_6897" class="st3" d="M139.9,24.1c1.7,3,3.9,5.8,6.6,8.1c3.4,3.3,7,6.5,11.4,8.3s16.9-1.5,8.7-8.7
		c-5.4-4.8-6.7-12.9-12.3-17.4c-5.6-4.5-12.4-7.4-19.6-8.3C137.7,11.5,137.1,18.4,139.9,24.1z"/>
	<path id="Path_6898" class="st3" d="M139.2,40.7c0.1,0.1,0.3,0.2,0.5,0.1c2.3-0.2,4.6,0.7,6,2.5c0.3,0.3,0.7,0.3,1,0
		c0.3-0.2,0.3-0.6,0.1-0.9c-1.8-2.2-4.5-3.3-7.3-3c-0.4,0.1-0.7,0.4-0.6,0.8C139,40.5,139.1,40.6,139.2,40.7z"/>
	<path id="Path_6899" class="st6" d="M143,50.6c-3.2,3-7.2,7.8-4.8,9.8c6.2,5.2,7,5,7.9,0.8c0.9-4.4,2.5-9.3,3.2-11.9
		C149.9,46.3,146.2,47.6,143,50.6z"/>
	<path id="Path_6900" class="st3" d="M102.8,23.9c-2.1-1.2,2.8,13,10.8,9.6c-3.2-5,3.9-12.4,7.4-9.1c2.7,2.5-0.2,7.3-0.2,7.3
		c0.5,0.6,1.1,1.2,1.7,1.7c3.9-5.8,14.8-9.4,16.7-22.7c-3.5-7-11.6-10.4-19.1-8.1c-9.5,2.6-11.2,12.6-14.1,18.3
		C105.4,22.3,104.9,25.2,102.8,23.9z"/>
	<path id="Path_6901" class="st3" d="M135.5,7.5c0.1,0.2,0.8,0,2-0.2c0.7-0.1,1.4-0.2,2.1-0.2c0.8,0,1.7,0,2.5,0.1
		c1.5,0.2,3,0.7,4.4,1.3c1.1,0.5,1.7,0.9,1.8,0.7c0.1-0.1-0.4-0.7-1.4-1.5c-0.6-0.4-1.3-0.8-2-1c-1.7-0.7-3.6-0.9-5.4-0.8
		c-0.7,0.1-1.5,0.2-2.2,0.5C136,6.9,135.4,7.4,135.5,7.5z"/>
	<path id="Path_6902" class="st3" d="M136.8,8.4c0.1,0,0.1-0.2,0.1-0.5c0-0.2,0-0.3-0.1-0.5c0-0.2-0.1-0.5-0.2-0.7
		c-0.9-2.7-2.9-4.9-5.4-6.2c-0.2-0.1-0.4-0.2-0.7-0.3c-0.2-0.1-0.4-0.1-0.5-0.2c-0.3-0.1-0.5-0.1-0.5,0c0,0.1,0.1,0.2,0.3,0.4
		c0.1,0.1,0.2,0.2,0.4,0.3c0.2,0.1,0.4,0.3,0.5,0.4c1,0.8,1.9,1.7,2.8,2.7c0.8,1,1.6,2.1,2.2,3.2C136.4,7.9,136.7,8.5,136.8,8.4z"/>
	<path id="Path_6903" class="st3" d="M136.9,8.7c0.2,0,0.3-0.4,0.4-1.1c0.2-1.8-0.3-3.6-1.3-5.2c-0.4-0.6-0.7-0.8-0.9-0.8
		s-0.1,0.5,0.1,1.1c0.2,0.6,0.4,1.5,0.7,2.4s0.4,1.8,0.5,2.4S136.8,8.7,136.9,8.7z"/>
	<path id="Path_6904" class="st3" d="M134.8,8.1c0.1,0.1,0.5-0.2,1.1-0.7c0.7-0.6,1.4-1.2,2.2-1.8c0.8-0.5,1.6-1,2.5-1.4
		c0.7-0.3,1.1-0.5,1.1-0.7c0-0.2-0.5-0.2-1.3-0.1c-1,0.2-2,0.6-2.9,1.2c-0.9,0.6-1.6,1.3-2.2,2.2C134.8,7.5,134.6,8,134.8,8.1z"/>
	<path id="Path_6905" class="st2" d="M116,28.2c-1,1.9-0.9,3.9,0.3,4.5c1.2,0.6,3-0.4,4-2.2c1-1.9,0.9-3.9-0.3-4.5
		C118.8,25.3,117,26.3,116,28.2z"/>
	
		<image style="overflow:visible;enable-background:new    ;" width="245" height="229" id="Rectangle_409" xlink:href="6A63FAE1.png"  transform="matrix(6.443871e-02 0 0 6.443871e-02 121.8419 41.7655)">
	</image>
	<path id="Path_6906" class="st6" d="M105.3,125.8c2.4,0.3,4.9-0.1,7.1-1.2c6.1,6.1,4.4,8.8,9.6,10.3c1.8,0.5-2.9,3.9-5.4,0.5
		c0.3,2.4,6,7.1,3.6,8.4c-1.5,0.8-3.6,0.5-5.2,0.6c-1.7,0.2-3.4-0.2-4.8-1.1c-1.2-1.1-2.1-2.4-2.6-4
		C105.8,135,105,130.4,105.3,125.8z"/>
	<path id="Path_6907" class="st10" d="M39.5,67.1c0,9.4,7.6,17,17,17c9.4,0,17-7.6,17-17c0-9.4-7.6-17-17-17c0,0,0,0,0,0
		C47.1,50.1,39.5,57.7,39.5,67.1z"/>
	<path id="Path_6908" class="st10" d="M45.3,67.1c0,6.2,5,11.3,11.3,11.3s11.3-5,11.3-11.3c0-6.2-5-11.3-11.3-11.3c0,0,0,0,0,0
		C50.3,55.9,45.3,60.9,45.3,67.1z"/>
	<path id="Path_6909" class="st11" d="M50.9,67.1c0,3.1,2.5,5.6,5.6,5.6c3.1,0,5.6-2.5,5.6-5.6s-2.5-5.6-5.6-5.6
		C53.4,61.5,50.9,64,50.9,67.1L50.9,67.1z"/>
</g>
</svg>
