<?xml version="1.0" encoding="utf-8"?>
<!-- Generator: Adobe Illustrator 22.1.0, SVG Export Plug-In . SVG Version: 6.00 Build 0)  -->
<svg version="1.1" id="heavy_weight" xmlns="http://www.w3.org/2000/svg" xmlns:xlink="http://www.w3.org/1999/xlink" x="0px"
	 y="0px" viewBox="0 0 202.4 200.5" style="enable-background:new 0 0 202.4 200.5;" xml:space="preserve">
<style type="text/css">
	.st0{fill:#D1EDF0;}
	.st1{fill:#C68F6A;}
	.st2{fill:#F9AE7A;}
	.st3{fill:#6B4125;}
	.st4{fill:#1D1D1B;}
	.st5{fill:#1F2935;}
	.st6{fill:#3B3E4E;}
	.st7{fill:#ED7E69;}
	.st8{fill:#FCC6A2;}
	.st9{fill:#EF957D;}
	.st10{fill:#FFFFFF;}
	.st11{fill:#3F2F29;}
	.st12{fill:#FCFCFC;}
	.st13{fill:#E6E7E8;}
	.st14{opacity:0.3;fill:#FF1024;enable-background:new    ;}
	.st15{fill:#FF1024;}
</style>
<g>
	<path id="background" class="st0" d="M42.4,54.6C26.9,64.8,11.8,76.1,17.3,97.8c2,7.9,6.6,15,11.5,21.5c7,9.2,9.9,19.9,3.1,29.8
		c-6.4,9.2-16.6,14.4-24.5,22c-13.7,13.3,16.1,20.4,24.6,22.3c8.7,2,17.6,3.4,26.4,4.5c31.1,4.1,63.6,3.8,93.3-7.1
		c12.3-4.3,23.9-10.3,34.6-17.7c6.6-4.7,14.5-11.1,15.8-19.7c1-6.8-3.8-17.8-9.3-22c-13.6-10.3-26.7-21.3-39.2-32.9
		c-9.9-9.2-17.6-19.2-25.6-30c-14.8-19.9-38.8-34.4-64.4-26.3c-3.8,1.3-7.4,3.1-10.7,5.4C49.5,50,46,52.3,42.4,54.6z"/>
	<g>
		
			<rect id="Rectangle_406" x="92.1" y="80.5" transform="matrix(0.2815 -0.9596 0.9596 0.2815 -16.9692 196.9939)" class="st1" width="62" height="58.7"/>
		
			<rect id="Rectangle_407" x="129.7" y="46.1" transform="matrix(0.2815 -0.9596 0.9596 0.2815 21.024 182.7415)" class="st2" width="5.7" height="62.4"/>
		<path id="Rectangle_408" class="st3" d="M126.1,81.8l9.4,2.8c1.4,0.4,2.3,2,1.9,3.5l0,0c-0.4,1.4-2,2.3-3.5,1.9l-9.4-2.8
			c-1.4-0.4-2.3-2-1.9-3.5l0,0C123.1,82.2,124.7,81.3,126.1,81.8z"/>
		<path id="Path_6876" class="st3" d="M93.8,134.3c0.4,0.1,0.9-0.1,1-0.5l0,0L114,68.4c0.1-0.4-0.2-0.9-0.5-1
			c-0.4-0.1-0.9,0.2-1,0.5l-19.2,65.3C93.2,133.8,93.5,134.2,93.8,134.3L93.8,134.3L93.8,134.3z"/>
		<path id="Path_6877" class="st3" d="M132.5,145.6c0.4,0.1,0.9-0.1,1-0.5l0,0l19.2-65.3c0.1-0.4-0.1-0.9-0.5-1
			c-0.4-0.1-0.9,0.1-1,0.5l0,0L132,144.6C131.8,145.1,132,145.5,132.5,145.6z"/>
		<path id="Path_6878" class="st3" d="M129.6,144.8c0.4,0.1,0.9-0.1,1-0.5l0,0l19.2-65.3c0.1-0.4-0.2-0.9-0.5-1
			c-0.4-0.1-0.9,0.2-1,0.5l-19.2,65.3C128.9,144.3,129.2,144.7,129.6,144.8z"/>
		<path id="Path_6879" class="st3" d="M118.3,141.5c0.1,0,0.2,0.1,0.3,0.1c0.4,0,0.7-0.4,0.8-0.8l0,0l-3.9-72.1
			c-0.1-0.4-0.4-0.7-0.8-0.8c-0.4,0-0.7,0.4-0.8,0.8l0,0l3.9,72.1C117.8,141.1,118,141.4,118.3,141.5L118.3,141.5z"/>
		<path id="Path_6880" class="st3" d="M107.9,138.4c0.3,0.1,0.7,0,0.9-0.4l38.5-59.7c0.2-0.4,0.1-0.8-0.2-1.1l0,0
			c-0.4-0.2-0.9-0.2-1.1,0.2l-38.5,59.7c-0.2,0.4-0.2,0.9,0.3,1.1C107.8,138.4,107.8,138.4,107.9,138.4L107.9,138.4z"/>
		<path id="Path_6881" class="st3" d="M97.3,93.3l56.3,16.5c0.4,0.1,0.9-0.2,0.9-0.6c0.1-0.4-0.1-0.8-0.5-0.9L97.7,91.9
			c-0.4-0.1-0.9,0.1-1,0.4C96.5,92.8,96.8,93.2,97.3,93.3C97.2,93.3,97.2,93.3,97.3,93.3z"/>
		<path id="Path_6882" class="st3" d="M96,97.8l56.3,16.5c0.4,0.1,0.9-0.2,0.9-0.6c0.1-0.4-0.1-0.8-0.5-0.9L96.4,96.4
			c-0.4-0.1-0.9,0.1-1,0.4C95.2,97.3,95.5,97.7,96,97.8C95.9,97.8,95.9,97.8,96,97.8z"/>
		<path id="Path_6883" class="st3" d="M131.1,102.8l-3.4-1.9c-0.6-0.3-1.2-0.7-1.6-1.2c-0.3-0.4-0.6-0.9-0.5-1.4
			c0-0.4,0.2-0.8,0.5-1c0.1-0.1,0.2-0.2,0.2-0.1c0.8-0.2,1.7,0,2.4,0.3c0.6,0.3,1.2,0.8,1.8,1.3c0.9,0.9,1.4,2,1.7,3.2
			c0,0.3-0.1,0.6-0.3,0.7s-0.5,0.2-0.7,0.1C131.2,102.9,131.1,102.8,131.1,102.8z M127.3,98.8c0.3,0.3,0.8,0.6,1.1,0.7l1.3,0.8
			c-0.1-0.1-0.2-0.3-0.4-0.4c-0.4-0.4-0.8-0.8-1.3-0.9c-0.1,0-0.3-0.1-0.4-0.1C127.6,98.9,127.5,98.8,127.3,98.8L127.3,98.8z"/>
		<path id="Path_6884" class="st3" d="M130.6,102.4c0-0.3,0.1-0.7,0.4-0.8c0.5-0.2,0.8-0.5,1.2-0.9c0.4-0.4,0.9-0.8,1.4-1.1
			c1.3-0.6,2.8-0.6,4.1-0.2c0.4,0.1,0.7,0.3,1.1,0.6c0.4,0.4,0.4,1.1,0.2,1.5c-0.4,0.7-1.1,1.2-1.9,1.4c-0.8,0.2-1.5,0.3-2.3,0.4
			c-1.2,0.1-2.4-0.1-3.5-0.2l-0.1,0C130.9,102.8,130.7,102.6,130.6,102.4z M137.3,100.8c-1-0.3-2-0.3-3,0.2
			c-0.4,0.2-0.6,0.4-0.8,0.7c0.4,0,0.8,0,1.3,0c0.6,0,1.3,0,1.9-0.3c0.3-0.1,0.6-0.2,0.9-0.5C137.4,100.8,137.3,100.8,137.3,100.8z"
			/>
		<path id="Path_6885" class="st3" d="M137,112.3c0.3,0.1,0.5,0,0.7-0.1c0.4-0.2,0.4-0.7,0.1-1.1l0,0c-2.4-3-4.2-6.4-5.2-10.1
			c-0.1-0.4-0.5-0.7-1-0.5c-0.4,0.1-0.7,0.5-0.5,1l0,0c1.2,3.9,3,7.5,5.4,10.6C136.6,112.2,136.8,112.3,137,112.3z"/>
		<path id="Path_6886" class="st3" d="M129.4,111.8c0.4,0.1,0.9-0.1,1-0.5c1-3,1.6-6.3,2-9.5c0-0.4-0.3-0.8-0.7-0.8
			c-0.2-0.1-0.4,0.1-0.6,0.1c-0.2,0.2-0.3,0.3-0.3,0.5c-0.3,3.1-0.9,6.2-1.9,9.1C128.8,111.2,129,111.6,129.4,111.8
			C129.3,111.8,129.3,111.8,129.4,111.8L129.4,111.8z"/>
	</g>
	<g>
		<g>
			<g>
				<g>
					<path class="st4" d="M59.7,156.4l-17.6,21.4l-8.2,3.3c0,0-1.3,0.7-0.3,1.4l24.4,17.6c0,0,1.3,0.5,0.6-0.9
						c-0.6-1.2-9.8-15.5-9.8-15.5l20.2-20.4L59.7,156.4z"/>
				</g>
				<path class="st5" d="M87.9,110c-8.1-0.6-16.2-1.1-24.3-1.3l9.7,27.9c0,0,0.7,1.7-0.6,3.8l-31.3,37.3l9,7.4l34.8-40.3
					c0,0,3.1-1.9,2.9-6.1l0-28.6L87.9,110z"/>
				<g>
					<path class="st4" d="M100.6,163.9l-1.6,27.7l-4.7,7.5c0,0-0.6,1.3,0.6,1.3l30.1-0.1c0,0,1.3-0.3-0.1-1.1
						c-1.2-0.6-17.1-6.8-17.1-6.8l4.3-28.4L100.6,163.9z"/>
				</g>
				<path class="st6" d="M113.1,132.9l-18.6-23l-31.8-1.8c0,0,0.6,6.7,5.5,9.8l31.8,22.1c0,0,1.6,1,1.7,3.5l-3.4,48.4l10.9,0.5
					l5.8-52.8C115,139.5,115.8,136.2,113.1,132.9z"/>
				<g>
					
						<rect x="113.8" y="50.2" transform="matrix(0.5267 -0.85 0.85 0.5267 10.1508 125.789)" class="st7" width="8.5" height="7.2"/>
					<path class="st8" d="M145.3,21.5c-2.9-0.1-5.8,0.3-8.7,0.9c-3.3,0.7-6.8,1.6-9.8,3.3c-1.2,0.7-2.4,1.4-3.6,1.9l-5.9,12.8
						c-2.6,5.6-0.6,11.9,4.5,14.2l6.5,3c5,2.3,11.1-0.4,13.7-5.9l7.7-16.7c1.5-3.3,3.2-8.2,3.4-12.1C150.5,22.3,148,21.5,145.3,21.5
						z"/>
					<g>
						<g>
							<path class="st9" d="M136.7,35.3c0,0-1.6,2.3-0.6,4.9c0.6,1.4,3.1,2.9,5.9,2.1c0.9-0.3,3-1.3,3.2-4.6
								C145.1,37.6,139.3,36.2,136.7,35.3z"/>
							<path class="st10" d="M145.1,37.6c0,0-3.2-1.3-8.4-2.3c0,0-2.3,5.2,2.6,6.5C142.2,42.4,144.9,40.7,145.1,37.6z"/>
							<path class="st11" d="M140.2,39.5c2.6,0.6,3.1-2.1,3.2-2.4c-1-0.3-2.5-0.8-4.3-1.2C138.7,36.6,138,38.8,140.2,39.5z"/>
							<path class="st10" d="M142.9,37.7c-0.1,0.3-0.4,0.6-0.7,0.5c-0.3-0.1-0.4-0.4-0.3-0.8c0.1-0.3,0.4-0.6,0.7-0.5
								C142.8,37,143,37.3,142.9,37.7z"/>
						</g>
					</g>
					<path class="st9" d="M141.6,46.2c-0.1,0.3,0,0.7,0.2,0.8c0.1,0,0.9,0.5,2,0.7l0.6-1.2c-1.2-0.1-2.2-0.6-2.2-0.6
						C142,45.7,141.7,45.9,141.6,46.2z"/>
					<path class="st4" d="M142.8,29.9c0,0-2.9,3-9.8,1.1c-0.9-0.3,1.8,3.2,5.9,2.4C142.8,32.6,144,29.8,142.8,29.9z"/>
					<path class="st9" d="M145.3,21.5c-2.9-0.1-5.8,0.3-8.7,0.9c-3.3,0.7-6.8,1.6-9.8,3.3c-0.4,0.2-0.8,0.4-1.2,0.7l0,0
						c-0.3,0.2-0.6,0.3-0.9,0.5c-0.2,0.1-0.4,0.2-0.5,0.3c-0.1,0-0.2,0.1-0.3,0.1c-0.3,0.1-0.5,0.2-0.8,0.3l-5.9,12.8
						c-2.6,5.6-0.6,11.9,4.5,14.2l6.5,3c2.6,1.2,5.5,1,8.1-0.2c-2.8,0.4-5.1-0.6-5.1-0.6l-8.2-3.8c-2.4-1.2-3.9-4-3.3-7.3
						c0.3-1.4,2-7,3.8-12.8c2.8-0.2,7.2-1.2,7.4-6c0,0,3.4,3.2,6.9,0.2c0,0,0.2,0.8,1.6,0.6c1.3-0.2,2-1.3,1.7-2.5
						c0,0,0.5,0.4,2.2-0.4c0.5-0.2,2.5-1.5,5-3.1C147.4,21.6,146.3,21.5,145.3,21.5z"/>
					<path class="st4" d="M122.2,30.4c0,0,7,0.3,8.5-4.6c0,0,4.7,3.8,8.5-0.8c0,0,0.8,1.3,0.2,1.8c-0.7,0.5,0,0.7,0.9-0.2
						c0.9-0.8,0-2.4,0-2.4s1,0.8,2.3,0.2c0,0-0.7,3.5,2.6,4c3.3,0.5,4.3-2.5,5.5-0.9c0,0,1.8,1.4,3.7,0.2c1.9-1.3,3.7-8.4-0.6-12.7
						c0,0,2.1-0.8,2.9,0.9c0.8,1.7,1.7-0.6,0.5-1.8c-1.1-1.1-3.3-0.9-4.4-0.4c0,0,0.9-1.4-0.2-3.4c-1.1-2-3.3-1.5-3.3-1.5
						s-2.8-9.3-12.9-6.3c0,0-1.5-3.1-3.3-2.4c-1.1,0.5,2.1,1.5,2.1,2.8l-0.7,0.5c0,0-1-2.2-4.8-2.7c-3.8-0.5-9,0.4-11.3,5.1
						c0,0-8.2,0.3-10.1,7.7c-0.3,2.4-1.1,6.4-4.3,4.9c-1.9-0.8-2.1,2.1-0.4,2.1c1.6,0,2.7-0.4,2.7-0.4s-2.1,1.6-2.3,3.6
						c-0.1,2.1,0.8,2.4,0.8,2.4s-1.9,2.1-2,5.7c0,2.4,2.3,5.2,4.4,5.7c0,0,0.9,6,5,5.9c0,0-0.3,1.4-1.7,1.6c-1.5,0.2-1,2.8,1,2.8
						c2.1,0,3.1-0.4,4.9-2C116.2,45.8,118.6,35,122.2,30.4z"/>
					<path class="st9" d="M122.5,30.8c0,0-1.1-3.2-3.6-2.6c-1.7,0.4-3.7,3.4-2.5,6.6c1.2,3.2,4.6,1.9,5.4,0.6
						C122.7,34.1,122.5,30.8,122.5,30.8z"/>
					<path class="st10" d="M133.9,53l5.6,2.3c0.8-0.8,1.5-1.7,2.1-2.7C138.8,49.1,133.9,53,133.9,53z"/>
				</g>
				<path class="st12" d="M104.3,54.8C85.4,60.8,67,86.7,62.7,108.1l31.5,2.4c6-24.7,23-29.8,25.6-45.7
					C122.1,50.2,113,52.1,104.3,54.8z"/>
				<path class="st13" d="M112.6,57.1c-6.7-1.2-7.1,6-7.1,6L105.3,88c2-2.6,4-4.9,5.9-7.1L112.6,57.1z"/>
				<g>
					<path class="st13" d="M113.4,52.9c0.3,0,0.5,0,0.8,0C114,52.9,113.7,52.9,113.4,52.9z"/>
					<path class="st13" d="M95.4,106.3l-26.9-8.1c0,0,3.8-17.9,20-32.4c5.7-4.6,14.5-11.4,22.6-12.6c-2.1,0.3-4.5,1-6.8,1.7
						c-18.8,5.9-38.2,22.9-41.6,53.2l31.5,2.4C94.5,109,94.9,107.6,95.4,106.3z"/>
					<path class="st13" d="M112.5,53c0.3,0,0.6,0,0.9,0C113.1,52.9,112.8,53,112.5,53z"/>
					<path class="st13" d="M111.4,53.1c0.3,0,0.6-0.1,0.9-0.1C112,53,111.7,53,111.4,53.1z"/>
				</g>
				<g>
					<path class="st8" d="M127.2,132.6c0,0,3.4,2.4,4.4,4c0.8,1.1,1.6,2.9,0.7,3c-0.9,0.1-1.6-0.4-2.3-1.7
						C129.3,136.6,127.2,132.6,127.2,132.6z"/>
					<g>
						<path class="st8" d="M126.9,132.6l-10.3-33.2c-0.9-2.2-3.7-3.2-6.2-2.1c-2.5,1.1-3.8,3.7-2.9,5.9l13.2,30.4L126.9,132.6z"/>
						<path class="st8" d="M126.3,131.4c0,0,3.7,4.1,4.6,6.1c0.4,0.9,1.9,6.4,1.5,8.6c0,0.9-2.1,1.6-2.4,0.1c0,0-1.4,1-2.4-0.5
							c0,0-1.7,0.9-2.3-0.9c0,0-1.3,0.3-2-1.1c-0.7-1.3-2.7-6.4-3-7.9c-0.3-1.5,0.6-2.4,1-2.7C121.5,132.6,126.3,131.4,126.3,131.4z
							"/>
					</g>
				</g>
				<g>
					<path class="st8" d="M116.9,101.3c0,2.4-2.2,4.3-4.9,4.3l0,0c-2.7,0-4.9-1.9-4.9-4.3l0-36.2c0-2.4,2.2-4.3,4.9-4.3l0,0
						c2.7,0,4.9,1.9,4.9,4.3L116.9,101.3z"/>
					<polygon class="st9" points="107.1,85.4 116.9,83 116.9,78.8 107.1,78.9 					"/>
					<g>
						<path class="st10" d="M117.3,82.1L117,60.7c0-2.1-2.3-3.8-5.2-3.8c-2.8,0-5.1,1.8-5.1,3.9l0.2,21.3L117.3,82.1z"/>
					</g>
				</g>
			</g>
		</g>
		<g>
			<path id="Path_6907_1_" class="st14" d="M63.7,112.1c0,8.5,6.8,15.3,15.3,15.3s15.3-6.8,15.3-15.3S87.4,96.8,79,96.8l0,0
				C70.5,96.8,63.7,103.6,63.7,112.1z"/>
			<path id="Path_6908_1_" class="st14" d="M68.9,112.1c0,5.6,4.5,10.2,10.2,10.2s10.2-4.5,10.2-10.2c0-5.6-4.5-10.2-10.2-10.2l0,0
				C73.4,102,68.9,106.5,68.9,112.1z"/>
			<path id="Path_6909_1_" class="st15" d="M73.9,112.1c0,2.8,2.3,5,5,5c2.8,0,5-2.3,5-5c0-2.8-2.3-5-5-5
				C76.2,107,73.9,109.3,73.9,112.1L73.9,112.1z"/>
		</g>
	</g>
</g>
</svg>
