<?xml version="1.0" encoding="utf-8"?>
<!-- Generator: Adobe Illustrator 22.1.0, SVG Export Plug-In . SVG Version: 6.00 Build 0)  -->
<svg version="1.1" id="heavy_weight" xmlns="http://www.w3.org/2000/svg" xmlns:xlink="http://www.w3.org/1999/xlink" x="0px"
	 y="0px" viewBox="0 0 202.4 200.5" style="enable-background:new 0 0 202.4 200.5;" xml:space="preserve">
<style type="text/css">
	.st0{fill:#D1EDF0;}
	.st1{fill:#FFBF8F;}
	.st2{fill:#C9D464;}
	.st3{fill:#BEC55D;}
	.st4{fill:#E4E9B1;}
	.st5{fill:#FCC6A2;}
	.st6{fill:#EEF2D0;}
	.st7{opacity:0.7;fill:#EF957D;enable-background:new    ;}
	.st8{fill:#DCF0F4;}
	.st9{fill:#BBE4EE;}
	.st10{fill:#9BD9E9;}
	.st11{fill:#FFD0A5;}
	.st12{fill:#A2A24E;}
	.st13{fill:#584845;}
	.st14{fill:#988580;}
	.st15{fill:#FFB481;}
	.st16{fill:#EF957D;}
	.st17{fill:#65534E;}
	.st18{fill:#414141;}
	.st19{fill:#FFFFFF;}
	.st20{fill:#2C3438;}
	.st21{fill:none;}
	.st22{fill:#EE6255;}
	.st23{fill:#F9F9F9;}
</style>
<g>
	<g>
		<path id="background_1_" class="st0" d="M39.4,51.7c-15.8,10.5-31.2,22-25.6,44.1c2,8.1,6.7,15.3,11.7,21.9
			c7.1,9.4,10.1,20.3,3.2,30.4c-6.5,9.4-16.9,14.7-25,22.5c-14,13.6,16.4,20.8,25.1,22.8c8.9,2,18,3.5,26.9,4.6
			c31.7,4.2,64.9,3.9,95.2-7.2c12.6-4.4,24.4-10.5,35.3-18.1c6.7-4.8,14.8-11.3,16.1-20.1c1-6.9-3.9-18.2-9.5-22.5
			c-13.9-10.5-27.3-21.7-40-33.6c-10.1-9.4-18-19.6-26.1-30.6C111.6,45.6,87.1,30.8,61,39.1c-3.9,1.3-7.6,3.2-10.9,5.5
			C46.7,47,43.1,49.4,39.4,51.7z"/>
		<g>
			<g>
				<g>
					<path class="st1" d="M140.4,126.4c0,0-0.2,2.8,0,3.9s1,4.6,5.1,4s0.3-7.5-1.3-8.8C142.7,124.1,140.4,126.4,140.4,126.4z"/>
					<path class="st2" d="M114.3,121.7c0,0,16.7,6.7,26.6,33.4l0.9,15.6l-19-19.3C122.8,151.3,111,123.8,114.3,121.7z"/>
					<path class="st3" d="M141.4,164.1l-3.2,7.4l-18.1-23.8c0,0-0.7-4.8-3.5-13.4C123.7,147.6,137.3,160.4,141.4,164.1z"/>
					<path class="st4" d="M143.1,152.8c0,0-2.3-1.6-5.5,0.8c-3.1,2.4-4.4,7.8-3.9,11.3s3.9,11,12.1,9c7.4-1.8,6.9-12.2,5.6-14.4
						C150.1,157.2,143.1,152.8,143.1,152.8z"/>
					<path class="st5" d="M150.3,126.4c0,0,8,24.2-2.2,40c0,0-4.4,3-7.4-2s-0.8-7.3-0.3-8.3c0.5-1.1,5.5-12.4,3.4-28.1L150.3,126.4z
						"/>
					<path class="st6" d="M137.8,158.2c0,0-1.2,10,5.8,11c0,0,2.1-0.1,2,1.2c0,1.3-2.4,2.7-5.4,0.6c-3-2.1-4.6-4.8-4.6-10
						C135.7,155.7,138.4,155.8,137.8,158.2z"/>
					<path class="st7" d="M139.4,161.7c-0.9-3.1,0.5-4.7,1-5.6c0.5-1.1,5.5-12.4,3.4-28.1l1.8-0.4
						C147.1,135.6,149,152.5,139.4,161.7z"/>
					<g>
						<g>
							<polygon class="st8" points="140.3,102.5 143.2,132.7 146,136.7 158.2,136.7 161,131.2 162.5,103.1 							"/>
							<polygon class="st9" points="140.9,103.5 144.2,132.5 146.5,136.3 157.5,135.6 160.4,130.9 161.6,104.1 							"/>
							<polygon class="st10" points="142.6,113.3 145.2,132 159.5,130.1 160.1,112.4 							"/>
							<polygon class="st10" points="143.7,104.8 146.1,122.1 147.3,122.1 145.8,104.8 							"/>
							<polygon class="st10" points="147.3,104.8 148.7,125.3 149.2,125.3 149.2,104.8 							"/>
							<polygon class="st10" points="155.8,105.8 155.8,129.5 154.2,134.9 157.1,134.9 160.1,129.9 161,105.8 							"/>
						</g>
					</g>
					<g>
						<g>
							<path class="st11" d="M163.7,113.8c-0.1,1.3-0.9,2.3-1.8,2.3c-0.9-0.1-1.7-1.2-1.6-2.5c0.1-1.3,0.9-2.3,1.8-2.3
								C163,111.4,163.7,112.5,163.7,113.8z"/>
							<path class="st1" d="M161,113.6c0.1-1.2,0.6-2.2,1.3-2.3c-0.1,0-0.1,0-0.2,0c-0.9-0.1-1.8,1-1.8,2.3
								c-0.1,1.3,0.6,2.4,1.6,2.5c0.1,0,0.2,0,0.2,0C161.4,115.8,161,114.8,161,113.6z"/>
						</g>
						<g>
							<path class="st11" d="M163.8,119c-0.1,1.5-1,2.6-2,2.5c-1.1-0.1-1.8-1.3-1.8-2.7c0.1-1.5,1-2.6,2-2.5
								C163.1,116.3,163.9,117.5,163.8,119z"/>
							<path class="st1" d="M160.8,118.8c0.1-1.3,0.7-2.4,1.4-2.5c-0.1,0-0.2,0-0.2,0c-1.1-0.1-2,1.1-2,2.5
								c-0.1,1.5,0.7,2.7,1.8,2.7c0.1,0,0.2,0,0.2,0C161.3,121.3,160.8,120.2,160.8,118.8z"/>
						</g>
						<g>
							<path class="st11" d="M163.5,124.4c-0.1,1.5-1,2.6-2,2.5c-1.1-0.1-1.8-1.3-1.8-2.7c0.1-1.5,1-2.6,2-2.5
								C162.8,121.8,163.6,123,163.5,124.4z"/>
							<path class="st1" d="M160.5,124.3c0.1-1.3,0.7-2.4,1.4-2.5c-0.1,0-0.2,0-0.2,0c-1.1-0.1-2,1.1-2,2.5
								c-0.1,1.5,0.7,2.7,1.8,2.7c0.1,0,0.2,0,0.2,0C161,126.7,160.5,125.6,160.5,124.3z"/>
						</g>
						<g>
							<path class="st11" d="M162.4,128.9c-0.1,1.1-0.7,1.9-1.5,1.8c-0.8,0-1.3-0.9-1.3-2c0.1-1.1,0.7-1.9,1.5-1.8
								C161.9,127,162.4,127.9,162.4,128.9z"/>
							<path class="st1" d="M160.2,128.8c0.1-1,0.5-1.7,1-1.8c-0.1,0-0.1,0-0.2,0c-0.8,0-1.4,0.8-1.5,1.8c-0.1,1.1,0.5,2,1.3,2
								c0.1,0,0.1,0,0.2,0C160.6,130.6,160.2,129.8,160.2,128.8z"/>
						</g>
					</g>
					<path class="st11" d="M143.8,115.5c0,0-1.6,3.3-2.1,4.1c-0.5,0.8-2.4,3.8-2,7.2c0.4,3.4,1.3,6.6,3.9,3.6c2-2.3,1.6-4.3,1.1-5.9
						c-0.2-0.8-0.1-1.6,0.4-2.3c0.5-0.7,1.8-3.3,1-5.1C145.1,115.1,143.8,115.5,143.8,115.5z"/>
					<path class="st12" d="M101.2,109.3c0,0,8.7,0.1,8.9,3c0.1,2.9-5.4,7.4-13.3,7.3s-17.9-5.1-18.5-11.5c-0.6-6.3,5.9-2.8,9.9-2
						C92.1,107,101.2,109.3,101.2,109.3z"/>
					<g>
						<g>
							<path class="st13" d="M135.1,16.9c0,0,7.7-0.2,6.9,7.3s-1.4,12.3-1.5,14.4c-0.1,2,0.8,9.1-3.6,10.5
								c-4.4,1.4,1.3-26.9-13.3-28.6C108.9,18.9,135.1,16.9,135.1,16.9z"/>
							<g>
								<path class="st14" d="M140.8,34.2c-0.2,2-0.4,3.5-0.4,4.4c0,0.5,0,1.4,0,2.4c-0.9,1.5-3.2,4.1-5.5,4.6
									c-0.2-1.5-0.3-3.3-0.5-5.3C136.9,39.8,139.3,37,140.8,34.2z"/>
							</g>
						</g>
						<path class="st15" d="M105.7,106.1c-0.4,0.3,0,8.5,0,8.5s-0.4,3.8-9.8,3.1c-9.4-0.6-12.4-3.8-12.9-9.6c-0.6-5.7,0-19.8,0-19.8
							L105.7,106.1z"/>
						<path class="st16" d="M137.8,49.9c0,0,2.2-5.3,5.9-4.2s0.7,12.6-1.7,19.1c-2.4,6.6-1.2,7.4-5.8,6.9
							C131.6,71.2,137.8,49.9,137.8,49.9z"/>
						<g>
							<path class="st5" d="M125.2,19.5c0,0,10.7,3.5,11.3,8s-0.4,14.3,0.9,18.8c1.4,4.5,3.1,13.4,1.4,18.8
								c-1.7,5.4-7.2,21.9-8.6,27c-1.5,5.1-0.6,12.8-14.8,14.9c-14.2,2.2-24.1-0.7-29-8.1c-4.9-7.5-13.8-29.4-14.2-30.5
								c0,0-4.1,1.1-5.8-3.8c-1.7-4.9-1-8.8-2.4-12.6s-2.4-9.1,1.3-10.9c3.8-1.9,4.1,0.8,6,3.4c1.8,2.5-0.4-29.3,8.8-27.6
								C89.3,18.6,116.4,17,125.2,19.5z"/>
							<path class="st1" d="M105.7,43.9c0,0,6.8,2.7,4.1,9.4c-2.6,6.7-5.7,4.5-10.3,4.4c-4.6-0.1-12.1-2.5-8.5-10.8
								C91,46.9,96.5,39.1,105.7,43.9z"/>
							<path class="st16" d="M122.4,47.5c0,0-6.8,8.4-3.1,18.4c0,0,2.5,5.5,1.7,7.7s-3.1,4.8-8.2,4.4c0,0,5.7-0.7,6.1-4
								C119.4,68.8,111.5,55.7,122.4,47.5z"/>
							<g>
								<path class="st16" d="M121.2,89.4c0,0-4-0.9-8.4,0.5c-5.9,1.9-12.9-0.4-15-6.8l0.3-2.2c0,0-2.4,1.7-2.3,4.3l0.9-0.8
									c0,0,4.1,10.2,14.2,7C116.5,89.7,121.2,89.4,121.2,89.4z"/>
								<path class="st16" d="M113,93.5c0,0-3.9,2.2-9.6,0C103.4,93.5,108.8,98.8,113,93.5z"/>
							</g>
							<path class="st16" d="M71.5,61.8c0,0,2.4-8.3-1.5-8.5s-2.5,3.3-1,4.7c0,0-0.7-2.8,0.8-2.9C71.4,55,71.5,61.8,71.5,61.8z"/>
						</g>
						<path class="st17" d="M137.1,45.8c0,0,1.6-2.1-0.7-3c-2.2-0.9-5.4-1.8-9,1.8c0,0-1.6,1.7,0.3,2.3
							C129.6,47.4,133.8,42.1,137.1,45.8z"/>
						<path class="st17" d="M89.4,46.1c0,0,4.6-5.7,11.7-5.5s9.7,5.1,8.7,6.4c-1,1.2-4.5-2.7-10.2-2.7
							C94.3,44.3,91.3,48.5,89.4,46.1z"/>
						<g>
							<path class="st18" d="M112,55.7c0,0,5.9-2.3,10.4,0l0.4,3.8c0,0-6.2-2.7-10.7,0v-3.8H112z"/>
							<path class="st18" d="M122.6,62.3c1.7,5.9,8.2,6.3,15.2,4.5c7-1.8,8.4-7.6,8.6-9.5c0.1-0.8,0.1-2.9,0.1-4.9c0-2.8-2.3-5-5-5
								c-4.5,0-11,0.1-14.3,0.6C121.9,48.9,120.9,56.4,122.6,62.3z M125.2,58.9c0-3-0.1-9,6.8-9c6.9,0,8.9,0.3,8.9,0.3
								s3.3-0.3,3.2,3.2c-0.1,3.4,0,10.2-8.8,11.3C126.4,65.8,125.2,61.9,125.2,58.9z"/>
							<path class="st18" d="M70.1,44.7l2.5,3.9l13.1,7.7c0,0,1.2-0.1,1.4-2c0.2-1.9,0.2-3.8,0.2-3.8s0.4-0.8-1.6,0
								C83.7,51.3,70.1,44.7,70.1,44.7z"/>
							<path class="st18" d="M87.3,60.8c3.6,7.2,12.6,5.9,18.4,6.1c5.8,0.1,6-4.5,6-4.5s1-6.4,0.7-9.7c-0.3-3.2-5.8-4-5.8-4
								s-8.7-1.1-13.9-1.1C87.4,47.6,83.8,53.6,87.3,60.8z M94.2,50.1c6.9-0.4,12.1,0.5,12.1,0.5s3.8,0.6,3.8,4
								c0,3.5-0.8,5.6-0.8,5.6s0.1,3.8-4.8,4c-4.8,0.1-13,0.1-14.8-5.1C87.9,53.9,89.2,50.4,94.2,50.1z"/>
						</g>
						<g>
							<path class="st19" d="M100.2,54.6c1.5,0.2,4.6,1.1,4.5,3.9c-0.1,2.8-4,1.2-5.8,1.7c-1.8,0.4-3.5-0.5-4.1-2.1
								C94.4,56.6,95,54.1,100.2,54.6z"/>
							<g>
								<path class="st20" d="M95.7,57.3c0,1.6,1.3,3,3,3c1.6,0,3-1.3,3-3c0-1.6-1.3-3-3-3C97,54.4,95.7,55.7,95.7,57.3z"/>
								<path class="st19" d="M96.9,56.7c0,0.5,0.4,1,1,1c0.5,0,1-0.4,1-1c0-0.5-0.4-1-1-1C97.3,55.8,96.9,56.2,96.9,56.7z"/>
							</g>
						</g>
						<g>
							<path class="st19" d="M131.4,54.3c1.1,0,3.8,0,4.3,2.5s-3.2,3.4-5.5,3c-2.2-0.4-2.2-2-2.4-2.8
								C127.6,56.1,129.5,54.3,131.4,54.3z"/>
							<g>
								<path class="st20" d="M127.6,57.3c0,1.6,1.3,3,3,3c1.6,0,3-1.3,3-3c0-1.6-1.3-3-3-3C128.9,54.4,127.6,55.7,127.6,57.3z"/>
								<path class="st19" d="M128.8,56.7c0,0.5,0.4,1,1,1c0.5,0,1-0.4,1-1c0-0.5-0.4-1-1-1C129.3,55.8,128.8,56.2,128.8,56.7z"/>
							</g>
						</g>
						<g>
							<path class="st13" d="M75.7,6.1l6.1,14.5c0,0-6.1,1.4-6.8,11.4c-0.7,9.9-0.4,19.4-0.4,19.4l-7.3-10.8c0,0-1.5-3.3-1.5-11.8
								C65.8,20.2,61.7,1.7,75.7,6.1z"/>
							<path class="st14" d="M65.8,31.1c0-0.8,0-1.6,0-2.5c0-2.2-0.2-5-0.4-7.9c1.3,4.8,4,11,9.4,15.4c-0.1,3-0.2,5.8-0.2,8.1
								C70.8,41.4,67.8,35.9,65.8,31.1z"/>
						</g>
						<path class="st21" d="M140.5,41.1c-0.9,1.5-3,4.2-5.5,4.6l0,0C137.3,45.2,139.6,42.6,140.5,41.1z"/>
					</g>
					<g>
						<path class="st2" d="M78.6,115.9l29.7,3c0,0,2.8,1.3,6.1,2.7c1.4,2.9,4,11,6.7,33.3c0.9,7.6,2.9,28.1,2.3,45.3
							c0,0-52.2-2.6-52.2-5.2c0.1-3.9,0.3-10.8,0.4-19.5c0.3-13.8-0.1-31.6-0.1-31.6s0,0.1-0.1,0.2c-0.1-3.2-0.5-8.6-1.6-23.5
							C71.6,118.9,74.9,117.5,78.6,115.9z"/>
						<path class="st3" d="M107.6,110.2c0,0,1.8,2.2-0.3,2.6c-2,0.4-7,2-6.9,5c0,0,0.3-3.6-3.8-3.8c-4.1-0.2-16.4-2.6-16.5-7
							c-0.1-2.1,1.6-2.5,1.6-2.5s-3.6-1.3-3.6,2.5c-0.1,3.7,0.4,9,0.4,9s2.6,7.7,21.7,8.6c0,0,5.8,0.2,9.2-3.7c0,0,0.1-2.6,0.6-4.6
							C110.5,114.2,112.6,111,107.6,110.2z"/>
						<path class="st12" d="M100.5,117.4c0.2-1.5,1.6-2.6,3.2-3.4c-3,2.9-2.1,8.4-1.7,10.5c-0.6,0.1-1.2,0.1-1.5,0.1
							c-0.2-0.7-0.4-2.3-0.1-5.3C100.6,118.6,100.6,118,100.5,117.4z"/>
					</g>
					<g>
						<path class="st2" d="M70.1,120.4c0,0-14,11.2-15.8,39.6l3.7,15.1l12.6-23.9C70.5,151.2,73.9,121.5,70.1,120.4z"/>
						<path class="st3" d="M56.4,168.8l5.2,6.1L72,147c0,0-0.7-4.8-0.5-13.8C68.6,147.9,59.3,164.1,56.4,168.8z"/>
						<path class="st4" d="M51.6,158.5c0,0,1.8-2.2,5.5-0.8s6.5,6.2,7,9.7s-0.5,11.7-9,12.1c-7.6,0.4-10.1-9.7-9.5-12.2
							C46.1,164.8,51.6,158.5,51.6,158.5z"/>
						<path class="st5" d="M37,135.4c0,0-0.7,25.5,13.6,37.7c0,0,5.1,1.6,6.5-4c1.5-5.6-1.3-7.2-2.1-8.1
							c-0.8-0.9-8.9-10.3-11.4-25.9L37,135.4z"/>
						<path class="st6" d="M58.1,162.1c0,0,4,9.2-2.4,12.2c0,0-2,0.5-1.6,1.8s3.1,1.9,5.3-1c2.3-2.9,3.1-5.9,1.5-11
							C59.5,159.1,56.9,160.1,58.1,162.1z"/>
						<path class="st5" d="M52.7,120.7c0,0-0.1-0.5-0.9-0.6c-0.8-0.1-1.6,0.7-2,2s-0.8,2.5-3,2.2s-2.3-2.2-1.9-3.3
							c0.8-2,2.7-2.3,2.7-2.3s2.7,2,4.5,0.4c0,0,0.5-1.2-1.4-2.5c-1.8-1.2-4.1-2.7-5.9-1.9c0,0-0.1,0-0.1,0.1c0,0,2.8-6.9,3-7.8
							c0.2-1,0.9-2.4-0.9-2.9c-1.8-0.5-5.7,7.7-7.2,11.1c0,0.1-0.1,0.3-0.1,0.3c0.5-2.5,1.7-6.5,2.3-7.4c0.6-1,1.3-3.1-0.6-3.6
							c-1.9-0.5-3.5,3.2-3.8,5.2c0,0,0-1.4-1.2-1.3s-1.6,2.6-1.5,4.7s1.1,14,1.5,18.7s0.9,8.3,0.9,8.3l7.4-0.7c0,0-1.5-7.7,2.3-9.6
							C50.8,127.6,54.3,124.5,52.7,120.7z"/>
						<g>
							<path class="st22" d="M54.5,122.7c1.3,0,2.4-0.9,2.4-2v-1c0-1.1-1-1.9-2.3-1.9h-3.1l-0.8,4.8L54.5,122.7z"/>
							<path class="st23" d="M48.3,122.7H51l0.6-4.8h-3.1c-1.4,0-2.5,1.1-2.5,2.5C46,121.7,47,122.7,48.3,122.7z"/>
						</g>
						<path class="st11" d="M49.2,123.6c0,0,0.7-2.9,1.4-3s3.7-0.4,2.2,3.7C50.4,124.6,49.2,123.6,49.2,123.6z"/>
					</g>
				</g>
			</g>
			<path class="st13" d="M75.7,6.1c-6.6-2.7,31.4-11.5,52.4-0.7C132.7,7.8,129,21,129,21s-41.5,1.7-47.1-0.4
				C76.2,18.5,75.7,6.1,75.7,6.1z"/>
			<path class="st13" d="M130.3,13.6c0,0,8.6,0.4,10.1,5.3S129,21,129,21l-8-8.1L130.3,13.6z"/>
			<path class="st13" d="M71.3,5.4l5.5-1.6c0,0,5.4,1.5,5.8,3.5s-0.8,13.2-0.8,13.2S64.7,13.6,71.3,5.4z"/>
		</g>
	</g>
	<path class="st3" d="M72.8,150.3c0,0,2.5,29.4,3.3,32.7s10.8,11.5,13,11.5s33.9,5.8,33.9,5.8s-41.2-2.1-42.2-3.1
		c0,0-9.1-1.3-9.6-2.1s0.8-48,0.8-48L72.8,150.3z"/>
</g>
</svg>
