<?xml version="1.0" encoding="utf-8"?>
<!-- Generator: Adobe Illustrator 22.1.0, SVG Export Plug-In . SVG Version: 6.00 Build 0)  -->
<svg version="1.1" id="pain_releafe" xmlns="http://www.w3.org/2000/svg" xmlns:xlink="http://www.w3.org/1999/xlink" x="0px"
	 y="0px" viewBox="0 0 259.5 200.6" style="enable-background:new 0 0 259.5 200.6;" xml:space="preserve">
<style type="text/css">
	.st0{fill:#D1EDF0;}
	.st1{opacity:0.5;fill:#BBBDBF;enable-background:new    ;}
	.st2{fill:#FFFFFF;}
	.st3{fill:#D0D2D3;}
	.st4{fill:#002723;}
	.st5{fill:#EB6841;}
	.st6{fill:none;stroke:#A6A8AB;stroke-width:0.64;stroke-miterlimit:10;}
	.st7{opacity:0.3;fill:#B93318;enable-background:new    ;}
	.st8{opacity:0.1;fill:#B93318;enable-background:new    ;}
	.st9{fill:#CCCECF;}
	.st10{fill:#E04D30;}
	.st11{fill:#BBBDBF;}
</style>
<g id="Layer_1" transform="translate(0 0)">
	<path id="background" class="st0" d="M53.9,18.3C34.5,31,15.6,45.2,22.5,72.3c2.5,9.9,8.2,18.8,14.3,26.9
		c8.7,11.5,12.4,24.9,3.8,37.3c-8,11.5-20.8,18-30.7,27.6c-17.1,16.6,20.2,25.5,30.8,28c10.9,2.5,22,4.2,33.1,5.7
		c38.9,5.1,79.6,4.7,116.8-8.9c15.4-5.4,29.9-12.8,43.3-22.1c8.2-5.9,18.2-13.9,19.8-24.6c1.3-8.5-4.7-22.3-11.6-27.6
		c-17-12.9-33.4-26.7-49-41.2c-12.4-11.5-22-24.1-32.1-37.5c-18.5-24.8-48.6-43-80.6-32.8C75.6,4.5,71.1,6.7,67,9.7
		C62.8,12.6,58.4,15.4,53.9,18.3z"/>
	<path id="Path_6910" class="st1" d="M0,168.6c0,3.2,28,5.8,62.6,5.8s62.6-2.6,62.6-5.8s-28-5.8-62.6-5.8S0,165.4,0,168.6z"/>
	<path id="Path_6911" class="st2" d="M160.2,67.5l8.8-2.8l8.5-2.8l5.1,15.9l-17.3,5.6L160.2,67.5z"/>
	<path id="Path_6912" class="st3" d="M185.8,146.8l8.8-2.8l8.5-2.8l5.1,15.9l-17.3,5.6L185.8,146.8z"/>
	<path id="Path_6913" class="st4" d="M152.2,16.3l-0.4-7.4l2.2,6.8l13.1,40.7l-1.8,0.6L152.2,16.3z"/>
	<path id="Path_6914" class="st2" d="M158.5,73.7l12.2-3.9l11.8-3.8l25.1,77.6l-24,7.7L158.5,73.7z"/>
	<path id="Path_6915" class="st2" d="M184.2,162.1l14.8-4.8l14.4-4.6l1.6,5l-29.2,9.4L184.2,162.1z"/>
	<path id="Path_6916" class="st2" d="M162.9,53.7l2.2-0.7l2.2-0.7l8.4,25.9l-4.4,1.4L162.9,53.7z"/>
	<path id="Path_6917" class="st5" d="M181.7,136.1l18.4-6l-19.3-59.8l-2.3,0.7l-1.7-5.4L170,68l-7,2.3l1.7,5.4l-2.3,0.7L181.7,136.1
		z"/>
	<g id="Group_1033" transform="translate(143.534 55.281)">
		<line id="Line_1" class="st6" x1="62.7" y1="84.2" x2="57.9" y2="85.7"/>
		<line id="Line_2" class="st6" x1="61.9" y1="81.6" x2="57.1" y2="83.1"/>
		<line id="Line_3" class="st6" x1="61" y1="79" x2="56.2" y2="80.5"/>
		<line id="Line_4" class="st6" x1="60.2" y1="76.3" x2="55.4" y2="77.9"/>
		<line id="Line_5" class="st6" x1="59.3" y1="73.7" x2="54.5" y2="75.3"/>
		<line id="Line_6" class="st6" x1="58.5" y1="71.1" x2="53.7" y2="72.7"/>
		<line id="Line_7" class="st6" x1="57.6" y1="68.5" x2="52.8" y2="70"/>
		<line id="Line_8" class="st6" x1="56.8" y1="65.9" x2="52" y2="67.4"/>
		<line id="Line_9" class="st6" x1="55.9" y1="63.2" x2="51.1" y2="64.8"/>
		<line id="Line_10" class="st6" x1="55.1" y1="60.6" x2="50.3" y2="62.2"/>
		<line id="Line_11" class="st6" x1="54.2" y1="58" x2="49.4" y2="59.6"/>
		<line id="Line_12" class="st6" x1="53.4" y1="55.4" x2="48.6" y2="56.9"/>
		<line id="Line_13" class="st6" x1="52.5" y1="52.8" x2="47.8" y2="54.3"/>
		<line id="Line_14" class="st6" x1="51.7" y1="50.2" x2="46.9" y2="51.7"/>
		<line id="Line_15" class="st6" x1="50.9" y1="47.5" x2="46.1" y2="49.1"/>
		<line id="Line_16" class="st6" x1="50" y1="44.9" x2="45.2" y2="46.5"/>
		<line id="Line_17" class="st6" x1="49.2" y1="42.3" x2="44.4" y2="43.9"/>
		<line id="Line_18" class="st6" x1="48.3" y1="39.7" x2="43.5" y2="41.2"/>
		<line id="Line_19" class="st6" x1="47.5" y1="37.1" x2="42.7" y2="38.6"/>
		<line id="Line_20" class="st6" x1="46.6" y1="34.4" x2="41.8" y2="36"/>
		<line id="Line_21" class="st6" x1="45.8" y1="31.8" x2="41" y2="33.4"/>
		<line id="Line_22" class="st6" x1="44.9" y1="29.2" x2="40.1" y2="30.8"/>
		<line id="Line_23" class="st6" x1="44.1" y1="26.6" x2="39.3" y2="28.1"/>
		<line id="Line_24" class="st6" x1="43.2" y1="24" x2="38.4" y2="25.5"/>
		<line id="Line_25" class="st6" x1="42.4" y1="21.4" x2="37.6" y2="22.9"/>
		<line id="Line_26" class="st6" x1="41.6" y1="18.7" x2="36.8" y2="20.3"/>
		<line id="Line_27" class="st6" x1="40.7" y1="16.1" x2="35.9" y2="17.7"/>
		<line id="Line_28" class="st6" x1="39.9" y1="13.5" x2="35.1" y2="15.1"/>
	</g>
	<path id="Path_6918" class="st7" d="M213.4,152.6l-6,1.9l-3.2-9.9l3.3-1.1l-19.5-60.3c-2.3,6.8-5.7,13.1-10.2,18.7
		c-2.3,2.9-4.9,5.5-7.6,8l13.4,41.4l3.3-1.1l3.2,9.9l-5.9,1.9l1.6,5l29.2-9.4L213.4,152.6z"/>
	<path id="Path_6919" class="st7" d="M213.4,152.6l-6,1.9l-3.2-9.9l3.3-1.1l-17.8-55.2c-0.7,12.9-5.4,25.3-13.4,35.5
		c-0.4,0.4-0.7,0.9-1.1,1.4l8.4,26.1l3.3-1.1l3.2,9.9l-5.9,1.9l1.6,5l29.2-9.4L213.4,152.6z"/>
	<path id="Path_6920" class="st5" d="M109.1,168c6.4,0,11.7-5.2,11.7-11.6v-50.8c0-6.4-5.3-11.6-11.7-11.6H13.2
		c-6.4,0-11.7,5.2-11.7,11.6v50.8c0,6.4,5.3,11.6,11.7,11.6L109.1,168z"/>
	<path id="Path_6921" class="st2" d="M23.6,114.7c2.1-2.7,1.5-6.7-1.2-8.7c0,0,0,0,0,0c-2.8-2.1-6.7-1.5-8.8,1.3
		c-2.1,2.8-1.5,6.7,1.2,8.7c0,0,0,0,0,0C17.6,118,21.5,117.5,23.6,114.7z"/>
	<path id="Path_6922" class="st3" d="M21.6,105.5c0.3,0.1,0.5,0.3,0.8,0.5c0.2,0.2,0.5,0.4,0.7,0.6l-7.5,9.9c-0.5-0.3-1-0.6-1.4-1.1
		L21.6,105.5z"/>
	<path id="Path_6923" class="st2" d="M23.6,134.7c2.1-2.7,1.5-6.7-1.2-8.7c0,0,0,0,0,0c-2.8-2.1-6.7-1.5-8.8,1.2
		c-2.1,2.8-1.5,6.7,1.2,8.7c0,0,0,0,0,0C17.6,138,21.5,137.4,23.6,134.7z"/>
	<path id="Path_6924" class="st3" d="M21.6,125.4c0.3,0.1,0.5,0.3,0.8,0.5c0.2,0.2,0.5,0.4,0.7,0.6l-7.5,9.9c-0.5-0.3-1-0.6-1.4-1.1
		L21.6,125.4z"/>
	<path id="Path_6925" class="st2" d="M23.6,154.6c2.1-2.7,1.5-6.7-1.2-8.7c0,0,0,0,0,0c-2.8-2.1-6.7-1.5-8.8,1.3
		c-2.1,2.8-1.5,6.7,1.2,8.7c0,0,0,0,0,0C17.6,157.9,21.5,157.4,23.6,154.6L23.6,154.6z"/>
	<path id="Path_6926" class="st3" d="M21.6,145.4c0.3,0.1,0.5,0.3,0.8,0.5c0.2,0.2,0.5,0.4,0.7,0.6l-7.5,9.9
		c-0.3-0.1-0.5-0.3-0.8-0.5c-0.2-0.2-0.5-0.4-0.7-0.6L21.6,145.4z"/>
	<path id="Path_6927" class="st2" d="M44.9,114.7c2.1-2.7,1.5-6.7-1.2-8.7c0,0,0,0,0,0c-2.8-2.1-6.7-1.5-8.8,1.3
		c-2.1,2.7-1.5,6.6,1.2,8.7c0,0,0,0,0,0C38.8,118,42.8,117.5,44.9,114.7z"/>
	<path id="Path_6928" class="st3" d="M42.9,105.5c0.3,0.1,0.5,0.3,0.8,0.5c0.2,0.2,0.5,0.4,0.7,0.6l-7.5,9.9
		c-0.3-0.1-0.5-0.3-0.7-0.5c-0.2-0.2-0.5-0.4-0.7-0.6L42.9,105.5z"/>
	<path id="Path_6929" class="st2" d="M44.9,134.7c2.1-2.7,1.5-6.6-1.2-8.7c0,0,0,0-0.1,0c-2.8-2.1-6.7-1.5-8.8,1.2
		c-2.1,2.7-1.5,6.7,1.2,8.7c0,0,0,0,0,0C38.8,138,42.8,137.4,44.9,134.7z"/>
	<path id="Path_6930" class="st3" d="M42.9,125.4c0.3,0.1,0.5,0.3,0.8,0.5c0.2,0.2,0.5,0.4,0.7,0.6l-7.5,9.9
		c-0.3-0.1-0.5-0.3-0.7-0.5c-0.2-0.2-0.5-0.4-0.7-0.6L42.9,125.4z"/>
	<path id="Path_6931" class="st2" d="M44.9,154.6c2.1-2.7,1.5-6.7-1.2-8.7c0,0,0,0,0,0c-2.8-2.1-6.7-1.5-8.8,1.3
		c-2.1,2.7-1.5,6.6,1.2,8.7c0,0,0,0,0,0C38.8,157.9,42.8,157.4,44.9,154.6z"/>
	<path id="Path_6932" class="st3" d="M42.9,145.4c0.3,0.1,0.5,0.3,0.8,0.5c0.2,0.2,0.5,0.4,0.7,0.6l-7.5,9.9c-0.5-0.3-1-0.6-1.4-1.1
		L42.9,145.4z"/>
	<path id="Path_6933" class="st2" d="M66.2,114.7c2.1-2.7,1.5-6.6-1.2-8.7c0,0,0,0-0.1,0c-2.8-2.1-6.7-1.5-8.8,1.3
		c-2.1,2.7-1.5,6.6,1.2,8.7c0,0,0,0,0,0C60.1,118,64.1,117.5,66.2,114.7z"/>
	<path id="Path_6934" class="st3" d="M64.2,105.5c0.3,0.1,0.5,0.3,0.8,0.5c0.2,0.2,0.5,0.4,0.7,0.6l-7.5,9.9
		c-0.3-0.1-0.5-0.3-0.8-0.5c-0.2-0.2-0.5-0.4-0.7-0.6L64.2,105.5z"/>
	<path id="Path_6935" class="st2" d="M66.2,134.7c2.1-2.7,1.5-6.6-1.2-8.7c0,0,0,0-0.1,0c-2.8-2.1-6.7-1.5-8.8,1.2
		c-2.1,2.7-1.5,6.7,1.2,8.7c0,0,0,0,0,0C60.1,138,64.1,137.4,66.2,134.7z"/>
	<path id="Path_6936" class="st3" d="M64.2,125.4c0.3,0.1,0.5,0.3,0.8,0.5c0.2,0.2,0.5,0.4,0.7,0.6l-7.5,9.9
		c-0.3-0.1-0.5-0.3-0.8-0.5c-0.2-0.2-0.5-0.4-0.7-0.6L64.2,125.4z"/>
	<path id="Path_6937" class="st2" d="M66.2,154.6c2.1-2.7,1.5-6.7-1.2-8.7c0,0,0,0,0,0c-2.8-2.1-6.7-1.5-8.8,1.3
		c-2.1,2.7-1.5,6.6,1.2,8.7c0,0,0,0,0,0C60.1,157.9,64.1,157.4,66.2,154.6L66.2,154.6z"/>
	<path id="Path_6938" class="st3" d="M64.2,145.4c0.3,0.1,0.5,0.3,0.8,0.5c0.2,0.2,0.5,0.4,0.7,0.6l-7.5,9.9c-0.5-0.3-1-0.6-1.4-1.1
		L64.2,145.4z"/>
	<path id="Path_6939" class="st2" d="M87.5,114.7c2.1-2.7,1.5-6.6-1.2-8.7c0,0,0,0-0.1,0c-2.8-2.1-6.7-1.5-8.8,1.3
		c-2.1,2.7-1.5,6.6,1.2,8.7c0,0,0,0,0,0C81.4,118,85.4,117.5,87.5,114.7z"/>
	<path id="Path_6940" class="st3" d="M85.5,105.5c0.3,0.1,0.5,0.3,0.7,0.5c0.2,0.2,0.5,0.4,0.7,0.6l-7.5,9.9
		c-0.3-0.1-0.5-0.3-0.7-0.5c-0.2-0.2-0.5-0.4-0.7-0.6L85.5,105.5z"/>
	<path id="Path_6941" class="st2" d="M87.5,134.7c2.1-2.7,1.5-6.6-1.2-8.7c0,0,0,0-0.1,0c-2.8-2.1-6.7-1.5-8.8,1.2
		c-2.1,2.7-1.5,6.6,1.2,8.7c0,0,0,0,0.1,0C81.4,138,85.4,137.4,87.5,134.7z"/>
	<path id="Path_6942" class="st3" d="M85.5,125.4c0.3,0.1,0.5,0.3,0.7,0.5c0.2,0.2,0.5,0.4,0.7,0.6l-7.5,9.9
		c-0.3-0.1-0.5-0.3-0.7-0.5c-0.2-0.2-0.5-0.4-0.7-0.6L85.5,125.4z"/>
	<path id="Path_6943" class="st2" d="M87.5,154.6c2.1-2.7,1.5-6.6-1.2-8.7c0,0,0,0-0.1,0c-2.8-2.1-6.7-1.5-8.8,1.3
		c-2.1,2.7-1.5,6.6,1.2,8.7c0,0,0,0,0,0C81.4,157.9,85.4,157.4,87.5,154.6L87.5,154.6z"/>
	<path id="Path_6944" class="st3" d="M85.5,145.4c0.3,0.1,0.5,0.3,0.7,0.5c0.2,0.2,0.5,0.4,0.7,0.6l-7.5,9.9
		c-0.3-0.1-0.5-0.3-0.7-0.5c-0.2-0.2-0.5-0.4-0.7-0.6L85.5,145.4z"/>
	<path id="Path_6945" class="st2" d="M108.8,114.7c2.1-2.8,1.5-6.7-1.2-8.7c0,0,0,0,0,0c-2.8-2.1-6.7-1.5-8.8,1.3
		c-2.1,2.7-1.5,6.6,1.2,8.7c0,0,0,0,0,0C102.7,118,106.7,117.5,108.8,114.7z"/>
	<path id="Path_6946" class="st3" d="M106.7,105.5c0.3,0.1,0.5,0.3,0.8,0.5c0.2,0.2,0.5,0.4,0.7,0.6l-7.5,9.9
		c-0.3-0.1-0.5-0.3-0.8-0.5c-0.2-0.2-0.5-0.4-0.7-0.6L106.7,105.5z"/>
	<path id="Path_6947" class="st2" d="M108.8,134.7c2.1-2.7,1.5-6.7-1.2-8.7c0,0,0,0,0,0c-2.8-2.1-6.7-1.5-8.8,1.2
		c-2.1,2.7-1.5,6.7,1.2,8.7c0,0,0,0,0,0C102.7,138,106.7,137.4,108.8,134.7z"/>
	<path id="Path_6948" class="st3" d="M106.7,125.4c0.3,0.1,0.5,0.3,0.8,0.5c0.2,0.2,0.5,0.4,0.7,0.6l-7.5,9.9
		c-0.3-0.1-0.5-0.3-0.8-0.5c-0.2-0.2-0.5-0.4-0.7-0.6L106.7,125.4z"/>
	<path id="Path_6949" class="st2" d="M108.8,154.6c2.1-2.8,1.5-6.7-1.2-8.7c0,0,0,0,0,0c-2.8-2.1-6.7-1.5-8.8,1.3
		c-2.1,2.7-1.5,6.6,1.2,8.7c0,0,0,0,0,0C102.7,157.9,106.7,157.3,108.8,154.6z"/>
	<path id="Path_6950" class="st3" d="M106.7,145.4c0.3,0.1,0.5,0.3,0.8,0.5c0.2,0.2,0.5,0.4,0.7,0.6l-7.5,9.9
		c-0.3-0.1-0.5-0.3-0.8-0.5c-0.2-0.2-0.5-0.4-0.7-0.6L106.7,145.4z"/>
	<path id="Path_6951" class="st7" d="M109.1,93.9H72.7c-0.6,13-5.3,25.4-13.4,35.6c-9.5,11.9-26.4,23-42.2,23
		c-5.2,0.5-10.4,0.4-15.5-0.4v4.2c0,6.4,5.3,11.6,11.7,11.6h95.9c6.4,0,11.7-5.2,11.7-11.6v-50.8C120.7,99.1,115.5,93.9,109.1,93.9
		L109.1,93.9z"/>
	<path id="Path_6952" class="st7" d="M109.1,93.9H82.3c0,14.1-4.8,27.7-13.5,38.7c-9.5,11.9-26.4,23-42.3,23
		c-8.4,0.8-16.9-0.1-25-2.7v3.4c0,6.4,5.3,11.6,11.7,11.6h95.9c6.4,0,11.7-5.2,11.7-11.6v-50.8C120.7,99.1,115.5,93.9,109.1,93.9
		L109.1,93.9z"/>
	<path id="Path_6953" class="st2" d="M141.6,57.5v-8.8h-39.5v8.8L82.4,82.7v79.1c0,7.9,6.3,14.2,14.2,14.3h50.5
		c7.9,0,14.2-6.4,14.2-14.3c0,0,0,0,0,0V82.7L141.6,57.5z"/>
	<path id="Path_6954" class="st5" d="M143.1,48.7V26c0-3.3-2.6-5.9-5.9-5.9c0,0,0,0,0,0h-30.7c-3.3,0-5.9,2.7-5.9,5.9v22.7H143.1z"
		/>
	<rect id="Rectangle_410" x="82.4" y="99.1" class="st5" width="78.8" height="46.1"/>
	<g id="Group_1034" transform="translate(82.522 18.476)">
		<path id="Path_6955" class="st2" d="M23.4,26.7c0,0.9-0.7,1.6-1.6,1.6l0,0c-0.9,0-1.6-0.7-1.6-1.6V6.1c0-0.9,0.7-1.6,1.6-1.6l0,0
			c0.9,0,1.6,0.7,1.6,1.6c0,0,0,0,0,0V26.7z"/>
		<path id="Path_6956" class="st2" d="M29.2,26.7c0,0.9-0.7,1.6-1.6,1.6l0,0c-0.9,0-1.6-0.7-1.6-1.6V6.1c0-0.9,0.7-1.6,1.6-1.6l0,0
			c0.9,0,1.6,0.7,1.6,1.6c0,0,0,0,0,0V26.7z"/>
		<path id="Path_6957" class="st2" d="M35.1,26.7c0,0.9-0.7,1.6-1.6,1.6l0,0c-0.9,0-1.6-0.7-1.6-1.6V6.1c0-0.9,0.7-1.6,1.6-1.6l0,0
			c0.9,0,1.6,0.7,1.6,1.6V26.7z"/>
		<path id="Path_6958" class="st2" d="M40.9,26.7c0,0.9-0.7,1.6-1.6,1.6l0,0c-0.9,0-1.6-0.7-1.6-1.6c0,0,0,0,0,0V6.1
			c0-0.9,0.7-1.6,1.6-1.6c0,0,0,0,0,0l0,0c0.9,0,1.6,0.7,1.6,1.6V26.7z"/>
		<path id="Path_6959" class="st2" d="M46.8,26.7c0,0.9-0.7,1.6-1.6,1.6l0,0c-0.9,0-1.6-0.7-1.6-1.6c0,0,0,0,0,0V6.1
			c0-0.9,0.7-1.6,1.6-1.6c0,0,0,0,0,0l0,0c0.9,0,1.6,0.7,1.6,1.6V26.7z"/>
		<path id="Path_6960" class="st2" d="M52.6,26.7c0,0.9-0.7,1.6-1.6,1.6l0,0c-0.9,0-1.6-0.7-1.6-1.6V6.1c0-0.9,0.7-1.6,1.6-1.6l0,0
			l0,0c0.9,0,1.6,0.7,1.6,1.6V26.7z"/>
		<path id="Path_6961" class="st2" d="M58.5,26.7c0,0.9-0.7,1.6-1.6,1.6l0,0c-0.9,0-1.6-0.7-1.6-1.6V6.1c0-0.9,0.7-1.6,1.6-1.6l0,0
			l0,0c0.9,0,1.6,0.7,1.6,1.6V26.7z"/>
	</g>
	<path id="Path_6962" class="st2" d="M137.9,117.6h-11.6v-11.6h-9.1v11.6h-11.6v9.1h11.6v11.7h9.1v-11.7h11.6V117.6z"/>
	<path id="Path_6963" class="st8" d="M141.6,57.5v-8.8h-15.1c0.5,2,1.2,3.9,2,5.7c9.4,16.6,34.8,86.6-39.5,119.3
		c2.3,1.5,4.9,2.3,7.6,2.3h50.5c7.9,0,14.2-6.4,14.2-14.3c0,0,0,0,0,0V82.7L141.6,57.5z"/>
	<path id="Path_6964" class="st8" d="M141.6,57.5v-8.8h-11.5c23,30.6,35.1,80-19.6,115.8c-6.8,4.4-14.3,7.4-22.2,8.8
		c2.4,1.8,5.3,2.7,8.3,2.7h50.5c7.9,0,14.2-6.4,14.2-14.3V82.7L141.6,57.5z"/>
	<path id="Path_6965" class="st1" d="M110.6,182.5c0,5.1,33.3,9.3,74.4,9.3s74.4-4.2,74.4-9.3c0-5.1-33.3-9.3-74.4-9.3
		S110.6,177.4,110.6,182.5z"/>
	<path id="Path_6966" class="st1" d="M83.4,176c0,2.7,17.2,4.8,38.4,4.8s38.4-2.1,38.4-4.8c0-2.7-17.2-4.8-38.4-4.8
		S83.4,173.4,83.4,176z"/>
	<path id="Path_6967" class="st2" d="M215.5,137.4H204v43.7h11.4c2.1,0,3.8-1.7,3.8-3.8v-36C219.3,139.1,217.6,137.4,215.5,137.4
		L215.5,137.4z"/>
	<rect id="Rectangle_411" x="204" y="137.4" class="st9" width="1.5" height="43.7"/>
	<path id="Path_6968" class="st5" d="M177.5,181.1c-3,0-5.5-2.4-5.5-5.5v-32.8c0-3,2.5-5.5,5.5-5.5h72.9c3,0,5.5,2.4,5.5,5.5
		c0,0,0,0,0,0v32.8c0,3-2.5,5.5-5.5,5.5L177.5,181.1z"/>
	<path id="Path_6969" class="st10" d="M241.1,149.7v4.6c0,1.4,1.2,2.6,2.6,2.6c1.4,0,2.6-1.2,2.6-2.6c0,0,0,0,0,0v-4.6H241.1z"/>
	<path id="Path_6970" class="st2" d="M246.3,149.8v-4.5c0-1.4-1.2-2.6-2.6-2.6c-1.4,0-2.6,1.2-2.6,2.6c0,0,0,0,0,0v4.5H246.3z"/>
	<path id="Path_6971" class="st10" d="M241.1,168.6v4.6c0,1.4,1.2,2.6,2.6,2.6c1.4,0,2.6-1.2,2.6-2.6c0,0,0,0,0,0v-4.6H241.1z"/>
	<path id="Path_6972" class="st2" d="M246.3,168.7v-4.5c0-1.4-1.2-2.6-2.6-2.6c-1.4,0-2.6,1.2-2.6,2.6c0,0,0,0,0,0v4.5H246.3z"/>
	<path id="Path_6973" class="st10" d="M229.2,149.7v4.6c0.1,1.4,1.3,2.5,2.7,2.5c1.3-0.1,2.4-1.1,2.5-2.5v-4.6H229.2z"/>
	<path id="Path_6974" class="st2" d="M234.4,149.8v-4.5c-0.1-1.4-1.3-2.5-2.7-2.5c-1.3,0.1-2.4,1.1-2.5,2.5v4.5H234.4z"/>
	<path id="Path_6975" class="st10" d="M229.2,168.6v4.6c0.1,1.4,1.3,2.5,2.7,2.5c1.3-0.1,2.4-1.1,2.5-2.5v-4.6H229.2z"/>
	<path id="Path_6976" class="st2" d="M234.4,168.7v-4.5c-0.1-1.4-1.3-2.5-2.7-2.5c-1.3,0.1-2.4,1.1-2.5,2.5v4.5H234.4z"/>
	<path id="Path_6977" class="st10" d="M217.3,149.7v4.6c0,1.4,1.2,2.6,2.7,2.5c1.4,0,2.5-1.1,2.5-2.5v-4.6H217.3z"/>
	<path id="Path_6978" class="st2" d="M222.5,149.8v-4.6c0-1.4-1.2-2.6-2.7-2.5c-1.4,0-2.5,1.1-2.5,2.5v4.5L222.5,149.8z"/>
	<path id="Path_6979" class="st10" d="M217.3,168.6v4.6c0,1.4,1.2,2.6,2.7,2.5c1.4,0,2.5-1.1,2.5-2.5v-4.6H217.3z"/>
	<path id="Path_6980" class="st2" d="M222.5,168.7v-4.5c0-1.4-1.2-2.6-2.7-2.5c-1.4,0-2.5,1.1-2.5,2.5v4.5H222.5z"/>
	<path id="Path_6981" class="st10" d="M205.4,149.7v4.6c0,1.4,1.2,2.6,2.7,2.5c1.4,0,2.5-1.2,2.5-2.5v-4.6H205.4z"/>
	<path id="Path_6982" class="st2" d="M210.6,149.8v-4.5c0-1.4-1.2-2.6-2.7-2.5c-1.4,0-2.5,1.2-2.5,2.5v4.5H210.6z"/>
	<path id="Path_6983" class="st10" d="M205.4,168.6v4.6c0,1.4,1.2,2.6,2.7,2.5c1.4,0,2.5-1.2,2.5-2.5v-4.6H205.4z"/>
	<path id="Path_6984" class="st2" d="M210.6,168.7v-4.5c0-1.4-1.1-2.6-2.5-2.7c-1.4,0-2.6,1.1-2.7,2.5c0,0,0,0.1,0,0.1v4.5H210.6z"
		/>
	<path id="Path_6985" class="st10" d="M193.5,149.7v4.6c0,1.4,1.2,2.6,2.6,2.6c1.4,0,2.6-1.2,2.6-2.6l0,0v-4.6H193.5z"/>
	<path id="Path_6986" class="st2" d="M198.7,149.8v-4.5c0-1.4-1.2-2.6-2.6-2.6c-1.4,0-2.6,1.2-2.6,2.6v4.5H198.7z"/>
	<path id="Path_6987" class="st10" d="M193.5,168.6v4.6c0,1.4,1.2,2.6,2.6,2.6c1.4,0,2.6-1.2,2.6-2.6v-4.6H193.5z"/>
	<path id="Path_6988" class="st2" d="M198.7,168.7v-4.5c0-1.4-1.2-2.6-2.6-2.6c-1.4,0-2.6,1.2-2.6,2.6v4.5H198.7z"/>
	<path id="Path_6989" class="st10" d="M181.6,149.7v4.6c0,1.4,1.2,2.6,2.6,2.6c1.4,0,2.6-1.2,2.6-2.6l0,0v-4.6H181.6z"/>
	<path id="Path_6990" class="st2" d="M186.8,149.8v-4.5c0-1.4-1.2-2.6-2.6-2.6c-1.4,0-2.6,1.2-2.6,2.6v4.5H186.8z"/>
	<path id="Path_6991" class="st10" d="M181.6,168.6v4.6c0,1.4,1.2,2.6,2.6,2.6c1.4,0,2.6-1.2,2.6-2.6v-4.6H181.6z"/>
	<path id="Path_6992" class="st2" d="M186.8,168.7v-4.5c0-1.4-1.2-2.6-2.6-2.6c-1.4,0-2.6,1.2-2.6,2.6v4.5H186.8z"/>
	<path id="Path_6993" class="st7" d="M172,175.6v-2c0.4,0,0.8,0.1,1.3,0.1c5,0.3,10.1,0.9,15.2,1c8.5,0,17.8-0.3,25.7-3.5
		c5.3-2.1,11.2-3.8,15.8-7.3c4.8-3.4,9.2-7.2,13.4-11.4c1.9-1.9,4-3.5,6-5.2c2.3-2,4.3-4.1,6.2-6.5c0.3,0.7,0.4,1.4,0.4,2.1v32.8
		c0,3-2.5,5.5-5.5,5.5h-72.9C174.5,181.1,172,178.7,172,175.6z"/>
	<path id="Path_6994" class="st7" d="M172,175.9c1.2,0.3,2.4,0.5,3.7,0.7c13.2,1.8,56,4.5,79.5-30.3c0.2-0.3,0.5-0.7,0.7-1v30.3
		c0,3-2.5,5.5-5.5,5.5h-72.9C174.6,181.1,172.1,178.8,172,175.9z"/>
	<rect id="Rectangle_412" x="114.4" y="136" class="st2" width="89.6" height="46.5"/>
	<rect id="Rectangle_413" x="124" y="136" class="st5" width="27.7" height="46.5"/>
	<path id="Path_6995" class="st2" d="M147.8,157.4h-7.2v-7.2h-5.6v7.2h-7.2v5.6h7.2v7.2h5.6V163h7.2L147.8,157.4z"/>
	<g id="Group_1035" transform="translate(125.573 112.645)">
		<rect id="Rectangle_414" x="30.7" y="27.5" class="st11" width="31.5" height="2.4"/>
		<rect id="Rectangle_415" x="30.7" y="31.6" class="st11" width="31.5" height="2.4"/>
		<rect id="Rectangle_416" x="30.7" y="35.8" class="st11" width="17" height="2.4"/>
	</g>
	<path id="Path_6996" class="st8" d="M195.3,135.9c-8.9,28-48,46.6-80.9,40.7v5.9h89.7v-46.6H195.3z"/>
	<path id="Path_6997" class="st8" d="M114.4,178.7v3.9h89.7v-36.8C185.3,179.5,120.2,179.7,114.4,178.7z"/>
</g>
</svg>
