<?xml version="1.0" encoding="utf-8"?>
<!-- Generator: Adobe Illustrator 22.1.0, SVG Export Plug-In . SVG Version: 6.00 Build 0)  -->
<svg version="1.1" id="pain_releafe" xmlns="http://www.w3.org/2000/svg" xmlns:xlink="http://www.w3.org/1999/xlink" x="0px"
	 y="0px" viewBox="0 0 248.3 200.6" style="enable-background:new 0 0 248.3 200.6;" xml:space="preserve">
<style type="text/css">
	.st0{fill:#D1EDF0;}
	.st1{opacity:0.5;fill:#BBBDBF;enable-background:new    ;}
	.st2{fill:#FFFFFF;}
	.st3{fill:#D0D2D3;}
	.st4{fill:#002723;}
	.st5{fill:#EB6841;}
	.st6{fill:none;stroke:#A6A8AB;stroke-width:0.64;stroke-miterlimit:10;}
	.st7{opacity:0.3;fill:#B93318;enable-background:new    ;}
	.st8{opacity:0.1;fill:#B93318;enable-background:new    ;}
	.st9{fill:#CCCECF;}
	.st10{fill:#E04D30;}
	.st11{fill:#BBBDBF;}
</style>
<g id="Layer_1" transform="translate(0 0)">
	<path id="background" class="st0" d="M48.3,18.3C28.9,31,10,45.2,16.9,72.3c2.5,9.9,8.2,18.8,14.3,26.9
		c8.7,11.5,12.4,24.9,3.8,37.3c-8,11.5-20.8,18-30.7,27.6c-17.1,16.6,20.2,25.5,30.8,28c10.9,2.5,22,4.2,33.1,5.7
		c38.9,5.1,79.6,4.7,116.8-8.9c15.4-5.4,29.9-12.8,43.3-22.1c8.2-5.9,18.2-13.9,19.8-24.6c1.3-8.5-4.7-22.3-11.6-27.6
		c-17-12.9-33.4-26.7-49-41.2c-12.4-11.5-22-24.1-32.1-37.5c-18.5-24.8-48.6-43-80.6-32.8C70,4.5,65.5,6.7,61.4,9.7
		C57.2,12.6,52.8,15.4,48.3,18.3z"/>
	<g>
		<path id="Path_6910" class="st1" d="M7.6,177.4c0,3.2,25.4,5.8,56.7,5.8s56.7-2.6,56.7-5.8s-25.4-5.8-56.7-5.8
			S7.6,174.2,7.6,177.4z"/>
		<path id="Path_6911" class="st2" d="M152.8,76.9l8-2.8l7.7-2.8l4.6,15.8l-15.7,5.6L152.8,76.9z"/>
		<path id="Path_6912" class="st3" d="M176,155.7l8-2.8l7.7-2.8l4.6,15.8l-15.7,5.6L176,155.7z"/>
		<path id="Path_6913" class="st4" d="M145.6,26l-0.4-7.4l2,6.8l11.9,40.4l-1.6,0.6L145.6,26z"/>
		<path id="Path_6914" class="st2" d="M151.3,83.1l11.1-3.9l10.7-3.8l22.8,77.1l-21.8,7.7L151.3,83.1z"/>
		<path id="Path_6915" class="st2" d="M174.6,170.9l13.4-4.8l13.1-4.6l1.5,5l-26.5,9.3L174.6,170.9z"/>
		<path id="Path_6916" class="st2" d="M155.3,63.2l2-0.7l2-0.7l7.6,25.7l-4,1.4L155.3,63.2z"/>
		<path id="Path_6917" class="st5" d="M172.3,145.1l16.7-6l-17.5-59.4l-2.1,0.7l-1.5-5.4l-6.2,2.4l-6.3,2.3l1.5,5.4l-2.1,0.7
			L172.3,145.1z"/>
		<g id="Group_1033" transform="translate(143.534 55.281)">
			<line id="Line_1" class="st6" x1="51" y1="93.2" x2="46.7" y2="94.7"/>
			<line id="Line_2" class="st6" x1="50.3" y1="90.6" x2="45.9" y2="92.1"/>
			<line id="Line_3" class="st6" x1="49.5" y1="88" x2="45.1" y2="89.5"/>
			<line id="Line_4" class="st6" x1="48.7" y1="85.3" x2="44.4" y2="86.9"/>
			<line id="Line_5" class="st6" x1="47.9" y1="82.7" x2="43.6" y2="84.3"/>
			<line id="Line_6" class="st6" x1="47.2" y1="80.1" x2="42.9" y2="81.7"/>
			<line id="Line_7" class="st6" x1="46.4" y1="77.6" x2="42" y2="79"/>
			<line id="Line_8" class="st6" x1="45.7" y1="75" x2="41.3" y2="76.5"/>
			<line id="Line_9" class="st6" x1="44.8" y1="72.3" x2="40.5" y2="73.9"/>
			<line id="Line_10" class="st6" x1="44.1" y1="69.7" x2="39.8" y2="71.3"/>
			<line id="Line_11" class="st6" x1="43.3" y1="67.1" x2="39" y2="68.7"/>
			<line id="Line_12" class="st6" x1="42.6" y1="64.5" x2="38.2" y2="66"/>
			<line id="Line_13" class="st6" x1="41.8" y1="62" x2="37.5" y2="63.4"/>
			<line id="Line_14" class="st6" x1="41" y1="59.4" x2="36.7" y2="60.9"/>
			<line id="Line_15" class="st6" x1="40.3" y1="56.7" x2="36" y2="58.3"/>
			<line id="Line_16" class="st6" x1="39.5" y1="54.1" x2="35.1" y2="55.7"/>
			<line id="Line_17" class="st6" x1="38.8" y1="51.5" x2="34.4" y2="53.1"/>
			<line id="Line_18" class="st6" x1="38" y1="48.9" x2="33.6" y2="50.4"/>
			<line id="Line_19" class="st6" x1="37.2" y1="46.4" x2="32.9" y2="47.8"/>
			<line id="Line_20" class="st6" x1="36.4" y1="43.7" x2="32.1" y2="45.3"/>
			<line id="Line_21" class="st6" x1="35.7" y1="41.1" x2="31.3" y2="42.7"/>
			<line id="Line_22" class="st6" x1="34.9" y1="38.5" x2="30.5" y2="40.1"/>
			<line id="Line_23" class="st6" x1="34.1" y1="35.9" x2="29.8" y2="37.4"/>
			<line id="Line_24" class="st6" x1="33.3" y1="33.3" x2="29" y2="34.8"/>
			<line id="Line_25" class="st6" x1="32.6" y1="30.7" x2="28.3" y2="32.2"/>
			<line id="Line_26" class="st6" x1="31.9" y1="28.1" x2="27.5" y2="29.7"/>
			<line id="Line_27" class="st6" x1="31.1" y1="25.5" x2="26.7" y2="27.1"/>
			<line id="Line_28" class="st6" x1="30.3" y1="22.9" x2="26" y2="24.5"/>
		</g>
		<path id="Path_6918" class="st7" d="M201,161.5l-5.4,1.9l-2.9-9.8l3-1.1L178,92.5c-2.1,6.8-5.2,13-9.2,18.6
			c-2.1,2.9-4.4,5.5-6.9,8l12.1,41.1l3-1.1l2.9,9.8l-5.3,1.9l1.5,5l26.5-9.3L201,161.5z"/>
		<path id="Path_6919" class="st7" d="M201,161.5l-5.4,1.9l-2.9-9.8l3-1.1l-16.1-54.9c-0.6,12.8-4.9,25.1-12.1,35.3
			c-0.4,0.4-0.6,0.9-1,1.4l7.6,25.9l3-1.1l2.9,9.8l-5.3,1.9l1.5,5l26.5-9.3L201,161.5z"/>
		<path id="Path_6920" class="st5" d="M106.5,176.8c5.8,0,10.6-5.2,10.6-11.5v-50.5c0-6.4-4.8-11.5-10.6-11.5H19.6
			c-5.8,0-10.6,5.2-10.6,11.5v50.5c0,6.4,4.8,11.5,10.6,11.5H106.5z"/>
		<path id="Path_6921" class="st2" d="M29,123.8c1.9-2.7,1.4-6.7-1.1-8.6l0,0c-2.5-2.1-6.1-1.5-8,1.3c-1.9,2.8-1.4,6.7,1.1,8.6l0,0
			C23.6,127.1,27.1,126.6,29,123.8z"/>
		<path id="Path_6922" class="st3" d="M27.2,114.7c0.3,0.1,0.5,0.3,0.7,0.5c0.2,0.2,0.5,0.4,0.6,0.6l-6.8,9.8
			c-0.5-0.3-0.9-0.6-1.3-1.1L27.2,114.7z"/>
		<path id="Path_6923" class="st2" d="M29,143.7c1.9-2.7,1.4-6.7-1.1-8.6l0,0c-2.5-2.1-6.1-1.5-8,1.2c-1.9,2.8-1.4,6.7,1.1,8.6l0,0
			C23.6,147,27.1,146.4,29,143.7z"/>
		<path id="Path_6924" class="st3" d="M27.2,134.4c0.3,0.1,0.5,0.3,0.7,0.5c0.2,0.2,0.5,0.4,0.6,0.6l-6.8,9.8
			c-0.5-0.3-0.9-0.6-1.3-1.1L27.2,134.4z"/>
		<path id="Path_6925" class="st2" d="M29,163.5c1.9-2.7,1.4-6.7-1.1-8.6l0,0c-2.5-2.1-6.1-1.5-8,1.3c-1.9,2.8-1.4,6.7,1.1,8.6l0,0
			C23.6,166.7,27.1,166.3,29,163.5L29,163.5z"/>
		<path id="Path_6926" class="st3" d="M27.2,154.3c0.3,0.1,0.5,0.3,0.7,0.5c0.2,0.2,0.5,0.4,0.6,0.6l-6.8,9.8
			c-0.3-0.1-0.5-0.3-0.7-0.5c-0.2-0.2-0.5-0.4-0.6-0.6L27.2,154.3z"/>
		<path id="Path_6927" class="st2" d="M48.3,123.8c1.9-2.7,1.4-6.7-1.1-8.6l0,0c-2.5-2.1-6.1-1.5-8,1.3c-1.9,2.7-1.4,6.6,1.1,8.6
			l0,0C42.8,127.1,46.4,126.6,48.3,123.8z"/>
		<path id="Path_6928" class="st3" d="M46.5,114.7c0.3,0.1,0.5,0.3,0.7,0.5c0.2,0.2,0.5,0.4,0.6,0.6l-6.8,9.8
			c-0.3-0.1-0.5-0.3-0.6-0.5c-0.2-0.2-0.5-0.4-0.6-0.6L46.5,114.7z"/>
		<path id="Path_6929" class="st2" d="M48.3,143.7c1.9-2.7,1.4-6.6-1.1-8.6c0,0,0,0-0.1,0c-2.5-2.1-6.1-1.5-8,1.2
			c-1.9,2.7-1.4,6.7,1.1,8.6l0,0C42.8,147,46.4,146.4,48.3,143.7z"/>
		<path id="Path_6930" class="st3" d="M46.5,134.4c0.3,0.1,0.5,0.3,0.7,0.5c0.2,0.2,0.5,0.4,0.6,0.6l-6.8,9.8
			c-0.3-0.1-0.5-0.3-0.6-0.5s-0.5-0.4-0.6-0.6L46.5,134.4z"/>
		<path id="Path_6931" class="st2" d="M48.3,163.5c1.9-2.7,1.4-6.7-1.1-8.6l0,0c-2.5-2.1-6.1-1.5-8,1.3c-1.9,2.7-1.4,6.6,1.1,8.6
			l0,0C42.8,166.7,46.4,166.3,48.3,163.5z"/>
		<path id="Path_6932" class="st3" d="M46.5,154.3c0.3,0.1,0.5,0.3,0.7,0.5c0.2,0.2,0.5,0.4,0.6,0.6l-6.8,9.8
			c-0.5-0.3-0.9-0.6-1.3-1.1L46.5,154.3z"/>
		<path id="Path_6933" class="st2" d="M67.6,123.8c1.9-2.7,1.4-6.6-1.1-8.6c0,0,0,0-0.1,0c-2.5-2.1-6.1-1.5-8,1.3
			c-1.9,2.7-1.4,6.6,1.1,8.6l0,0C62.1,127.1,65.7,126.6,67.6,123.8z"/>
		<path id="Path_6934" class="st3" d="M65.8,114.7c0.3,0.1,0.5,0.3,0.7,0.5c0.2,0.2,0.5,0.4,0.6,0.6l-6.8,9.8
			c-0.3-0.1-0.5-0.3-0.7-0.5c-0.2-0.2-0.5-0.4-0.6-0.6L65.8,114.7z"/>
		<path id="Path_6935" class="st2" d="M67.6,143.7c1.9-2.7,1.4-6.6-1.1-8.6c0,0,0,0-0.1,0c-2.5-2.1-6.1-1.5-8,1.2
			c-1.9,2.7-1.4,6.7,1.1,8.6l0,0C62.1,147,65.7,146.4,67.6,143.7z"/>
		<path id="Path_6936" class="st3" d="M65.8,134.4c0.3,0.1,0.5,0.3,0.7,0.5c0.2,0.2,0.5,0.4,0.6,0.6l-6.8,9.8
			c-0.3-0.1-0.5-0.3-0.7-0.5c-0.2-0.2-0.5-0.4-0.6-0.6L65.8,134.4z"/>
		<path id="Path_6937" class="st2" d="M67.6,163.5c1.9-2.7,1.4-6.7-1.1-8.6l0,0c-2.5-2.1-6.1-1.5-8,1.3c-1.9,2.7-1.4,6.6,1.1,8.6
			l0,0C62.1,166.7,65.7,166.3,67.6,163.5L67.6,163.5z"/>
		<path id="Path_6938" class="st3" d="M65.8,154.3c0.3,0.1,0.5,0.3,0.7,0.5c0.2,0.2,0.5,0.4,0.6,0.6l-6.8,9.8
			c-0.5-0.3-0.9-0.6-1.3-1.1L65.8,154.3z"/>
		<path id="Path_6939" class="st2" d="M86.9,123.8c1.9-2.7,1.4-6.6-1.1-8.6c0,0,0,0-0.1,0c-2.5-2.1-6.1-1.5-8,1.3
			c-1.9,2.7-1.4,6.6,1.1,8.6l0,0C81.4,127.1,85,126.6,86.9,123.8z"/>
		<path id="Path_6940" class="st3" d="M85.1,114.7c0.3,0.1,0.5,0.3,0.6,0.5c0.2,0.2,0.5,0.4,0.6,0.6l-6.8,9.8
			c-0.3-0.1-0.5-0.3-0.6-0.5c-0.2-0.2-0.5-0.4-0.6-0.6L85.1,114.7z"/>
		<path id="Path_6941" class="st2" d="M86.9,143.7c1.9-2.7,1.4-6.6-1.1-8.6c0,0,0,0-0.1,0c-2.5-2.1-6.1-1.5-8,1.2
			c-1.9,2.7-1.4,6.6,1.1,8.6c0,0,0,0,0.1,0C81.4,147,85,146.4,86.9,143.7z"/>
		<path id="Path_6942" class="st3" d="M85.1,134.4c0.3,0.1,0.5,0.3,0.6,0.5c0.2,0.2,0.5,0.4,0.6,0.6l-6.8,9.8
			c-0.3-0.1-0.5-0.3-0.6-0.5c-0.2-0.2-0.5-0.4-0.6-0.6L85.1,134.4z"/>
		<path id="Path_6943" class="st2" d="M86.9,163.5c1.9-2.7,1.4-6.6-1.1-8.6c0,0,0,0-0.1,0c-2.5-2.1-6.1-1.5-8,1.3
			c-1.9,2.7-1.4,6.6,1.1,8.6l0,0C81.4,166.7,85,166.3,86.9,163.5L86.9,163.5z"/>
		<path id="Path_6944" class="st3" d="M85.1,154.3c0.3,0.1,0.5,0.3,0.6,0.5c0.2,0.2,0.5,0.4,0.6,0.6l-6.8,9.8
			c-0.3-0.1-0.5-0.3-0.6-0.5c-0.2-0.2-0.5-0.4-0.6-0.6L85.1,154.3z"/>
		<path id="Path_6945" class="st2" d="M106.2,123.8c1.9-2.8,1.4-6.7-1.1-8.6l0,0c-2.5-2.1-6.1-1.5-8,1.3c-1.9,2.7-1.4,6.6,1.1,8.6
			l0,0C100.7,127.1,104.3,126.6,106.2,123.8z"/>
		<path id="Path_6946" class="st3" d="M104.3,114.7c0.3,0.1,0.5,0.3,0.7,0.5c0.2,0.2,0.5,0.4,0.6,0.6l-6.8,9.8
			c-0.3-0.1-0.5-0.3-0.7-0.5c-0.2-0.2-0.5-0.4-0.6-0.6L104.3,114.7z"/>
		<path id="Path_6947" class="st2" d="M106.2,143.7c1.9-2.7,1.4-6.7-1.1-8.6l0,0c-2.5-2.1-6.1-1.5-8,1.2c-1.9,2.7-1.4,6.7,1.1,8.6
			l0,0C100.7,147,104.3,146.4,106.2,143.7z"/>
		<path id="Path_6948" class="st3" d="M104.3,134.4c0.3,0.1,0.5,0.3,0.7,0.5c0.2,0.2,0.5,0.4,0.6,0.6l-6.8,9.8
			c-0.3-0.1-0.5-0.3-0.7-0.5c-0.2-0.2-0.5-0.4-0.6-0.6L104.3,134.4z"/>
		<path id="Path_6949" class="st2" d="M106.2,163.5c1.9-2.8,1.4-6.7-1.1-8.6l0,0c-2.5-2.1-6.1-1.5-8,1.3c-1.9,2.7-1.4,6.6,1.1,8.6
			l0,0C100.7,166.7,104.3,166.2,106.2,163.5z"/>
		<path id="Path_6950" class="st3" d="M104.3,154.3c0.3,0.1,0.5,0.3,0.7,0.5c0.2,0.2,0.5,0.4,0.6,0.6l-6.8,9.8
			c-0.3-0.1-0.5-0.3-0.7-0.5c-0.2-0.2-0.5-0.4-0.6-0.6L104.3,154.3z"/>
		<path id="Path_6951" class="st7" d="M106.5,103.1h-33c-0.5,12.9-4.8,25.2-12.1,35.4c-8.6,11.8-23.9,22.9-38.3,22.9
			c-4.7,0.5-9.4,0.4-14.1-0.4v4.2c0,6.4,4.8,11.5,10.6,11.5h86.9c5.8,0,10.6-5.2,10.6-11.5v-50.5C117,108.3,112.3,103.1,106.5,103.1
			L106.5,103.1z"/>
		<path id="Path_6952" class="st7" d="M106.5,103.1H82.2c0,14-4.4,27.5-12.2,38.5c-8.6,11.8-23.9,22.9-38.3,22.9
			c-7.6,0.8-15.3-0.1-22.7-2.7v3.4c0,6.4,4.8,11.5,10.6,11.5h86.9c5.8,0,10.6-5.2,10.6-11.5v-50.5
			C117,108.3,112.3,103.1,106.5,103.1L106.5,103.1z"/>
		<path id="Path_6953" class="st2" d="M136,67v-8.7h-35.8V67L82.3,92v78.6c0,7.9,5.7,14.1,12.9,14.2h45.8c7.2,0,12.9-6.4,12.9-14.2
			l0,0V92L136,67z"/>
		<path id="Path_6954" class="st5" d="M137.3,58.2V35.7c0-3.3-2.4-5.9-5.3-5.9l0,0h-27.8c-3,0-5.3,2.7-5.3,5.9v22.6H137.3z"/>
		<rect id="Rectangle_410" x="82.3" y="108.3" class="st5" width="71.4" height="45.8"/>
		<g id="Group_1034" transform="translate(82.522 18.476)">
			<path id="Path_6955" class="st2" d="M21.1,36.2c0,0.9-0.6,1.6-1.5,1.6l0,0c-0.8,0-1.5-0.7-1.5-1.6V15.8c0-0.9,0.6-1.6,1.5-1.6
				l0,0c0.8,0,1.5,0.7,1.5,1.6l0,0V36.2z"/>
			<path id="Path_6956" class="st2" d="M26.3,36.2c0,0.9-0.6,1.6-1.5,1.6l0,0c-0.8,0-1.5-0.7-1.5-1.6V15.8c0-0.9,0.6-1.6,1.5-1.6
				l0,0c0.8,0,1.5,0.7,1.5,1.6l0,0V36.2z"/>
			<path id="Path_6957" class="st2" d="M31.7,36.2c0,0.9-0.6,1.6-1.5,1.6l0,0c-0.8,0-1.5-0.7-1.5-1.6V15.8c0-0.9,0.6-1.6,1.5-1.6
				l0,0c0.8,0,1.5,0.7,1.5,1.6V36.2z"/>
			<path id="Path_6958" class="st2" d="M37,36.2c0,0.9-0.6,1.6-1.5,1.6l0,0c-0.8,0-1.5-0.7-1.5-1.6l0,0V15.8c0-0.9,0.6-1.6,1.5-1.6
				l0,0l0,0c0.8,0,1.5,0.7,1.5,1.6V36.2z"/>
			<path id="Path_6959" class="st2" d="M42.3,36.2c0,0.9-0.6,1.6-1.5,1.6l0,0c-0.8,0-1.5-0.7-1.5-1.6l0,0V15.8
				c0-0.9,0.6-1.6,1.5-1.6l0,0l0,0c0.8,0,1.5,0.7,1.5,1.6V36.2z"/>
			<path id="Path_6960" class="st2" d="M47.6,36.2c0,0.9-0.6,1.6-1.5,1.6l0,0c-0.8,0-1.5-0.7-1.5-1.6V15.8c0-0.9,0.6-1.6,1.5-1.6
				l0,0l0,0c0.8,0,1.5,0.7,1.5,1.6V36.2z"/>
			<path id="Path_6961" class="st2" d="M52.9,36.2c0,0.9-0.6,1.6-1.5,1.6l0,0c-0.8,0-1.5-0.7-1.5-1.6V15.8c0-0.9,0.6-1.6,1.5-1.6
				l0,0l0,0c0.8,0,1.5,0.7,1.5,1.6V36.2z"/>
		</g>
		<path id="Path_6962" class="st2" d="M132.6,126.7h-10.5v-11.5h-8.2v11.5h-10.5v9h10.5v11.6h8.2v-11.6h10.5V126.7z"/>
		<path id="Path_6963" class="st8" d="M136,67v-8.7h-13.7c0.5,2,1.1,3.9,1.8,5.7c8.5,16.5,31.5,86.1-35.8,118.6
			c2.1,1.5,4.4,2.3,6.9,2.3h45.8c7.2,0,12.9-6.4,12.9-14.2l0,0V92L136,67z"/>
		<path id="Path_6964" class="st8" d="M136,67v-8.7h-10.4c20.8,30.4,31.8,79.5-17.8,115.1c-6.2,4.4-13,7.4-20.1,8.7
			c2.2,1.8,4.8,2.7,7.5,2.7h45.8c7.2,0,12.9-6.4,12.9-14.2V92L136,67z"/>
		<path id="Path_6965" class="st1" d="M107.9,191.2c0,5.1,30.2,9.2,67.4,9.2s67.4-4.2,67.4-9.2c0-5.1-30.2-9.2-67.4-9.2
			S107.9,186.1,107.9,191.2z"/>
		<path id="Path_6966" class="st1" d="M83.2,184.7c0,2.7,15.6,4.8,34.8,4.8s34.8-2.1,34.8-4.8c0-2.7-15.6-4.8-34.8-4.8
			S83.2,182.2,83.2,184.7z"/>
		<path id="Path_6967" class="st2" d="M202.9,146.4h-10.4v43.4h10.3c1.9,0,3.4-1.7,3.4-3.8v-35.8
			C206.4,148.1,204.8,146.4,202.9,146.4L202.9,146.4z"/>
		<rect id="Rectangle_411" x="192.5" y="146.4" class="st9" width="1.4" height="43.4"/>
		<path id="Path_6968" class="st5" d="M168.5,189.8c-2.7,0-5-2.4-5-5.5v-32.6c0-3,2.3-5.5,5-5.5h66.1c2.7,0,5,2.4,5,5.5l0,0v32.6
			c0,3-2.3,5.5-5,5.5H168.5z"/>
		<path id="Path_6969" class="st10" d="M226.1,158.6v4.6c0,1.4,1.1,2.6,2.4,2.6c1.3,0,2.4-1.2,2.4-2.6l0,0v-4.6H226.1z"/>
		<path id="Path_6970" class="st2" d="M230.9,158.7v-4.5c0-1.4-1.1-2.6-2.4-2.6s-2.4,1.2-2.4,2.6l0,0v4.5H230.9z"/>
		<path id="Path_6971" class="st10" d="M226.1,177.4v4.6c0,1.4,1.1,2.6,2.4,2.6c1.3,0,2.4-1.2,2.4-2.6l0,0v-4.6H226.1z"/>
		<path id="Path_6972" class="st2" d="M230.9,177.5V173c0-1.4-1.1-2.6-2.4-2.6s-2.4,1.2-2.4,2.6l0,0v4.5H230.9z"/>
		<path id="Path_6973" class="st10" d="M215.4,158.6v4.6c0.1,1.4,1.2,2.5,2.4,2.5c1.2-0.1,2.2-1.1,2.3-2.5v-4.6H215.4z"/>
		<path id="Path_6974" class="st2" d="M220.1,158.7v-4.5c-0.1-1.4-1.2-2.5-2.4-2.5c-1.2,0.1-2.2,1.1-2.3,2.5v4.5H220.1z"/>
		<path id="Path_6975" class="st10" d="M215.4,177.4v4.6c0.1,1.4,1.2,2.5,2.4,2.5c1.2-0.1,2.2-1.1,2.3-2.5v-4.6H215.4z"/>
		<path id="Path_6976" class="st2" d="M220.1,177.5V173c-0.1-1.4-1.2-2.5-2.4-2.5c-1.2,0.1-2.2,1.1-2.3,2.5v4.5H220.1z"/>
		<path id="Path_6977" class="st10" d="M204.6,158.6v4.6c0,1.4,1.1,2.6,2.4,2.5c1.3,0,2.3-1.1,2.3-2.5v-4.6H204.6z"/>
		<path id="Path_6978" class="st2" d="M209.3,158.7v-4.6c0-1.4-1.1-2.6-2.4-2.5c-1.3,0-2.3,1.1-2.3,2.5v4.5L209.3,158.7z"/>
		<path id="Path_6979" class="st10" d="M204.6,177.4v4.6c0,1.4,1.1,2.6,2.4,2.5c1.3,0,2.3-1.1,2.3-2.5v-4.6H204.6z"/>
		<path id="Path_6980" class="st2" d="M209.3,177.5V173c0-1.4-1.1-2.6-2.4-2.5c-1.3,0-2.3,1.1-2.3,2.5v4.5H209.3z"/>
		<path id="Path_6981" class="st10" d="M193.8,158.6v4.6c0,1.4,1.1,2.6,2.4,2.5c1.3,0,2.3-1.2,2.3-2.5v-4.6H193.8z"/>
		<path id="Path_6982" class="st2" d="M198.5,158.7v-4.5c0-1.4-1.1-2.6-2.4-2.5c-1.3,0-2.3,1.2-2.3,2.5v4.5H198.5z"/>
		<path id="Path_6983" class="st10" d="M193.8,177.4v4.6c0,1.4,1.1,2.6,2.4,2.5c1.3,0,2.3-1.2,2.3-2.5v-4.6H193.8z"/>
		<path id="Path_6984" class="st2" d="M198.5,177.5V173c0-1.4-1-2.6-2.3-2.7c-1.3,0-2.4,1.1-2.4,2.5v0.1v4.5L198.5,177.5
			L198.5,177.5z"/>
		<path id="Path_6985" class="st10" d="M183,158.6v4.6c0,1.4,1.1,2.6,2.4,2.6s2.4-1.2,2.4-2.6l0,0v-4.6H183z"/>
		<path id="Path_6986" class="st2" d="M187.7,158.7v-4.5c0-1.4-1.1-2.6-2.4-2.6c-1.3,0-2.4,1.2-2.4,2.6v4.5H187.7z"/>
		<path id="Path_6987" class="st10" d="M183,177.4v4.6c0,1.4,1.1,2.6,2.4,2.6s2.4-1.2,2.4-2.6v-4.6H183z"/>
		<path id="Path_6988" class="st2" d="M187.7,177.5V173c0-1.4-1.1-2.6-2.4-2.6c-1.3,0-2.4,1.2-2.4,2.6v4.5H187.7z"/>
		<path id="Path_6989" class="st10" d="M172.2,158.6v4.6c0,1.4,1.1,2.6,2.4,2.6c1.3,0,2.4-1.2,2.4-2.6l0,0v-4.6H172.2z"/>
		<path id="Path_6990" class="st2" d="M176.9,158.7v-4.5c0-1.4-1.1-2.6-2.4-2.6s-2.4,1.2-2.4,2.6v4.5H176.9z"/>
		<path id="Path_6991" class="st10" d="M172.2,177.4v4.6c0,1.4,1.1,2.6,2.4,2.6c1.3,0,2.4-1.2,2.4-2.6v-4.6H172.2z"/>
		<path id="Path_6992" class="st2" d="M176.9,177.5V173c0-1.4-1.1-2.6-2.4-2.6s-2.4,1.2-2.4,2.6v4.5H176.9z"/>
		<path id="Path_6993" class="st7" d="M163.5,184.3v-2c0.4,0,0.7,0.1,1.2,0.1c4.5,0.3,9.2,0.9,13.8,1c7.7,0,16.1-0.3,23.3-3.5
			c4.8-2.1,10.2-3.8,14.3-7.3c4.4-3.4,8.3-7.2,12.1-11.3c1.7-1.9,3.6-3.5,5.4-5.2c2.1-2,3.9-4.1,5.6-6.5c0.3,0.7,0.4,1.4,0.4,2.1
			v32.6c0,3-2.3,5.5-5,5.5h-66.1C165.8,189.8,163.5,187.4,163.5,184.3z"/>
		<path id="Path_6994" class="st7" d="M163.5,184.6c1.1,0.3,2.2,0.5,3.4,0.7c12,1.8,50.8,4.5,72.1-30.1c0.2-0.3,0.5-0.7,0.6-1v30.1
			c0,3-2.3,5.5-5,5.5h-66.1C165.9,189.8,163.6,187.5,163.5,184.6z"/>
		<rect id="Rectangle_412" x="111.3" y="145" class="st2" width="81.2" height="46.2"/>
		<rect id="Rectangle_413" x="120" y="145" class="st5" width="25.1" height="46.2"/>
		<path id="Path_6995" class="st2" d="M141.6,166.3H135v-7.2H130v7.2h-6.5v5.6h6.5v7.2h5.1v-7.2h6.5V166.3z"/>
		<g id="Group_1035" transform="translate(125.573 112.645)">
			<rect id="Rectangle_414" x="23.7" y="36.5" class="st11" width="28.6" height="2.4"/>
			<rect id="Rectangle_415" x="23.7" y="40.5" class="st11" width="28.6" height="2.4"/>
			<rect id="Rectangle_416" x="23.7" y="44.7" class="st11" width="15.4" height="2.4"/>
		</g>
		<path id="Path_6996" class="st8" d="M184.6,144.9c-8.1,27.8-43.5,46.3-73.3,40.4v5.9h81.3v-46.3H184.6z"/>
		<path id="Path_6997" class="st8" d="M111.3,187.4v3.9h81.3v-36.6C175.6,188.2,116.6,188.4,111.3,187.4z"/>
	</g>
</g>
</svg>
