<?xml version="1.0" encoding="utf-8"?>
<!-- Generator: Adobe Illustrator 22.1.0, SVG Export Plug-In . SVG Version: 6.00 Build 0)  -->
<svg version="1.1" id="simtoms" xmlns="http://www.w3.org/2000/svg" xmlns:xlink="http://www.w3.org/1999/xlink" x="0px" y="0px"
	 viewBox="0 0 190.3 200.2" style="enable-background:new 0 0 190.3 200.2;" xml:space="preserve">
<style type="text/css">
	.st0{fill:#D1EDF0;}
	.st1{fill:#007884;}
	.st2{fill:#B04E31;}
	.st3{fill:#00A0B0;}
	.st4{fill:#A2CBF4;}
	.st5{fill:#482B0E;}
	.st6{fill:#FCAE88;}
	.st7{fill:url(#Path_7009_1_);}
	.st8{fill:#FFFFFF;}
	.st9{fill:url(#Path_7014_1_);}
	.st10{fill:#36200B;}
	.st11{fill:#EB6841;}
	.st12{opacity:0.51;fill:#EF8667;enable-background:new    ;}
	.st13{fill:#763421;}
	.st14{fill:#E6E7E8;}
	.st15{opacity:0.47;fill:#A7A9AC;enable-background:new    ;}
	.st16{fill:#66C6D0;}
	.st17{fill:#ADADAE;}
	.st18{fill:#D1D3D4;}
	.st19{opacity:0.34;fill:#BD8366;enable-background:new    ;}
	.st20{opacity:0.56;}
	.st21{fill:#F1F2F2;}
	.st22{fill:#BCBEC0;}
	.st23{fill:#BE1E2D;}
	.st24{fill:#CC333F;}
</style>
<g>
	<path id="background" class="st0" d="M39.1,53c-14.3,9.4-28.3,19.8-23.2,39.8c1.9,7.3,6.1,13.9,10.6,19.8
		c6.4,8.5,9.2,18.3,2.8,27.5c-5.9,8.5-15.4,13.3-22.6,20.3c-12.6,12.3,14.9,18.8,22.7,20.6c8,1.9,16.2,3.1,24.4,4.2
		c28.7,3.7,58.7,3.5,86.1-6.5c11.3-4,22.1-9.5,31.9-16.3c6.1-4.3,13.4-10.3,14.6-18.2c0.9-6.3-3.5-16.5-8.6-20.3
		c-12.6-9.5-24.6-19.7-36.2-30.4c-9.1-8.5-16.3-17.7-23.7-27.7c-13.7-18.3-35.8-31.7-59.5-24.2c-3.5,1.2-6.8,2.9-9.8,5
		C45.6,48.8,42.3,50.9,39.1,53z"/>
	<g id="man_cold" transform="translate(10.413 0)">
		<path id="Path_6998" class="st1" d="M60.6,75.6h30.1L77.9,93.4L60.6,75.6z"/>
		<path id="Path_6999" class="st2" d="M112.8,68.4c0,0-37.7-35.9-67.4-12.2C53,65.6,72.4,76.1,112.8,68.4z"/>
		<path id="Path_7000" class="st3" d="M62.7,74.1c0.7,0.7,1.6,1.2,2.5,1.6c2.1,0.9,4.4,1.5,6.7,1.8c1.6,0.2,3.2,0.4,4.7,0.4
			c2.1,0.1,4.2,0,6.2-0.3c4.7-0.7,8.6-2.4,9.3-5.3c1.8-10.2-4-20.1-4-20.1c-0.3,1.2-0.7,2.4-1.2,3.5c-1,2.4-2.6,4.4-4.6,6
			c-1,0.7-2.1,1.3-3.3,1.5c-2.1,0.4-4.4,0.2-6.4-0.6c-1.5-0.6-2.9-1.3-4.2-2.2c-1.8-1.2-3.5-2.6-5.1-4c-0.2,0.6-0.5,1.1-0.7,1.7
			C60.1,65.2,59.7,71.2,62.7,74.1z"/>
		<path id="Path_7001" class="st4" d="M82.5,61.7c1.8,7.2,3.1,13.8,3.1,13.8s1.9,1,4.7-1.8c1.4-4.6-0.7-11.7-3.2-18
			C86,58,84.5,60.1,82.5,61.7z"/>
		<path id="Path_7002" class="st4" d="M72.8,62.5c1.6,5.2,3,11.2,3.9,15.3c2.1,0.1,4.2,0,6.2-0.3c-0.1-4.3-1.8-9.6-3.8-14.4
			C77,63.6,74.8,63.4,72.8,62.5z"/>
		<path id="Path_7003" class="st4" d="M62.9,58c1.2,4.5,1.9,11.7,2.4,17.7c2.1,0.9,4.4,1.5,6.7,1.8c-0.2-5.6-1.8-12.2-3.3-17.1
			c-1.8-1.2-3.5-2.6-5.1-4C63.3,56.9,63.1,57.4,62.9,58z"/>
		<path id="Path_7004" class="st5" d="M80.4,9.3c0,0-0.3-8.1-7.5-8c1.4,0.6,6.1,2.6,4.6,8.1C79.3,9.3,80.4,9.3,80.4,9.3z"/>
		<path id="Path_7005" class="st5" d="M52.8,17.9c-3.2,6.4,1.2,16.2,1.2,16.2l8.7-9.2l-1.8-8.7C60.8,16.3,53.7,16.1,52.8,17.9z"/>
		<path id="Path_7006" class="st6" d="M52.5,40c0,0,0,0.1,0,0.1c0.2,1.2,0.4,2.5,0.6,3.8c0.5,2.6,1.3,5.2,2.3,7.6
			c0.3,0.7,0.6,1.4,0.9,2l0,0c0.6,1.4,1.4,2.8,2.2,4.1c4.8,7.7,11.5,12.1,17.9,10.8c6.5-1.4,11-8.3,12.1-17.5c0.1-1,0.2-2.1,0.3-3.1
			c0-0.3,0-0.7,0-1l0,0c0-0.7,0-1.5,0-2.2c-0.1-2.7-0.4-5.3-1-7.9c-0.3-1.3-0.6-2.5-0.9-3.7C83,19.3,73.5,10.1,64.6,12
			S50.8,26,52.5,40z"/>
		<path id="Path_7007" class="st5" d="M56.3,53.5L56.3,53.5c0.6,1.4,1.4,2.8,2.2,4.1c4.8,7.7,11.5,12.1,17.9,10.8
			c6.5-1.4,11-8.3,12.1-17.5c0.1-1,0.2-2.1,0.3-3.1c0,0-4.8-0.8-6.3-0.4C76.1,49.3,65.9,59.4,56.3,53.5z"/>
		<path id="Path_7008" class="st5" d="M90.1,11.4l1.3,25.3l-7.7-1.5l-11-18.2c0,0,3.2-8.9,5.5-8.9C79.7,8,90.1,11.4,90.1,11.4z"/>
		
			<linearGradient id="Path_7009_1_" gradientUnits="userSpaceOnUse" x1="-110.2617" y1="338.7527" x2="-111.3793" y2="338.7884" gradientTransform="matrix(6.1455 0 0 -13.3989 918.7748 4596.0884)">
			<stop  offset="0" style="stop-color:#F47B54"/>
			<stop  offset="0.17" style="stop-color:#F68A64"/>
			<stop  offset="0.44" style="stop-color:#FA9E78"/>
			<stop  offset="0.72" style="stop-color:#FBAA84"/>
			<stop  offset="1" style="stop-color:#FCAE88"/>
		</linearGradient>
		<path id="Path_7009" class="st7" d="M66.5,38.6c0,0,1.5,7.3,2.6,12.4C57.6,54.5,66.3,38.9,66.5,38.6L66.5,38.6z"/>
		<path id="Path_7010" class="st5" d="M69.3,31.3l0.3,1.3l-0.7,0.2l-0.3-1.4l-2.4,0.1c0,0,0,3.2,0.8,3.7c2.2,1.4,10.3-2.1,10.3-2.1
			l-0.4-1.9L69.3,31.3z"/>
		<path id="Path_7011" class="st5" d="M59.1,32.5l0.3,1.3l0.7-0.2l-0.3-1.4l2.2-0.9c0,0,1.3,2.9,0.8,3.7c-1.4,2.2-10.3,2.1-10.3,2.1
			l-0.4-1.9L59.1,32.5z"/>
		<path id="Path_7012" class="st8" d="M75.5,58.6c0,0-6.4-0.1-10.8,1.7C65.9,57.9,69.9,53.1,75.5,58.6z"/>
		<path id="Path_7013" class="st6" d="M91.8,39c-1,4.2-3.8,7.1-6.2,6.5c-2.4-0.6-3.5-4.4-2.5-8.6s3.8-7.1,6.2-6.5
			C91.7,31,92.9,34.8,91.8,39z"/>
		
			<linearGradient id="Path_7014_1_" gradientUnits="userSpaceOnUse" x1="-126.5445" y1="329.1735" x2="-126.4992" y2="328.1331" gradientTransform="matrix(4.1226 0 0 -7.0893 609.9432 2376.0859)">
			<stop  offset="0" style="stop-color:#F47B54"/>
			<stop  offset="1" style="stop-color:#FCAE88"/>
		</linearGradient>
		<path id="Path_7014" class="st9" d="M86.1,34.7c0,0,8-2.8,1.3,6.4C87.2,39.8,90.3,37.8,86.1,34.7z"/>
		<path id="Path_7015" class="st5" d="M50.5,18.1c0.9-0.5,14.1,1.6,22.1-0.4c1.3-0.3,2.5-0.7,3.6-1.4c0.1-0.1,0.3-0.2,0.4-0.3
			c1.1-0.8,1.9-1.9,2.2-3.3c0-0.1,0-0.2,0-0.3c0.2-1.8-0.1-3.6-0.8-5.2c0,0-10.5-13.5-19.9-3.8c-0.6,0.6-1.1,1.2-1.6,1.9
			c-1.2,1.7-2.2,3.4-3.1,5.3c-0.1,0.3-0.3,0.6-0.4,0.9C52.3,13.1,51.1,16.4,50.5,18.1z"/>
		<path id="Path_7016" class="st10" d="M56.4,5.4c4.6-0.9,12-0.7,20.9,6.3c0.5,0.4,0.9,0.7,1.4,1.1c0-0.1,0-0.2,0-0.3
			c-0.4-0.4-0.8-0.8-1.3-1.2c-4.3-3.9-12-9.3-19.4-7.8C57.4,4.1,56.9,4.8,56.4,5.4z"/>
		<path id="Path_7017" class="st10" d="M52.9,11.7c3.5-1.3,11.6-3.3,22.2,3.9c0.4,0.2,0.7,0.5,1.1,0.8c0.1-0.1,0.3-0.2,0.4-0.3
			c-0.3-0.3-0.7-0.6-1.1-0.9c-5.5-4.5-14.3-9.5-22.1-4.5C53.2,11,53.1,11.3,52.9,11.7z"/>
		<path id="Path_7018" class="st10" d="M72.6,17.7c1.3-0.3,2.5-0.7,3.6-1.4c0.1-0.1,0.3-0.2,0.4-0.3c1.1-0.8,1.9-1.9,2.2-3.3
			c0-0.1,0-0.2,0-0.3c0.2-1.8-0.1-3.6-0.8-5.2c0.1,1.4-0.1,2.7-0.5,4c0,0.1-0.1,0.3-0.1,0.4c-0.4,1.3-1,2.4-1.9,3.5
			c-0.1,0.1-0.2,0.3-0.4,0.4C74.4,16.4,73.5,17.2,72.6,17.7z"/>
		<path id="Path_7019" class="st5" d="M76.1,37.8c0,0-5.9-4.2-7.2,1.2C69.6,38.5,70.5,36,76.1,37.8z"/>
		<path id="Path_7020" class="st5" d="M55.2,42c0,0,4.1-6.1,7.2-1.5C61.5,40.3,59.8,38.4,55.2,42z"/>
		<path id="Path_7021" class="st11" d="M76.7,85.6c0,0-20.5-42.5-39.4-27.6s-56.6,70.9-16.4,93.5s4.1,22.8,23.3,34.1
			c19.2,11.3,42.4-2.2,56.3-27.2S76.7,85.6,76.7,85.6z"/>
		<path id="Path_7022" class="st12" d="M100.5,158.4c-2.3,4.2-5,8.1-8,11.9c-11.5-21.2-22.1-44.1-41-29.5
			c-13.3,10.3-34.5-6.1-48.5-17.9C2.3,98,24.2,68.3,37.2,58c3.4-2.9,7.9-3.9,12.2-2.7c14.6,4,27.2,30.3,27.2,30.3
			S114.5,133.4,100.5,158.4z"/>
		<path id="Path_7023" class="st12" d="M94.8,114.5c-1.8,3-3.7,5.8-5.9,8.5c-10.5-19.2-20-40-37.1-26.7c-10.1,7.8-25-1.2-37.1-10.6
			c7.1-12.1,16-22.4,22.6-27.6c18.9-14.9,39.4,27.6,39.4,27.6C83.6,94.7,89.7,104.3,94.8,114.5z"/>
		<path id="Path_7024" class="st13" d="M100.5,158.4c-14,25-37.1,38.5-56.3,27.2c-15.4-9,4.6-11-7.3-23c5,1.1,8.7,3.7,8.6,11.2
			c-0.2,10.8,4.3,4.8,17.7,2.3s20.4-45.8,18.9-68.4C80.7,87,53.6,59.4,49.5,55.3c14.6,4,27.2,30.3,27.2,30.3
			S114.5,133.4,100.5,158.4z"/>
		<g id="cup" transform="translate(9.509 95.689)">
			<path id="Path_7025" class="st14" d="M3.9-0.6l0.4,4.1L7.1,29l0.3,2.9h12.8l0.3-2.9l3.2-29.5H3.9z"/>
			<path id="Path_7026" class="st3" d="M2.7-0.6C2.7,1,4,2.3,5.5,2.3c0,0,0,0,0,0h16.6c1.6,0,2.8-1.3,2.8-2.8c0,0,0,0,0,0l0,0
				c0-1.6-1.3-2.8-2.8-2.8H5.5C4-3.4,2.7-2.1,2.7-0.6z"/>
			<path id="Path_7027" class="st15" d="M4.4,3.5L7.1,29l0.3,2.9h12.5C10.7,24.8,5.8,8.8,4.4,3.5z"/>
			<path id="Path_7028" class="st3" d="M7.1,29l0.3,2.9h12.8l0.3-2.9H7.1z"/>
			<path id="Path_7029" class="st16" d="M14.5-2.3c0,0.3,0.2,0.5,0.5,0.5h0h6.6c0.3,0,0.5-0.2,0.5-0.5l0,0l0,0
				c0-0.3-0.2-0.5-0.5-0.5h0H15C14.7-2.8,14.5-2.6,14.5-2.3L14.5-2.3L14.5-2.3z"/>
			<path id="Path_7030" class="st17" d="M13.6,28.1c0,1.4,1.4,2.5,3.1,2.5l0,0c1.7,0,3.1-1.1,3.1-2.5V6.7c0-1.4-1.4-2.5-3.1-2.5l0,0
				c-1.7,0-3.1,1.1-3.1,2.5V28.1z"/>
			<path id="Path_7031" class="st18" d="M14.1,27.6c0,1.4,1.4,2.5,3.1,2.5l0,0c1.7,0,3.1-1.1,3.1-2.5V6.2c0-1.4-1.4-2.5-3.1-2.5l0,0
				c-1.7,0-3.1,1.1-3.1,2.5V27.6z"/>
		</g>
		<path id="Path_7032" class="st6" d="M35.4,124l1.1,0.9c0,0,0,0,0,0c41.6,31.4,52.7,26.9,53.2,19.8c0-0.8,0-1.5-0.2-2.3
			C84,116,38.1,115.4,38.1,115.4S37.5,116.2,35.4,124z"/>
		<path id="Path_7033" class="st6" d="M40.5,117.9c0,0-8.1-13.2-9-16.2c-1.6-0.6-1.8,2.6-1.8,2.6l0.7,4.2l-8.9-2.3l0.3,14.4
			c0,0,9,5.3,14.5,4C41.4,122.1,40.5,117.9,40.5,117.9z"/>
		<path id="Path_7034" class="st6" d="M21.5,106.2c0,0-3.1-1.3-4-0.7c-0.5,0.4-0.5,2.1-0.2,2.6c0.6,0.9,4.5,2,4.5,2L21.5,106.2z"/>
		<path id="Path_7035" class="st6" d="M21.6,110.2c0,0-3.1-1.3-4-0.7c-0.5,0.4-0.5,2.1-0.2,2.6c0.6,0.9,4.5,1.6,4.5,1.6L21.6,110.2z
			"/>
		<path id="Path_7036" class="st6" d="M22.1,114.2c0,0-2.8-1.2-3.6-0.6c-0.5,0.3-0.5,1.9-0.1,2.4c0.5,0.8,4,1.5,4,1.5L22.1,114.2z"
			/>
		<path id="Path_7037" class="st6" d="M22.7,117.6c0,0-2.8-1.2-3.6-0.6c-0.5,0.4-0.5,1.9-0.1,2.4c0.5,0.8,4,1.5,4,1.5L22.7,117.6z"
			/>
		<path id="Path_7038" class="st19" d="M36.6,124.8c41.6,31.4,52.7,26.9,53.2,19.8C74.2,148.3,40.2,127.1,36.6,124.8z"/>
		<g id="smoke" transform="translate(2.388 53.24)" class="st20">
			<path id="Path_7039" class="st21" d="M19.8,37.6c0,0,8.9-21.3,8.8-32c-0.1-7.6-0.8-10.3-6.7-4c-5.3,5.6-9,30-18.9,26.9
				c5.2,7.5,12.8-10.5,14.7-13.3C30-3,19.8,37.6,19.8,37.6z"/>
		</g>
		<path id="Path_7040" class="st11" d="M88.7,68.3c0,0-69.7,68.1-24.6,108.8c9.9,12.9,27.3,25.8,37,22.6s13.1-31,21.5-38.4
			c8.4-7.4,30.2,34.1,21.8-23.9C136,79.4,111.8,31.8,88.7,68.3z"/>
		<path id="Path_7041" class="st12" d="M143.3,130c-5.1,2.2-15.5-11.9-20.7-7.3c-8.4,7.4-11.9,35.2-21.5,38.4s-27.1-9.7-36.9-22.6
			c-4.9-4.3-8.8-9.5-11.5-15.5c9.9-29.2,36.1-54.8,36.1-54.8C110.8,33.4,133.9,75.5,143.3,130z"/>
		<path id="Path_7042" class="st12" d="M134.5,94.1c-4.5,1.1-13-10.2-17.3-6.4c-7.2,6.4-10.2,30.2-18.5,33
			c-8.3,2.8-23.2-8.3-31.7-19.4c-0.9-0.8-1.7-1.6-2.5-2.5c7-11,15.1-21.3,24.2-30.6C105.5,41.7,123,59.8,134.5,94.1z"/>
		<path id="Path_7043" class="st2" d="M107.4,193.1c-1.8,3.3-3.9,5.7-6.4,6.6c-9.6,3.2-27.1-9.7-37-22.6
			C19,136.4,88.7,68.3,88.7,68.3c7.2-11.4,14.6-14.6,21.6-11.7c-8.2,0.3-15.1,8.7-19.8,15.3c-4.6,6.6-8.7,13.7-14.2,19.7
			c-5,5.5-9,11.1-10.9,18.3c-2.1,7.9-5.6,15.5-7.3,23.4c-4.1,19.3,3.3,42.8,19.6,54.6c5.6,4,12.5,8.7,19.7,9
			C101.1,197.1,104.7,195.7,107.4,193.1z"/>
		<g id="thermometer" transform="translate(39.096 59.366)">
			<path id="Path_7044" class="st14" d="M20.7,6.8c0.8-0.5,1.1-1.6,0.7-2.5l0,0c-0.7-0.7-1.8-0.8-2.5-0.2L2.5,14.6
				c-1,0.7-1.1,2.1-0.4,3.1c0,0,0,0,0,0l0,0c0.6,1,2,1.4,3,0.7c0,0,0,0,0,0L20.7,6.8z"/>
			<path id="Path_7045" class="st14" d="M19.6,7L19.6,7l8.8-6.5l1.1-0.8c0.7-0.6,1.2-1.3,1-1.6c-0.1-0.2-0.4-0.2-0.7-0.1
				C29.4-2,29-1.8,28.7-1.6l-1.2,0.7l-9.2,5.9c-0.8,0.5-1.1,1.4-0.8,1.9S18.8,7.5,19.6,7z"/>
			<path id="Path_7046" class="st8" d="M28.4,0.4l1.1-0.8c0.7-0.6,1.2-1.3,1-1.6c-0.1-0.2-0.4-0.2-0.7-0.1C29.4-2,29-1.8,28.7-1.6
				l-1.2,0.7L28.4,0.4z"/>
			<path id="Path_7047" class="st22" d="M11.6,12.5c0.5-0.4,0.6-1.1,0.3-1.6c0,0,0,0,0,0l0,0c-0.4-0.5-1.1-0.6-1.6-0.3c0,0,0,0,0,0
				l-5.9,4.1c-0.5,0.4-0.6,1.1-0.3,1.6l0,0c0.4,0.5,1.1,0.6,1.6,0.3c0,0,0,0,0,0L11.6,12.5z"/>
			
				<rect id="Rectangle_417" x="8.4" y="11.7" transform="matrix(0.8214 -0.5703 0.5703 0.8214 -5.3605 7.7474)" class="st23" width="2.5" height="1.4"/>
		</g>
	</g>
	<path id="Path_7048" class="st24" d="M44.3,31.7c-1.7-2.3-3-4.9-4-7.6c-0.8-2.6-0.9-5.6-2.4-7.9l0.8-0.5c1.6,2.5,1.7,5.5,2.5,8.2
		c1,2.6,2.3,5.1,3.9,7.3L44.3,31.7z"/>
	<path id="Path_7049" class="st24" d="M47.2,30.5c-1.7-2.3-3-4.9-4-7.6c-0.8-2.6-0.9-5.5-2.4-7.9l0.8-0.5c1.6,2.5,1.7,5.5,2.5,8.2
		c1,2.6,2.3,5.1,3.9,7.3L47.2,30.5z"/>
	<path id="Path_7050" class="st24" d="M50.1,29.3c-1.7-2.3-3-4.9-4-7.6c-0.8-2.6-0.9-5.6-2.4-7.9l0.8-0.5c1.6,2.5,1.7,5.5,2.5,8.2
		c1,2.6,2.3,5.1,3.9,7.3L50.1,29.3z"/>
	<path id="Path_7051" class="st24" d="M115.9,50.1c0.4-2.8,1.2-5.6,2.4-8.2c1.2-2.4,3.2-4.6,3.8-7.4l1,0.2c-0.6,2.9-2.6,5.2-3.9,7.6
		c-1.1,2.5-1.9,5.2-2.3,8L115.9,50.1z"/>
	<path id="Path_7052" class="st24" d="M118.8,51.2c0.4-2.8,1.2-5.6,2.4-8.2c1.2-2.4,3.2-4.6,3.8-7.4l1,0.2c-0.6,2.9-2.6,5.2-3.9,7.6
		c-1.1,2.5-1.9,5.2-2.3,8L118.8,51.2z"/>
	<path id="Path_7053" class="st24" d="M121.7,52.4c0.4-2.8,1.2-5.6,2.4-8.2c1.2-2.4,3.2-4.6,3.8-7.4l1,0.2c-0.6,2.9-2.6,5.2-3.9,7.6
		c-1.1,2.5-1.9,5.2-2.3,8L121.7,52.4z"/>
</g>
</svg>
