<?xml version="1.0" encoding="utf-8"?>
<!-- Generator: Adobe Illustrator 22.1.0, SVG Export Plug-In . SVG Version: 6.00 Build 0)  -->
<svg version="1.1" id="heavy_weight" xmlns="http://www.w3.org/2000/svg" xmlns:xlink="http://www.w3.org/1999/xlink" x="0px"
	 y="0px" viewBox="0 0 202.4 200.5" style="enable-background:new 0 0 202.4 200.5;" xml:space="preserve">
<style type="text/css">
	.st0{fill:#D1EDF0;}
	.st1{fill:#EF957D;}
	.st2{fill:#FCC6A2;}
	.st3{fill:#7E3422;}
	.st4{fill:#FFFFFF;}
	.st5{fill:#4385F5;}
	.st6{fill:#6B2618;}
	.st7{fill:#C12D25;}
	.st8{fill:#AF1714;}
	.st9{fill:#ABAFB2;}
	.st10{fill:#8CDFF2;}
</style>
<g>
	<g>
		<g>
			<path id="background_1_" class="st0" d="M39.3,51.8c-15.8,10.4-31.2,22-25.6,44.1c2,8.1,6.7,15.3,11.7,21.9
				c7.1,9.4,10.1,20.3,3.2,30.4c-6.5,9.4-16.9,14.7-25,22.4c-14,13.6,16.4,20.8,25.1,22.8c8.9,2,18,3.5,26.9,4.6
				c31.7,4.2,64.9,3.9,95.2-7.2c12.5-4.4,24.4-10.5,35.3-18.1c6.7-4.8,14.8-11.3,16.1-20.1c1-6.9-3.9-18.2-9.5-22.4
				c-13.9-10.5-27.2-21.7-40-33.6c-10.1-9.4-18-19.6-26.1-30.6c-15-20.3-39.5-35.1-65.6-26.8c-3.9,1.3-7.5,3.2-10.9,5.5
				C46.6,47.1,43,49.5,39.3,51.8z"/>
		</g>
	</g>
	<g>
		<g>
			<g>
				<g>
					<g>
						<g>
							<g>
								<g>
									<path class="st1" d="M98.8,96.2c-1.7-0.2-3-0.4-4.1-0.6V80.7c0-2.4,2-4.4,4.4-4.4h6.5c2.4,0,4.4,2,4.4,4.4v10.6
										C108,93.5,104.1,96.8,98.8,96.2z"/>
								</g>
								<g>
									<path class="st2" d="M105.5,105.8H99c-2.4,0-4.4-2-4.4-4.4v-5.8c1.1,0.2,2.4,0.4,4.1,0.6c5.3,0.6,9.2-2.7,11.1-4.9v10.1
										C109.9,103.8,108,105.8,105.5,105.8z"/>
								</g>
							</g>
							<g>
								<path class="st2" d="M58.3,50.3c0,22.2,13.7,39.3,29.9,39.3c15.9,0,38.7-15.6,38.7-37.8s-16.5-40.3-36.8-40.3
									C69.8,11.6,58.3,28.1,58.3,50.3z"/>
							</g>
							<g>
								<path class="st3" d="M98.8,27.8c0,0-11.3,7-27.4,6.9c-16-0.1-27.6,5-27.6,5s7.6-9.5,11-12.8C44,24.5,40.5,14.4,40.5,14.4
									S46,18.7,62.8,12C79.7,5.3,89.6-4.1,100.6,1.9c7,3.9,12.6,10.1,12.6,10.1s17-6.8,22,19.8c3.1,16.8-5.8,31-13.2,41.5
									c-3.3,4.7-5.4,11.8-5.4,11.8s-3.5-9.9-1.4-16.9c4.7-6.6,5.5-14,3.1-17.9c-4.2-6.8-6.6-1.4-10.1,0.6
									C98.8,41.8,98.8,27.8,98.8,27.8z"/>
							</g>
							<g>
								<path class="st1" d="M109.9,54.3c0,0,5-6,6.4,0.5s-4.1,8.2-4.1,8.2L109.9,54.3z"/>
							</g>
							<g>
								<path class="st1" d="M72.2,67.7c1.1,1.1,3.8,2.3,6.6,1.6c2.2-0.5,2.9,1.2,0.4,2.3c-2.2,0.9-5.5,0.7-7-0.7
									C70.3,69,70.7,66,72.2,67.7z"/>
							</g>
							<g>
								<path class="st1" d="M96.7,45.6c0,0-1.4,2.7-1.5,4.3s0.1,4.4,0.1,4.4l-10.7-0.9c0,0-2.8-8.6-3-13.7c2.2,2.4,4.2,5.2,7.5,5.8
									C92.5,46.3,96.7,45.6,96.7,45.6z"/>
							</g>
							<g>
								<path class="st1" d="M72.7,41c0,0,0.4,5.8-1.2,11.6s-5.2,2-5.2,2S64.1,48,62.4,46C66.8,45.9,72.7,41,72.7,41z"/>
							</g>
							<g>
								<g>
									<path class="st4" d="M97.1,56.7c0,0-2.4-5.2-5.5-6.2c-3-1.1-4.1-1.8-5.9-1.2c-1.7,0.6-3.5,2.5-2,5.9
										c1.5,3.3,5.4,3.4,7.9,3.4C94.1,58.5,97.1,56.7,97.1,56.7z"/>
								</g>
								<g>
									<path class="st5" d="M85.6,54.5c0,1.8,1.5,3.2,3.2,3.2c1.8,0,3.2-1.5,3.2-3.2s-1.5-3.2-3.2-3.2
										C87,51.3,85.6,52.7,85.6,54.5z"/>
								</g>
								<g>
									<path class="st6" d="M83.5,49.8c5.3-4,12.4,2.4,14.4,7c-1.2,1.5-4,2.1-5.3,2.1c-1.4,0-0.4-0.6,0-0.7
										c2.3-0.3,3.4-0.8,4.1-1.6c-2.5-4.5-8.1-8.5-12.9-6.2C83.5,50.6,83.2,50,83.5,49.8z"/>
								</g>
								<g>
									<path class="st6" d="M87.2,54.5c0,0.9,0.7,1.6,1.6,1.6s1.6-0.7,1.6-1.6c0-0.9-0.7-1.6-1.6-1.6C87.9,53,87.2,53.7,87.2,54.5
										z"/>
								</g>
								<g>
									<path class="st4" d="M87.6,53c0,0.7,0.6,1.2,1.2,1.2c0.7,0,1.2-0.6,1.2-1.2c0-0.7-0.6-1.2-1.2-1.2
										C88.1,51.7,87.6,52.3,87.6,53z"/>
								</g>
							</g>
							<g>
								<g>
									<path class="st4" d="M71.6,49.8c0,0,1.7,1.3,1.3,4.4s-2.8,4.4-5.6,3.6c-2.8-0.8-4.9-2.7-4.9-2.7s1-3.3,3.4-4.6
										C68.2,49.2,69.9,48.7,71.6,49.8z"/>
								</g>
								<g>
									<circle class="st5" cx="69" cy="54.5" r="3.2"/>
								</g>
								<g>
									<circle class="st6" cx="69" cy="54.5" r="1.6"/>
								</g>
								<g>
									<circle class="st4" cx="69.6" cy="53" r="1.2"/>
								</g>
								<g>
									<path class="st6" d="M65.2,50.3c1.2-1.1,2.6-1.7,4.3-1.6c0.9,0.1,2.1,0.4,2.8,1.1c0.5,0.5,0.3,0.9-0.4,0.5
										c-0.5-0.2-3.1-1.4-5.3,0.2c-1.1,0.8-3,2.8-3.4,4.1c0.7,1.4,1.1,1.5,2.2,2.1c0.5,0.2,0.3,0.8-0.2,0.6
										c-1.6-0.6-2.8-1.5-2.9-2.8C62.7,52.7,64,51.4,65.2,50.3z"/>
								</g>
							</g>
							<g>
								<path class="st6" d="M79.4,39.6c0.6,0.6,1.2,1.1,1.8,1.5l0,0c-0.8-1.1-1.5-3.3-1.7-4.6c1.9,1.8,4.7,5,7.1,6.6
									c1.6,1,3.5,1.6,5.5,1.8c2.3,0.2,4.8,0.2,7.1-0.2c0.5-0.1,0.7,0.3,0.3,0.6c-3.3,2-8,1.3-11.2,0.8
									C84.3,45.4,81.4,44.2,79.4,39.6z"/>
							</g>
							<g>
								<path class="st6" d="M60.5,45.8c1.2-0.1,2.7-0.5,4.9-1.3c3.2-1.2,7.4-6.7,7.3-6.6c0,0-0.4,2.4-1.2,3.1
									c0.4-0.2,1.3-0.8,2-1.1c-0.9,2.8-4.2,5.6-7.6,6.4c-1.6,0.4-4.8,0.6-5.5,0.3C60.3,46.3,60,45.9,60.5,45.8z"/>
							</g>
						</g>
						<g>
							<path class="st2" d="M150.4,181.4c0,0,2.3,7.6,2.3,11.4c0,3.9-7.3,8.2-10.5,7.8s-7.6-2.4-6.3-8c0.7-3,4.1-7.8,4.1-7.8
								L150.4,181.4z"/>
						</g>
						<g>
							<g>
								<path class="st7" d="M122.5,116c0,0-4.7,12.3-3.5,24.8s5.3,27.2-3.3,33c-8.1,5.5-23.5,7.4-41.7-1.9
									c0.7-3.7,1.4-7.4,1.9-10.1c3.1-20.4,2.3-23.5,2.5-32.3c-3,7.1-6.9,12.9-10.6,16.1c-3.8,3.3-9,2.2-11.1-1.7
									c-7.7-14.6,15.7-36.4,19.2-39.4c6.9-5.7,15.5-7.9,18.8-7.3c-0.7,4.8,10.8,8.6,15.2-0.1c0,0,14.3,2.6,19.6,8.5
									c7.4,8.2,16.6,37.6,17.4,40.8c1.4,5.9,5.4,29.5,5.7,38.9c-2,2.4-5.7,2.7-9.2,2.4c-0.7-8.9-2-22.8-4-31.1
									C136.4,143.8,122.5,116,122.5,116z"/>
							</g>
							<g>
								<path class="st8" d="M133.7,156.9c-1.6-9.2-4.2-14.9-8.7-23.6c2,9.2,2.9,39.2,0.2,62c0,0-10.8,5.1-25.2,5.1
									c-24.1,0-30.1-7.5-30.1-7.5c0.1-1.3,2.8-14,4.3-21.1c18.2,9.3,33.6,7.4,41.7,1.9c8.6-5.8,4.5-20.4,3.3-33
									c-1.2-12.5,3.5-24.8,3.5-24.8s13.9,27.8,17,40.6c2,8.2,3.3,22.2,4,31.1c-2.2-0.1-4.2-0.5-5.7-0.6
									C137.6,176.3,134.6,162.1,133.7,156.9z"/>
							</g>
						</g>
					</g>
					<g>
						<path class="st1" d="M76.4,79.4c1.5-1.4,4.1-1.8,6-1.6c2.5,0.3,4.7,1.4,6.8,3.6c0.8,0.9-0.1,1.9-1.1,1.2
							c-3.9-2.6-8-2.6-11.1-2.1C76.1,80.6,75.6,80.1,76.4,79.4z"/>
					</g>
					<g>
						<path class="st2" d="M84,98.3c-2.2,2.9-0.7,4.9-4.6,9.2c-3.9,4.4-6.5,6.9-6.5,6.9l-5.4-5.6c0,0,3.7-7.9,6.3-12.7
							c2.6-4.8,9.8-5.8,11.8-5.5C87.8,91,87.2,94,84,98.3z"/>
					</g>
					<g>
						<path class="st7" d="M66.9,108l7.9,7.6c0,0-4,25.5-6.4,28.6c-2.4,3.1-5.7,4.7-10.1,3.5c-3.8-1-7.6-3.2-5.4-13
							C54.9,124.9,66.9,108,66.9,108z"/>
					</g>
					<g>
						<polygon class="st9" points="140.5,115.5 151.8,108.9 149.9,118.6 160.9,121.7 148.2,128.6 152,122.4 143.8,121.7 
							146.7,115.5 						"/>
					</g>
					<g>
						<polygon class="st9" points="62.3,103.8 51.1,97.1 53,106.9 42,110 54.7,116.9 50.9,110.7 59.1,110 56.2,103.8 						"/>
					</g>
				</g>
			</g>
		</g>
		<g>
			<path class="st10" d="M110.1,62.1c0,0,2.9,7.7-0.1,7.7C108,69.7,108.5,64.6,110.1,62.1z"/>
		</g>
		<g>
			<path class="st10" d="M102.9,76.7c0,0,3,7.7-0.1,7.7C100.8,84.4,101.2,79.2,102.9,76.7z"/>
		</g>
		<g>
			<path class="st10" d="M103.9,44c0,0,3.1,8.2-0.1,8.2C101.7,52.2,102.1,46.7,103.9,44z"/>
		</g>
	</g>
</g>
</svg>
