<?xml version="1.0" encoding="utf-8"?>
<!-- Generator: Adobe Illustrator 22.1.0, SVG Export Plug-In . SVG Version: 6.00 Build 0)  -->
<svg version="1.1" id="pain_releafe" xmlns="http://www.w3.org/2000/svg" xmlns:xlink="http://www.w3.org/1999/xlink" x="0px"
	 y="0px" viewBox="0 0 259.5 200.6" style="enable-background:new 0 0 259.5 200.6;" xml:space="preserve">
<style type="text/css">
	.st0{fill:#D1EDF0;}
	.st1{fill-rule:evenodd;clip-rule:evenodd;fill:#FFFFFF;}
	.st2{fill-rule:evenodd;clip-rule:evenodd;fill:#765767;}
	.st3{clip-path:url(#SVGID_5_);fill-rule:evenodd;clip-rule:evenodd;fill:#674C5A;}
	.st4{clip-path:url(#SVGID_6_);fill-rule:evenodd;clip-rule:evenodd;fill:#674C5A;}
	.st5{clip-path:url(#SVGID_7_);fill-rule:evenodd;clip-rule:evenodd;fill:#674C5A;}
	.st6{clip-path:url(#SVGID_8_);fill-rule:evenodd;clip-rule:evenodd;fill:#674C5A;}
	.st7{clip-path:url(#SVGID_9_);fill-rule:evenodd;clip-rule:evenodd;fill:#674C5A;}
	.st8{clip-path:url(#SVGID_10_);fill-rule:evenodd;clip-rule:evenodd;fill:#674C5A;}
	.st9{fill-rule:evenodd;clip-rule:evenodd;fill:#111111;}
	.st10{fill-rule:evenodd;clip-rule:evenodd;fill:#FDBCAA;}
	.st11{clip-path:url(#SVGID_12_);fill-rule:evenodd;clip-rule:evenodd;fill:#FA987D;}
	.st12{clip-path:url(#SVGID_14_);fill-rule:evenodd;clip-rule:evenodd;fill:#FA987D;}
	.st13{fill-rule:evenodd;clip-rule:evenodd;fill:#142645;}
	.st14{clip-path:url(#SVGID_16_);fill-rule:evenodd;clip-rule:evenodd;fill:#FA987D;}
	.st15{fill-rule:evenodd;clip-rule:evenodd;fill:#FDB6A3;}
	.st16{fill-rule:evenodd;clip-rule:evenodd;}
	.st17{fill-rule:evenodd;clip-rule:evenodd;fill:#001436;}
</style>
<path id="background" class="st0" d="M53.9,18.3C34.5,31,15.6,45.2,22.5,72.3c2.5,9.9,8.2,18.8,14.3,26.9
	c8.7,11.5,12.4,24.9,3.8,37.3c-8,11.5-20.8,18-30.7,27.6c-17.1,16.6,20.2,25.5,30.8,28c10.9,2.5,22,4.2,33.1,5.7
	c38.9,5.1,79.6,4.7,116.8-8.9c15.4-5.4,29.9-12.8,43.3-22.1c8.2-5.9,18.2-13.9,19.8-24.6c1.3-8.5-4.7-22.3-11.6-27.6
	c-17-12.9-33.4-26.7-49-41.2c-12.4-11.5-22-24.1-32.1-37.5c-18.5-24.8-48.6-43-80.6-32.8C75.6,4.5,71.1,6.7,67,9.7
	C62.8,12.6,58.4,15.4,53.9,18.3z"/>
<g>
	<g>
		<path class="st1" d="M207.7,50.1c-5.3,1.5-13.8-1-18-6.7c-1.8-2.5-2.8-5.5-3.1-8.6c-1.2-11.1,8.4-18.9,18.9-18.8
			c11.3,0.1,16,8.2,16.4,18.4C222.2,43.8,213.1,48.6,207.7,50.1L207.7,50.1z"/>
		<path class="st2" d="M204.6,35.1c0,0.3,0,1.1-0.1,1.5c0,1.1-1,2-2.1,2c-1.1,0-2-1-2-2.1c0-0.9,0.1-2.6,0.6-3.4
			c0.3-0.5,0.8-1,1.3-1.4c0.4-0.3,0.9-0.5,1.3-0.8c1.3-1.1,2.4-2.6,2.4-4.4c0-1.3-1.1-1.9-2.1-1.8c-0.7,0-1.3,0.3-1.7,0.9
			c-0.5,1-1.8,1.3-2.7,0.8c-1-0.5-1.3-1.8-0.8-2.7c1-1.9,3-3,5.1-3c3.1-0.1,6.2,1.9,6.3,5.8c0.1,3.1-1.5,5.7-3.8,7.6
			c-0.3,0.2-0.7,0.5-1.1,0.8C205,34.8,204.8,35,204.6,35.1L204.6,35.1z"/>
		<g>
			<defs>
				<path id="SVGID_17_" d="M204.6,35.1c0,0.3,0,1.1-0.1,1.5c0,1.1-1,2-2.1,2c-1.1,0-2-1-2-2.1c0-0.9,0.1-2.6,0.6-3.4
					c0.3-0.5,0.8-1,1.3-1.4c0.4-0.3,0.9-0.5,1.3-0.8c1.3-1.1,2.4-2.6,2.4-4.4c0-1.3-1.1-1.9-2.1-1.8c-0.7,0-1.3,0.3-1.7,0.9
					c-0.5,1-1.8,1.3-2.7,0.8c-1-0.5-1.3-1.8-0.8-2.7c1-1.9,3-3,5.1-3c3.1-0.1,6.2,1.9,6.3,5.8c0.1,3.1-1.5,5.7-3.8,7.6
					c-0.3,0.2-0.7,0.5-1.1,0.8C205,34.8,204.8,35,204.6,35.1L204.6,35.1z"/>
			</defs>
			<clipPath id="SVGID_5_">
				<use xlink:href="#SVGID_17_"  style="overflow:visible;"/>
			</clipPath>
			<path class="st3" d="M200.2,27.2c0.1-0.4,0.4-0.8,0.6-1.1c0.6-0.8,1.3-1.6,2.3-1.9c0.7-0.2,1.7-0.3,2.4,0
				c0.8,0.4,1.4,1.3,1.5,2.2c0.3,1.9-0.8,3.6-2.3,4.6c-0.8,0.5-1.9,0.9-2.5,1.7c-0.9,1.1-0.7,2.7-0.8,4c0,0.4,0,0.8-0.1,1.2
				c0,0.1,0,0.3-0.1,0.4c-0.1,0.1-0.3,0-0.5,0c-0.4-0.1-0.8-0.2-1.2-0.4c-0.5-0.2-0.9-0.3-1.4-0.5c-0.7-0.2-1.2-0.6-1.7-1.1
				L200.2,27.2L200.2,27.2z"/>
		</g>
		<path class="st2" d="M202.8,40.1c1.1,0.3,1.7,1.4,1.4,2.5c-0.3,1.1-1.4,1.7-2.5,1.4c-1.1-0.3-1.7-1.4-1.4-2.5
			C200.6,40.4,201.7,39.8,202.8,40.1L202.8,40.1z"/>
		<g>
			<defs>
				<path id="SVGID_19_" d="M202.8,40.1c1.1,0.3,1.7,1.4,1.4,2.5c-0.3,1.1-1.4,1.7-2.5,1.4c-1.1-0.3-1.7-1.4-1.4-2.5
					C200.6,40.4,201.7,39.8,202.8,40.1L202.8,40.1z"/>
			</defs>
			<clipPath id="SVGID_6_">
				<use xlink:href="#SVGID_19_"  style="overflow:visible;"/>
			</clipPath>
			<path class="st4" d="M203,39.9c-0.3,0.1-0.5,0.2-0.8,0.3c-0.8,0.5-1.3,1.3-1.2,2.2c0.1,0.5,0.3,1.2,0.7,1.5
				c0.2,0.1,0.4,0.2,0.6,0.3c0,0,0.2,0.1,0.1,0.1c-0.4,0.2-1,0-1.4-0.1c-1.2-0.4-2.3-1.6-2.4-2.9c-0.1-0.5,0-1.2,0.4-1.6L203,39.9
				L203,39.9z M203,39.9c0.1,0,0.3,0,0.4,0L203,39.9L203,39.9z"/>
		</g>
		<path class="st1" d="M206.6,31.8c-0.1,0.5-0.6,0.8-1,1.1c-0.2,0.2-0.2,0.5,0,0.6c0.2,0.2,0.5,0.2,0.6,0c0.5-0.4,1.1-0.9,1.3-1.5
			c0.1-0.2-0.1-0.5-0.3-0.6C206.9,31.4,206.7,31.5,206.6,31.8L206.6,31.8z"/>
		<path class="st1" d="M208,23.8C208,23.8,208,23.8,208,23.8c0.2,0.2,0.5,0.1,0.7-0.1c0.1-0.2,0.1-0.5-0.1-0.6c0,0,0,0-0.1,0
			c-0.2-0.1-0.5-0.1-0.6,0.1C207.7,23.3,207.8,23.6,208,23.8L208,23.8z"/>
		<path class="st1" d="M204.6,33.5C204.6,33.5,204.6,33.5,204.6,33.5c-0.2,0.2-0.2,0.5-0.1,0.7c0.2,0.2,0.5,0.2,0.6,0c0,0,0,0,0.1,0
			c0.2-0.2,0.2-0.5,0-0.6C205.1,33.3,204.8,33.3,204.6,33.5L204.6,33.5z"/>
		<path class="st1" d="M203.3,40.8c0.3,0,0.5,0.2,0.5,0.5c0,0.3-0.2,0.5-0.5,0.5s-0.5-0.2-0.5-0.5C202.8,41,203,40.8,203.3,40.8
			L203.3,40.8z"/>
	</g>
	<g>
		<path class="st1" d="M87.7,50.1c-5.3,1.5-13.8-1-18-6.7c-1.8-2.5-2.8-5.5-3.1-8.6C65.4,23.7,74.9,15.9,85.4,16
			c11.3,0.1,16,8.2,16.4,18.4C102.1,43.8,93,48.6,87.7,50.1L87.7,50.1z"/>
		<path class="st2" d="M84.6,35.1c0,0.3,0,1.1-0.1,1.5c0,1.1-1,2-2.1,2c-1.1,0-2-1-2-2.1c0-0.9,0.1-2.6,0.6-3.4
			c0.3-0.5,0.8-1,1.3-1.4c0.4-0.3,0.9-0.5,1.3-0.8c1.3-1.1,2.4-2.6,2.4-4.4c0-1.3-1.1-1.9-2.1-1.8c-0.7,0-1.3,0.3-1.7,0.9
			c-0.5,1-1.8,1.3-2.7,0.8c-1-0.5-1.3-1.8-0.8-2.7c1-1.9,3-3,5.1-3c3.1-0.1,6.2,1.9,6.3,5.8c0.1,3.1-1.5,5.7-3.8,7.6
			c-0.3,0.2-0.7,0.5-1.1,0.8C85,34.8,84.7,35,84.6,35.1L84.6,35.1z"/>
		<g>
			<defs>
				<path id="SVGID_2_" d="M84.6,35.1c0,0.3,0,1.1-0.1,1.5c0,1.1-1,2-2.1,2c-1.1,0-2-1-2-2.1c0-0.9,0.1-2.6,0.6-3.4
					c0.3-0.5,0.8-1,1.3-1.4c0.4-0.3,0.9-0.5,1.3-0.8c1.3-1.1,2.4-2.6,2.4-4.4c0-1.3-1.1-1.9-2.1-1.8c-0.7,0-1.3,0.3-1.7,0.9
					c-0.5,1-1.8,1.3-2.7,0.8c-1-0.5-1.3-1.8-0.8-2.7c1-1.9,3-3,5.1-3c3.1-0.1,6.2,1.9,6.3,5.8c0.1,3.1-1.5,5.7-3.8,7.6
					c-0.3,0.2-0.7,0.5-1.1,0.8C85,34.8,84.7,35,84.6,35.1L84.6,35.1z"/>
			</defs>
			<clipPath id="SVGID_7_">
				<use xlink:href="#SVGID_2_"  style="overflow:visible;"/>
			</clipPath>
			<path class="st5" d="M80.2,27.2c0.1-0.4,0.4-0.8,0.6-1.1c0.6-0.8,1.3-1.6,2.3-1.9c0.7-0.2,1.7-0.3,2.4,0c0.8,0.4,1.4,1.3,1.5,2.2
				c0.3,1.9-0.8,3.6-2.3,4.6c-0.8,0.5-1.9,0.9-2.5,1.7c-0.9,1.1-0.7,2.7-0.8,4c0,0.4,0,0.8-0.1,1.2c0,0.1,0,0.3-0.1,0.4
				c-0.1,0.1-0.3,0-0.5,0c-0.4-0.1-0.8-0.2-1.2-0.4c-0.5-0.2-0.9-0.3-1.4-0.5c-0.7-0.2-1.2-0.6-1.7-1.1L80.2,27.2L80.2,27.2z"/>
		</g>
		<path class="st2" d="M82.7,40.1c1.1,0.3,1.7,1.4,1.4,2.5c-0.3,1.1-1.4,1.7-2.5,1.4c-1.1-0.3-1.7-1.4-1.4-2.5
			C80.5,40.4,81.6,39.8,82.7,40.1L82.7,40.1z"/>
		<g>
			<defs>
				<path id="SVGID_1_" d="M82.7,40.1c1.1,0.3,1.7,1.4,1.4,2.5c-0.3,1.1-1.4,1.7-2.5,1.4c-1.1-0.3-1.7-1.4-1.4-2.5
					C80.5,40.4,81.6,39.8,82.7,40.1L82.7,40.1z"/>
			</defs>
			<clipPath id="SVGID_8_">
				<use xlink:href="#SVGID_1_"  style="overflow:visible;"/>
			</clipPath>
			<path class="st6" d="M82.9,39.9c-0.3,0.1-0.5,0.2-0.8,0.3c-0.8,0.5-1.3,1.3-1.2,2.2c0.1,0.5,0.3,1.2,0.7,1.5
				c0.2,0.1,0.4,0.2,0.6,0.3c0,0,0.2,0.1,0.1,0.1c-0.4,0.2-1,0-1.4-0.1c-1.2-0.4-2.3-1.6-2.4-2.9c-0.1-0.5,0-1.2,0.4-1.6L82.9,39.9
				L82.9,39.9z M82.9,39.9c0.1,0,0.3,0,0.4,0L82.9,39.9L82.9,39.9z"/>
		</g>
		<path class="st1" d="M86.5,31.8c-0.1,0.5-0.6,0.8-1,1.1c-0.2,0.2-0.2,0.5,0,0.6c0.2,0.2,0.5,0.2,0.6,0c0.5-0.4,1.1-0.9,1.3-1.5
			c0.1-0.2-0.1-0.5-0.3-0.6C86.9,31.4,86.6,31.5,86.5,31.8L86.5,31.8z"/>
		<path class="st1" d="M88,23.8C88,23.8,88,23.8,88,23.8c0.2,0.2,0.5,0.1,0.7-0.1c0.1-0.2,0.1-0.5-0.1-0.6c0,0,0,0-0.1,0
			c-0.2-0.1-0.5-0.1-0.6,0.1C87.7,23.3,87.8,23.6,88,23.8L88,23.8z"/>
		<path class="st1" d="M84.6,33.5C84.6,33.5,84.6,33.5,84.6,33.5c-0.2,0.2-0.2,0.5-0.1,0.7c0.2,0.2,0.5,0.2,0.6,0c0,0,0,0,0.1,0
			c0.2-0.2,0.2-0.5,0-0.6C85.1,33.3,84.8,33.3,84.6,33.5L84.6,33.5z"/>
		<path class="st1" d="M83.3,40.8c0.3,0,0.5,0.2,0.5,0.5c0,0.3-0.2,0.5-0.5,0.5c-0.3,0-0.5-0.2-0.5-0.5C82.8,41,83,40.8,83.3,40.8
			L83.3,40.8z"/>
	</g>
	<g>
		<path class="st1" d="M30.6,86c-5.3,1.5-13.8-1-18-6.7c-1.8-2.5-2.8-5.5-3.1-8.6c-1.2-11.1,8.4-18.9,18.9-18.8
			c11.3,0.1,16,8.2,16.4,18.4C45,79.7,36,84.5,30.6,86L30.6,86z"/>
		<path class="st2" d="M27.5,71c0,0.3,0,1.1-0.1,1.5c0,1.1-1,2-2.1,2c-1.1,0-2-1-2-2.1c0-0.9,0.1-2.6,0.6-3.4c0.3-0.5,0.8-1,1.3-1.4
			c0.4-0.3,0.9-0.5,1.3-0.8c1.3-1.1,2.4-2.6,2.4-4.4c0-1.3-1.1-1.9-2.1-1.8c-0.7,0-1.3,0.3-1.7,0.9c-0.5,1-1.8,1.3-2.7,0.8
			c-1-0.5-1.3-1.8-0.8-2.7c1-1.9,3-3,5.1-3c3.1-0.1,6.2,1.9,6.3,5.8c0.1,3.1-1.5,5.7-3.8,7.6c-0.3,0.2-0.7,0.5-1.1,0.8
			C27.9,70.7,27.7,70.9,27.5,71L27.5,71z"/>
		<g>
			<defs>
				<path id="SVGID_4_" d="M27.5,71c0,0.3,0,1.1-0.1,1.5c0,1.1-1,2-2.1,2c-1.1,0-2-1-2-2.1c0-0.9,0.1-2.6,0.6-3.4
					c0.3-0.5,0.8-1,1.3-1.4c0.4-0.3,0.9-0.5,1.3-0.8c1.3-1.1,2.4-2.6,2.4-4.4c0-1.3-1.1-1.9-2.1-1.8c-0.7,0-1.3,0.3-1.7,0.9
					c-0.5,1-1.8,1.3-2.7,0.8c-1-0.5-1.3-1.8-0.8-2.7c1-1.9,3-3,5.1-3c3.1-0.1,6.2,1.9,6.3,5.8c0.1,3.1-1.5,5.7-3.8,7.6
					c-0.3,0.2-0.7,0.5-1.1,0.8C27.9,70.7,27.7,70.9,27.5,71L27.5,71z"/>
			</defs>
			<clipPath id="SVGID_9_">
				<use xlink:href="#SVGID_4_"  style="overflow:visible;"/>
			</clipPath>
			<path class="st7" d="M23.1,63.1c0.1-0.4,0.4-0.8,0.6-1.1c0.6-0.8,1.3-1.6,2.3-1.9c0.7-0.2,1.7-0.3,2.4,0c0.8,0.4,1.4,1.3,1.5,2.2
				c0.3,1.9-0.8,3.6-2.3,4.6c-0.8,0.5-1.9,0.9-2.5,1.7c-0.9,1.1-0.7,2.7-0.8,4c0,0.4,0,0.8-0.1,1.2c0,0.1,0,0.3-0.1,0.4
				c-0.1,0.1-0.3,0-0.5,0c-0.4-0.1-0.8-0.2-1.2-0.4c-0.5-0.2-0.9-0.3-1.4-0.5c-0.7-0.2-1.2-0.6-1.7-1.1L23.1,63.1L23.1,63.1z"/>
		</g>
		<path class="st2" d="M25.6,76c1.1,0.3,1.7,1.4,1.4,2.5c-0.3,1.1-1.4,1.7-2.5,1.4c-1.1-0.3-1.7-1.4-1.4-2.5
			C23.4,76.3,24.6,75.7,25.6,76L25.6,76z"/>
		<g>
			<defs>
				<path id="SVGID_3_" d="M25.6,76c1.1,0.3,1.7,1.4,1.4,2.5c-0.3,1.1-1.4,1.7-2.5,1.4c-1.1-0.3-1.7-1.4-1.4-2.5
					C23.4,76.3,24.6,75.7,25.6,76L25.6,76z"/>
			</defs>
			<clipPath id="SVGID_10_">
				<use xlink:href="#SVGID_3_"  style="overflow:visible;"/>
			</clipPath>
			<path class="st8" d="M25.9,75.8c-0.3,0.1-0.5,0.2-0.8,0.3c-0.8,0.5-1.3,1.3-1.2,2.2c0.1,0.5,0.3,1.2,0.7,1.5
				c0.2,0.1,0.4,0.2,0.6,0.3c0,0,0.2,0.1,0.1,0.1c-0.4,0.2-1,0-1.4-0.1c-1.2-0.4-2.3-1.6-2.4-2.9c-0.1-0.5,0-1.2,0.4-1.6L25.9,75.8
				L25.9,75.8z M25.9,75.8c0.1,0,0.3,0,0.4,0L25.9,75.8L25.9,75.8z"/>
		</g>
		<path class="st1" d="M29.5,67.7c-0.1,0.5-0.6,0.8-1,1.1c-0.2,0.2-0.2,0.5,0,0.6c0.2,0.2,0.5,0.2,0.6,0c0.5-0.4,1.1-0.9,1.3-1.5
			c0.1-0.2-0.1-0.5-0.3-0.6C29.8,67.3,29.5,67.4,29.5,67.7L29.5,67.7z"/>
		<path class="st1" d="M30.9,59.6C30.9,59.7,30.9,59.7,30.9,59.6c0.2,0.2,0.5,0.1,0.7-0.1c0.1-0.2,0.1-0.5-0.1-0.6c0,0,0,0-0.1,0
			c-0.2-0.1-0.5-0.1-0.6,0.1C30.6,59.2,30.7,59.5,30.9,59.6L30.9,59.6z"/>
		<path class="st1" d="M27.5,69.4C27.5,69.4,27.5,69.4,27.5,69.4c-0.2,0.2-0.2,0.5-0.1,0.7c0.2,0.2,0.5,0.2,0.6,0c0,0,0,0,0.1,0
			c0.2-0.2,0.2-0.5,0-0.6C28,69.2,27.7,69.2,27.5,69.4L27.5,69.4z"/>
		<path class="st1" d="M26.2,76.6c0.3,0,0.5,0.2,0.5,0.5c0,0.3-0.2,0.5-0.5,0.5c-0.3,0-0.5-0.2-0.5-0.5
			C25.7,76.9,25.9,76.6,26.2,76.6L26.2,76.6z"/>
	</g>
	<g>
		<path class="st9" d="M118.1,149.6l17.4-9.7c3.6,14.6,6.2,29.4,10.1,43.9c1.2,4.3,2.5,8.5,3.9,12.7c0.2,0.7,1.5,2.5,1.5,2.5H70.9
			c0,0,0.8-4.1,1-5.5c0.8-8.1,1.7-16.3,2.7-24.4c0.6-4.4,0.7-9.3,2.3-13.6l41.9-9.2C118.5,147.3,118.3,148.4,118.1,149.6
			L118.1,149.6z"/>
		<path class="st10" d="M168.2,78.9c-1.2,0.1-2.5,0.2-3.7,0.4c-7.1,0.7-14.2,1.5-21.2,2.3c-5.2,0.6-10.2,1-15.2,2.4
			c-2.3,0.6-4.9,1.3-6.7,3c-1.5,1.4-2.3,3.3-2.6,5.3c-1.1,9.1,7.6,14.2,15.3,15.7c10,1.9,19.9-0.1,29.5-2.8
			c7.7-2.2,15.1-4.5,22.5-7.6c4-1.6,8-3.2,11.8-5.1c1.6-0.8,3.4-1.5,4.9-2.6c0.5-0.2,1-0.4,1.3-0.8c0.6-0.7-1.3-3.3-1.6-3.8
			c-1.4-2.4-2.6-6.3-5.1-8.1l-0.4-0.9c-0.7-0.1-1.4-0.1-2.1-0.1c-4.7-0.4-9.7,0.4-14.4,0.9C176.4,77.7,172.3,78.3,168.2,78.9
			L168.2,78.9z"/>
		<g>
			<defs>
				<path id="SVGID_11_" d="M168.2,78.9c-1.2,0.1-2.5,0.2-3.7,0.4c-7.1,0.7-14.2,1.5-21.2,2.3c-5.2,0.6-10.2,1-15.2,2.4
					c-2.3,0.6-4.9,1.3-6.7,3c-1.5,1.4-2.3,3.3-2.6,5.3c-1.1,9.1,7.6,14.2,15.3,15.7c10,1.9,19.9-0.1,29.5-2.8
					c7.7-2.2,15.1-4.5,22.5-7.6c4-1.6,8-3.2,11.8-5.1c1.6-0.8,3.4-1.5,4.9-2.6c0.5-0.2,1-0.4,1.3-0.8c0.6-0.7-1.3-3.3-1.6-3.8
					c-1.4-2.4-2.6-6.3-5.1-8.1l-0.4-0.9c-0.7-0.1-1.4-0.1-2.1-0.1c-4.7-0.4-9.7,0.4-14.4,0.9C176.4,77.7,172.3,78.3,168.2,78.9
					L168.2,78.9z"/>
			</defs>
			<clipPath id="SVGID_12_">
				<use xlink:href="#SVGID_11_"  style="overflow:visible;"/>
			</clipPath>
			<path class="st11" d="M200.6,90.4c-7.1-1.1-14.1-5.4-19-10.5c-1.1-1.1-2.1-2.4-3-3.6c-0.3-0.4-1-1.1-1-1.7c0-0.9,0.8-1.8,1.3-2.5
				c1.5-1.9,3.6-3.5,5.7-4.8L200.6,90.4L200.6,90.4z"/>
		</g>
		<path class="st9" d="M107.2,22.3c0.2,1.7,0.1,3.4,0.2,5c0.2,2.8,0.8,5.7,1.1,8.5c0.2,1.6,0,3.9,0.7,5.4c0.3,0.6,1,1,1.5,1.4
			c1.1,0.9,2.2,1.8,3.4,2.7c1.4,1.1,2.9,2.2,4.3,3.3c0.2,0.1,1.2,1.1,1.5,0.8c0.3-0.2,0.2-0.9,0.2-1.2c0.1-1.2,0-2.4,0-3.7
			c-0.1-4.5,0.1-8.9,0.6-13.4L107.2,22.3L107.2,22.3z"/>
		<path class="st10" d="M163.1,22.7c0.7,1.3,1.9,2.4,2.8,3.5c2.7,3,5.7,5.7,8.6,8.5c5.5,5.3,10.5,10.7,15.3,16.6
			c6.4,7.8,14.4,16.4,16.3,26.7c0.5,2.8,1,7.5-0.7,10c-1.3,1.8-3.8,2.3-5.9,2.1c-4.4-0.4-8.6-3.5-11.6-6.5c-2.7-2.6-4-6-5.5-9.4
			c-1.8-4-3.6-8-5.3-12.1c-3.6-8.3-7-17-11.5-24.9c-2.3-4-5.2-7.8-8.1-11.5L163.1,22.7L163.1,22.7z"/>
		<path class="st10" d="M161.9,24.1c-0.9-2.1-1.8-4.2-2.7-6.2c-0.7-1.6-1.4-3.5-2.7-4.7c-1.8-1.7-4.5-2.8-6.7-3.8
			c-0.6-0.2-1.1-0.5-1.7-0.7c-0.2-0.1-0.6-0.2-0.7,0c-0.1,0.4,0.2,1.1,0.3,1.5c0.4,1.5,0.9,2.9,1.4,4.4L161.9,24.1L161.9,24.1z"/>
		<path class="st1" d="M92.5,73.2c7.4-0.2,48.8,1.2,56.2,1.9c1.7,0.2,6.9-0.3,7.8,2.2c0.8,2.4-0.3,6.3-0.6,8.7
			c-0.9,6.2-1.8,12.3-2.7,18.5c-2.2,14.2-3.3,28.7-5.9,42.8c-2,10.8-6.4,24-6.2,35.1l-48.2-1.7c1-11-2.5-24.5-3.8-35.4
			c-1.7-14.2-1.8-28.8-3-43.1c-0.5-6.2-1-12.4-1.5-18.6c-0.2-2.4-1-6.3,0-8.7C85.6,72.5,90.8,73.3,92.5,73.2L92.5,73.2z"/>
		<path class="st10" d="M134.4,63.2c-0.4,4.2-0.8,8.3-1.5,12.5c-0.2,1.2,1.5,4.1,1.2,5.2c-0.6,2.5-0.4,7.1-6.1,7.5
			c-4.2,0.3-8.9-9.4-12.4-12.1c-1-0.8-2-1.6-3-2.3c-0.3-0.2-1-0.4-1.1-0.9c-0.1-0.5,3.3-22.8,4-27.7L134.4,63.2L134.4,63.2z"/>
		<g>
			<defs>
				<path id="SVGID_13_" d="M134.4,63.2c-0.4,4.2-0.8,8.3-1.5,12.5c-0.2,1.2,1.5,4.1,1.2,5.2c-0.6,2.5-0.4,7.1-6.1,7.5
					c-4.2,0.3-8.9-9.4-12.4-12.1c-1-0.8-2-1.6-3-2.3c-0.3-0.2-1-0.4-1.1-0.9c-0.1-0.5,3.3-22.8,4-27.7L134.4,63.2L134.4,63.2z"/>
			</defs>
			<clipPath id="SVGID_14_">
				<use xlink:href="#SVGID_13_"  style="overflow:visible;"/>
			</clipPath>
			<path class="st12" d="M116,55.6c1.2,2.4,3.1,4.5,4.6,6.7c3.6,5.1,11,9.4,17.3,10.7c1.8,0.4,4.5-3.4,4.5-6.8L116,55.6L116,55.6z"
				/>
		</g>
		<path class="st13" d="M105.1,75.5c5.1-2.1,15.5,1.9,16.2,8.4c0.3,3.6-1.1,7.5-1.7,11c-1.3,8.1-2.5,16.3-4.1,24.3
			c-2.6,13.2-2.7,26.4-3.2,39.9c-0.3,7.5-0.4,15.1-0.8,22.6c-0.2,2.8,0.2,6.5-0.8,9.2c-0.6,1.6-4.5,0.8-5.7,0.7
			c-4.9-0.1-24.9,1.7-29.8,1.6c-1,0-5.4-0.4-5.4-0.4s1-14.2,2.4-18.3c3.3-9.7,1.4-18.8,2.1-26.9c1.3-15.8,3.3-35.7,2.7-49.3
			L105.1,75.5L105.1,75.5z"/>
		<path class="st10" d="M63.3,108c1.1-0.5,2.3-1,3.4-1.6c6.5-3,12.9-6,19.3-9.1c4.7-2.2,9.3-4.3,13.6-7.2c2-1.4,4.2-2.8,5.4-5
			c1-1.8,1.1-3.9,0.7-5.8c-1.9-9-11.8-11-19.6-9.9c-10.1,1.4-18.8,6.5-27,12.2c-6.6,4.5-12.9,9.2-18.9,14.4c-3.2,2.8-7,4.4-6.5,10.7
			c0.1,1.8,14.2,8.8,18.4,6.8C56,111.8,59.7,110,63.3,108L63.3,108z"/>
		<g>
			<defs>
				<path id="SVGID_15_" d="M63.3,108c1.1-0.5,2.3-1,3.4-1.6c6.5-3,12.9-6,19.3-9.1c4.7-2.2,9.3-4.3,13.6-7.2c2-1.4,4.2-2.8,5.4-5
					c1-1.8,1.1-3.9,0.7-5.8c-1.9-9-11.8-11-19.6-9.9c-10.1,1.4-18.8,6.5-27,12.2c-6.6,4.5-12.9,9.2-18.9,14.4
					c-3.2,2.8-7,4.4-6.5,10.7c0.1,1.8,14.2,8.8,18.4,6.8C56,111.8,59.7,110,63.3,108L63.3,108z"/>
			</defs>
			<clipPath id="SVGID_16_">
				<use xlink:href="#SVGID_15_"  style="overflow:visible;"/>
			</clipPath>
			<path class="st14" d="M38.6,98.2c7.1,1.2,14,5.6,18.8,10.9c1.1,1.2,2,2.4,2.9,3.7c0.3,0.4,0.9,1.1,0.9,1.7c0,0.9-0.8,1.8-1.4,2.4
				c-1.6,1.9-3.7,3.4-5.8,4.7L38.6,98.2L38.6,98.2z"/>
		</g>
		<path class="st10" d="M117.8,46.6c-1-2.9-1.6-5.9-1.2-9.1c1.2-8.5,5.8-15.3,13.1-19.5c2.6-1.5,5.4-2.8,8.4-3.4
			c1.6-0.3,3.1-0.1,4.7,0c2,0.2,3.9,0.4,5.7,1.2c7,3.1,10.3,10.6,9.7,17.9c-0.2,2.2-0.7,4.5-1.8,6.5c-0.6,1.1-1.3,2-1.9,3.1
			c-0.7,1.5-0.7,2.9-0.9,4.5c-0.2,1.6-0.5,3.4-1.1,5c-0.7,2.4-1.8,4.8-3.2,6.9c-1.5,2.2-3.2,3.6-5.4,5c-2.5,1.7-5.1,3.6-8.1,4.2
			c-2.3,0.4-4.9-0.8-6.9-1.8c-3.2-1.5-6.8-3.3-9.5-5.8c-1.1-1.1-2.2-2.3-3.1-3.6c-0.5-0.7-0.8-1.7-1.5-2.3c-0.8-0.7-2.1-0.7-3.1-1
			c-2.2-0.7-3.7-1.7-4.8-3.7c-1.7-3.1-2.5-6.4-2.2-9.9c0.1-0.8,0.2-1.8,0.7-2.5c0.9-1.3,3.7-1.2,5-0.6c1.3,0.6,2.1,2,2.8,3.1
			c1.3,2,2.6,3.9,4.1,5.7L117.8,46.6L117.8,46.6z"/>
		<path class="st10" d="M68.7,170.1c-0.5-1.4-1.5-2.7-2.3-3.8c-2.2-3.4-4.8-6.4-7.3-9.6c-4.7-6-8.9-12.1-12.8-18.6
			c-5.3-8.6-12-18.2-12.4-28.7c-0.1-2.8,0.1-7.6,2.1-9.8c1.5-1.6,4.1-1.8,6.1-1.3c4.3,1,8,4.7,10.6,8.1c2.3,3,3.1,6.5,4.1,10.1
			c1.2,4.2,2.4,8.5,3.6,12.7c2.4,8.8,4.5,17.8,7.9,26.3c1.7,4.3,4.1,8.5,6.5,12.5L68.7,170.1L68.7,170.1z"/>
		<path class="st15" d="M140.9,46.6c2-0.8,4.2,0.1,5.9,1c0.7,0.3,1.3,0.8,2,1c0.9,0.2,2.3-0.3,3.1,0.2c0.8,0.5,0.6,2.1,0.6,2.9
			c0,0.4,0.1,0.9-0.4,1.1c-0.7,0.3-1.8,0.2-2.6,0.2c-1.1,0-2.4-0.1-3.5-0.2c-1.2-0.2-2.3-0.6-3.5-0.7c-2.1-0.2-4.2,0.7-6.3,1
			c-2.7,0.3-6.3,0.1-8.9-0.2c-1.2-0.1-2.7-0.5-3.4-1.7c-0.4-0.6-0.6-1.9,0.2-2.3c0.6-0.3,1.3-0.2,1.9-0.2c1.5,0,3,0,4.5-0.2
			L140.9,46.6L140.9,46.6z"/>
		<path class="st9" d="M130.7,39.1c1.2,0,2.1,1.2,2.1,2.7c0,1.5-0.9,2.7-2.1,2.7c-1.2,0-2.1-1.2-2.1-2.7
			C128.6,40.3,129.6,39.1,130.7,39.1L130.7,39.1z"/>
		<path class="st9" d="M148.3,41.3c1.2,0,2.1,1.2,2.1,2.7c0,1.5-0.9,2.7-2.1,2.7c-1.2,0-2.1-1.2-2.1-2.7
			C146.2,42.5,147.1,41.3,148.3,41.3L148.3,41.3z"/>
		<path class="st16" d="M136.6,41.9c-0.1-0.2-0.2-0.4-0.4-0.7c-0.2-0.3-0.5-0.6-0.7-0.8c-0.5-0.4-0.9-0.9-1.4-1.3
			c-0.4-0.3-0.8-0.4-1.3-0.5c-0.5-0.1-1.1-0.1-1.6,0c-0.7,0.1-1.3,0.3-2,0.5c-0.4,0.1-1.8,1.1-1.6,1.2c0.1,0,0.3,0,0.4,0
			c0.6,0,1.1-0.1,1.6-0.3c0.7-0.2,1.4-0.5,2.1-0.6c0.3,0,0.6-0.1,0.9-0.1c0.4,0,0.7,0.1,1,0.3c0.5,0.3,1,0.7,1.5,1
			c0.3,0.2,0.6,0.4,0.8,0.7c0.2,0.2,0.3,0.4,0.4,0.6c0,0,0.1,0.1,0.1,0C136.6,42,136.6,41.9,136.6,41.9L136.6,41.9z"/>
		<path class="st16" d="M146.6,42.7c0.3-0.5,0.8-0.8,1.4-1c0.8-0.3,1.8-0.3,2.5-0.1c0.3,0.1,0.6,0.2,0.9,0.4
			c0.4,0.2,0.7,0.4,1.1,0.6c0.4,0.2,0.8,0.5,1.2,0.7c0.2,0.1,0.4,0.2,0.7,0.2c0.2,0-1-1.5-1.3-1.7c-0.4-0.2-0.8-0.4-1.2-0.6
			c-0.4-0.2-0.7-0.3-1.2-0.3c-0.7-0.1-1.6,0-2.4,0.3c-0.8,0.3-1.5,0.8-1.8,1.6c0,0,0,0.1,0,0.1C146.5,42.7,146.5,42.7,146.6,42.7
			L146.6,42.7z"/>
		<path class="st9" d="M156.1,38.1c-0.3-0.3-0.6-0.5-1-0.8c-0.5-0.3-1.1-0.6-1.6-0.8c-0.8-0.3-1.6-0.7-2.4-0.9
			c-0.4-0.1-0.8-0.2-1.2-0.3c-0.2,0-0.3-0.1-0.5-0.1c-0.1,0-0.2,0-0.2,0c-0.1,0-0.2,0-0.3,0c-0.2,0-0.4,0.1-0.7,0.2
			c-0.2,0.1-0.4,0.2-0.6,0.3c0.4,0.1,0.7,0.3,1.1,0.4c0.1,0,0.2,0.1,0.3,0.1c0.1,0,0.2,0.1,0.3,0.1c0.2,0,0.3,0.1,0.5,0.1
			c0.4,0.1,0.7,0.1,1.1,0.2c0.8,0.2,1.6,0.4,2.4,0.6c0.5,0.1,1.1,0.3,1.7,0.5c0.4,0.1,0.7,0.3,1,0.5c0,0,0.1,0,0.1,0
			C156.1,38.2,156.1,38.2,156.1,38.1L156.1,38.1z"/>
		<path class="st9" d="M127.3,33.9c1.4-0.3,2.9-0.5,4.5-0.5c0.9,0,1.9,0.1,2.8,0.2c0.4,0.1,0.7,0.1,1.1,0.2c0.2,0,0.5,0.1,0.7,0.1
			c0.2,0,0.4,0,0.6,0.1c0.5,0,1,0,1.5,0.1c-0.3-0.2-0.5-0.4-0.8-0.6c-0.3-0.2-0.5-0.3-0.8-0.5c-0.1,0-0.1-0.1-0.2-0.1
			c-0.3-0.1-0.6-0.2-0.9-0.2c-0.6-0.1-1.1-0.2-1.7-0.2c-0.9,0-1.9,0-2.8,0.1c-1.4,0.2-2.7,0.6-4,1c-0.1,0-0.1,0.1-0.1,0.1
			C127.2,33.9,127.3,33.9,127.3,33.9L127.3,33.9z"/>
		<path class="st9" d="M124.2,7.9c1.1-0.9,2.4-1.8,3.2-2.3c1.6-1,3.2-1.8,5.1-2.4c6.9-2.1,14.3,1.3,18.9,5.9
			c2.1,2.1,3.3,4.6,5.4,6.6c1.9,1.8,4.5,3.4,7,4.7c1.1,0.5,2.2,0.9,3.3,1.3c0.1,0,1,0.2,1,0.3c0,0.1-1.4,0.2-1.5,0.2
			c-0.3,0-0.7,0-1,0c-0.3,0-0.5,0-0.8,0c0.4,0.1,0.8,0.2,1.2,0.2c0.2,0,1.4,0,1.5,0.2c0,0.2-0.3,0.4-0.4,0.5c-0.5,0.4-1.1,0.7-1.8,1
			c-0.8,0.4-1.7,0.7-2.7,0.8c0,0,0,0,0,0c0.5,0.1,1,0.1,1.5,0.1c0.7,0,1.4-0.2,2-0.5c0.2-0.1,0.4-0.3,0.5-0.4c0,0,0.3-0.3,0.3-0.3
			c0.1,0.2-0.1,0.5-0.1,0.6c-0.2,0.5-0.4,1-0.6,1.4c-0.4,0.6-0.8,1.1-1.4,1.4c0,0.5-0.5,1.3-0.6,1.5c-0.9,1.1-2.9,2.9-4.7,2.4
			c-1.3-0.3-2.5-1.4-3.6-2.1c-1.7-1-3.5-1.9-5.4-2.5c-3.9-1.2-8.1-1.5-12.1-2.4c-1.8-0.4-5.4-1.6-5.5-1.6c1.2,0.4-1.2,4.5-2.9,6.4
			c-2.1,2.4-9.5,6.4-9.6,6.6c-1.1,1.7-1.9,11.6-2.7,11.5c-2.5-0.3-4.5-15.2-5.1-15.8c-0.9-0.6-1.9-0.8-3.1-1c-0.3,0-1.2,0-1.3-0.3
			c-3.1-6-0.4-12.8,3.5-17.8c1.2-1.5,2.7-3.8,4.8-4.6C118.9,6.5,121.6,7.3,124.2,7.9L124.2,7.9z"/>
		<path class="st16" d="M142,42.4c-0.2,1.2-0.7,2.5-0.5,3.8c0.1,0.8,0.3,1.6,0.6,2.3c0.1,0.2,0.2,0.4,0.3,0.6c0,0.1,0.1,0.2,0.1,0.3
			c0,0.2-0.2,0.4-0.3,0.5c-0.3,0.3-0.6,0.5-0.9,0.7c-0.1,0.1-0.1,0.2-0.1,0.3c0.1,0.1,0.2,0.1,0.3,0.1c0.3-0.2,0.7-0.4,0.9-0.7
			c0.2-0.2,0.4-0.5,0.4-0.7c0-0.1,0-0.3-0.1-0.5c-0.1-0.2-0.2-0.4-0.3-0.6c-0.3-0.7-0.5-1.4-0.6-2.2c-0.2-1.2,0.2-2.4,0.5-3.6
			c0-0.1-0.1-0.2-0.2-0.2C142.2,42.2,142,42.3,142,42.4L142,42.4z"/>
		<path class="st13" d="M64.7,76.6c7.6-6,17.3-12.8,27.3-8.5c2.4,1.1,21.2,5.7,23,7.5c0.8,0.7-8.5,2.5-7.9,3.1
			c7,5.8-10.8,20.7-13.1,19c-2.4,1.5-4.7,3-7.1,4.4c-1.6,0.9-3.3,1.7-5.1,2.5c-1,0.4-2,0.8-2.9,1.2c-0.5,0.2-1,0.5-1.5,0.7
			c-2.2,1-2.5,1.2-4.2-0.5c-0.3-0.3-0.6-0.7-1-1c-0.5-0.5-1.1-1.1-1.6-1.6c-1-1-2-2-3-3.1c-1-1-2-2.1-3-3.2
			c-2.8-2.7-5.5-5.5-8.2-8.3c-0.9-0.9-1.7-1.9-2.6-2.8c-0.2-0.3-0.8-0.7-0.7-1.1c0.2-0.9,2-1.8,2.6-2.3c2.5-1.8,5.1-3.6,7.7-5.3
			C63.9,77.1,64.3,76.8,64.7,76.6L64.7,76.6z"/>
		<path class="st17" d="M108.1,73.2c0.8-1.2,1.6-2.4,2.4-3.6c0.1-0.1,0.6-1.3,0.9-1.3c0.2,0,0.6,0.8,0.8,0.9
			c0.7,0.7,0.9,1.6,1.5,2.5c2.3,3.7,2.2,4.4,5.3,6.6c0.2,0.2,0.4,0.3,0.6,0.5c0.2,0.1,0.4,0.3,0.6,0.4c0.1,0.1,0.3,0.2,0.4,0.3
			c0.4,0.3,0.6,0.6,1.1,0.9c0.1,0.1,0.3,0.2,0.3,0.3c0,0.2-0.5,0.6-0.7,0.7c-0.7,0.6-1.2,1.3-1.8,2c-1.1,1.5-2.2,3-3,4.7
			c-0.6,1.2-0.9,2.9-1.9,3.9L108.1,73.2L108.1,73.2z"/>
		<path class="st13" d="M133,80.4c-0.4-1.5-0.3-3.3-0.1-4.7c0.1-0.7,0.1-1.6,0.8-2c1.8-0.9,5-0.2,6.9-0.1c4.4,0.3,8.8,0.8,13.1,1.6
			c0.3,0.1,0.7,0.1,1,0.2c4.3,0.3,8.5,1.2,12.8,1.8c1.3,0.2,2.6,0.3,3.8,0.5c0.3,0,1.1,0.1,1.3,0.4c0.3,0.4,0.1,3.2,0.1,3.8
			c0.2,3.4,0.7,6.8,0.9,10.3c0.2,2.7,0.3,5.5,0.3,8.2c0,0.6,0.3,2.5-0.2,3.1c-0.3,0.4-1.4,0.4-1.9,0.6c-1.6,0.4-3.2,1.1-4.8,1.8
			c-3.2,1.4-6.4,2.7-9.6,4.1c-0.9,6.2-1.8,12.3-2.5,18.5c-1,9.2-2.6,18.2-4.2,27.2c-1.5,8.1,7.2,31.7,6.4,32.7
			c-0.5,0.7-6,1.2-6.6,1.2c-3.4-0.3-7.7,0.8-7.9,0c-0.5-1.9-2.5-7.9-3.4-9.8c-2.5-5.6-3.9-24.5-3.8-34.4c0.1-8.8-1-25.3-1.2-39.3
			c-0.1-9.5-2.1-15.6-2.8-25.5L133,80.4L133,80.4z"/>
		<path class="st16" d="M137,56.8c0.3-0.3,0.7-0.5,1.1-0.7c1.5-0.8,3.6-1,5,0.2c0.1,0.1,0.2,0.1,0.3,0c0.1-0.1,0.1-0.2,0-0.3
			c-1.6-1.2-3.8-1.1-5.5-0.2c-0.4,0.2-0.9,0.5-1.2,0.8c-0.1,0.1-0.1,0.2,0,0.3C136.8,56.9,136.9,56.9,137,56.8L137,56.8z"/>
		<path class="st10" d="M68.5,169.7l-0.2-0.1c0.2-0.4,0.5-0.8,0.8-1.2c0.6-0.8,1.1-1.7,1.7-2.5c0.2-0.3,0.7-1.2,1.2-1.2
			c0.3,0,0.7,0.4,0.9,0.6c0.6,0.6,1.1,1.2,1.6,1.8c0.7,0.9,1.8,1.4,2.5,2.2c0.6,0.7,0.9,1.7,1.6,2.4c0.3,0.3,0.7,0.6,1.1,0.9
			c0.3,0.2,0.6,0.3,0.8,0.5c0.3,0.4,0.4,0.9,0.6,1.3c0.1,0.2,0.2,0.4,0.1,0.6c-0.1,0.4-0.5,0.7-0.9,0.8c-0.8,0.2-1.5-0.6-2.1-0.9
			c-0.6-0.3-1.3-0.6-1.9-0.8c-0.2,0.8-0.4,1.5-0.8,2.2c-0.5,0.8-1.2,1.4-1.9,2.1c-0.6,0.7-1.2,1.4-1.7,2.2c-0.6,0.9-0.8,2-1.1,3.1
			c-0.1,0.2-0.1,0.5-0.2,0.7c0,0.1-0.1,0.2-0.2,0.2c-0.3,0-0.3-0.5-0.3-0.7c-0.1-0.8,0.1-1.6,0.1-2.4c0-0.3-0.1-0.7-0.1-1
			c0-0.1,0-0.2,0-0.3c-0.4-2.7-1-5.5-1-8.2c0-0.5,0-1.1-0.1-1.6C68.7,170.1,68.6,169.9,68.5,169.7L68.5,169.7z"/>
		<path class="st17" d="M133.4,71.9c-0.6,1.8-1.1,5-1.4,6.8c-0.1,0.4-0.5,1.4-0.4,1.8c0,0.1,0.3,0.2,0.4,0.2
			c0.3,0.2,0.6,0.4,0.9,0.6c0.9,0.8,1.5,1.8,2,2.9c0.5,1,0.8,2.1,1.3,3.2c0.1,0.2,0.3,0.9,0.6,0.8c0.3-0.1,0.3-0.6,0.4-0.8
			c0.1-0.9-0.1-1.8-0.3-2.7c-0.7-3.7-0.9-6.9-1.6-10.6L133.4,71.9L133.4,71.9z"/>
	</g>
</g>
</svg>
